<?xml version="1.0" encoding="UTF-8"?>
<svg id="svg2" xmlns="http://www.w3.org/2000/svg" viewBox="0 0 606.3 99.72">
  <defs>
    <style>
      .cls-1 {
        fill: #797979;
      }

      .cls-1, .cls-2, .cls-3, .cls-4, .cls-5 {
        stroke-width: 0px;
      }

      .cls-2 {
        fill: #1e1e1e;
      }

      .cls-3 {
        fill: #8a8a8a;
      }

      .cls-4 {
        fill: #a1a1a1;
      }

      .cls-5 {
        fill: #747474;
      }
    </style>
  </defs>
  <g id="g10">
    <g id="g12">
      <path id="path14" class="cls-5" d="m0,7.85h23.07v29.24h.23c3.96-4.66,9.09-8.04,18.87-8.04,10.83,0,20.74,6.64,20.74,20.5v41.47h-23.07v-31.69c0-6.99-.82-11.88-7.57-11.88-3.96,0-9.2,1.98-9.2,11.65v31.92H0V7.85"/>
      <path id="path16" class="cls-1" d="m73,7.85h23.07v29.24h.23c3.96-4.66,9.09-8.04,18.87-8.04,10.83,0,20.74,6.64,20.74,20.5v41.47h-23.07v-31.69c0-6.99-.82-11.88-7.57-11.88-3.96,0-9.2,1.98-9.2,11.65v31.92h-23.07V7.85"/>
      <path id="path18" class="cls-3" d="m145.95,30.57h22.25v8.04h.23c4.66-6.99,11.42-9.55,19.81-9.55,6.52,0,13.51,3.38,16.31,9.44.93-.7,5.59-9.44,20.62-9.44s20.74,10.72,20.74,20.5v41.47h-23.07v-32.74c0-5.71-.58-10.84-7.57-10.84-5.82,0-7.81,4.54-7.81,10.84v32.74h-23.07v-32.74c0-5.71-.58-10.84-7.57-10.84-5.83,0-7.81,4.54-7.81,10.84v32.74h-23.07V30.57"/>
      <path id="path20" class="cls-4" d="m255.73,91.03h23.07V30.57h-23.07v60.46Z"/>
      <path id="path22" class="cls-4" d="m279.4,23.16c.34-1.14.53-2.35.53-3.6,0-6.99-5.67-12.67-12.67-12.67s-12.67,5.67-12.67,12.67c0,1.25.19,2.46.53,3.6h24.27"/>
      <path id="path24" class="cls-2" d="m300.92,99.72h1.89V0h-1.89v99.72Z"/>
      <path id="path26" class="cls-2" d="m325.05,23.02h3.77v12.17h14.91v-12.17h3.77v28.31h-3.77v-12.97h-14.91v12.97h-3.77v-28.31"/>
      <path id="path28" class="cls-2" d="m361.66,48.83c3.53,0,6.38-2.78,6.38-7.73s-2.86-7.77-6.38-7.77-6.38,2.78-6.38,7.77,2.85,7.73,6.38,7.73Zm0-18.48c6.5,0,9.95,4.72,9.95,10.75s-3.45,10.71-9.95,10.71-9.95-4.72-9.95-10.71,3.45-10.75,9.95-10.75"/>
      <path id="path30" class="cls-2" d="m394.85,51.33h-3.57l-4.16-16.3h-.08l-4.12,16.3h-3.65l-6.58-20.5h3.73l4.64,16.77h.08l4.12-16.77h3.69l4.28,16.77h.08l4.6-16.77h3.49l-6.54,20.5"/>
      <path id="path32" class="cls-2" d="m416.35,40.74c-1.31.95-3.85.99-6.11,1.39-2.22.4-4.12,1.19-4.12,3.69,0,2.22,1.9,3.01,3.97,3.01,4.44,0,6.26-2.78,6.26-4.64v-3.45Zm5.47,10.51c-.6.36-1.35.56-2.42.56-1.74,0-2.85-.95-2.85-3.17-1.87,2.18-4.36,3.17-7.22,3.17-3.73,0-6.78-1.67-6.78-5.75,0-4.64,3.45-5.63,6.94-6.3,3.73-.71,6.9-.48,6.9-3.01,0-2.93-2.42-3.41-4.56-3.41-2.86,0-4.96.87-5.12,3.89h-3.37c.2-5.08,4.12-6.86,8.68-6.86,3.69,0,7.69.83,7.69,5.63v10.55c0,1.59,0,2.3,1.07,2.3.28,0,.6-.04,1.03-.2v2.62"/>
      <path id="path34" class="cls-2" d="m424.72,30.83h3.17v4.32h.08c1.63-3.29,3.89-4.92,7.53-4.8v3.57c-5.43,0-7.42,3.09-7.42,8.29v9.12h-3.37v-20.5"/>
      <path id="path36" class="cls-2" d="m446.48,48.83c4.52,0,6.27-3.89,6.27-7.73,0-4.04-1.82-7.77-6.46-7.77s-6.15,3.93-6.15,7.93,1.98,7.57,6.34,7.57Zm9.52,2.5h-3.37v-2.78h-.08c-1.11,2.26-3.73,3.25-6.54,3.25-6.31,0-9.44-5-9.44-10.79s3.09-10.67,9.36-10.67c2.1,0,5.11.79,6.62,3.21h.08v-10.55h3.37v28.31"/>
      <path id="path38" class="cls-2" d="m472.77,23.02h3.77v12.17h14.91v-12.17h3.77v28.31h-3.77v-12.97h-14.91v12.97h-3.77v-28.31"/>
      <path id="path40" class="cls-2" d="m517.42,51.33h-3.17v-3.25h-.08c-1.43,2.54-3.73,3.73-6.66,3.73-5.39,0-7.06-3.09-7.06-7.49v-13.48h3.37v13.88c0,2.5,1.59,4.12,4.16,4.12,4.08,0,6.07-2.74,6.07-6.42v-11.58h3.37v20.5"/>
      <path id="path42" class="cls-2" d="m536.59,40.67c0-3.61-1.59-7.34-5.83-7.34s-6.07,3.53-6.07,7.45c0,3.69,1.35,7.81,5.79,7.81s6.11-4.08,6.11-7.93Zm3.33,8.92c0,6.66-3.05,10.07-9.52,10.07-3.85,0-8.29-1.55-8.49-6.03h3.37c.16,2.46,3.09,3.33,5.31,3.33,4.4,0,6.15-3.17,6.15-7.77v-1.35h-.08c-1.11,2.5-3.81,3.73-6.39,3.73-6.11,0-9.16-4.8-9.16-10.39,0-4.84,2.38-10.83,9.48-10.83,2.58,0,4.88,1.15,6.11,3.41h.04v-2.93h3.17v18.76"/>
      <path id="path44" class="cls-2" d="m544.63,23.02h3.37v10.82h.08c1.11-2.46,4-3.49,6.46-3.49,5.39,0,7.06,3.09,7.06,7.49v13.48h-3.37v-13.88c0-2.5-1.59-4.12-4.16-4.12-4.08,0-6.07,2.74-6.07,6.42v11.58h-3.37v-28.31"/>
      <path id="path46" class="cls-2" d="m580.53,39.12c-.16-3.21-2.58-5.79-5.91-5.79-3.53,0-5.63,2.66-5.87,5.79h11.78Zm3.25,5.71c-.91,4.52-4.16,6.98-8.77,6.98-6.54,0-9.63-4.52-9.83-10.79,0-6.15,4.05-10.67,9.64-10.67,7.26,0,9.48,6.78,9.28,11.74h-15.35c-.12,3.57,1.9,6.74,6.38,6.74,2.78,0,4.72-1.35,5.31-4.01h3.33"/>
      <path id="path48" class="cls-2" d="m589.63,44.87c.12,3.01,2.74,3.97,5.51,3.97,2.1,0,4.96-.48,4.96-3.05s-3.33-3.05-6.7-3.81c-3.33-.75-6.7-1.86-6.7-5.79,0-4.12,4.09-5.83,7.65-5.83,4.52,0,8.13,1.43,8.41,6.42h-3.37c-.24-2.62-2.54-3.45-4.76-3.45-2.02,0-4.36.55-4.36,2.62,0,2.42,3.57,2.82,6.7,3.57,3.37.75,6.7,1.86,6.7,5.83,0,4.88-4.56,6.46-8.72,6.46-4.6,0-8.49-1.86-8.69-6.94h3.37"/>
      <path id="path50" class="cls-2" d="m325.13,62.67h5.16l8.92,23.79,8.96-23.79h5.15v28.31h-3.57v-23.55h-.08l-8.84,23.55h-3.21l-8.84-23.55h-.08v23.55h-3.57v-28.31"/>
      <path id="path52" class="cls-2" d="m371.75,78.77c-.16-3.21-2.58-5.79-5.91-5.79-3.53,0-5.63,2.66-5.87,5.79h11.78Zm3.25,5.71c-.91,4.52-4.16,6.98-8.76,6.98-6.54,0-9.63-4.52-9.83-10.79,0-6.15,4.05-10.67,9.64-10.67,7.26,0,9.48,6.78,9.28,11.74h-15.35c-.12,3.57,1.9,6.74,6.38,6.74,2.78,0,4.72-1.35,5.31-4.01h3.33"/>
      <path id="path54" class="cls-2" d="m387.64,88.49c4.52,0,6.27-3.89,6.27-7.73,0-4.04-1.82-7.77-6.46-7.77s-6.15,3.92-6.15,7.93,1.98,7.57,6.34,7.57Zm9.52,2.5h-3.37v-2.78h-.08c-1.11,2.26-3.73,3.25-6.54,3.25-6.31,0-9.44-5-9.44-10.79s3.09-10.67,9.36-10.67c2.1,0,5.11.79,6.62,3.21h.08v-10.55h3.37v28.31"/>
      <path id="path56" class="cls-2" d="m401.71,70.48h3.37v20.5h-3.37v-20.5Zm3.37-3.69h-3.37v-4.12h3.37v4.12"/>
      <path id="path58" class="cls-2" d="m423.89,77.07c-.52-2.58-2.3-4.08-5.08-4.08-4.88,0-6.38,3.85-6.38,8.01,0,3.77,1.71,7.49,5.99,7.49,3.25,0,5.19-1.9,5.63-5h3.45c-.75,5-3.89,7.97-9.04,7.97-6.26,0-9.59-4.36-9.59-10.47s3.17-10.98,9.67-10.98c4.64,0,8.37,2.18,8.84,7.06h-3.49"/>
      <path id="path60" class="cls-2" d="m443.79,80.4c-1.31.95-3.85.99-6.11,1.39-2.22.4-4.12,1.19-4.12,3.69,0,2.22,1.9,3.01,3.97,3.01,4.44,0,6.26-2.78,6.26-4.64v-3.45Zm5.47,10.51c-.59.36-1.35.56-2.42.56-1.75,0-2.85-.95-2.85-3.17-1.87,2.18-4.36,3.17-7.22,3.17-3.73,0-6.78-1.67-6.78-5.75,0-4.64,3.45-5.63,6.94-6.3,3.73-.71,6.9-.48,6.9-3.01,0-2.93-2.42-3.41-4.56-3.41-2.86,0-4.96.87-5.12,3.89h-3.37c.2-5.08,4.12-6.86,8.68-6.86,3.69,0,7.69.83,7.69,5.63v10.55c0,1.59,0,2.3,1.07,2.3.28,0,.59-.04,1.03-.2v2.62"/>
      <path id="path62" class="cls-2" d="m452.37,90.98h3.37v-28.31h-3.37v28.31Z"/>
      <path id="path64" class="cls-2" d="m472.71,90.98h3.77v-28.31h-3.77v28.31Z"/>
      <path id="path66" class="cls-2" d="m481.76,70.48h3.17v3.25h.08c1.43-2.54,3.73-3.73,6.66-3.73,5.39,0,7.06,3.09,7.06,7.49v13.48h-3.37v-13.88c0-2.5-1.59-4.12-4.16-4.12-4.08,0-6.07,2.74-6.07,6.42v11.58h-3.37v-20.5"/>
      <path id="path68" class="cls-2" d="m505.59,84.52c.12,3.01,2.74,3.97,5.51,3.97,2.1,0,4.96-.48,4.96-3.05s-3.33-3.05-6.7-3.81c-3.33-.75-6.7-1.86-6.7-5.79,0-4.12,4.08-5.83,7.65-5.83,4.52,0,8.13,1.43,8.41,6.42h-3.37c-.24-2.62-2.54-3.45-4.76-3.45-2.02,0-4.36.55-4.36,2.62,0,2.42,3.57,2.82,6.7,3.57,3.37.75,6.7,1.86,6.7,5.83,0,4.88-4.56,6.46-8.72,6.46-4.6,0-8.49-1.86-8.68-6.94h3.37"/>
      <path id="path70" class="cls-2" d="m527.78,70.48h4.08v2.97h-4.08v12.73c0,1.55.44,1.82,2.54,1.82h1.55v2.97h-2.58c-3.49,0-4.88-.71-4.88-4.48v-13.05h-3.49v-2.97h3.49v-6.15h3.37v6.15"/>
      <path id="path72" class="cls-2" d="m535.16,70.48h3.37v20.5h-3.37v-20.5Zm3.37-3.69h-3.37v-4.12h3.37v4.12"/>
      <path id="path74" class="cls-2" d="m548.09,70.48h4.08v2.97h-4.08v12.73c0,1.55.44,1.82,2.54,1.82h1.55v2.97h-2.58c-3.49,0-4.88-.71-4.88-4.48v-13.05h-3.49v-2.97h3.49v-6.15h3.37v6.15"/>
      <path id="path76" class="cls-2" d="m572.2,90.98h-3.17v-3.25h-.08c-1.43,2.54-3.73,3.73-6.66,3.73-5.39,0-7.06-3.09-7.06-7.49v-13.48h3.37v13.88c0,2.5,1.59,4.12,4.16,4.12,4.09,0,6.07-2.74,6.07-6.42v-11.58h3.37v20.5"/>
      <path id="path78" class="cls-2" d="m581.72,70.48h4.08v2.97h-4.08v12.73c0,1.55.44,1.82,2.54,1.82h1.55v2.97h-2.58c-3.49,0-4.88-.71-4.88-4.48v-13.05h-3.49v-2.97h3.49v-6.15h3.37v6.15"/>
      <path id="path80" class="cls-2" d="m602.72,78.77c-.16-3.21-2.58-5.79-5.91-5.79-3.53,0-5.63,2.66-5.87,5.79h11.78Zm3.25,5.71c-.91,4.52-4.16,6.98-8.76,6.98-6.54,0-9.64-4.52-9.83-10.79,0-6.15,4.04-10.67,9.64-10.67,7.26,0,9.48,6.78,9.28,11.74h-15.35c-.12,3.57,1.9,6.74,6.38,6.74,2.78,0,4.72-1.35,5.31-4.01h3.33"/>
    </g>
  </g>
</svg>