<?xml version="1.0" encoding="UTF-8"?>
<svg id="Layer_1" data-name="Layer 1" xmlns="http://www.w3.org/2000/svg" viewBox="0 0 355.38 310.33">
  <defs>
    <style>
      .cls-1 {
        fill: none;
      }

      .cls-1, .cls-2, .cls-3, .cls-4 {
        stroke-width: 0px;
      }

      .cls-2 {
        fill: #202020;
      }

      .cls-3 {
        fill: #c6c6c6;
      }

      .cls-4 {
        fill: #737373;
      }
    </style>
  </defs>
  <g>
    <path class="cls-2" d="m162.45,244.29c-1.44.38-3.86.99-5.64,1.33v.76c2.61.23,2.68.19,2.68,2.5v18.87c0,2.12-.19,2.31-2.57,2.53v.87h8.02v-.87c-2.31-.23-2.49-.42-2.49-2.53v-9.64c.94-1.1,2.34-1.66,3.9-1.74,2.76,0,3.74,1.78,3.74,4.5v6.88c0,2.12-.19,2.31-2.57,2.53v.87h8.02v-.91c-2.3-.19-2.5-.38-2.5-2.5v-8.02c0-3.37-1.97-5.52-5.22-5.45-2.04.07-4.08,1.29-5.37,2.64v-12.63Zm-22.72,1.05c-1.06,0-1.97.91-1.97,2.08s.91,2.04,1.97,2.04,1.96-.9,1.97-2.03c0-1.17-.87-2.07-1.97-2.09Zm95.39,0c-1.06,0-1.97.91-1.97,2.08s.91,2.04,1.97,2.04,1.96-.9,1.96-2.03c0-1.17-.86-2.07-1.96-2.09Zm-139.44.66c-4.95,0-7.79,3.21-7.79,6.96,0,4.53,5.1,6.32,6.35,6.92,2.42,1.17,4.88,2.49,4.88,5.71,0,2.95-1.82,4.88-4.69,4.88-4.01,0-5.94-4.2-6.54-5.97l-.95.15c.38,2.04.79,4.73,1.1,5.71.45.19,1.14.49,2.08.8.95.3,2.23.57,3.59.57,4.8,0,8.4-3.21,8.4-7.6,0-4.69-3.97-6.24-6.47-7.33-2.87-1.29-4.88-2.54-4.88-5.34,0-2.23,1.4-4.19,4.09-4.19,3.44,0,4.5,2.65,5.14,4.88l.94-.11c-.3-2.27-.53-3.78-.68-5.1-.42-.07-.94-.27-1.44-.42-.8-.27-2.08-.49-3.14-.49h0Zm54.71,3.85l-2.46,2.49v2.38h-1.82l-1.1,1.06.15.38h2.76v10.85c0,3.03,1.32,4.58,3.74,4.58.26,0,.76-.11,1.13-.3l3.1-1.55-.38-.83c-.72.42-1.55.72-2.23.72-1.02,0-2.42-.53-2.42-3.48h0v-9.98h4.12c.46-.41.57-1.02.26-1.43h-4.39v-4.88h-.49Zm-40.34,4.35c-1.93.68-3.78,1.14-5.52,1.52v.68c2.5.3,2.57.34,2.57,2.61h0v8.74c0,2.12-.19,2.3-2.8,2.53v.87h8.21v-.87c-2.27-.23-2.46-.41-2.46-2.53v-9.57c1.21-.98,2.73-1.78,4.24-1.78,2.61,0,3.4,1.74,3.4,3.93v7.41c0,2.12-.19,2.3-2.64,2.53v.87h8.01v-.87c-2.23-.23-2.42-.41-2.42-2.53v-8.47c0-.34-.04-.64-.08-1.06,1.4-1.21,2.87-1.82,4.2-1.82,2.8,0,3.51,1.89,3.51,4.08v7.26c0,2.12-.19,2.3-2.68,2.53v.87h8.02v-.87c-2.19-.23-2.38-.41-2.38-2.53v-8.43c0-2.99-1.7-5.03-4.76-5.03-1.25,0-2.2.42-3.33,1.06-.6.34-1.78,1.1-2.83,1.89-.68-1.85-2.38-2.95-4.27-2.95-1.32,0-2.27.41-3.4,1.1-1.06.64-1.85,1.17-2.57,1.66v-2.84h0Zm31.15,0c-1.93.68-3.78,1.13-5.52,1.51v.68c2.5.3,2.57.34,2.57,2.61v8.73c0,2.12-.19,2.31-2.68,2.53v.87h8.35v-.87c-2.53-.23-2.72-.42-2.72-2.53v-13.54Zm74.77,0c-1.93.68-3.78,1.14-5.52,1.51v.68c2.49.3,2.57.34,2.57,2.61v8.73c0,2.12-.19,2.31-2.79,2.53v.87h8.15v-.87c-2.23-.23-2.42-.42-2.42-2.53v-9.57c1.13-.98,2.65-1.78,4.12-1.78,2.8,0,3.52,1.89,3.52,4.08v7.26c0,2.12-.19,2.31-2.68,2.53v.87h8.02v-.87c-2.19-.23-2.38-.42-2.38-2.53v-8.43c0-2.99-1.7-5.03-4.81-5.03-1.17,0-2.12.41-3.25,1.1-.98.61-1.81,1.13-2.53,1.66v-.02s.01-2.81.01-2.81Zm20.63,0c-1.93.68-3.78,1.13-5.52,1.51v.68c2.49.3,2.57.34,2.57,2.61v8.73c0,2.12-.19,2.31-2.68,2.53v.87h8.36v-.87c-2.53-.23-2.72-.42-2.72-2.53h0v-13.54Zm26.54,0c-1.93.68-3.78,1.14-5.52,1.51v.68c2.49.3,2.57.34,2.57,2.61v8.73c0,2.12-.19,2.31-2.8,2.53v.87h8.17v-.87c-2.23-.23-2.42-.42-2.42-2.53v-9.57c1.14-.98,2.65-1.78,4.12-1.78,2.8,0,3.52,1.89,3.52,4.08v7.26c0,2.12-.19,2.31-2.68,2.53v.87h8.02v-.87c-2.19-.23-2.38-.42-2.38-2.53v-8.43c0-2.99-1.7-5.03-4.81-5.03-1.17,0-2.11.41-3.25,1.1-.98.61-1.82,1.13-2.54,1.66v-2.83Zm-79.21.07c-3.29,0-5.64,2.23-5.64,4.95,0,2.5,2.08,3.78,4.54,4.88,2.08.91,2.95,2,2.95,3.56,0,1.85-1.32,2.8-2.68,2.8-2.23,0-3.93-2.42-4.54-4.61v.03l-.87.2c0,1.47.23,3.55.45,4.12.72.6,2.46,1.4,4.39,1.4,2.87,0,6.09-1.7,6.09-5.18,0-2.53-1.81-4.01-4.57-5.14-1.66-.68-3.29-1.74-3.29-3.29,0-1.25.79-2.57,2.49-2.57,1.44,0,2.65.87,3.78,3.37l.91-.23c-.07-.64-.46-2.76-.84-3.63-.75-.34-1.82-.64-3.17-.64h0Zm15.58,0c-3.44,0-8.35,2.76-8.36,9.11,0,3.93,3.06,8.21,8.39,8.21,3.82,0,8.21-3.02,8.21-8.92,0-4.73-3.44-8.39-8.24-8.39Zm49.15,0c-2.68.49-4.91,1.93-5.82,2.61-.83.6-1.29,1.14-1.29,1.63,0,.68,1.02,1.29,1.63,1.29.42,0,.76-.26.87-.72.42-1.59,1.21-3.18,3.06-3.18,2.01,0,3.1,1.25,3.1,3.59v1.29c-1.13.79-4.23,1.89-6.08,2.65-1.97.79-2.88,2.08-2.88,3.82,0,2.08,1.78,4.35,4.54,4.35.79,0,2.84-1.44,4.42-2.46.23.95.79,2.23,2.08,2.46l.02-.02,3.8-1.83-.34-.83c-.68.34-1.32.49-1.63.49-.57,0-1.06-.64-1.06-2.04v-8.51c0-1.36-.19-2.69-1.44-3.67-.76-.57-1.93-.91-2.99-.91h0Zm-49.6,1.14c3.44,0,5.25,3.9,5.25,8.09,0,5.1-2,6.95-4.35,6.95-3.29,0-5.37-3.67-5.37-8.47,0-3.97,1.93-6.58,4.46-6.58Zm51.18,6.56v6.05c-1.02.79-2.42,1.47-3.29,1.47-1.14,0-2.49-.94-2.49-2.95,0-1.36.64-2.12,1.97-2.84.71-.38,2.99-1.4,3.82-1.74h0Z"/>
    <path class="cls-4" d="m219.84,231c51.01-21.14,75.24-79.62,54.11-130.63-21.12-51.02-79.61-75.23-130.62-54.11-51.01,21.13-75.23,79.62-54.1,130.63,21.13,51.01,79.61,75.23,130.62,54.11"/>
    <path class="cls-3" d="m251.24,162.02c-7.48-12.85-19.3-13-20.75-12.96v-.05l49.84-10.38-49.84-10.38v-.02c.52-.47,10.2-9.02,24.73-9.24,10.98-.16,20.46-13.58,14.41-23.89,0,0-1.79,16.21-22.26,10.8-14.38-3.8-22.85,4.46-23.85,5.51,0,0,0-.02-.02-.02l27.91-42.59-42.59,27.9s-.01,0-.02,0c.03-.63.81-13.57,10.97-24.03,7.64-7.87,4.86-24.07-6.71-27.07,0,0,10.18,12.72-8.11,23.37-12.85,7.48-12.99,19.3-12.96,20.75h-.03l-10.38-49.84-10.38,49.83s0,0-.02,0c-.41-.45-9.02-10.16-9.25-24.74-.16-10.97-13.58-20.46-23.89-14.4,0,0,16.2,1.79,10.8,22.25-3.81,14.42,4.5,22.89,5.52,23.85,0,0,0,0-.02,0l-42.58-27.9,22.73,34.71,5.16,7.88s0,0,0,.01c-.41-.02-13.49-.73-24.03-10.97-7.87-7.63-24.07-4.85-27.08,6.72,0,0,12.73-10.18,23.38,8.1,7.51,12.89,19.36,12.99,20.77,12.96,0,0-.02.02-.02.03l-49.83,10.38,49.83,10.38h0c-.33.31-10.06,9.04-24.74,9.26-10.97.16-20.46,13.58-14.41,23.89,0,0,1.81-16.21,22.26-10.81,14.44,3.82,22.9-4.53,23.85-5.52,0,0,.02.02.03.03l-27.91,42.58,42.58-27.9c-.02.44-.73,13.5-10.96,24.04-7.64,7.86-4.86,24.06,6.7,27.07,0,0-10.17-12.72,8.11-23.37,12.89-7.5,13-19.36,12.96-20.77.02,0,.03,0,.04.01l10.38,49.83,10.38-49.83h0c.37.41,9.03,10.13,9.25,24.74.16,10.97,13.58,20.46,23.89,14.4,0,0-16.21-1.79-10.8-22.26,3.8-14.41-4.5-22.87-5.52-23.85.02,0,.03-.02.04-.02l42.58,27.9-14.73-22.48-13.18-20.11c.58.03,13.56.8,24.03,10.97,7.87,7.63,24.07,4.86,27.08-6.71-.03.03-12.75,10.2-23.4-8.07"/>
  </g>
  <rect class="cls-1" width="355.38" height="310.33"/>
</svg>