<?xml version="1.0" encoding="UTF-8"?><svg id="Layer_2" xmlns="http://www.w3.org/2000/svg" xmlns:xlink="http://www.w3.org/1999/xlink" viewBox="0 0 500 196.57"><defs><style>.cls-1{mask:url(#mask);}.cls-2{fill:#007088;}.cls-2,.cls-3,.cls-4{fill-rule:evenodd;stroke-width:0px;}.cls-3{fill:#947c4e;}.cls-4{fill:#fff;}</style><mask id="mask" x="0" y="168.72" width="18.09" height="27.85" maskUnits="userSpaceOnUse"><g id="mask-gae9kn6bn4-2"><polygon id="path-gae9kn6bn4-1" class="cls-4" points="0 168.72 18.09 168.72 18.09 196.57 0 196.57 0 168.72"/></g></mask></defs><g id="Layer_1-2"><g id="logo-berkeley-city-college-full-color"><g id="Logos"><g id="Group-44"><path id="Fill-1" class="cls-2" d="M442.51,49.04c-2.81-5.41-2.12-5.93-6.79-5.69-5.04.27-7.17,0-7.17,0,0,0-2.13-1.06-2.92-1.85-1.97-1.98-53.89.79-98.15,20.49-34.57,15.37-69.7,39.89-69.7,39.89,0,0,24.44-29.92,65.44-49.44,39.05-18.59,84.63-19.97,84.63-19.97l-13-8.5s-31.59.77-75.67,22.57c-32.9,16.26-56.54,39.19-66.09,49.38,6.4-10.87,25.71-36.74,66.94-60.81,28.05-16.39,48.25-19.31,48.25-19.31l-11.22-2.89s-32.39,9.92-63.17,33.32c-19.38,14.74-38.87,36.37-45.22,45.86-6.36-9.5-25.85-31.12-45.24-45.86-30.77-23.4-63.16-33.32-63.16-33.32l-11.22,2.89s20.2,2.92,48.25,19.31c41.24,24.07,60.54,49.94,66.94,60.81-9.54-10.19-33.2-33.13-66.09-49.38-44.09-21.79-75.67-22.57-75.67-22.57l-13,8.5s45.58,1.38,84.62,19.97c41.01,19.53,65.44,49.44,65.44,49.44,0,0-35.12-24.52-69.69-39.89-44.27-19.7-96.19-22.46-98.16-20.49-.79.79-2.92,1.85-2.92,1.85,0,0-2.12.27-7.17,0-4.67-.24-3.98.27-6.79,5.69-2.77,5.36-7.8,12.18-3.01,12.67,25.74,2.61,66.88,3.94,109.62,22.79,46.33,20.44,70.11,44.88,70.11,44.88,0,0,2.23,5.78,2.23,7.61s4.2,3.35,9.57,3.35h10.68c5.36,0,9.57-1.51,9.57-3.35s2.23-7.61,2.23-7.61c0,0,23.79-24.44,70.11-44.88,42.74-18.84,83.88-20.17,109.62-22.79,4.79-.5-.24-7.31-3.02-12.67"/><path id="Fill-3" class="cls-2" d="M226.84,26.19c0,14.84,9.78,26.37,21.82,26.37s21.83-11.53,21.83-26.37S260.88,0,248.66,0s-21.82,11.35-21.82,26.19"/><g id="Group-7"><g class="cls-1"><path id="Fill-5" class="cls-3" d="M9.09,182.99h-4.76v9.3c1.07.3,2.17.45,3.3.45,3.94,0,5.92-1.87,5.95-5.61,0-1.09-.47-2.06-1.4-2.89-.93-.84-1.96-1.25-3.09-1.25M7.94,172.83h-3.61v6.06h3.61c.77,0,1.44-.3,2.01-.89.57-.59.86-1.3.86-2.12s-.28-1.57-.86-2.16c-.57-.59-1.24-.89-2.01-.89M13.4,195.43c-1.58.76-3.46,1.14-5.65,1.14-2.46,0-5.04-.44-7.75-1.32v-26.53h7.93c2,0,3.71.7,5.1,2.1,1.4,1.4,2.1,3.09,2.1,5.06,0,1.64-.56,3.02-1.69,4.15,1.52.64,2.67,1.63,3.46,2.99.79,1.35,1.18,2.83,1.18,4.44s-.41,3.24-1.23,4.7c-.82,1.46-1.98,2.55-3.47,3.28"/></g></g><polygon id="Fill-8" class="cls-3" points="26.68 195.39 26.68 168.72 41.27 168.72 40.27 172.92 31.1 172.92 31.1 180.21 39.49 180.21 39.49 184.4 31.1 184.4 31.1 191.29 40.81 191.29 41.77 195.39 26.68 195.39"/><path id="Fill-10" class="cls-3" d="M58.1,172.73h-3.69v7.57h3.92c.91,0,1.7-.36,2.37-1.07.67-.71,1-1.6,1-2.67s-.34-1.97-1.02-2.71c-.68-.74-1.55-1.12-2.58-1.12h0ZM66.85,196.25c-2.46-1.46-4.01-3.36-4.65-5.7l-.64-2.28c-.34-1.15-.94-2.07-1.8-2.76-.87-.68-1.84-1.02-2.94-1.02h-2.42v10.94h-4.42v-26.71h7.88c2.55,0,4.62.82,6.2,2.46,1.46,1.49,2.19,3.28,2.19,5.38,0,2.58-1.15,4.6-3.46,6.06,1.52,1.19,2.51,2.68,2.96,4.49.45,1.81.74,2.85.87,3.12.43.94,1.2,1.78,2.32,2.51l-2.1,3.51Z"/><polygon id="Fill-12" class="cls-3" points="89.48 195.94 81.32 184.22 81.32 195.43 76.9 195.43 76.9 168.72 81.32 168.72 81.32 178.89 88.25 168.72 93.33 168.72 84.74 181.55 94.02 195.11 89.48 195.94"/><polygon id="Fill-14" class="cls-3" points="101.83 195.39 101.83 168.72 116.42 168.72 115.42 172.92 106.25 172.92 106.25 180.21 114.64 180.21 114.64 184.4 106.25 184.4 106.25 191.29 115.96 191.29 116.92 195.39 101.83 195.39"/><polygon id="Fill-16" class="cls-3" points="125.14 195.39 125.14 168.72 129.56 168.72 129.56 191.19 137.67 191.19 138.67 195.39 125.14 195.39"/><polygon id="Fill-18" class="cls-3" points="146.65 195.39 146.65 168.72 161.23 168.72 160.23 172.92 151.07 172.92 151.07 180.21 159.46 180.21 159.46 184.4 151.07 184.4 151.07 191.29 160.78 191.29 161.74 195.39 146.65 195.39"/><polygon id="Fill-20" class="cls-3" points="181.03 182.81 181.03 195.39 176.7 195.39 176.7 182.94 168.31 168.72 173.08 168.72 178.76 178.73 184.9 168.72 189.6 168.72 181.03 182.81"/><path id="Fill-22" class="cls-3" d="M225.24,195.84c-3.46,0-6.41-1.35-8.84-4.06-2.43-2.7-3.65-5.94-3.65-9.71s1.21-7.01,3.65-9.73c2.43-2.72,5.38-4.08,8.84-4.08s6.26,1.55,8.75,4.65l-2.6,2.87c-1.89-2.22-3.94-3.33-6.15-3.33s-4.08.92-5.59,2.76-2.25,4.13-2.25,6.86.75,4.97,2.25,6.81,3.37,2.76,5.59,2.76,4.5-1.09,6.56-3.28l2.64,3.01c-2.7,2.98-5.77,4.47-9.21,4.47"/><polygon id="Fill-24" class="cls-3" points="241.54 195.39 242.5 191.19 243.6 191.19 243.6 172.92 242.55 172.92 241.59 168.68 250.07 168.68 249.11 172.92 248.02 172.92 248.02 191.19 249.11 191.19 250.07 195.39 241.54 195.39"/><polygon id="Fill-26" class="cls-3" points="274.82 172.92 268.85 172.92 268.85 195.39 264.43 195.39 264.43 172.92 258.46 172.92 257.5 168.72 275.78 168.72 274.82 172.92"/><polygon id="Fill-28" class="cls-3" points="295.35 182.81 295.35 195.39 291.02 195.39 291.02 182.94 282.63 168.72 287.4 168.72 293.09 178.73 299.23 168.72 303.92 168.72 295.35 182.81"/><path id="Fill-30" class="cls-3" d="M339.57,195.84c-3.46,0-6.41-1.35-8.84-4.06-2.43-2.7-3.65-5.94-3.65-9.71s1.21-7.01,3.65-9.73c2.43-2.72,5.38-4.08,8.84-4.08s6.26,1.55,8.75,4.65l-2.6,2.87c-1.89-2.22-3.94-3.33-6.15-3.33s-4.08.92-5.58,2.76-2.26,4.13-2.26,6.86.75,4.97,2.26,6.81,3.36,2.76,5.58,2.76,4.5-1.09,6.56-3.28l2.65,3.01c-2.71,2.98-5.78,4.47-9.21,4.47"/><path id="Fill-32" class="cls-3" d="M367.55,172.51c-2.22,0-4.1.93-5.65,2.78s-2.32,4.13-2.32,6.84.78,4.98,2.32,6.82c1.55,1.84,3.43,2.76,5.65,2.76s4.1-.92,5.65-2.76c1.55-1.84,2.32-4.11,2.32-6.82s-.78-4.98-2.32-6.84c-1.55-1.85-3.44-2.78-5.65-2.78M367.55,195.89c-3.46,0-6.41-1.35-8.84-4.06-2.43-2.71-3.65-5.94-3.65-9.71s1.21-7.01,3.65-9.73c2.43-2.72,5.38-4.08,8.84-4.08s6.37,1.36,8.8,4.08,3.64,5.96,3.64,9.73-1.21,7-3.64,9.71c-2.43,2.7-5.36,4.06-8.8,4.06"/><polygon id="Fill-34" class="cls-3" points="388.76 195.39 388.76 168.72 393.18 168.72 393.18 191.19 401.3 191.19 402.3 195.39 388.76 195.39"/><polygon id="Fill-36" class="cls-3" points="410.27 195.39 410.27 168.72 414.69 168.72 414.69 191.19 422.81 191.19 423.81 195.39 410.27 195.39"/><polygon id="Fill-38" class="cls-3" points="431.78 195.39 431.78 168.72 446.37 168.72 445.37 172.92 436.2 172.92 436.2 180.21 444.59 180.21 444.59 184.4 436.2 184.4 436.2 191.29 445.91 191.29 446.87 195.39 431.78 195.39"/><path id="Fill-40" class="cls-3" d="M466,195.84c-3.46,0-6.41-1.35-8.84-4.06-2.43-2.7-3.65-5.94-3.65-9.71s1.21-7.01,3.65-9.73c2.43-2.72,5.38-4.08,8.84-4.08s6.26,1.55,8.75,4.65l-2.6,2.83c-1.89-2.19-3.94-3.28-6.15-3.28s-4.08.92-5.59,2.76c-1.5,1.84-2.25,4.13-2.25,6.86s.75,4.97,2.25,6.81c1.5,1.84,3.37,2.76,5.59,2.76,1.88,0,3.58-.62,5.1-1.87v-5.52h-5.2l-.91-4.1h10.25v11.15c-2.61,3.02-5.7,4.53-9.25,4.53"/><polygon id="Fill-42" class="cls-3" points="484.91 195.39 484.91 168.72 499.5 168.72 498.5 172.92 489.33 172.92 489.33 180.21 497.72 180.21 497.72 184.4 489.33 184.4 489.33 191.29 499.04 191.29 500 195.39 484.91 195.39"/></g></g></g></g></svg>