<svg width="270" height="37" viewBox="0 0 270 37" xmlns="http://www.w3.org/2000/svg" xmlns:xlink="http://www.w3.org/1999/xlink"><defs><path id="a" d="M.744.01h54.129v26.942H.744z"/></defs><g fill="none" fill-rule="evenodd"><path fill="#FFFFFE" d="M120.641 1h29.717L153 3.633v29.733L150.358 36h-29.62L118 33.27V3.632L120.641 1"/><path stroke="#1A1919" stroke-width=".75" d="M120.641 1h29.717L153 3.633v29.733L150.358 36h-29.62L118 33.27V3.632z"/><path fill="#931430" d="M120.7 2h28.6l1.7 1.696v28.609L149.3 34h-28.6l-1.7-1.695V3.696L120.7 2"/><path fill="#FFFFFE" d="M122 27h27v-2h-27zm.006-3H149v-1.626L132.926 6 122 14.755v2.23l10.827-8.546 13.388 13.732h-24.209V24M138 8.619l1.148 1.142 1.992-1.635L149 16v-2.21L141.26 6 138 8.619"/><path d="M20.08 8.283c-2.07-1.317-4.48-2.146-6.965-2.146-5.196 0-8.81 3.802-8.81 9.261 0 5.534 3.765 10.465 9.563 10.465 2.823 0 5.647-1.017 8.02-2.371H22l-1.92 4.374C18.31 28.7 16.354 29 14.397 29 5.509 29 0 24.018 0 15.963 0 8.17 5.51 3 13.228 3c2.296 0 4.631.416 6.853.945v4.338m4.333-4.681c.854 0 1.745 0 2.265-.602h.112v9.784c1.112-1.6 3.634-2.343 5.45-2.343 5.122 0 6.348 3.086 6.348 6.686v6.753c0 1.708-.223 3.08 1.411 4.008V28h-6.163v-.112c1.632-.927 1.372-2.3 1.372-4.008v-5.64c0-3.006-.964-5.344-4.153-5.344-3.264 0-4.265 1.819-4.265 5.122v5.862c0 1.708-.223 3.08 1.408 4.008V28H22v-.112c1.634-.927 1.411-2.3 1.411-4.008V7.695c0-1.707.223-3.08-1.411-4.008v-.111l2.414.026M57.334 28c-2.499-.148-4.998-.892-4.998-3.859v-5.843c-1.098.554-2.386.85-3.636 1.146-1.819.407-3.864.814-3.864 3.07 0 2.293 2.12 3.033 4.13 3.033.908 0 1.817-.259 2.727-.518l-2.236 2.785c-.643.112-1.326.186-1.97.186C43.658 28 41 25.621 41 22.551c0-6.88 11.336-3.699 11.336-7.73 0-1.776-2.235-2.368-3.636-2.368-1.932 0-3.448.704-5.156 1.48l2.542-3.71L48.548 10c4.091 0 7.196 1.152 7.234 5.635v5.547c0 2.923.075 4.032 3.218 4.365L57.334 28" fill="#1A1919"/><path d="M62.505 22.458c0 1.872-.235 4.434 1.678 5.427V28h-6.715v-.115c1.718-.955 1.484-2.37 1.484-4.09V12.94H57l1.952-2.529V9.49c0-2.154-.078-3.345 1.444-5.036C62.192 2.46 64.77 2 67.346 2L70 2.23l-2.733 2.953c-.663-.423-1.21-.654-1.99-.654-2.304 0-2.772 1.077-2.772 3.345v2.537h4.528l.665-.23h.116v3.37h-.116c-.313-.496-.82-.611-1.446-.611h-3.747v9.518" fill="#1A1919"/><path d="M72.505 22.458c0 1.872-.234 4.434 1.678 5.427V28h-6.715v-.115c1.719-.955 1.485-2.37 1.485-4.09V12.94H67l1.953-2.529V9.49c0-2.154-.078-3.345 1.443-5.036C72.192 2.46 74.77 2 77.346 2L80 2.23l-2.733 2.953c-.663-.423-1.21-.654-1.99-.654-2.303 0-2.772 1.077-2.772 3.345v2.537h4.529l.664-.23h.117v3.37h-.117c-.314-.496-.821-.611-1.446-.611h-3.747v9.518" fill="#1A1919"/><path d="M93.995 18.392c.153-4.766-3.37-8.392-8.522-8.392C79.83 10 76 13.736 76 18.874 76 24.028 80.436 28 86.875 28c1.78 0 3.599-.26 5.227-.93l1.893-3.487h-.113c-1.742 1.333-3.94 1.964-6.21 1.964-4.281 0-7.5-2.633-7.577-7.155h13.9zm-13.748-2.164c.454-2.309 2.348-3.775 4.886-3.775 2.727 0 4.47 1.21 4.885 3.775h-9.771z" fill="#1A1919"/><path d="M107.992 15.411c.577-1.47 1.463-3.468-.386-4.297V11H113l-8.014 18.699c-2.081 4.865-4.779 6.301-8.4 6.301-1.658 0-3.082-.378-4.586-.945l3.469-2.454c.654.415 1.348.905 2.157.905 2.698 0 3.853-2.827 4.663-4.9l.231-.603-.155-.189c-1.271-1.244-1.271-1.433-2.004-3.016l-4.7-10.028c-.77-1.659-1.233-2.978-3.083-3.656V11h3.276c1.426 0 2.158.566 2.582 1.508l5.664 12.479 3.892-9.576m71.088-7.128c-2.07-1.317-4.48-2.146-6.965-2.146-5.195 0-8.81 3.802-8.81 9.261 0 5.534 3.765 10.465 9.563 10.465 2.823 0 5.647-1.017 8.02-2.371H181l-1.92 4.374c-1.77.833-3.727 1.134-5.684 1.134C164.51 29 159 24.018 159 15.963 159 8.17 164.51 3 172.228 3c2.297 0 4.631.416 6.853.945v4.338M190.352 28c5.21 0 9.648-3.859 9.648-9.185 0-2.515-1.147-4.955-3.033-6.622-1.775-1.561-3.807-2.193-6.172-2.193-5.32 0-9.795 3.6-9.795 9.148C181 24.4 185.29 28 190.352 28zm.184-2.453c-3.768 0-5.8-3.662-5.8-7.065 0-3.328 2.216-6.03 5.653-6.03 3.954 0 5.875 3.552 5.875 7.14 0 3.329-2.327 5.955-5.728 5.955zm12.681-21.944c.837 0 1.783.038 2.328-.603h.109v20.877c0 1.709-.255 3.084 1.346 4.012V28h-6v-.11c1.564-.93 1.345-2.304 1.345-4.013V7.682c0-1.709.219-3.083-1.345-4.012v-.11l2.217.044m8.001-.001c.836 0 1.782.038 2.327-.603h.11v20.877c0 1.709-.255 3.084 1.345 4.012V28h-6v-.11c1.564-.93 1.345-2.304 1.345-4.013V7.682c0-1.709.219-3.083-1.345-4.012v-.11l2.218.044" fill="#1A1919"/><g transform="translate(215 10)"><mask id="b" fill="#fff"><use xlink:href="#a"/></mask><path d="M18.664 8.636C18.814 3.737 15.306.01 10.177.01 4.557.01.744 3.85.744 9.132c0 5.297 4.417 9.38 10.829 9.38 1.772 0 3.583-.266 5.204-.955l1.887-3.585h-.114c-1.735 1.37-3.922 2.02-6.185 2.02-4.262 0-7.468-2.707-7.542-7.356h13.84zM4.973 6.412C5.425 4.038 7.31 2.53 9.838 2.53c2.715 0 4.45 1.243 4.865 3.88h-9.73z" fill="#1A1919" mask="url(#b)"/><path d="M27.437.01c-3.882 0-8.117 2.063-8.117 6.472 0 2.849 2.27 5.326 4.988 5.86-.79.383-2.982.917-2.982 2.024 0 1.373 1.096 2.747 2.757 2.71l2.6-.077c2.299 0 7.698.19 7.698 3.549 0 3.205-4.193 3.93-6.68 3.93-2.45 0-6.224-.572-6.224-3.778 0-.992.49-1.525 1.437-1.717a4.72 4.72 0 0 0-2.156-.496c-1.928 0-3.625.954-3.625 3.09 0 3.246 4.911 5.423 10.454 5.423 5.886 0 10.607-2.407 10.607-6.719 0-3.778-3.473-5.572-10.003-5.572-.49 0-2.262.115-2.262-.725 0-.648 1.018-.991 1.546-1.03 3.429-.305 8.04-1.643 8.04-5.94 0-1.937-1.096-3.57-2.685-4.598 1.287.191 2.573.495 3.893.495.83 0 .906-.228 1.207-.915L38.798.01h-11.36zm-4.296 5.864c0-2.203 1.772-3.343 3.844-3.343 2.675 0 4.71 1.786 4.71 4.217 0 2.202-1.659 3.684-3.92 3.684-2.45 0-4.634-2.089-4.634-4.558z" fill="#1A1919" mask="url(#b)"/><path d="M54.868 8.636C55.018 3.737 51.511.01 46.382.01c-5.62 0-9.434 3.84-9.434 9.122 0 5.297 4.418 9.38 10.83 9.38 1.772 0 3.583-.266 5.204-.955l1.886-3.585h-.113c-1.735 1.37-3.922 2.02-6.185 2.02-4.262 0-7.467-2.707-7.543-7.356h13.841zm-13.69-2.224c.452-2.374 2.338-3.881 4.865-3.881 2.716 0 4.45 1.243 4.865 3.88h-9.73z" fill="#1A1919" mask="url(#b)"/></g></g></svg>