<svg xmlns="http://www.w3.org/2000/svg" width="217" height="46" fill="none" viewBox="0 0 217 46">
  <path fill="#c8102e" d="M23.921 45.626c-4.91 0-9.095-2.339-9.095-7.465 0-5.124-.057-14.706-.057-16.655s-.724-2.674-1.506-2.674h-1.73v-.947h7.59v.891h-1.73c-.782 0-1.507.334-1.507 2.563v16.377c0 1.17.335 6.518 6.361 6.518 5.58 0 5.58-5.014 5.58-6.128V19l-1.171-.445.223-.78h7.868l.279 1.002s-1.172-.167-1.172.892v17.881c0 1.782-.335 8.077-9.933 8.077"/>
  <path fill="#000" d="M12.517 28.907C6.027 28.907 0 22.214 0 14.27 0 6.325 6.954 0 12.44 0c3.477 0 6.026 2.005 6.026 2.005S20.07.673 20.294.505s.447.223.447 1.17.167 6.351.167 6.351l-.838.111s-1.73-7.074-7.867-7.074c-5.19 0-4.855 6.406-4.966 7.91-.112 1.503 0 6.74 0 9.08s-.168 9.637 6.137 9.637c6.306 0 10.491-6.127 11.774-7.799 1.285-1.671 3.962-6.629 8.427-19.608h.446s8.538 25.123 8.817 25.848c.279.723.111 1.058 1.172 1.058h1.674v.947H35.026v-.947h2.176L31.176 9.753s-6.027 19.154-18.658 19.154"/>
  <path fill="#c8102e" d="m14.802 29.635-.012-2.85 1.096-.068v2.901z"/>
  <path fill="#000" d="M62.282 20.97c-4.917 0-9.935-3.359-9.935-9.845 0-6.485 6.386-11.49 14.192-9.373v4.799s-.494-3.22-2.939-3.274c-2.444-.054-7.857.153-7.857 7.685s5.1 8.066 6.894 8.066c1.793 0 2.998.216 4.414-3.053-.257 2.888-.257 2.652-.308 3.596-.052.947-.567 1.4-4.461 1.4"/>
  <path fill="#000" d="M75.663 20.88h-7.959s1.638-.666 1.638-2.084V6.93c0-1.092-1.582-1.581-1.582-1.581h5.622s-1.31.709-1.31 1.309v12.495s.975.151 2.07.102c1.096-.053 1.864.194 2.35-2.082a80 80 0 0 1 .056 2.991c0 .609-.163.717-.885.717"/>
  <path fill="#000" d="M91.941 20.672c-.49-.103-1.255-.608-1.73-1.52-.476-.91-4.715-14.17-4.715-14.17h-2.28s-3.83 12.249-4.461 13.766-1.723 1.973-1.723 1.973h4.92c-1.365-.876-1.98-1.203-1.676-2.128.303-.927 1.317-4.046 1.317-4.046h4.157s.841 2.301 1.42 4.1c.576 1.798-1.014 2.025-1.014 2.025zm-6.659-7.39h-3.221l1.474-4.99z"/>
  <path fill="#000" d="M101.918 15.925c-.859-1.231-2.13-2.424-2.13-2.424s3.549-.757 3.549-4.511-2.689-4.14-4.183-4.14H91.87v.41c1.792 0 1.569 1.715 1.569 1.715v11.672c0 1.714-1.76 2.085-1.76 2.085h6.353c-1.792-.819-1.868-1.08-1.868-1.824v-5.63h.487v.072s3.36 4.923 4.779 6.563c1.42 1.642 4.446.896 4.669.598-.672-.186-3.324-3.357-4.182-4.586m-4.37-3.615h-1.345V6.08l.037-.015h1.718c.598 0 2.54.65 2.54 2.925 0 2.273-1.607 3.32-2.95 3.32"/>
  <path fill="#000" d="M111.929 20.773h-6.396s1.727-.175 1.727-1.973V6.264c0-.531-.699-1.076-1.451-1.076h5.554s-1.172.353-1.172 1.044v5.392s3.406-3.539 4.103-4.924c.538-1.03-.632-1.545-1.011-1.636-.377-.093 5.331 0 5.331 0s-2.17 1.48-3.687 3.343c-1.515 1.862-2.515 2.93-2.515 2.93s1.882 2.78 3.301 4.445c1.419 1.663 3.699 4.422 5.054 4.868-1.451.187-4.065.554-5.775-1.294-1.709-1.85-4.644-5.729-4.644-5.729h-.158s-.03 4.445-.03 5.329c.001.883.382.914 1.769 1.817"/>
  <path fill="#000" d="M142.518 20.661c-.577-.117-1.471-.713-2.029-1.78-.559-1.068-5.523-16.618-5.523-16.618h-2.674s-4.487 14.362-5.227 16.144c-.74 1.78-2.019 2.314-2.019 2.314h5.766c-1.6-1.029-2.322-1.41-1.965-2.497s1.545-4.745 1.545-4.745h4.869s.988 2.698 1.663 4.809c.678 2.108-1.188 2.373-1.188 2.373zm-7.803-8.665h-3.775l1.727-5.852z"/>
  <path fill="#000" d="M201.689 20.721h-6.274s1.746-.556 1.746-1.923V6.74h-3.166s-.662 1.19-.821 1.716V4.732s.024.15.821.25c.801.104 8.14 0 8.626 0 .488 0 .82-.093 1.146-.354.109.994 0 3.773 0 3.773s-.435-1.444-.763-1.797h-3.166v12.245c-.001.834.483 1.316 1.851 1.872"/>
  <path fill="#000" d="M159.978 20.88h-7.958s1.638-.666 1.638-2.084V6.93c0-1.092-1.583-1.581-1.583-1.581h5.621s-1.307.709-1.307 1.309v12.495s.973.151 2.069.102c1.095-.053 1.863.194 2.35-2.082.055 1.777.055 2.384.055 2.991 0 .609-.163.717-.885.717"/>
  <path fill="#000" d="M175.878 20.672c-.493-.103-1.257-.608-1.733-1.52-.476-.91-4.714-14.17-4.714-14.17h-2.281s-3.829 12.249-4.46 13.766-1.723 1.973-1.723 1.973h4.921c-1.365-.876-1.982-1.203-1.678-2.128.306-.927 1.319-4.046 1.319-4.046h4.157s.842 2.301 1.419 4.1-1.014 2.025-1.014 2.025zm-6.661-7.39h-3.221l1.474-4.99z"/>
  <path fill="#000" d="M181.304 20.721h-6.189s2.149-.822 2.149-2.347V5.034h2.363l9.156 11.134s.162-8.856.162-9.918c0-.627-1.488-1.062-1.854-1.114-.367-.049 5.209 0 5.209 0s-1.52.708-1.52 1.062v14.423h-2.27s-3.562-4.38-4.982-6.176c-1.419-1.793-4.485-5.236-4.485-5.236v9.439c0 .978.382 1.198 2.261 2.073"/>
  <path fill="#000" d="M217 20.672c-.491-.103-1.253-.608-1.729-1.52-.476-.91-4.715-14.17-4.715-14.17h-2.281s-3.829 12.249-4.459 13.766c-.633 1.517-1.726 1.973-1.726 1.973h4.922c-1.366-.876-1.982-1.203-1.676-2.128l1.318-4.046h4.154s.842 2.301 1.419 4.1c.58 1.798-1.013 2.025-1.013 2.025zm-6.658-7.39h-3.222l1.476-4.99z"/>
  <path fill="#000" d="M149.376 20.721h-6.274s1.747-.556 1.747-1.923V6.74h-3.166s-.663 1.19-.823 1.716V4.732s.024.15.823.25c.798.104 8.137 0 8.625 0s.819-.093 1.146-.354c.11.994 0 3.773 0 3.773s-.437-1.444-.765-1.797h-3.166v12.245c0 .834.484 1.316 1.853 1.872"/>
  <path fill="#000" d="M61.3 44.368c-3.385 0-7.083-1.567-7.083-7.018V26.67c0-.49-1.542-1.43-1.87-1.43h6.605s-1.541.512-1.541 1.702v10.08c0 1.31-.041 5.506 4.216 5.506 4.259 0 4.585-3.924 4.585-5.449v-9.917c0-.766-.786-1.803-2.074-1.803h5.677s-1.42.472-1.42 1.417c0 .944-.108 8.013-.108 10.52s-.646 7.072-6.987 7.072"/>
  <path fill="#000" d="M74.405 44.18h-6.187s2.147-.82 2.147-2.347V28.494h2.363l9.156 11.13s.163-8.854.163-9.917c0-.625-1.489-1.062-1.855-1.11-.367-.054 5.209 0 5.209 0s-1.521.707-1.521 1.061V44.08h-2.27s-3.56-4.378-4.979-6.174c-1.42-1.793-4.485-5.237-4.485-5.237v9.435c0 .981.38 1.201 2.26 2.076"/>
  <path fill="#000" d="M92.005 44.238h-5.677s1.42-.457 1.42-1.985V30.43c0-.982-1.205-1.927-1.571-1.927h5.677s-1.42.47-1.42 1.417v12.388c0 .928.354 1.474 1.57 1.931"/>
  <path fill="#000" d="M101.94 43.986h-3.142s-4.665-13.113-5.17-14.016c-.507-.903-1.014-1.518-1.37-1.518-.354 0-.354-.051-.354-.051h5.83s-1.212.3-.735 1.874c.48 1.572 3.986 10.67 3.986 10.67s3.389-10.02 3.642-10.975c.252-.957-.962-1.467-1.268-1.518 2.103 0 4.669-.052 4.669-.052s-1.019.613-1.524 2.03c-.508 1.417-4.564 13.556-4.564 13.556"/>
  <path fill="#000" d="M117.294 44.012h-8.657s1.42-.423 1.42-1.783V30.043c0-.864-1.064-1.558-1.508-1.558h9.063v2.93s-.766-1.838-1.454-1.838h-3.44v5.804h2.883s.665-.757.931-.945v3.687s-.464-1.417-1.153-1.417h-2.616v5.662h3.769s.865-.093 1.187-1.367c-.096 2.315 0 3.01-.425 3.01"/>
  <path fill="#000" d="M128.675 39.13c-.86-1.23-2.129-2.423-2.129-2.423s3.549-.757 3.549-4.511-2.692-4.137-4.184-4.137h-7.284v.408c1.794 0 1.57 1.716 1.57 1.716v11.67c0 1.715-1.759 2.088-1.759 2.088h6.352c-1.791-.821-1.867-1.082-1.867-1.828v-5.629h.486v.075s3.362 4.92 4.781 6.561c1.42 1.64 4.444.896 4.668.598-.673-.187-3.326-3.356-4.183-4.588m-4.312-3.604h-1.345v-6.23l.037-.015h1.719c.597 0 2.539.65 2.539 2.925 0 2.272-1.607 3.32-2.95 3.32"/>
  <path fill="#000" d="M137.321 44.292c-1.521-.052-4.004-.5-4.004-1.11v-3.815s.296 3.102 3.851 3.102c2.89 0 2.465-2.066 2.465-2.066s.171-1.144-2.566-3.296c-2.738-2.153-4.054-3.227-4.054-5.414 0-2.19 2.473-6.113 8.666-3.552v3.552s-1.246-2.885-3.409-2.885c-2.167 0-2.301 1.552-2.301 2.167 0 .981.989 2.084 3.5 4.035 2.675 2.098 2.948 3.674 2.948 4.778s-.786 4.504-5.096 4.504"/>
  <path fill="#000" d="M148.515 43.986h-5.677s1.419-.46 1.419-1.985V30.176c0-.981-1.205-1.928-1.57-1.928h5.677s-1.419.472-1.419 1.417v12.39c0 .928.355 1.47 1.57 1.931"/>
  <path fill="#000" d="M157.53 43.907h-6.274s1.746-.556 1.746-1.923V29.926h-3.166s-.662 1.19-.822 1.714v-3.724s.022.152.822.253 8.138 0 8.624 0c.489 0 .819-.093 1.147-.355.109.993 0 3.772 0 3.772s-.436-1.445-.765-1.798h-3.166v12.247c.001.832.484 1.316 1.854 1.872"/>
  <path fill="#000" d="M170.233 43.986h-6.098s1.625-.555 1.625-1.871v-4.859c0-1.063-.813-2.73-1.318-3.793-.508-1.063-3.094-5.82-4.31-5.82 1.926 0 3.902-.659 5.474 2.025 1.574 2.68 2.18 3.896 2.18 3.896s1.689-3.088 2.069-4.05c.377-.96-.397-1.416-.853-1.517h4.512s-1.469.618-2.128 1.924c-.659 1.303-2.787 5.97-2.787 5.97l-.051 6.83s-.053.407 1.685 1.265"/>
</svg>
