<?xml version="1.0" encoding="UTF-8"?>
<svg id="Layer_1" data-name="Layer 1" xmlns="http://www.w3.org/2000/svg" viewBox="0 0 596 166">
  <defs>
    <style>
      .cls-1 {
        fill: #e51f2e;
      }

      .cls-2 {
        fill: #fff;
      }

      .cls-3 {
        fill: #525150;
      }
    </style>
  </defs>
  <path class="cls-2" d="M511.66,26.84c-30.94,0-56.11,25.17-56.11,56.11s25.17,56.11,56.11,56.11,56.1-25.17,56.1-56.11-25.17-56.11-56.1-56.11Z"/>
  <g>
    <path class="cls-1" d="M511.65,2.62c-44.37,0-80.33,35.96-80.33,80.33s35.97,80.33,80.33,80.33,80.33-35.96,80.33-80.33S556.02,2.62,511.65,2.62ZM511.66,137.65c-30.21,0-54.71-24.49-54.71-54.7s24.49-54.7,54.71-54.7,54.7,24.49,54.7,54.7-24.49,54.7-54.7,54.7Z"/>
    <g>
      <path class="cls-2" d="M442.83,79.32c-2.2.8-2.76,2.24-2.7,4.18.11,3.52,2.78,5.07,5.51,4.98,3.52-.11,5.81-2.27,5.71-5.31-.08-2.28-1.16-3.41-3.24-4.53l.11-.83c1.04.26,2.57.72,3.31,1.06.15.63.62,2.68.67,4.25.2,6.09-2.95,8.62-6.01,8.72-3.75.12-6.76-3.32-6.93-8.71-.07-1.94.27-3.48.36-4.12,1.04-.22,1.87-.34,3.07-.51l.14.82Z"/>
      <path class="cls-2" d="M449.85,70.5c1.36.29,1.79.28,2.05-.15.21-.35.36-.95.5-1.65.18-.87.28-1.92-.07-2.53-.28-.43-.8-.92-1.62-1.46l.3-.78c.7.29,2.51,1.13,2.97,1.44l-2.24,10.66-.6-.13c.27-1.86.18-2.06-1.83-2.48l-6.41-1.35c-2.01-.42-2.18-.27-2.65,1.4l-.6-.13,1.41-6.7.6.12c-.25,1.77-.16,1.97,1.85,2.4l6.33,1.33Z"/>
      <path class="cls-2" d="M452.03,57.01l1.45-3.01-4.25-.22-.03.06,2.83,3.16ZM457.65,55.68l.19-.57c.28-.8.14-1-.77-1-.7,0-1.77-.04-2.56-.04l-1.75,3.64c.38.49,1.01,1.12,1.61,1.74.71.72.92.77,1.46-.13l.3-.49.55.26-2.24,4.65-.55-.26c.47-1.29.52-1.6-.68-3.06l-6.82-8.4.24-1.12,3.85.18c2.46.12,4.93.19,7.04.24,1.96.06,2.2-.23,2.83-1.27l.55.26-2.71,5.64-.55-.27Z"/>
      <path class="cls-2" d="M459.71,42l.43-.51c.6-.72.89-1.28.96-1.93.12-1.06-.35-1.9-1.07-2.5-1.45-1.21-2.98-.44-3.8.55-.69.82-.69.91-.1,1.4l3.58,2.99ZM462.14,44.03c1.58,1.32,1.8,1.26,2.97.04l.47.39-4.26,5.1-.47-.39c1.02-1.41,1.04-1.63-.54-2.95l-5.03-4.2c-1.58-1.32-1.8-1.26-2.94-.07l-.47-.39,3.97-4.75c1.25-1.49,2.17-2.33,3.12-2.73.95-.4,2.02-.28,2.85.42,1.27,1.06,1.29,2.62.58,4.32.61.1,2.16.26,3.27.32,1.27.05,2.24.05,2.81,0,.61-.08.98-.19,1.46-.54l.41.4-.56.61c-1.89,2.05-2.76,2.33-4.18,2.31-1.12-.02-2.38-.23-3.55-.44-.69-.13-1.01.02-1.46.56l-.34.4,1.89,1.57Z"/>
      <path class="cls-2" d="M473.33,33.37c1.16,1.7,1.43,1.67,2.92.74l.35.49-5.38,3.87-.36-.49c1.25-1.04,1.32-1.25.12-2.92l-3.82-5.32c-1.2-1.67-1.43-1.67-2.9-.75l-.36-.49,5.38-3.87.36.49c-1.27,1.05-1.34,1.27-.14,2.94l1.83,2.55c.36-1.34,1.19-5.07,1.34-6.43.11-.94-.01-1.07-.54-.76l-.75.45-.36-.5,4.73-3.4.35.49c-1.08.92-1.37,1.22-1.91,3.01-.52,1.74-.98,3.33-1.31,4.83,2.38.49,4.81.97,7.16,1.32,1.53.21,1.99.19,2.81-.28l.36.5-3.65,2.63c-1.21-.32-5.33-1.16-8.04-1.72l-.06.04,1.86,2.58Z"/>
      <path class="cls-2" d="M489.6,14.28l.18.58c-1.54.59-1.67.78-1.07,2.74l1.15,3.75c.88,2.86,2.47,4.06,4.85,3.33,2.58-.79,3.28-2.78,2.31-5.91l-.37-1.2c-.59-1.91-1.03-2.87-1.29-3.41-.31-.6-.92-.67-2.38-.28l-.18-.58,5.41-1.67.18.58c-1.08.37-1.53.79-1.44,1.46.09.59.26,1.63.85,3.54l.41,1.33c.54,1.75.71,3.47-.18,4.92-.7,1.15-2.12,2.13-3.64,2.6-1.44.44-3,.66-4.3.25-1.4-.43-2.3-1.58-2.96-3.71l-1.26-4.11c-.61-1.96-.82-2.04-2.51-1.63l-.18-.58,6.42-1.98Z"/>
      <path class="cls-2" d="M515.89,23.15l-1.39.05-9.34-8.99h-.05s.13,3.94.13,3.94c.06,2,.24,3.04.35,3.63.14.66.72.89,2.22.9l.02.61-5.66.18-.02-.61c1.14-.08,1.68-.36,1.77-1.03.07-.59.17-1.64.11-3.64l-.12-3.77c-.04-1.22-.05-1.67-.48-2.12-.45-.44-1.02-.56-1.96-.58l-.02-.61,3.97-.13,9.09,8.27h.05s-.11-3.35-.11-3.35c-.07-2-.24-3.04-.35-3.63-.13-.66-.71-.89-2.22-.9l-.02-.61,5.66-.19.02.61c-1.14.07-1.68.36-1.77,1.03-.07.59-.17,1.64-.11,3.64l.24,7.28Z"/>
      <path class="cls-2" d="M524.54,21.56c-.37,2.02-.21,2.19,1.43,2.6l-.11.6-6.61-1.2.11-.6c1.68.19,1.89.09,2.25-1.93l1.17-6.44c.37-2.02.21-2.19-1.43-2.6l.11-.6,6.61,1.2-.11.6c-1.68-.19-1.89-.09-2.26,1.93l-1.17,6.44Z"/>
      <path class="cls-2" d="M532.45,26.99c-.26-3.77-.61-8.94-.73-10.9-.12-1.92-.46-2.18-1.55-2.72l.22-.57,6.14,2.36-.22.57-.75-.21c-.82-.21-.95-.08-.93.76.02,1.15.34,5.29.54,8.16,1.33-1.29,4.49-4.7,5.16-5.4.95-1.02.86-1.28-.07-1.74l-.62-.3.22-.57,5.03,1.93-.22.57c-1.37-.38-1.64-.38-3.2,1.01-.22.2-4.9,4.46-7.89,7.47l-1.13-.43Z"/>
      <path class="cls-2" d="M545.97,22.63c1.11-1.73,1.03-1.94-.29-2.92l.33-.51,8.82,5.66c-.16.29-.81,1.51-1.4,2.63l-.72-.4c.29-.88.37-1.46.22-1.91-.13-.47-.71-.97-1.84-1.7l-.75-.48c-.73-.47-.77-.49-1.13.07l-2.11,3.28,1.4.9c1.65,1.06,1.76,1.02,2.77-.12l.69.45-2.25,3.51-.69-.44c.62-1.39.61-1.51-1.04-2.57l-1.4-.9-1.62,2.52c-.75,1.17-.89,1.55-.59,1.97.24.34.76.67,1.55,1.18.88.57,1.83,1.04,2.5.93.51-.08,1.17-.43,1.97-1l.62.56c-.52.55-1.95,1.94-2.4,2.26l-9.49-6.09.33-.51c1.64.91,1.86.9,2.97-.83l3.54-5.51Z"/>
      <path class="cls-2" d="M557.95,35.97l.46.48c.65.68,1.17,1.03,1.81,1.17,1.04.23,1.92-.14,2.6-.79,1.36-1.31.76-2.92-.13-3.84-.75-.77-.83-.78-1.38-.26l-3.36,3.23ZM555.68,38.17c-1.48,1.43-1.45,1.65-.36,2.95l-.44.42-4.61-4.79.44-.42c1.29,1.17,1.51,1.21,2.99-.22l4.72-4.54c1.48-1.43,1.45-1.65.39-2.91l.44-.42,4.29,4.46c1.35,1.4,2.08,2.41,2.37,3.39.29.99.06,2.04-.72,2.79-1.19,1.15-2.74.99-4.36.11-.16.6-.49,2.12-.68,3.22-.19,1.26-.29,2.22-.3,2.79.02.62.09.99.38,1.51l-.45.36-.54-.62c-1.84-2.1-2.02-3-1.84-4.41.14-1.12.49-2.35.82-3.49.2-.67.09-1.01-.4-1.51l-.36-.38-1.77,1.7Z"/>
      <path class="cls-2" d="M563.74,46.33c-.69.88-1.74,3.06-.55,4.98.79,1.28,2.03,1.51,2.95.94,1.1-.68,1.19-1.73.82-3.53l-.09-.48c-.41-2-.32-3.96,1.22-4.91,1.73-1.07,4.17-.34,5.83,2.36.36.58.68,1.24.88,1.93.11.36.22.69.3.97-.54.44-1.18,1.02-2.03,1.82l-.54-.63c.72-.98,1.51-2.27.49-3.92-.73-1.19-1.87-1.45-2.78-.89-.83.51-.97,1.59-.61,3.3l.16.76c.41,1.9.43,3.86-1.32,4.94-1.91,1.18-4.48.27-6.21-2.53-.45-.72-.77-1.51-.95-2.12-.19-.63-.29-1.08-.35-1.4.33-.41,1.3-1.34,2.14-2.15l.64.57Z"/>
      <path class="cls-2" d="M570.56,61.05c-1.91.76-1.96.98-1.44,2.6l-.56.23-2.5-6.23.57-.23c.73,1.53.93,1.65,2.83.88l6.08-2.43c1.91-.76,1.96-.98,1.44-2.59l.57-.23,2.5,6.23-.56.23c-.74-1.53-.93-1.65-2.84-.88l-6.08,2.44Z"/>
      <path class="cls-2" d="M573.62,72.39c-2.02.39-2.11.6-1.83,2.64l-.6.12-1.41-7.22.6-.12c.49,1.91.65,2.06,2.67,1.67l8.44-1.65-.11-.56c-.35-1.82-.7-2.38-1.08-2.65-.32-.24-.9-.41-1.88-.49l-.16-.81c1.34-.17,2.66-.29,3.62-.43l.08.43c-.35.49-.34.72-.23,1.32l1.76,9.01c.11.58.27.81.71,1.14l.08.43c-.78.18-2.21.57-3.46.93l-.21-.8c.96-.42,1.44-.77,1.67-1.19.25-.42.22-1.18-.04-2.5l-.18-.92-8.44,1.65Z"/>
      <path class="cls-2" d="M574.09,86.03c-2.06-.05-2.19.13-2.36,2.14h-.61s.18-7.28.18-7.28h.61c.07,1.94.2,2.12,2.25,2.17l1.73.04c.51.01.67-.08,1.09-.29,1.12-.59,2.34-1.4,4.54-2.81,1.45-.92,1.47-1.08,1.62-2.24h.61s-.16,6.29-.16,6.29h-.61s-.09-.96-.09-.96c-.06-.57-.19-.62-.81-.27-1.47.85-2.96,1.73-4.37,2.61,1.08.73,2.91,1.81,4.14,2.5.72.41.87.29.97-.53l.1-.86h.61s-.13,5.33-.13,5.33h-.61c-.08-1.43-.24-1.64-1.54-2.63-1.1-.85-2.05-1.65-3.7-2.67-.66-.41-.73-.48-1.53-.5l-1.94-.05Z"/>
      <path class="cls-2" d="M464.82,122.02l-.44.28c-.93-1.22-1.03-1.25-2.51-.22l-4.62,3.23c-1.49,1.04-1.51,1.1-.77,2.45l-.44.28-3.06-4.71.44-.28c.89,1.16.96,1.18,2.47.17l5.1-3.38-.04-.07-9.41,1.02-.36-.56,4.48-7.85-.02-.03-3.48,2.07c-1.21.72-1.95,1.24-2.33,1.58-.46.4-.36.82.26,1.94l-.44.29-2.54-3.91.44-.28c.57.76.9.96,1.47.73.48-.19,1.39-.6,2.69-1.33l2.9-1.6c1.91-1.05,1.98-1.28,1.18-2.71l.44-.29,2.15,3.31-4,7.37,8.23-.85,2.17,3.35Z"/>
      <path class="cls-2" d="M462.81,131.5c-1.11,1.02-1.24,1.41-.28,2.45,1.92,2.08,4.45,2.12,6.47.25,2.59-2.39,1.94-4.71.05-6.75-.39-.42-.72-.7-.84-.74-.13-.04-.4.18-.72.48l-4.68,4.32ZM469.93,127.36c1.53,1.66,2.59,3.41,2.71,5.09.09,1.18-.29,2.56-1.36,3.55-2.96,2.73-6.77,1.19-9.9-2.2l-3.37-3.65.38-.35c1.11,1.06,1.3,1.1,2.6-.1l4.14-3.82c1.3-1.2,1.28-1.39.42-2.47l.38-.36,3.99,4.32Z"/>
      <path class="cls-2" d="M483.43,140.34c.38-1.98-.44-3.03-1.9-3.83-2.65-1.46-4.97-.18-6.11,1.88-1.46,2.65-.88,5.29,1.41,6.55,1.72.95,3.03.64,4.77-.4l.57.44c-.65.65-1.66,1.59-2.24,1.98-.54-.17-2.25-.72-3.44-1.37-4.59-2.53-5.07-5.98-3.8-8.28,1.56-2.82,5.42-3.53,9.48-1.29,1.46.81,2.46,1.73,2.89,2.08-.3.86-.58,1.53-.97,2.49l-.67-.26Z"/>
      <path class="cls-2" d="M495.55,144.93c-.03-2.01-1.03-2.88-2.63-3.38-2.89-.9-4.91.81-5.61,3.06-.91,2.89.19,5.36,2.69,6.14,1.88.59,3.1.03,4.6-1.34l.64.32c-.51.77-1.31,1.89-1.8,2.39-.56-.06-2.35-.26-3.64-.66-5.01-1.57-6.16-4.85-5.37-7.36.96-3.08,4.61-4.54,9.04-3.15,1.6.5,2.75,1.21,3.25,1.46-.12.91-.26,1.62-.46,2.64l-.7-.12Z"/>
      <path class="cls-2" d="M508.77,147.02c-.38-1.98-1.53-2.65-3.18-2.86-3-.38-4.68,1.67-4.98,4.01-.38,3,1.14,5.24,3.73,5.57,1.95.25,3.05-.52,4.29-2.13l.69.2c-.36.85-.95,2.09-1.35,2.67-.56.04-2.36.17-3.7,0-5.2-.66-6.92-3.68-6.59-6.3.4-3.2,3.74-5.29,8.33-4.71,1.66.21,2.92.7,3.45.87.04.91.03,1.64.02,2.68h-.71Z"/>
      <path class="cls-2" d="M515.38,151.93c.07,1.19.17,1.55.59,1.67.34.1.87.08,1.48.04.76-.04,1.66-.2,2.09-.63.29-.33.58-.87.85-1.68l.71.07c-.08.65-.37,2.33-.53,2.79l-9.35.55-.03-.52c1.6-.19,1.75-.32,1.65-2.08l-.33-5.62c-.1-1.76-.27-1.87-1.76-1.88l-.03-.52,5.88-.35.03.52c-1.52.19-1.67.31-1.57,2.08l.33,5.55Z"/>
      <path class="cls-2" d="M529.61,151.81l.52-.18c.71-.26.7-.46.23-.87-.34-.29-.97-.82-2.93-2.43-.58,1.28-1.11,2.87-1.3,3.41-.15.39-.27.86.49.74l.72-.11.13.51-4.79,1.18-.12-.51c1.01-.33,1.46-.53,1.84-1.15.3-.5,1.58-3.01,2.34-4.63l-3.68-2.95c-1.01-.8-1.22-.86-2.53-.66l-.13-.51,5.61-1.39.13.51-.59.21c-.59.21-.63.31-.31.62.18.17,1.5,1.33,2.59,2.14.39-.8.87-1.95,1.23-2.95.19-.52.2-.66-.52-.55l-.66.1-.13-.51,4.56-1.13.13.51c-1.25.43-1.47.53-2.11,1.62-.48.83-1.21,2.09-1.82,3.42l4.39,3.45c1.08.86,1.36.84,2.63.63l.13.51-5.9,1.46-.12-.51Z"/>
      <path class="cls-2" d="M543.04,146.85l.47-.28c.64-.4.59-.59.05-.89-.39-.22-1.12-.61-3.36-1.79-.31,1.36-.51,3.04-.59,3.6-.06.41-.09.9.63.62l.68-.25.22.47-4.45,2.13-.23-.47c.92-.53,1.33-.82,1.57-1.5.2-.55.94-3.26,1.35-5l-4.2-2.15c-1.15-.58-1.37-.6-2.61-.13l-.23-.47,5.21-2.49.23.47-.54.33c-.54.33-.56.43-.18.67.22.13,1.74,1,2.97,1.57.22-.86.46-2.09.61-3.14.09-.55.06-.68-.62-.43l-.63.23-.23-.47,4.23-2.02.23.47c-1.14.67-1.33.82-1.74,2.01-.31.91-.76,2.29-1.1,3.72l5,2.49c1.23.63,1.5.55,2.7.09l.23.47-5.48,2.62-.23-.47Z"/>
      <path class="cls-2" d="M555.19,139.28l.41-.37c.55-.51.46-.7-.13-.89-.42-.13-1.22-.37-3.65-1.08-.03,1.4.11,3.08.15,3.65.02.42.09.9.74.49l.62-.39.32.42-3.93,2.97-.32-.42c.8-.71,1.14-1.07,1.24-1.78.08-.58.27-3.39.32-5.17l-4.55-1.26c-1.24-.34-1.46-.31-2.58.39l-.32-.42,4.6-3.49.32.42-.46.43c-.46.43-.46.53-.04.69.24.09,1.91.63,3.23.94.04-.89.03-2.14-.03-3.2-.03-.56-.07-.68-.69-.3l-.57.35-.32-.42,3.75-2.83.32.42c-.98.89-1.14,1.07-1.3,2.32-.12.95-.29,2.39-.33,3.86l5.4,1.44c1.34.36,1.58.24,2.66-.45l.32.42-4.84,3.66-.31-.42Z"/>
      <path class="cls-2" d="M565.12,130.92c-3.12-.92-7.39-2.19-9.01-2.68-1.59-.48-1.89-.28-2.65.44l-.39-.35,3.74-4.24.39.35-.39.54c-.42.6-.35.74.34.98.93.33,4.37,1.31,6.74,2.01-.64-1.45-2.44-5.03-2.81-5.78-.54-1.08-.78-1.08-1.42-.47l-.43.41-.39-.35,3.07-3.48.39.35c-.72.99-.8,1.21-.14,2.89.09.24,2.13,5.28,3.66,8.6l-.69.78Z"/>
      <path class="cls-2" d="M570.82,118.91c1.49.95,1.67.88,2.53-.3l.44.28-3.09,4.88-.44-.28c.7-1.28.68-1.48-.81-2.42l-4.76-3.02c-1.49-.95-1.67-.88-2.54.3l-.44-.28,3.1-4.88.44.28c-.7,1.28-.68,1.47.81,2.42l4.76,3.02Z"/>
      <path class="cls-2" d="M574.4,112.23c1.59.78,1.76.69,2.49-.57l.47.23-2.54,5.18-.47-.23c.55-1.35.52-1.54-1.07-2.32l-5.06-2.48c-1.59-.78-1.76-.69-2.49.58l-.47-.23,2.54-5.19.47.23c-.55,1.35-.52,1.54,1.07,2.32l5.06,2.48Z"/>
      <path class="cls-2" d="M449.6,105.9c-.46-.55-.86-.98-1.19-1.29-.33-.31-.63-.54-.9-.68-.27-.14-.63-.26-1.07-.35-.44-.09-1.03-.17-1.77-.23l-.07-.21c.56-.48,1-.89,1.31-1.22.31-.33.53-.63.67-.9.14-.28.25-.63.35-1.08.09-.44.16-1.02.22-1.75l.21-.07c.47.56.86.99,1.19,1.3.33.31.63.53.9.67.27.14.63.25,1.07.34.44.09,1.03.17,1.77.23l.07.21c-.57.48-1,.88-1.31,1.21-.31.33-.53.63-.67.9-.14.27-.26.62-.35,1.07-.09.44-.16,1.03-.22,1.75l-.21.07Z"/>
      <path class="cls-2" d="M577.11,96.88c.08.72.17,1.29.27,1.73.1.44.22.8.37,1.07.15.27.38.56.7.89.31.32.76.71,1.34,1.18l-.06.22c-.74.08-1.32.18-1.76.28-.44.1-.79.23-1.06.37-.27.15-.57.39-.89.7-.32.32-.71.76-1.16,1.32l-.22-.06c-.08-.72-.16-1.3-.26-1.74-.1-.44-.23-.8-.37-1.06-.15-.27-.38-.56-.7-.88-.32-.32-.76-.72-1.34-1.18l.06-.22c.74-.08,1.32-.17,1.76-.27.44-.1.79-.23,1.06-.37.27-.14.56-.37.88-.69.32-.32.71-.76,1.16-1.33l.22.06Z"/>
    </g>
    <path class="cls-2" d="M511.66,4.62c-43.19,0-78.33,35.14-78.33,78.33s35.14,78.33,78.33,78.33,78.33-35.14,78.33-78.33S554.85,4.62,511.66,4.62M511.66,6.37c42.29,0,76.58,34.29,76.58,76.58s-34.28,76.58-76.58,76.58-76.58-34.29-76.58-76.58S469.36,6.37,511.66,6.37"/>
    <g>
      <path class="cls-3" d="M511.66,26.84c-30.94,0-56.11,25.17-56.11,56.11s25.17,56.11,56.11,56.11,56.1-25.17,56.1-56.11-25.17-56.11-56.1-56.11ZM565.53,73.59l-32.64-29.74c1.39.31,2.87.66,4.31,1.05,2.77.74,4.8,1.6,6.77,2.44,2.28.97,4.43,1.88,7.36,2.42,1.3.24,2.73.43,4.22.6,5.01,6.72,8.49,14.64,9.98,23.23ZM536.7,116.01c0,3.69,0,5.41.07,6.24-.22.16-1.21.7-4.54.7-2.06,0-3.58-.55-5.19-1.14-1.89-.69-3.83-1.4-6.84-1.4-4.66,0-8.19,1.65-9.24,2.2-1.05-.55-4.58-2.2-9.24-2.2-3.01,0-4.96.71-6.84,1.4-1.61.59-3.12,1.14-5.19,1.14-3.33,0-4.32-.53-4.54-.7.06-.83.06-2.55.07-6.24,0-3.9,0-9.1,0-14.3,0-5.98-.01-11.95-.02-15.95,0-.15,0-.3,0-.44,0-1.42,0-2.57,0-3.33.86.31,2.34.6,4.86.6,2.66,0,4.44-.67,6.16-1.33,1.78-.67,3.46-1.31,6.15-1.31,4.85,0,8.21,2.25,8.25,2.28.21.14.49.14.7,0,.03-.02,3.4-2.28,8.25-2.28,2.7,0,4.38.64,6.15,1.31,1.72.65,3.5,1.33,6.16,1.33,2.52,0,4-.29,4.86-.6,0,.76,0,1.91,0,3.33,0,.13,0,.28,0,.42,0,4-.01,9.98-.02,15.97,0,5.2,0,10.4,0,14.3ZM537.96,86.56h1.18s.08,0,.13-.01c.42-.09.76-.18,1.04-.28,0,.26,0,.59,0,.95,0,3.49-.02,11.15-.02,18.82,0,5.2,0,10.4,0,14.3,0,3.6,0,5.32.06,6.17-.42.22-1.82.76-5.63.76-2.86,0-4.8-.63-6.86-1.29-2.04-.66-4.14-1.34-7.12-1.34-4.32,0-7.61,1.26-9.14,1.98v-2.93c.99-.51,4.31-2.03,8.62-2.03,2.79,0,4.63.67,6.42,1.32,1.71.62,3.33,1.21,5.61,1.21,4.64,0,5.53-1.01,5.7-1.44.04-.1.05-.2.04-.3-.04-.98-.02-21.47,0-35.89ZM481.63,106.03c0-7.55-.02-15.08-.02-18.65,0-.43,0-.81,0-1.12.28.1.62.19,1.04.28.04,0,.08.01.13.01h1.18c.02,14.42.04,34.91,0,35.89-.01.1,0,.2.04.3.17.43,1.05,1.44,5.7,1.44,2.28,0,3.9-.59,5.61-1.21,1.78-.65,3.63-1.32,6.42-1.32,4.29,0,7.63,1.53,8.62,2.04v2.93c-1.53-.72-4.82-1.98-9.14-1.98-2.98,0-5.09.68-7.12,1.34-2.06.67-4,1.29-6.86,1.29-3.87,0-5.26-.56-5.63-.75.06-.85.06-2.57.06-6.18,0-3.9,0-9.1,0-14.3ZM485.14,122.3h0s0,0,0,0h0ZM495.55,52.64c-1.82,1.85-3.78,4.27-5.09,7.1-.66,1.43-1.25,2.94-1.82,4.4-1.55,3.98-3.02,7.75-5.99,10.38-1.93,1.71-4.18,3.4-6.35,5.03-2.28,1.71-4.43,3.33-6.23,4.96-2.45,2.22-4.89,8-6.71,12.88.32-1.22.68-2.5,1.08-3.8l.28-.9c.74-2.44,1.76-5.77,3.38-8.19,1.48-2.21,3.99-4.47,6.66-6.85,3.08-2.75,6.26-5.6,7.83-8.5.88-1.61,1.57-3.37,2.36-5.41.77-1.98,1.63-4.15,2.8-6.54l7.79-4.56ZM466.72,67.91l28.66-22.26c.37.39.76.76,1.17,1.12l-29.83,21.14ZM470.63,85.11c1.77-1.61,3.91-3.21,6.17-4.91,2.18-1.64,4.44-3.34,6.4-5.07,3.12-2.76,4.68-6.79,6.2-10.69.56-1.45,1.15-2.95,1.8-4.36,1.97-4.26,5.58-7.65,7.71-9.4l1.74-1.02c.12.06.23.12.35.18l-1.25,6.05c-1.38,1.43-2.84,3.02-3.88,4.41-1.77,2.37-2.93,5.1-4.05,7.74-1.24,2.92-2.41,5.67-4.25,7.56-4.32,4.44-7.38,5.8-10.08,7.01-1.99.89-3.86,1.72-5.9,3.61-2.92,2.69-5.72,8.12-8,12.94,1.82-5.05,4.46-11.72,7.03-14.05ZM505.1,51.51c.54.16,1.09.3,1.65.42,0,0,0,0,0,0l-9.34,27.57c-.15.05-.31.1-.45.15,0,0,0,0,0,0l8.13-28.14ZM517,78.91c-1.44.22-2.69.58-3.69.96,0,0,0,0,0,0-.17-.94-.36-1.91-.55-2.9-.77-3.87-1.64-8.26-1.22-12.09.49-4.54.72-8.93.84-11.59l4.26,9.73c-.27,1.51-.52,2.95-.73,4.15-.77,4.54.09,8.35,1.09,11.74ZM518.2,78.77c-.99-3.32-1.85-7.04-1.11-11.4.12-.72.26-1.53.41-2.38l6.27,14.3s0,0,0,0c-1.18-.33-2.52-.58-4.22-.58-.47,0-.91.03-1.35.06ZM510.73,64.79c-.43,3.96.46,8.41,1.24,12.33.21,1.05.41,2.07.58,3.05,0,0,0,0,0,0-.72.31-1.28.61-1.6.8-.34-.2-.92-.51-1.69-.84-.19-.8-.43-1.62-.68-2.47-.92-3.16-2.05-7.11-1.79-13.58l4.76-10.85c-.11,2.62-.33,6.89-.83,11.56ZM507.45,78c.16.56.32,1.09.46,1.61-1.47-.49-3.36-.91-5.55-.91-1.08,0-2.3.16-2.01.12l5.23-11.94c.11,5.01,1.07,8.35,1.87,11.11ZM494.67,80.5,526.56,80.25l-9.56-28.24s-.05,0-.12.02c.61-.12,1.22-.26,1.81-.43l8.33,28.82c-.15-.06-.31-.11-.46-.17ZM522.93,49.92h0c.16-.08.32-.17.47-.25l1.08.63c2.03,1.61,6.05,5.19,8.18,9.78.65,1.41,1.23,2.9,1.8,4.35,1.52,3.9,3.09,7.93,6.21,10.7,1.96,1.73,4.21,3.43,6.39,5.07,2.26,1.7,4.4,3.31,6.18,4.92,2.55,2.31,5.25,9.11,7.03,14.04-2.28-4.82-5.08-10.25-8-12.94-2.04-1.88-3.92-2.72-5.9-3.61-2.7-1.21-5.76-2.57-10.08-7.01-1.84-1.89-3.01-4.64-4.25-7.56-1.12-2.64-2.28-5.38-4.05-7.74-1.04-1.4-2.43-2.94-3.82-4.37l-1.24-6.01ZM553.77,84.51c-1.8-1.63-3.95-3.25-6.23-4.96-2.17-1.63-4.41-3.32-6.34-5.03-2.97-2.63-4.44-6.4-5.99-10.38-.57-1.46-1.15-2.96-1.82-4.39-1.37-2.95-3.45-5.46-5.33-7.35l7.96,4.66c1.21,2.44,2.08,4.66,2.87,6.68.79,2.04,1.48,3.79,2.36,5.41,1.58,2.9,4.76,5.75,7.83,8.5,2.66,2.39,5.18,4.64,6.66,6.85,1.62,2.42,2.64,5.76,3.38,8.2l.27.89c.41,1.3.76,2.58,1.08,3.8-1.81-4.88-4.25-10.66-6.7-12.88ZM527.5,46.79c.4-.36.8-.73,1.16-1.12l28.58,22.2-29.74-21.08ZM551,45.01c-2.29-.89-4.74-1.91-7.48-3.05-1.09-.45-2.21-.93-3.38-1.41-1.13-.47-2.2-.85-3.22-1.18l6.3-1.05c2.8,1.99,5.4,4.22,7.78,6.69ZM533.57,33.96l2.22-.07c.88.43,1.74.89,2.58,1.37l-4.91.38c.06-.55.09-1.11.1-1.67ZM535.12,39.68c1.44.4,3.01.92,4.71,1.62,1.17.48,2.29.96,3.38,1.41,3.37,1.41,6.32,2.64,9.05,3.65.78.87,1.53,1.76,2.25,2.68-1.04-.13-2.04-.28-2.96-.45-2.8-.52-4.9-1.41-7.11-2.34-2.01-.85-4.08-1.73-6.93-2.49-2.15-.57-4.41-1.09-6.29-1.48,0,0,0,0,0,0,.4-.68.75-1.39,1.05-2.11l2.85-.47ZM492.12,31.88c6.07-2.33,12.65-3.62,19.53-3.62s14.04,1.41,20.32,3.93c.06.52.09,1.04.09,1.58,0,9.51-8.99,17.25-20.04,17.25s-20.04-7.74-20.04-17.25c0-.64.05-1.27.13-1.89ZM488.36,33.48l2.14.09c0,.07-.01.13-.01.2,0,.5.04.98.09,1.47l-4.89-.41c.87-.47,1.77-.92,2.67-1.35ZM456.96,82.95c0-18.88,9.62-35.53,24.21-45.37l6.24,1.04c-1.11.35-2.28.76-3.52,1.27-1.17.48-2.3.96-3.38,1.41-2.75,1.15-5.23,2.19-7.53,3.08-.28.28-.55.57-.82.86-.16.16-.31.32-.47.49,2.75-1.01,5.73-2.26,9.13-3.68,1.09-.45,2.21-.93,3.38-1.41,1.83-.76,3.52-1.3,5.05-1.71l2.19.37c.3.84.68,1.65,1.11,2.44-2.02.38-4.07.84-6.02,1.36-2.85.76-4.92,1.64-6.93,2.49-2.22.94-4.31,1.83-7.11,2.34-.97.18-2.03.33-3.12.47-.1.13-.2.25-.3.38-.25.31-.5.63-.74.95,1.55-.17,3.03-.38,4.38-.62,2.93-.54,5.08-1.45,7.36-2.42,1.97-.83,4-1.7,6.77-2.44,1.34-.36,3.56-1.23,5.42-1.43l-34.53,31.45s0,0,0,0c-.03.19-.06.37-.09.56l28.3-16.56c-.82,1.8-1.48,3.48-2.08,5.03-.78,2-1.45,3.72-2.3,5.27-1.48,2.72-4.58,5.5-7.58,8.18-2.72,2.44-5.29,4.74-6.85,7.08-1.71,2.57-2.76,6-3.53,8.51l-.27.89c-1.18,3.79-1.99,7.44-2.46,9.9.33.83.68,1.66,1.05,2.47.41-.85.86-1.82,1.35-2.9,2.43-5.27,5.76-12.5,9.14-15.61,1.9-1.75,3.61-2.51,5.58-3.4,2.8-1.25,5.96-2.66,10.45-7.26,2-2.05,3.21-4.9,4.49-7.92,1.09-2.58,2.23-5.24,3.91-7.49.66-.89,1.57-1.9,2.45-2.86l-4.62,22.35c-1.33.47-2.72.84-4.63.84-4.05,0-4.97-.79-4.98-.79-.16-.22-.44-.31-.69-.23s-.43.32-.43.59c0,1.36,0,2.83,0,4.39h-1.11c-1.03-.22-1.36-.47-1.37-.47,0,0,0,0,0,0-.17-.2-.44-.28-.69-.19-.25.09-.41.32-.41.58,0,.68,0,1.4,0,2.14-.88,0-1.37,0-1.37,0v39.41c-13.36-9.98-22.03-25.92-22.03-43.84ZM485.11,130.74l20.84-1.91s-.3.25-.3.9c0,1.36,1.39,1.46,1.39,1.46h7.8s1.39-.1,1.39-1.46c0-.65-.3-.9-.3-.9l22.05,2.02c-7.82,4.32-16.79,6.79-26.34,6.79s-18.68-2.51-26.54-6.9ZM542.91,127.79v-40.41s-.49,0-1.37,0c0-.74,0-1.46,0-2.14,0-.26-.15-.51-.39-.6-.25-.09-.51-.03-.67.17,0,0-.31.27-1.41.5h-1.11c0-1.56,0-3.04,0-4.39,0-.27-.16-.53-.41-.61-.26-.08-.52-.01-.68.21,0,0-.88.83-5.01.83-.94,0-1.75-.09-2.5-.24l-4.78-23.15c.87,1.04,1.72,2.09,2.45,3.06,1.68,2.25,2.81,4.91,3.91,7.49,1.28,3.02,2.5,5.88,4.49,7.93,4.48,4.6,7.65,6.01,10.45,7.26,1.98.88,3.68,1.65,5.58,3.4,3.38,3.12,6.71,10.34,9.14,15.61.39.85.74,1.61,1.08,2.32-4.07,9.2-10.61,17.06-18.76,22.77ZM560.54,93.23l-.27-.88c-.77-2.51-1.82-5.94-3.53-8.51-1.56-2.34-4.13-4.64-6.85-7.08-3-2.69-6.1-5.47-7.58-8.18-.84-1.55-1.52-3.27-2.3-5.27-.62-1.6-1.3-3.31-2.14-5.17l27.82,16.28c.44,2.78.67,5.64.67,8.54,0,6.79-1.25,13.29-3.52,19.29-.49-2.41-1.24-5.65-2.29-9Z"/>
      <g>
        <path class="cls-3" d="M510.87,104.12c1.36.07,1.96.29,2.07.92.08.53.19,1.53.19,3.55v1.07c0,3.1-1.28,4.74-3.85,4.74s-3.62-1.58-3.62-4.4v-3.74c0-1.92.17-2.02,1.75-2.13v-.5h-6.01v.5c1.7.11,1.87.21,1.87,2.13v4.1c0,2.09.47,3.37,1.6,4.13,1.06.73,2.47.94,3.79.94,1.49,0,3-.48,3.94-1.33,1.17-1.05,1.55-2.52,1.55-4.24v-1.26c0-2.02.11-3.02.19-3.55.11-.64.66-.89,1.73-.92v-.5h-5.2v.5Z"/>
        <path class="cls-3" d="M528.5,113.24l-3.62-4.69c1.11-1.42,2.13-2.54,2.77-3.21,1.02-1.08,1.24-1.08,2.64-1.23v-.5h-4.96v.5l.72.07c.77.07.77.25.43.78-.6.92-1.49,2.1-2.17,2.93-1.04-1.3-2.15-2.86-2.32-3.07-.34-.42-.17-.57.51-.64l.68-.07v-.5h-5.88v.5c1.45.14,1.68.27,2.56,1.42l3.03,3.98c-1.24,1.6-3.2,3.9-3.62,4.33-.59.6-1.11.71-2.3.82v.5h5.2v-.5l-.81-.07c-.81-.04-.68-.46-.39-.89.3-.43,1.36-2.13,2.47-3.48,1.79,2.34,2.43,3.19,2.68,3.58.32.5.3.71-.51.78l-.6.07v.5h6.18v-.5c-1.45-.11-1.75-.21-2.68-1.42Z"/>
        <path class="cls-3" d="M495.99,98.98c-1.96-.11-2.13-.25-2.13-2.17v-2.77h2.13c1.83,0,1.87.07,2.09,1.4h.68v-3.64h-.68c-.21,1.31-.26,1.42-2.09,1.42h-2.13v-3.94c0-.64.04-.64.85-.64h1.11c1.32,0,2,.11,2.36.41.32.27.57.76.79,1.58l.64-.07c-.13-1.03-.21-2.34-.26-2.63h-9.62v.5c1.57.11,1.74.25,1.74,2.17v6.21c0,1.92-.17,2.06-1.74,2.17v.5h6.26v-.5Z"/>
        <path class="cls-3" d="M507.06,98.98c-1.62-.11-1.79-.25-1.79-2.17v-6.21c0-1.92.17-2.06,1.79-2.17v-.5h-6.01v.5c1.66.11,1.83.25,1.83,2.17v6.21c0,1.92-.17,2.06-1.83,2.17v.5h6.01v-.5Z"/>
        <path class="cls-3" d="M516.73,98.91l-.6.07v.5h5.6v-.5c-1.23-.11-1.53-.23-2.26-1.81-.81-1.77-1.75-3.97-2.71-6.14l-1.47-3.3-.85.21-4.3,9.23c-.75,1.6-.98,1.67-2.3,1.81v.5h4.73v-.5l-.6-.05c-.94-.09-1.11-.32-.72-1.26.3-.75.68-1.74.96-2.27h3.94c.45.92.96,2.02,1.17,2.56.26.68.21.85-.6.96ZM512.45,94.58l1.66-3.91h.06l1.66,3.91h-3.39Z"/>
        <path class="cls-3" d="M532.17,87.48c-.34.36-.47.46-1.02.46h-8.77c-.6,0-.81-.04-1.11-.46h-.38c-.04.92-.17,2.09-.26,3.27h.64c.26-.85.51-1.31.77-1.56.34-.32.89-.53,2.73-.53h.73v8.16c0,1.92-.17,2.06-2.04,2.16v.5h6.56v-.5c-1.96-.11-2.13-.25-2.13-2.16v-8.16h1.11c1.32,0,2,.11,2.36.45.32.26.58.73.79,1.65l.64-.03c-.13-1.14-.21-2.48-.26-3.23h-.34Z"/>
        <path class="cls-3" d="M500.04,113.93c-.45.44-1.47.52-2.45.52-.68,0-1.38-.04-1.75-.25-.36-.21-.49-.71-.49-1.74v-6.18c0-1.92.17-2.06,1.88-2.17v-.5h-6.14v.5c1.7.11,1.88.25,1.88,2.17v6.21c0,1.92-.17,2.06-1.96,2.16v.5h9.99c.17-.53.64-2.34.77-2.91l-.68-.11c-.34.85-.68,1.46-1.04,1.79Z"/>
      </g>
    </g>
  </g>
  <g>
    <path class="cls-2" d="M74.2,79.97c-1.7,5.83-4.86,14.58-6.68,18.35-3.52.73-13,2.92-22.23,2.92C16.25,101.24,1.43,81.92,1.43,60.66c0-24.79,18.83-41.92,46.05-41.92,10.45,0,18.95,2.19,22.96,2.79.49,5.47,1.34,12.76,2.31,18.83l-3.77.85c-2.43-8.14-5.35-13.12-11.54-15.67-3.16-1.46-8.14-2.31-12.76-2.31-20.05,0-30.62,14.82-30.62,34.87,0,23.45,12.15,38.51,31.83,38.51,12.39,0,18.47-5.71,24.66-17.86l3.65,1.21Z"/>
    <path class="cls-2" d="M154.63,79.25c-.73,3.77-4.37,16.4-5.59,20.17h-56.49v-3.4c11.06-1.09,12.03-1.7,12.03-12.03v-48.23c0-10.33-1.22-10.93-10.94-11.91v-3.4h32.56v3.4c-9.72.97-11.06,1.46-11.06,11.91v49.45c0,7.41.97,9.11,7.9,9.23.12,0,8.87.12,9.6.12,6.2,0,8.02-.73,10.81-3.77,3.04-3.16,5.59-8.02,7.41-12.51l3.77.97Z"/>
    <path class="cls-2" d="M199.1,34.66c-3.89,10.45-8.02,21.5-11.66,31.1h22.72l-11.05-31.1ZM211.25,99.41v-3.4c7.9-.97,8.87-2.19,7.17-6.81-1.58-4.74-4.01-10.81-6.56-18.47h-26.24c-1.94,5.47-3.77,10.21-5.47,15.19-2.67,7.9-.97,8.87,8.99,10.09v3.4h-28.07v-3.4c7.65-.97,9.6-1.82,13.85-12.76l25.15-63.79,3.89-.73c7.65,20.78,16.04,43.74,23.69,64.76,3.89,10.57,4.98,11.54,13.61,12.52v3.4h-30.01Z"/>
    <path class="cls-2" d="M280.02,60.9c6.32,0,10.33-.97,13.37-3.52,4.74-3.52,6.68-8.38,6.68-14.94,0-13-8.63-17.74-17.98-17.74-3.52,0-5.59.49-6.44,1.21-1.09.85-1.46,2.07-1.46,5.22v29.77h5.83ZM324.85,100.39c-1.58,0-2.92-.12-4.5-.24-8.87-.61-13.61-2.92-18.95-10.45-4.5-6.2-8.87-13.85-12.76-20.05-2.43-3.89-4.01-4.62-10.2-4.62h-4.25v19.07c0,10.33,1.34,10.93,11.06,11.91v3.4h-32.44v-3.4c10.08-1.09,10.93-1.58,10.93-11.91v-48.48c0-10.33-1.34-10.69-10.93-11.78v-3.4h30.98c8.87,0,14.82,1.09,19.44,4.13,4.98,3.16,8.26,8.63,8.26,16.04,0,10.45-6.68,17.01-15.67,20.9,2.19,3.77,7.41,11.91,11.05,17.37,4.49,6.44,6.81,9.48,9.6,12.51,3.28,3.52,6.07,4.86,8.87,5.59l-.48,3.4Z"/>
    <path class="cls-2" d="M336.64,20.44h32.44v3.4c-9.48.85-11.18,1.7-11.18,12.51v20.9c2.43-.24,5.22-2.19,8.75-5.59,6.8-6.44,14.95-14.7,20.53-21.02,3.64-4.13,3.28-5.71-1.94-6.44l-3.4-.36v-3.4h29.52v3.4c-9.11,1.09-12.27,1.7-20.41,10.08-3.64,3.52-13.12,12.76-20.9,20.41,9.23,10.93,22.72,26.49,29.04,33.17,6.2,6.68,7.78,7.65,15.31,8.51v3.4h-19.44c-9.36-10.57-19.2-22.35-30.25-35.23-2.79-3.4-4.86-3.64-6.8-3.52v23.08c0,10.57,1.09,11.42,11.18,12.27v3.4h-32.44v-3.4c9.96-.85,10.93-1.7,10.93-12.27v-47.38c0-10.93-.85-11.78-10.93-12.51v-3.4Z"/>
  </g>
  <g>
    <path class="cls-2" d="M39.26,119.65v1.36c-3.6.29-3.99.58-3.99,5.84v10.26c0,7.73,2.53,12.06,8.27,12.06s8.8-4.48,8.8-12.99v-2.92c0-5.54-.24-8.27-.44-9.73-.24-1.75-1.61-2.33-4.72-2.53v-1.36h11.87v1.36c-2.43.1-3.7.78-3.94,2.53-.19,1.46-.44,4.18-.44,9.73v3.46c0,4.72-.88,8.76-3.55,11.63-2.14,2.33-5.6,3.65-9,3.65-3.01,0-6.23-.58-8.66-2.58-2.58-2.09-3.65-5.59-3.65-11.33v-11.24c0-5.25-.39-5.55-4.28-5.84v-1.36h13.72Z"/>
    <path class="cls-2" d="M78.08,119.65l19.41,22.87h.1v-9.25c0-5.54-.24-8.27-.44-9.73-.24-1.75-1.61-2.33-4.72-2.53v-1.36h11.87v1.36c-2.43.1-3.7.78-3.94,2.53-.19,1.46-.44,4.18-.44,9.73v18.39h-2.24l-20.04-24.52h-.1v10.51c0,5.55.24,8.27.44,9.73.24,1.75,1.61,2.33,4.72,2.53v1.36h-11.87v-1.36c2.43-.1,3.7-.78,3.94-2.53.19-1.46.44-4.18.44-9.73v-9.53c0-5.64-1.07-6.81-5.06-7.1v-1.36h7.93Z"/>
    <path class="cls-2" d="M130.37,119.65v1.36c-3.7.29-4.09.68-4.09,5.93v17.03c0,5.25.39,5.64,4.09,5.93v1.36h-13.72v-1.36c3.79-.29,4.18-.68,4.18-5.93v-17.03c0-5.25-.39-5.64-4.18-5.93v-1.36h13.72Z"/>
    <path class="cls-2" d="M154.98,119.65v1.36l-1.56.24c-1.85.24-1.95.58-1.36,2.48.97,3.01,4.77,12.65,7.74,20.24,1.95-5.21,6.03-16.25,6.91-18.88,1.02-3.11.58-3.7-1.56-3.94l-1.46-.15v-1.36h11.04v1.36c-3.11.39-3.31.73-5.55,5.25-.49.97-6.52,15.37-10.26,25.3h-2.09c-3.31-8.76-7.93-20.72-9.78-25.59-1.65-4.38-2.43-4.67-5.15-4.96v-1.36h13.09Z"/>
    <path class="cls-2" d="M206.75,119.65c.1.78.29,4.38.58,7.4l-1.46.1c-.49-2.33-1.07-3.7-1.8-4.43-.83-.83-2.38-1.12-5.4-1.12h-2.43c-1.85,0-1.95,0-1.95,1.75v10.31h4.18c4.18,0,4.28-.29,4.77-4.04h1.56v10.31h-1.56c-.49-3.84-.59-4.04-4.77-4.04h-4.18v7.98c0,2.82.19,4.18,1.07,4.82.88.58,2.63.63,4.67.63,2.43,0,4.67-.2,5.69-1.41.83-.92,1.65-2.58,2.48-4.92l1.46.29c-.19,1.65-1.26,6.61-1.65,7.98h-23.74v-1.36c4.18-.29,4.57-.68,4.57-5.93v-17.03c0-5.25-.39-5.64-4.09-5.93v-1.36h21.99Z"/>
    <path class="cls-2" d="M232.67,135.8h1.85c1.95,0,3.31-.29,4.57-1.27,1.95-1.56,2.63-3.89,2.63-6.23,0-5.06-3.5-6.81-6.61-6.81-2.34,0-2.43.2-2.43,1.75v12.55ZM236.32,119.65c3.55,0,6.08.39,8.03,1.65,1.9,1.27,3.21,3.31,3.21,6.18,0,4.09-2.53,6.96-6.47,8.41.78,1.36,2.67,4.77,4.23,6.96,1.85,2.68,3.11,4.43,4.04,5.4,1.17,1.17,1.95,1.89,3.36,2.24l-.19,1.26-2.05-.1c-5.3-.39-6.96-1.75-8.85-4.47-1.56-2.24-3.16-5.35-4.57-7.88-.78-1.36-1.36-1.85-2.82-1.85h-1.55v6.52c0,5.25.39,5.64,4.09,5.93v1.36h-13.72v-1.36c3.89-.29,4.28-.68,4.28-5.93v-17.03c0-5.25-.39-5.64-4.09-5.93v-1.36h13.09Z"/>
    <path class="cls-2" d="M279.81,127.09c-.88-2.82-2.38-6.23-6.47-6.23-3.21,0-4.96,2.33-4.96,5.11s1.95,4.53,5.69,6.23l1.26.58c3.79,1.71,7.3,4.28,7.3,9.34,0,5.79-4.53,9.88-11.09,9.88-1.85,0-3.6-.39-4.87-.83-1.36-.44-2.24-.83-2.82-1.02-.39-1.26-.97-4.57-1.46-7.54l1.46-.49c.97,2.53,3.6,7.93,8.61,7.93,3.16,0,5.11-2.48,5.11-5.5,0-2.72-1.31-4.67-5.16-6.57l-1.56-.78c-3.21-1.65-7.3-4.23-7.3-9,0-5.11,3.84-9.29,10.36-9.29,1.31,0,3.07.19,4.43.68.78.29,1.46.39,2.05.63.19,1.7.48,3.84.97,6.57l-1.56.29Z"/>
    <path class="cls-2" d="M309.48,119.65v1.36c-3.7.29-4.09.68-4.09,5.93v17.03c0,5.25.39,5.64,4.09,5.93v1.36h-13.72v-1.36c3.8-.29,4.18-.68,4.18-5.93v-17.03c0-5.25-.39-5.64-4.18-5.93v-1.36h13.72Z"/>
    <path class="cls-2" d="M322.13,127.33c.19-3.21.49-6.42.58-8.95h.88c.68,1.17,1.17,1.27,2.53,1.27h20.04c1.27,0,1.56-.29,2.34-1.27h.78c.1,2.04.29,5.74.58,8.86l-1.46.09c-.49-2.53-1.07-3.79-1.8-4.52-.83-.92-2.38-1.22-5.4-1.22h-2.53v22.38c0,5.26.39,5.64,4.87,5.94v1.36h-14.98v-1.36c4.28-.29,4.67-.68,4.67-5.94v-22.38h-1.65c-4.18,0-5.45.58-6.23,1.46-.58.68-1.17,1.95-1.75,4.28h-1.46Z"/>
    <path class="cls-2" d="M373.16,119.65v1.36l-2.05.29c-1.26.19-1.36.58-.58,2.14,1.17,2.34,4.28,8.22,6.28,11.43,1.51-2.58,4.18-7.83,5.64-11.14.83-1.85.53-2.33-1.17-2.53l-1.95-.2v-1.36h10.95v1.36c-2.92.29-3.36.88-5.4,4.09-1.85,2.92-3.65,5.93-6.13,10.75-.49.88-.63,1.27-.63,2.92v5.21c0,5.25.39,5.64,4.77,5.93v1.36h-14.79v-1.36c4.18-.29,4.57-.68,4.57-5.93v-4.72c0-1.02.05-1.27-.68-2.63-1.56-2.92-3.31-5.98-6.52-11.53-2.09-3.65-2.33-3.79-4.86-4.09v-1.36h12.55Z"/>
  </g>
</svg>