<?xml version="1.0" encoding="UTF-8"?>
<svg id="Layer_1" xmlns="http://www.w3.org/2000/svg" version="1.1" viewBox="0 0 433 80">
  <!-- Generator: Adobe Illustrator 29.5.1, SVG Export Plug-In . SVG Version: 2.1.0 Build 141)  -->
  <defs>
    <style>
      .st0 {
        fill: #447c29;
      }
    </style>
  </defs>
  <path class="st0" d="M16.62,45.56v3.29H2.91v-17.7h13.38v3.29H6.99v3.84h8.22v3.19H6.99v4.1h9.63,0Z"/>
  <path class="st0" d="M33.3,45.06h-8.22l-1.57,3.79h-4.2l7.89-17.7h4.05l7.91,17.7h-4.3l-1.57-3.79ZM32.01,41.95l-2.81-6.78-2.81,6.78h5.61,0Z"/>
  <path class="st0" d="M41.39,47.1l1.39-3.08c1.49,1.09,3.72,1.85,5.84,1.85,2.43,0,3.41-.81,3.41-1.9,0-3.31-10.29-1.04-10.29-7.61,0-3.01,2.43-5.51,7.46-5.51,2.23,0,4.5.53,6.14,1.57l-1.26,3.11c-1.64-.93-3.34-1.39-4.91-1.39-2.43,0-3.36.91-3.36,2.02,0,3.26,10.29,1.01,10.29,7.51,0,2.96-2.45,5.49-7.51,5.49-2.81,0-5.64-.83-7.21-2.05h0Z"/>
  <path class="st0" d="M64.09,34.49h-5.67v-3.34h15.42v3.34h-5.67v14.36h-4.1v-14.36h0Z"/>
  <path class="st0" d="M86.75,31.15h4.1v14.36h8.88v3.34h-12.97s0-17.7,0-17.7Z"/>
  <path class="st0" d="M102.37,40c0-5.26,4.1-9.15,9.68-9.15s9.68,3.87,9.68,9.15-4.12,9.15-9.68,9.15-9.68-3.89-9.68-9.15ZM117.59,40c0-3.36-2.38-5.67-5.54-5.67s-5.54,2.3-5.54,5.67,2.38,5.66,5.54,5.66,5.54-2.3,5.54-5.66Z"/>
  <path class="st0" d="M125.2,47.1l1.39-3.08c1.49,1.09,3.72,1.85,5.84,1.85,2.43,0,3.41-.81,3.41-1.9,0-3.31-10.29-1.04-10.29-7.61,0-3.01,2.43-5.51,7.46-5.51,2.23,0,4.5.53,6.14,1.57l-1.26,3.11c-1.64-.93-3.34-1.39-4.91-1.39-2.43,0-3.36.91-3.36,2.02,0,3.26,10.29,1.01,10.29,7.51,0,2.96-2.45,5.49-7.51,5.49-2.81,0-5.64-.83-7.21-2.05h0Z"/>
  <path class="st0" d="M165.07,45.06h-8.22l-1.57,3.79h-4.2l7.89-17.7h4.05l7.91,17.7h-4.3l-1.57-3.79h0ZM163.78,41.95l-2.81-6.78-2.81,6.78h5.61,0Z"/>
  <path class="st0" d="M190.78,31.15v17.7h-3.36l-8.83-10.75v10.75h-4.05v-17.7h3.39l8.8,10.75v-10.75h4.05Z"/>
  <path class="st0" d="M208.7,39.72h3.74v7.18c-1.95,1.47-4.63,2.25-7.16,2.25-5.56,0-9.66-3.82-9.66-9.15s4.1-9.15,9.73-9.15c3.11,0,5.69,1.06,7.41,3.06l-2.63,2.43c-1.29-1.37-2.78-2-4.58-2-3.44,0-5.79,2.3-5.79,5.67s2.35,5.66,5.74,5.66c1.11,0,2.15-.2,3.18-.76v-5.18h0Z"/>
  <path class="st0" d="M231.71,45.56v3.29h-13.7v-17.7h13.38v3.29h-9.31v3.84h8.22v3.19h-8.22v4.1h9.63Z"/>
  <path class="st0" d="M236.74,31.15h4.1v14.36h8.88v3.34h-12.97v-17.7Z"/>
  <path class="st0" d="M267.48,45.56v3.29h-13.7v-17.7h13.38v3.29h-9.31v3.84h8.22v3.19h-8.22v4.1h9.63Z"/>
  <path class="st0" d="M271.12,47.1l1.39-3.08c1.49,1.09,3.72,1.85,5.84,1.85,2.43,0,3.41-.81,3.41-1.9,0-3.31-10.29-1.04-10.29-7.61,0-3.01,2.43-5.51,7.46-5.51,2.23,0,4.5.53,6.14,1.57l-1.26,3.11c-1.64-.93-3.34-1.39-4.91-1.39-2.43,0-3.36.91-3.36,2.02,0,3.26,10.29,1.01,10.29,7.51,0,2.96-2.45,5.49-7.51,5.49-2.81,0-5.64-.83-7.21-2.05h0Z"/>
  <path class="st0" d="M298.22,40c0-5.34,4.1-9.15,9.61-9.15,3.06,0,5.61,1.11,7.28,3.14l-2.63,2.43c-1.19-1.37-2.68-2.07-4.45-2.07-3.31,0-5.67,2.33-5.67,5.67s2.35,5.66,5.67,5.66c1.77,0,3.26-.71,4.45-2.1l2.63,2.43c-1.67,2.05-4.22,3.16-7.31,3.16-5.49,0-9.58-3.82-9.58-9.15h0Z"/>
  <path class="st0" d="M318.14,40c0-5.26,4.1-9.15,9.68-9.15s9.68,3.87,9.68,9.15-4.12,9.15-9.68,9.15-9.68-3.89-9.68-9.15ZM333.36,40c0-3.36-2.38-5.67-5.54-5.67s-5.54,2.3-5.54,5.67,2.38,5.66,5.54,5.66,5.54-2.3,5.54-5.66Z"/>
  <path class="st0" d="M342.36,31.15h4.1v14.36h8.88v3.34h-12.97v-17.7Z"/>
  <path class="st0" d="M359.4,31.15h4.1v14.36h8.88v3.34h-12.97v-17.7Z"/>
  <path class="st0" d="M390.14,45.56v3.29h-13.7v-17.7h13.38v3.29h-9.31v3.84h8.22v3.19h-8.22v4.1h9.63Z"/>
  <path class="st0" d="M407.08,39.72h3.74v7.18c-1.95,1.47-4.63,2.25-7.16,2.25-5.56,0-9.66-3.82-9.66-9.15s4.1-9.15,9.73-9.15c3.11,0,5.69,1.06,7.41,3.06l-2.63,2.43c-1.29-1.37-2.78-2-4.58-2-3.44,0-5.79,2.3-5.79,5.67s2.35,5.66,5.74,5.66c1.11,0,2.15-.2,3.18-.76v-5.18h0Z"/>
  <path class="st0" d="M430.09,45.56v3.29h-13.7v-17.7h13.38v3.29h-9.31v3.84h8.22v3.19h-8.22v4.1h9.63Z"/>
</svg>