<svg id="Layer_1" data-name="Layer 1" xmlns="http://www.w3.org/2000/svg" viewBox="0 0 790 133"><defs><style>.cls-1{fill:#fff;}</style></defs><title>Artboard 1</title><path class="cls-1" d="M32.08,51.71c0,2,.25,3.34.77,4s1.53,1,3,1l2,0,5.85-.05q4,0,6-1.72t4-6.72c.32-.82.71-1.23,1.18-1.23,1.07,0,1.61.46,1.61,1.39,0,.25,0,.72-.11,1.4,0,.46,0,1,0,1.66q0,3.1.32,7.29l.81,10.13c.07,1.07.11,1.84.11,2.3,0,.75-.49,1.16-1.45,1.23-.69,0-1.12-.44-1.29-1.45q-1.08-5.64-3.6-7.57c-1.69-1.29-4.62-1.93-8.81-1.93q-8.05,0-9.29,1T32,70.17l.06,4.29v6.33q0,8,2.79,11.69,2,2.68,8.16,3.16c1.15.11,1.72.6,1.72,1.48s-.39,1.48-1.18,1.48a25.71,25.71,0,0,1-3.12-.27c-1.28-.15-3.88-.22-7.78-.22h-6a54.77,54.77,0,0,0-6.92.38,48.08,48.08,0,0,1-5.27.54c-1.18,0-1.77-.48-1.77-1.43q0-1,1.5-1.53a6.7,6.7,0,0,0,4.35-3.7c.76-1.75,1.13-4.77,1.13-9.06V39.17q0-6.75-2.36-8.79c-1.79-1.57-4.41-2.45-7.84-2.63-.94-.07-1.4-.51-1.4-1.31q0-1.59,1.83-1.59c.39,0,1.32,0,2.79.16q3.22.27,6.82.27l9.24-.17,14.12-.06q7.26,0,14.83-.62c1.86-.15,3.24-.22,4.13-.22s1.35.93,1.45,2.8q.27,3.39.33,3.93l.53,4.1a16.28,16.28,0,0,1,.17,2.1c0,2.94-.69,4.41-2,4.41-.75,0-1.12-.49-1.12-1.49V38.24a5.85,5.85,0,0,0-.27-1.87q-2.2-7.06-14.18-7.06l-7-.06-2.21.06c-2,0-3.46.38-4.27,1.15s-1.2,2.12-1.2,4.06Z"/><path class="cls-1" d="M114.63,53.42V86.68c0,3.44.29,5.55.86,6.36s2.11,1.21,4.62,1.21l1.23-.06a3.35,3.35,0,0,1,1,.11,1.21,1.21,0,0,1,.91,1.2c0,1.28-1.22,1.91-3.66,1.91H117c-1.47,0-2.62,0-3.44.11a45.16,45.16,0,0,0-7.65,1.29,3.32,3.32,0,0,1-1,.16c-.79,0-1.18-.66-1.18-2a13.52,13.52,0,0,1,.1-1.82c.07-.72.11-1.25.11-1.61,0-1.08-.23-1.63-.7-1.67-.18,0-.46.22-.85.65l-1.93,2a15.82,15.82,0,0,1-11.85,5.16q-8,0-12-4.4t-4-13q0-11.43.43-19.8c0-1,0-1.86,0-2.57,0-2.44-1.06-3.74-3.17-3.92l-2.15-.16c-1-.07-1.47-.57-1.39-1.48,0-.69.58-1.15,1.64-1.39a33.63,33.63,0,0,1,6.11-.35,23.92,23.92,0,0,0,7.49-1.08,8.94,8.94,0,0,1,2.27-.43c.6,0,.91.41.91,1.24s0,2-.11,3q-.48,5.69-.48,19.9,0,10.93,2,14.62c1.31,2.44,4,3.67,7.9,3.67a9.14,9.14,0,0,0,7.16-2.79c1.67-1.86,2.51-4.53,2.51-8v-20q0-4.55-.83-5.59c-.56-.7-2.12-1.21-4.7-1.53-1.11-.11-1.67-.54-1.67-1.31,0-1.13,1.08-1.69,3.23-1.69q9.38,0,13-1.29a3.29,3.29,0,0,1,1.13-.27c.5,0,.75.32.75,1.07Z"/><path class="cls-1" d="M144.28,36.06V83.51l.05,1.77q0,5.32,1.5,7.38t5.91,2.82a4.34,4.34,0,0,1,1.64.44c.16.14.24.49.24,1,0,.88-.36,1.31-1.07,1.31a16.37,16.37,0,0,1-1.89-.16,80.49,80.49,0,0,0-10.6-.59,60.89,60.89,0,0,0-9.85.54,7.36,7.36,0,0,1-1.24.16c-.75,0-1.13-.46-1.13-1.37,0-.48.45-.9,1.34-1.26q4.09-1.66,4.09-7l.1-3.11.06-1.45V40.73q0-6.91-1.16-9.44A4.27,4.27,0,0,0,128,28.77c-1,0-1.55-.47-1.55-1.42a1.13,1.13,0,0,1,.59-1.12,17.75,17.75,0,0,1,3.23-.84,36.7,36.7,0,0,0,11-3.92l1.83-1.08a2.59,2.59,0,0,1,1-.32c.54,0,.81.32.81,1.07,0,.4,0,1.29-.11,2.69Q144.28,31.08,144.28,36.06Z"/><path class="cls-1" d="M173.76,36.06V83.51l.06,1.77q0,5.32,1.5,7.38t5.91,2.82a4.34,4.34,0,0,1,1.64.44c.16.14.24.49.24,1,0,.88-.36,1.31-1.08,1.31a16.41,16.41,0,0,1-1.88-.16,80.49,80.49,0,0,0-10.6-.59,60.81,60.81,0,0,0-9.85.54,7.48,7.48,0,0,1-1.24.16c-.75,0-1.13-.46-1.13-1.37,0-.48.45-.9,1.34-1.26q4.08-1.66,4.08-7l.11-3.11.06-1.45V40.73q0-6.91-1.16-9.44a4.27,4.27,0,0,0-4.27-2.52c-1,0-1.56-.47-1.56-1.42a1.14,1.14,0,0,1,.6-1.12,17.75,17.75,0,0,1,3.23-.84,36.81,36.81,0,0,0,11-3.92l1.82-1.08a2.7,2.7,0,0,1,1-.32c.54,0,.81.32.81,1.07,0,.4,0,1.29-.11,2.69Q173.77,31.08,173.76,36.06Z"/><path class="cls-1" d="M207.66,52.73A18.81,18.81,0,0,1,222,59.28q5,5.53,5.05,11.06c0,1.4-1,2.1-2.9,2.1l-2.46-.11h-1.24l-3.27,0-10.13.17-5.31,0-1.82,0a3.41,3.41,0,0,0-2,.37,2.68,2.68,0,0,0-.59,2A18.86,18.86,0,0,0,202,87.49q4.64,5.46,10.7,5.47,6.8,0,10.88-4l1.71-1.68a1.28,1.28,0,0,1,.92-.43c.78,0,1.18.37,1.18,1.12q0,1.56-4.14,5.21-7.3,6.45-15.68,6.45a19.6,19.6,0,0,1-15.15-6.39q-5.85-6.39-5.85-16.49a24.79,24.79,0,0,1,6.26-16.92Q199.07,52.73,207.66,52.73Zm-1.5,2.74c-2.43,0-4.54,1.19-6.36,3.57a13.46,13.46,0,0,0-2.72,8.42c0,1,.25,1.65.77,1.87a15.57,15.57,0,0,0,4.19.32c1.18,0,2.42,0,3.74-.11,3.21-.14,5.06-.21,5.56-.21q4.69,0,4.7-2.88a11.07,11.07,0,0,0-3-7.65A9.07,9.07,0,0,0,206.16,55.47Z"/><path class="cls-1" d="M251.05,71.19V86.26q0,8.47,7.95,9.54c1.11.15,1.67.59,1.67,1.32,0,.91-.41,1.37-1.24,1.37a10,10,0,0,1-1.51-.16,74.27,74.27,0,0,0-11.08-.81c-2,0-3.82.07-5.44.22l-3.34.32a16.38,16.38,0,0,1-1.88.11c-1,0-1.51-.48-1.51-1.43,0-.66.45-1.09,1.35-1.31q4.23-1,4.24-8l0-2.25V66c0-2.57-.34-4.28-1-5.12s-2.08-1.34-4.27-1.52c-.82-.08-1.23-.46-1.23-1.16s.48-1.27,1.45-1.42a35.92,35.92,0,0,0,12.62-4.14l2.09-1.23a1.56,1.56,0,0,1,.81-.27c.54,0,.8.39.8,1.18,0,.25,0,.77,0,1.56l-.16,3-.22,3.33.06.59c.14.5.41.77.8.8s1.13-.82,2.34-2.58a21.9,21.9,0,0,1,4.44-4.37c2-1.56,3.38-2.34,4.13-2.34q1.83,0,5.48,2.79C270.73,57,272,58.4,272,59.33a17.88,17.88,0,0,1-1.73,3.76q-2.24,4.14-3.91,4.14a1.86,1.86,0,0,1-1.28-.54l-1.49-1.34a8.92,8.92,0,0,0-6.24-2.53Q251.05,62.82,251.05,71.19Z"/><path class="cls-1" d="M294,59.55V85.76q0,4.78,1.43,6.66t5,1.88a13.19,13.19,0,0,0,3.73-.73,10.62,10.62,0,0,0,3.25-1.45,1.78,1.78,0,0,1,.86-.45c.43,0,.7.36.81,1.09l.1.55-.64.94a19.73,19.73,0,0,1-13.73,5.42q-6,0-8.85-2.73c-1.88-1.83-2.83-4.65-2.83-8.48V59.55H279.9c-1.72,0-2.58-.47-2.58-1.42,0-.58.45-1.19,1.35-1.8a49.73,49.73,0,0,0,6.63-6,47.12,47.12,0,0,0,5.77-6.71c1.11-1.75,1.93-2.61,2.47-2.58q.43.06.48.81V54.34h7.79a5.24,5.24,0,0,0,3.06-.7l1.4-.91a1.91,1.91,0,0,1,1-.38c.6,0,.89.25.86.87a4.43,4.43,0,0,1-.38,1.19,9.74,9.74,0,0,0-.64,2.38c-.4,1.84-1.38,2.76-3,2.76Z"/><path class="cls-1" d="M337.05,52.83q10.14,0,16.75,6.44a21.86,21.86,0,0,1,6.61,16.37,22.82,22.82,0,0,1-7.17,17.14,24.77,24.77,0,0,1-17.86,6.89,23.29,23.29,0,0,1-16.73-6.38,21.26,21.26,0,0,1-6.69-16A23.26,23.26,0,0,1,319.29,60,24.53,24.53,0,0,1,337.05,52.83Zm-2.79,3A9.54,9.54,0,0,0,326,60.18q-3,4.38-3,11.82,0,10.17,4.71,17.44T339,96.72a9.93,9.93,0,0,0,8.22-4.15q3.18-4.14,3.18-10.67,0-10.92-4.71-18.51T334.26,55.79Z"/><path class="cls-1" d="M416.81,75.55V86.43a19.66,19.66,0,0,0,.37,4.74,5.11,5.11,0,0,0,1.72,2.38,9.31,9.31,0,0,0,4.94,1.88c1.11.14,1.67.57,1.67,1.29,0,1.07-1.28,1.61-3.82,1.61a19.81,19.81,0,0,1-2.32-.2l-3.5-.41a36.5,36.5,0,0,0-3.71-.25,42.29,42.29,0,0,0-8.18.63,12.43,12.43,0,0,1-2.15.23,1,1,0,0,1-1.19-1.18c0-.58.41-1,1.24-1.35A5,5,0,0,0,405,93.28a14.81,14.81,0,0,0,.81-5.8V74.8q0-7.3-2.91-11.57A9.12,9.12,0,0,0,395,59a10.47,10.47,0,0,0-7.24,2.46A8.26,8.26,0,0,0,385,67.86V85.77q0,4.94,1.85,7.22c1.24,1.52,3.32,2.4,6.26,2.65,1,.11,1.5.52,1.5,1.24,0,1-.62,1.5-1.88,1.5a40.08,40.08,0,0,1-4.25-.27,82.14,82.14,0,0,0-8.4-.75,53,53,0,0,0-7.21.57,20.34,20.34,0,0,1-2.64.29c-.9,0-1.34-.38-1.34-1.13a1.22,1.22,0,0,1,.91-1.13,6.9,6.9,0,0,0,3.49-2.22,9.18,9.18,0,0,0,.75-4.44l.06-1.77V68.63l-.06-2.1q0-3.87-.78-5.34a2.94,2.94,0,0,0-2.87-1.48h-2.47a1,1,0,0,1-.81-.32,1.1,1.1,0,0,1-.26-.81,1.46,1.46,0,0,1,.8-1.42,32.74,32.74,0,0,1,4.75-1.37,32.87,32.87,0,0,0,11.26-4.67,1.09,1.09,0,0,1,.7-.33c.42,0,.64.31.64,1l-.16,2.69-.06,3.06.33,2c.14.43.38.66.7.7s.86-.45,1.72-1.45a16,16,0,0,1,13-6q8.74,0,12.49,5.28T416.81,75.55Z"/><path class="cls-1" d="M494.79,23.45a34.51,34.51,0,0,1,17.51,4.3l3.55,2a3.84,3.84,0,0,0,1.93.65,1.77,1.77,0,0,0,1.61-.86l1.13-1.67a1.06,1.06,0,0,1,1-.43c1.11,0,1.66,1.17,1.66,3.49l.06,3.92v4.89l.43,4.08.48,2.42a17.43,17.43,0,0,1,.32,3.17q0,2-1.5,2c-.57,0-1-.43-1.13-1.28a23.71,23.71,0,0,0-3-6.25A41.32,41.32,0,0,0,514,37.29q-9.36-10.08-20.81-10.08a19.8,19.8,0,0,0-16.5,8.34q-6.34,8.34-6.35,21.64,0,17.37,10.38,27.72,7.8,7.73,17,7.72A29.26,29.26,0,0,0,509.17,90a26.94,26.94,0,0,0,9.58-6.45l3.49-3.8a2.32,2.32,0,0,1,1.45-.91c.68,0,1,.36,1,1.19,0,1.46-1.41,3.81-4.24,7Q509.35,99.67,493,99.67q-15.78,0-25.64-10.1t-9.86-26.26A42.81,42.81,0,0,1,461.23,46a37.72,37.72,0,0,1,9.88-13.8A35.23,35.23,0,0,1,494.79,23.45Z"/><path class="cls-1" d="M556.13,52.83q10.15,0,16.76,6.44a21.86,21.86,0,0,1,6.61,16.37,22.82,22.82,0,0,1-7.17,17.14,24.79,24.79,0,0,1-17.86,6.89,23.29,23.29,0,0,1-16.73-6.38,21.26,21.26,0,0,1-6.69-16A23.26,23.26,0,0,1,538.38,60,24.52,24.52,0,0,1,556.13,52.83Zm-2.78,3a9.53,9.53,0,0,0-8.24,4.39q-3,4.38-3.05,11.82,0,10.17,4.71,17.44t11.34,7.28a9.91,9.91,0,0,0,8.21-4.15q3.2-4.14,3.19-10.67,0-10.92-4.71-18.51T553.35,55.79Z"/><path class="cls-1" d="M603.13,36.06V83.51l0,1.77q0,5.32,1.51,7.38t5.91,2.82a4.27,4.27,0,0,1,1.63.44c.17.14.25.49.25,1,0,.88-.36,1.31-1.08,1.31a16.24,16.24,0,0,1-1.88-.16,80.76,80.76,0,0,0-10.61-.59,60.89,60.89,0,0,0-9.85.54,7.27,7.27,0,0,1-1.23.16c-.76,0-1.14-.46-1.14-1.37q0-.72,1.35-1.26,4.08-1.66,4.08-7l.11-3.11,0-1.45V40.73q0-6.91-1.15-9.44a4.28,4.28,0,0,0-4.27-2.52c-1,0-1.56-.47-1.56-1.42a1.15,1.15,0,0,1,.59-1.12,18,18,0,0,1,3.24-.84,36.73,36.73,0,0,0,11-3.92L602,20.39a2.58,2.58,0,0,1,1-.32c.53,0,.8.32.8,1.07,0,.4,0,1.29-.11,2.69Q603.13,31.08,603.13,36.06Z"/><path class="cls-1" d="M632.62,36.06V83.51l0,1.77q0,5.32,1.51,7.38t5.9,2.82a4.34,4.34,0,0,1,1.64.44c.16.14.24.49.24,1,0,.88-.36,1.31-1.07,1.31a16.54,16.54,0,0,1-1.89-.16,80.49,80.49,0,0,0-10.6-.59,60.89,60.89,0,0,0-9.85.54,7.36,7.36,0,0,1-1.24.16c-.75,0-1.13-.46-1.13-1.37q0-.72,1.35-1.26,4.08-1.66,4.08-7l.1-3.11.06-1.45V40.73q0-6.91-1.16-9.44a4.27,4.27,0,0,0-4.27-2.52c-1,0-1.55-.47-1.55-1.42a1.13,1.13,0,0,1,.59-1.12,17.75,17.75,0,0,1,3.23-.84,36.7,36.7,0,0,0,11-3.92l1.83-1.08a2.59,2.59,0,0,1,1-.32c.54,0,.81.32.81,1.07,0,.4,0,1.29-.11,2.69Q632.62,31.08,632.62,36.06Z"/><path class="cls-1" d="M666.51,52.73a18.81,18.81,0,0,1,14.34,6.55q5,5.53,5,11.06c0,1.4-1,2.1-2.9,2.1l-2.46-.11H679.3l-3.27,0-10.13.17-5.31,0-1.82,0a3.35,3.35,0,0,0-2,.37,2.64,2.64,0,0,0-.59,2,18.85,18.85,0,0,0,4.63,12.57q4.63,5.46,10.7,5.47,6.81,0,10.88-4l1.72-1.68a1.26,1.26,0,0,1,.91-.43c.79,0,1.18.37,1.18,1.12q0,1.56-4.14,5.21-7.3,6.45-15.68,6.45a19.63,19.63,0,0,1-15.15-6.39q-5.85-6.39-5.85-16.49a24.84,24.84,0,0,1,6.26-16.92Q657.92,52.73,666.51,52.73ZM665,55.47c-2.43,0-4.54,1.19-6.36,3.57a13.46,13.46,0,0,0-2.72,8.42c0,1,.26,1.65.77,1.87a15.62,15.62,0,0,0,4.19.32c1.18,0,2.43,0,3.74-.11,3.21-.14,5.06-.21,5.56-.21q4.69,0,4.7-2.88a11.07,11.07,0,0,0-3-7.65A9.07,9.07,0,0,0,665,55.47Z"/><path class="cls-1" d="M725.81,57.22a11.21,11.21,0,0,0,5.77-1.95,6.79,6.79,0,0,0,2.34-4.53c.07-.72.43-1.07,1.07-1.07s.91.46.91,1.39a51.18,51.18,0,0,1-.64,5.73c-.29,2-.45,3.3-.48,3.91a2.72,2.72,0,0,1-.76,1.82,16.7,16.7,0,0,1-3.38,1.87,13.59,13.59,0,0,0,.16,1.67c.18,1.71.27,2.77.27,3.16q0,5.85-5.56,9.83a23,23,0,0,1-13.72,4,29.78,29.78,0,0,1-5.43-.54,9.89,9.89,0,0,0-1.88-.21,3.61,3.61,0,0,0-2.83,1.31,4.79,4.79,0,0,0-1.14,3.25q0,4.62,8.07,4.62,15.66,0,20.8,2t5.13,8q0,6.68-5.79,11.3t-17.25,4.63q-10,0-15.22-2.4T691,108a6.84,6.84,0,0,1,1.66-4.36,6.55,6.55,0,0,1,3.92-2.48c1.68-.36,2.54-.69,2.57-1l-.43-.7-1.6-1.61a8.15,8.15,0,0,1-2.41-5.8A10.6,10.6,0,0,1,698.36,84l1.72-1.61a1.43,1.43,0,0,0,.48-1c0-.5-.73-1.2-2.2-2.09a11.2,11.2,0,0,1-4.16-4.77,14,14,0,0,1-1.8-6.49,13.38,13.38,0,0,1,5.42-10.91q5.43-4.32,13.81-4.32A23.77,23.77,0,0,1,725.81,57.22Zm-21.67,44a4.48,4.48,0,0,0-3.43,1.48,5.09,5.09,0,0,0-1.38,3.62,7.13,7.13,0,0,0,3.76,6.31q3.75,2.34,10.26,2.34a18.21,18.21,0,0,0,9.18-2q3.5-2,3.49-5.34a3.66,3.66,0,0,0-2.14-3.73q-2.14-.94-10-1.53-4.6-.33-7.08-.76l-1.39-.27A8.76,8.76,0,0,0,704.14,101.23Zm7.49-46.09a7.64,7.64,0,0,0-6.49,3.21c-1.58,2.13-2.38,5-2.38,8.75A17.57,17.57,0,0,0,705.33,77q2.56,3.9,6.4,3.9a7.6,7.6,0,0,0,6.36-3.17,13.53,13.53,0,0,0,2.4-8.36Q720.49,55.15,711.63,55.14Z"/><path class="cls-1" d="M761.2,52.73a18.81,18.81,0,0,1,14.34,6.55q5.06,5.53,5.05,11.06c0,1.4-1,2.1-2.89,2.1l-2.47-.11H774l-3.27,0-10.14.17-5.3,0-1.83,0a3.37,3.37,0,0,0-2,.37,2.68,2.68,0,0,0-.59,2,18.81,18.81,0,0,0,4.64,12.57q4.63,5.46,10.69,5.47,6.81,0,10.88-4l1.72-1.68a1.27,1.27,0,0,1,.91-.43c.79,0,1.18.37,1.18,1.12,0,1-1.37,2.78-4.13,5.21q-7.31,6.45-15.69,6.45A19.59,19.59,0,0,1,746,93.28q-5.87-6.39-5.86-16.49a24.84,24.84,0,0,1,6.26-16.92Q752.61,52.73,761.2,52.73Zm-1.5,2.74q-3.63,0-6.36,3.57a13.52,13.52,0,0,0-2.72,8.42c0,1,.26,1.65.78,1.87a15.51,15.51,0,0,0,4.19.32c1.17,0,2.42,0,3.74-.11q4.8-.21,5.55-.21,4.7,0,4.7-2.88a11,11,0,0,0-3-7.65A9.07,9.07,0,0,0,759.7,55.47Z"/></svg>