<?xml version="1.0" encoding="UTF-8"?><svg id="ILLINOIS_TECH_RED" xmlns="http://www.w3.org/2000/svg" viewBox="0 0 682.217 84.606"><path d="m682.217.701h-16.243v34.006h-28.164V.701h-16.243v83.204h16.243v-34.707h28.164v34.707h16.243V.701Zm-84.138,57.612c-1.948,7.869-6.623,11.802-14.0229,11.802-8.493,0-13.2451-5.218-14.257-15.659-.157-1.636-.234-3.193-.234-4.674v-7.479c0-11.92,1.052-19.358,3.155-22.32,2.648-3.661,6.428-5.493,11.3361-5.493,7.4789,0,12.153,3.935,14.0229,11.803h16.4771c-1.402-8.257-4.773-14.704-10.108-19.34-5.337-4.634-12.174-6.953-20.509-6.953-8.8051,0-16.284,3.038-22.437,9.115-3.74,3.663-6.155,8.454-7.245,14.374-.625,3.35-.935,9.622-.935,18.814,0,9.349.31,15.621.935,18.814,1.168,5.922,3.582,10.713,7.245,14.374,6.077,6.077,13.556,9.115,22.437,9.115,8.257,0,15.093-2.337,20.509-7.012,5.414-4.674,8.782-11.101,10.108-19.281h-16.4771Zm-50.833,11.101h-38.564v-20.216h32.838v-14.491h-32.838V15.192h38.564V.701h-54.807v83.204h54.807v-14.491ZM486.245.701h-59.715v14.491h21.736v68.713h16.243V15.192h21.736V.701Zm-104.119,34.59l-9.816-1.402c-6.857-.935-10.284-4.011-10.284-9.232,0-3.506,1.327-6.193,3.984-8.063,2.266-1.636,5.235-2.454,8.907-2.454,7.344,0,13.048,1.91,17.113,5.726l10.312-10.167c-6.701-6.465-15.659-9.699-26.877-9.699-8.259,0-15.037,2.103-20.334,6.307-5.766,4.515-8.647,10.822-8.647,18.918,0,13.47,7.362,21.217,22.09,23.24l10.046,1.436c6.621.935,9.933,4.247,9.933,9.933,0,6.854-4.908,10.281-14.724,10.281-8.726,0-15.426-2.337-20.1-7.011l-10.517,10.517c7.322,7.324,17.45,10.985,30.383,10.985,8.569,0,15.659-2.025,21.268-6.077,6.387-4.517,9.583-10.906,9.583-19.165,0-13.944-7.441-21.969-22.32-24.073M338.188.701h-16.243v83.204h16.243V.701Zm-45.225,63.805c-2.804,3.74-6.584,5.609-11.335,5.609-8.492,0-13.245-5.218-14.257-15.659-.233-2.726-.312-6.778-.233-12.153v-12.153c1.256-10.439,6.045-15.66,14.371-15.66,8.641,0,13.432,5.221,14.374,15.66.157,1.714.236,3.739.236,6.076v6.077c0,11.998-1.052,19.399-3.156,22.203m18.347-41.017c-1.168-5.92-3.584-10.711-7.245-14.374-6.077-6.077-13.556-9.115-22.437-9.115s-16.4,3.038-22.554,9.115c-3.739,3.663-6.155,8.454-7.245,14.374-.625,3.35-.935,9.622-.935,18.814,0,9.349.31,15.621.935,18.814,1.169,6,3.582,10.792,7.245,14.374,6.154,6.077,13.673,9.115,22.554,9.115,8.803,0,16.282-3.038,22.437-9.115,3.816-3.74,6.232-8.531,7.245-14.374.701-4.05,1.052-10.322,1.052-18.814,0-9.037-.351-15.309-1.052-18.814M241.312.701h-16.244v50.951L192.114.701h-14.49v83.204h16.243v-51.015l32.996,51.015h14.449V.701Zm-76.075,0h-16.243v83.204h16.243V.701Zm-22.436,68.713h-37.746V.701h-16.243v83.204h53.989v-14.491Zm-60.182,0h-37.746V.701h-16.243v83.204h53.989v-14.491ZM16.243.701H0v83.204h16.243V.701Z" fill="#c00"/></svg>