<?xml version="1.0" encoding="UTF-8"?><svg id="Layer_1" xmlns="http://www.w3.org/2000/svg" viewBox="0 0 1500 430"><defs><style>.cls-1{fill:#fff;}.cls-2{fill:#231f20;}.cls-3{fill:#0d6636;}</style></defs><rect class="cls-3" x="13.63" y="14.24" width="406.92" height="401.52"/><polygon class="cls-1" points="252.86 28.71 252.86 38.89 252.82 38.89 252.82 39.24 212.84 39.24 212.84 28.61 252.82 28.61 252.82 28.71 252.86 28.71"/><path class="cls-1" d="m413.73,291.65h0c-6.43-2.88-16.51-5.11-27.17-6.8-.14-.02-.28-.04-.42-.07-2.49-.39-5.01-.75-7.52-1.09-.52-.07-1.03-.14-1.55-.2-19.05-2.45-37.11-3.33-37.11-3.33-6.11-.1-11.66-.13-16.64-.1-21.63.12-32.67,1.24-32.67,1.24-28.83,1.16-77.33,9.46-77.33,9.46-4.55.84-9.96,1.89-15.85,3.08-.91.18-1.82.37-2.75.56-.46.09-.93.19-1.4.28-31.82,6.49-74.42,16-74.42,16-59.37,14.64-98.7,26.73-98.7,26.73l.08,19.46-.07.02h0s.07.11.07.11l-.12,46.08,23.98-7.52-15.22-24.59-8.64-13.97h0s0-.12,0-.12v-.02h0s27.83-9.25,27.83-9.25h0s-2.72,47.45-2.72,47.45h0c1.11-.35,3.27-1.01,6.03-1.86.53-.16,1.09-.34,1.66-.51.15-.05.3-.09.46-.14.34-.1.68-.21,1.03-.32.41-.13.83-.26,1.26-.39.36-.11.73-.22,1.1-.34.44-.13.88-.27,1.33-.41,1.21-.37,2.45-.76,3.71-1.14.18-.06.36-.11.54-.17.4-.12.8-.25,1.2-.37,10.54-3.24,21.5-6.61,21.5-6.61h0s-36.03-35.68-36.03-35.68l15.05-4.86,25.49-8.23h0s-2.8,48.28-2.8,48.28l5-1.49,37.43-11.12h0s-31.67-29.71-31.67-29.71l-6.71-6.3c9.18-2.94,42.87-11.78,42.87-11.78h0l-2.84,47.3h0c7.52-1.96,35.8-10.31,35.8-10.31h0s-3.45-4.11-3.45-4.11l-27.9-33.2h0s23.68-5.6,23.68-5.6l15.06-3.56-5.4,45.66h0c3.67-1.04,9.29-2.48,15.04-3.91.69-.17,1.37-.34,2.06-.51,9.91-2.46,19.54-4.75,19.54-4.75h0l-30.35-36.7s0,0,0,0c9.4-2.18,28.99-6.87,38.87-9.13,3.17-.72,5.35-1.2,5.86-1.26,0,0,0,0,0,.02s0,.02,0,.04c-.41,1.71-12.38,46.43-12.38,46.43,1.46-.24,3.42-.58,5.7-.99.58-.1,1.17-.21,1.78-.32s1.24-.22,1.88-.34c.27-.05.55-.1.82-.15,4.5-.8,9.56-1.72,14.12-2.55,7.53-1.37,13.7-2.51,13.7-2.51h0s-24.91-39.74-24.91-39.74c5.71-1.11,10.98-2.04,15.64-2.79.56-.09,1.11-.18,1.66-.27.51-.08,1.01-.16,1.5-.24,11.08-1.72,18.01-2.41,18.01-2.41h0l-3.33,16.18-5.86,28.49c5.94-.76,11.32-1.35,15.85-1.8.27-.03.54-.05.8-.08.59-.06,1.16-.11,1.72-.17,7.6-.72,12.25-1,12.25-1,0,0-18.23-37.74-19.87-41.54-.01-.03-.02-.05-.03-.08-.06-.15-.1-.24-.09-.24,6.79-.85,15.05-1.54,22-2.02.06,0,.13,0,.19-.01,7.85-.54,13.99-.81,14.35-.76,0,0,0,0,0,.02,0,0,0,0,0,.01,0,.02-.01.05-.02.08-.05.19-.17.6-.34,1.19-1.68,5.77-8.59,29.12-11.45,38.76-.02.07-.04.15-.07.22-.17.56-.32,1.08-.45,1.53-.01.05-.03.1-.04.15-.08.27-.15.52-.22.75-.05.18-.1.34-.15.49-.06.2-.11.38-.16.52-.1.34-.16.53-.16.53,14.05-.81,37.27-1.95,37.27-1.95h0l-21.79-42.42h0s16.93-.72,34.79.07c.32.01.65.03.98.04,2.56.12,5.14.27,7.69.46.05,0-.23.71-.76,1.94,0,0,0,0,0,0-.16.38-.35.81-.56,1.28-.06.13-.12.27-.18.41-.31.69-.66,1.47-1.04,2.32-.32.7-.66,1.45-1.01,2.24-.08.19-.17.37-.26.56-.41.89-.84,1.83-1.28,2.81-.21.46-.43.94-.65,1.41-.2.43-.4.86-.6,1.3-1.51,3.29-3.14,6.82-4.72,10.21-.2.44-.41.88-.61,1.31-3.93,8.48-7.34,15.77-7.34,15.77,18.72-.35,37.76,1.44,37.76,1.44h0s-3.67-8.71-7.62-18.28c-.08-.18-.15-.37-.23-.55-.56-1.36-1.12-2.73-1.68-4.09-.29-.71-.58-1.42-.87-2.12-.41-1.01-.82-2-1.21-2.98-.27-.66-.54-1.32-.8-1.96-.19-.47-.38-.94-.56-1.39-.13-.32-.26-.64-.38-.96-.51-1.26-.98-2.45-1.41-3.55-.22-.55-.42-1.08-.61-1.57-.1-.25-.19-.49-.28-.73-.12-.31-.23-.6-.34-.89-.1-.27-.2-.53-.29-.78-.57-1.55-.92-2.6-.96-2.93h0s0-.07,0-.09c0-.02.01-.03.03-.03,21.46,1.35,41.54,4.97,41.54,4.97h0s-3.48,5.74-3.48,5.74l-19.51,32.2h0s11.97.74,11.97.74l25.1,1.54-12.65-39.93c18.28,3.41,28.11,6.61,28.05,6.61h0v-13.8Z"/><path class="cls-1" d="m413.75,187h-113.19V45.35h-42.75v-.03l-182.78.03v69.88h0s1.36,1.08,1.36,1.08l1.66,1.32h0l3.39-3.77,12.82,7.88,12.45-1.37h0l.45.25,2.58,1.46,6.18-8.4s3.62-5.28,13.03-2.23c.23.07.46.15.69.24.89.32,1.82.7,2.81,1.17.8.38,1.63.82,2.49,1.32.43.25.86.51,1.31.78.45.28.91.58,1.38.89.97.65,1.99,1.38,3.04,2.17.19.14.38.29.57.44,1.83,1.42,3.77,3.06,5.84,4.98h0s9.76-11.86,15.35-5.46c.37.43.73.93,1.06,1.53.17.31.34.64.5,1,0,0,3.32,20.42,3.7,22.47l6.31-5.17h0s.14-17.36.14-17.36h26.77s.15,17.6.15,17.6h-17.73l-1.35,10.89s7.84-1.16,14.25-2.61c.53-.12,1.05-.24,1.55-.36,0,0,.02,0,.03,0,1.75-.43,3.33-.87,4.49-1.32.02,0,.03-.01.04-.02.15-.06.3-.12.43-.17.01,0,.02,0,.03-.01.14-.06.27-.12.39-.18.03-.01.05-.02.07-.04.1-.05.2-.1.29-.15.05-.03.09-.06.14-.09.05-.03.11-.07.16-.1.06-.04.1-.08.15-.11.03-.02.06-.05.09-.07.05-.05.09-.1.13-.14.01-.01.03-.03.04-.04.04-.05.06-.1.08-.15,0,0,.01-.02.01-.03h0s-3.87,10.88-3.87,10.88h0s10.12-8.43,13.14-8.77h0s-8.86,25.72-8.12,29.48h0s7.43-1.76,10.79-3.88c.35-.22.65-.44.9-.67,0,0,0,0,0,0,0,0-.38,17.82-3.02,19.53,0,0,.05-.03.13-.07.08-.04.19-.1.33-.17.13-.07.29-.15.47-.25.34-.18.75-.39,1.21-.62.38-.19.78-.39,1.2-.6,0,0,0,0,.01,0,.11-.05.22-.11.33-.16,1.65-.8,3.34-1.55,3.88-1.55,0,0,1.13,9.59,2.58,10.81.05.04.09.07.14.09,0,0,11.59-13.69,15.07-14.04,0,0-7.61,16.72-2.18,22.85.28.32.6.61.95.86.35.26.74.48,1.18.67,0,0,3.56,1.82,7.49,1.89.03,0,.06,0,.09,0,.63,0,1.26-.03,1.89-.13.03,0,.07-.01.1-.02.19-.03.37-.06.56-.11.01,0,.02,0,.03,0,.42-.1.84-.23,1.26-.39.03-.01.06-.03.09-.04,1.66-.68,3.17-1.92,4.28-4.04,0,0,0,0,0,0-1.54,3.33-6.67,14.94-6.35,21.35,0,0-1.25,6.95,8.4,6.26.53-.04,8.93-1.79,9.27-1.75.16.02.26.08.33.17,1.18,1.58-11.96,13.84-11.96,13.85h0s5.4,2.38,9.79,3.74c.31.1.61.19.91.27,2.07.59,3.79.87,4.39.44h0s-1.51,9.25-4.9,13.02h0s.72.42,1.76.97c.23.12.48.25.74.39.25.13.51.26.77.38.27.13.54.26.81.39,2.1.97,4.42,1.8,5.35,1.3h0s-.98,1.16-2.2,2.77c-.09.12-.18.24-.27.36-.2.26-.4.53-.6.81-.05.07-.1.14-.15.21-2.68,3.73-5.51,8.58-1.83,8.19,20.51-2.14,28.72-2.46,33.69-2.27.39.01.75.03,1.11.05.12,0,.23.01.34.02,2.37.15,4.07.4,6.51.55,0,0-.2-.22-.53-.63-.18-.22-.4-.49-.66-.82-.08-.11-.17-.22-.26-.33-.13-.17-.27-.35-.41-.54-.29-.38-.6-.8-.93-1.26-.82-1.14-1.76-2.52-2.71-4.06-.24-.4-.49-.8-.73-1.22-.49-.83-.97-1.71-1.44-2.62-.23-.45-.46-.91-.69-1.38s-.44-.94-.65-1.42c-.18-.41-.35-.83-.52-1.25-.13-.31-.25-.63-.37-.95-.39-1.05-.73-2.13-1.02-3.21-.17-.65-.32-1.3-.44-1.96-.02-.09-.03-.18-.05-.27-.53-3.03-.49-6.08.47-8.92.16-.48.35-.95.57-1.42.22-.47.46-.93.73-1.38.68-1.13,1.55-2.21,2.63-3.22,0,0,7.88-7.16,16.05,4.91,0,0,0,0,0,0,0,0,.14-4.21-.64-8.47-.13-.68-.27-1.37-.45-2.03-.51-1.89-1.24-3.66-2.3-4.92,0,0,9.37,2.15,12.76,3.52,0,0,3.08-4.88,2.7-8.65,0,0,6.79,2.74,7.16,4.45,0,0,0,0,0,0,0,0-.38-9.59,1.13-12.33,0,0,0,0,0,0,0,0,.52,1.21,1.41,2.75,0,0,0,0,0,.01.06.1.12.21.18.31,1.55,2.58,4.1,5.84,7.07,5.84,0,0,3.9-2.36,6.48-4.86,1.32-1.28,2.29-2.59,2.2-3.64,0-.02,0-.05,0-.07h0s7.56,4.8,7.56,4.8c0,0,5.66-2.39,6.79-4.11h0s1.13,5.48.38,6.86h0s10.9-11.47,16.69-13.72c.02,0,.04-.02.06-.02.2-.08.39-.14.58-.19,0,0,.01,0,.02,0,.58-.16,1.09-.21,1.51-.11,0,0-1.76,9.55.15,13.62,0,.02.02.04.03.06.06.13.13.25.2.37h0s.99.67,2.17-.53c.17-.17.34-.38.51-.64.02-.03.03-.05.05-.07.04-.05.07-.12.11-.18.06-.1.12-.19.18-.3,0,0,1.51,7.2,1.13,8.23h0s1.01.19,2.33.2c.22,0,.45,0,.68-.01,1.4-.07,3-.39,4.1-1.33.55-.47.97-1.1,1.19-1.94h0s9.23,12.26,9.46,18.48h0v-58.8h0ZM116.13,110.76h-27.16l.05-17.64h27.1v17.64Zm0-27.27h-27.16v-17.9h0s0,0,0,0h27.15v17.89Zm14.79-17.93l26.98-.04v17.85l-27.02-.06.04-17.76Zm27.01,45.2l-26.99.02-.02-17.62,27.04.04-.03,17.55Zm43.04.01l-26.83-.08h0s0,0,0,0l.05-17.5h26.78s0,0,0,0v17.58Zm0-27.4h-26.84v-17.85h26.84v17.85Zm15.23-17.76h27.1v17.76h-27.1v-17.76Zm27.08,27.49l-.02,17.67h-26.96l-.06-17.67h0s27.04,0,27.04,0h0s0,0,0,0Zm-27.08,27.37h0l15.46.03,11.59.03v17.66l-27.05.05v-17.77Zm27.16,46.93h-27.16v-18.16h27.16s0,0,0,0v18.16Zm15.14-101.86h26.75l.04,17.84h-26.79v-17.84Zm26.85,27.84v17.4l-26.76-.05-.04-17.5,26.81.14Zm-27.1,45.12h.05v.05h-.05v-.05Zm27.04,29.15l-26.9.07-.09-18.56h26.99v18.49Zm-26.7-29.28l-.04-17.88,26.71.05.09,17.78-26.76.06Z"/><path class="cls-1" d="m96.14,307.47c1.33-.3,2.66-.59,3.99-.89,1.92-.43,3.84-.85,5.74-1.28.24-.05.48-.11.72-.16,1.04-.23,2.08-.46,3.11-.69,26.97-5.98,50.74-11.14,55.41-11.81,0,0,0,0,0,0l-69.21,8.92-75.5,9.73v13.21h0s36.68-8.32,73.21-16.47c.84-.19,1.68-.38,2.52-.56Z"/><path class="cls-2" d="m515.94,108.46c7.18.16,14.52.31,22.02.31s15-.16,22.66-.31v4.09c-10.53-.16-14.52,1.89-14.52,11.5v73.38c0,11.81,3.83,15.9,25.05,15.9,18.51,0,24.89-4.09,30-19.68l3.51.63-5.9,24.09c-18.51-.47-37.02-.31-55.69-.31-8.94,0-18.03.16-27.13.31v-4.09c11.65.63,14.52-4.09,14.52-11.18v-79.37c0-9.45-4.31-11.18-14.52-11.18v-4.09Z"/><path class="cls-2" d="m668.81,159.63v43.78c0,5.67,1.92,8.82,5.74,8.82,2.07,0,4.47-.94,5.9-2.68l1.44,2.68c-4.31,3.94-9.42,8.5-15.8,8.5s-9.57-5.98-9.89-11.65c-7.18,6.46-14.36,11.65-24.57,11.65s-17.23-7.24-17.23-15.43c0-12.75,8.14-14.96,41.65-26.46v-10.39c0-8.03-4.47-13.54-15.48-13.54-7.66,0-12.13,4.88-12.13,11.18,0,4.41-5.59,6.46-8.94,6.46-2.39,0-2.87-2.05-2.87-3.31,0-8.66,8.3-12.6,18.99-18.11,5.59-2.83,7.82-4.72,13.72-4.72,7.98,0,19.47,5.04,19.47,13.23Zm-30.32,53.7c7.5,0,12.45-4.72,17.55-9.13v-20.79c-.8.31-4.63,1.57-9.26,2.99-11.01,3.46-19.63,7.87-19.63,15.59,0,6.14,5.11,11.34,11.33,11.34Z"/><path class="cls-2" d="m715.09,147.82v10.39c9.1-6.46,16.92-11.81,27.61-11.81,12.77,0,18.35,8.82,18.35,22.05v40.94c0,2.99,1.44,4.88,6.38,4.88h4.47v4.09c-6.06,0-12.13-.31-18.35-.31-5.27,0-10.53.16-15.8.31v-4.09h4.15c3.67,0,6.38-.47,6.38-5.2v-40.78c0-8.03-4.63-13.39-14.52-13.39-5.11,0-12.61,3.62-18.67,7.56v46.45c0,4.25,2.07,5.35,6.22,5.35h4.63v4.09c-5.9,0-11.97-.31-17.87-.31-5.43,0-10.85.16-16.28.31v-4.09h4.15c4.31,0,6.38-.94,6.38-5.04v-42.2c0-5.51-2.23-7.4-9.26-10.08v-2.99l10.05-3.31c3.35-1.1,7.18-2.68,11.01-4.25.64,0,.96.63.96,1.42Z"/><path class="cls-2" d="m840.84,171.45c0,.79,0,1.73-.16,2.52l-1.44.94h-44.84c-.32,2.05-.32,4.25,0,8.98.96,14.8,10.37,27.4,23.46,27.4,8.94,0,15.8-4.88,21.54-10.55l2.23,2.2c-8.94,11.97-18.51,17.79-29.52,17.79-23.62,0-30.48-21.42-30.48-34.49,0-30.71,21.06-39.84,32.23-39.84,14.36,0,26.97,9.29,26.97,25.04Zm-18.19-1.57c3.19,0,4.47-1.1,4.47-4.09,0-7.56-4.63-14.33-14.04-14.33s-16.28,6.93-18.19,18.42h27.77Z"/><path class="cls-2" d="m849.78,148.77c5.58.16,11.17.31,16.76.31,7.34,0,10.69-.31,16.12-.31v4.09c-7.5.31-8.78,2.05-8.78,4.25,0,4.41,13.09,32.75,16.12,42.36h.32c.16-.47,2.87-7.24,7.98-19.05,5.27-12.13,7.82-19.05,7.82-21.1,0-4.09-2.07-6.46-7.82-6.46h-1.12v-4.09c4.47.16,10.37.31,13.56.31,4.47,0,8.94-.16,13.4-.31v4.09c-7.98-.31-10.53,5.51-12.93,10.87l-35.75,82.67c-2.39,5.51-5.58,7.87-10.21,7.87s-7.82-3.31-7.82-7.56c0-3.78,3.35-7.87,7.82-7.87,2.55,0,4.15.31,6.38,2.36,5.11-10.71,6.7-14.33,11.17-25.35-12.77-32.28-20.11-50.86-22.34-55.74-2.07-4.57-4.79-7.72-10.69-7.24v-4.09Z"/><path class="cls-2" d="m1078.61,114.44l1.6,22.52h-3.99c-2.55-16.53-14.2-25.83-34.15-25.83-17.55,0-45,11.5-45,49.92,0,31.97,23.14,54.64,47.55,54.64,15.16,0,28.56-9.76,32.08-27.24l3.67.94-3.67,22.99c-6.86,4.09-24.73,8.35-35.43,8.35-37.02,0-60.8-23.78-60.8-59.21,0-31.97,28.72-55.43,60.48-55.43,12.92,0,25.37,4.09,37.66,8.35Z"/><path class="cls-2" d="m1168.46,183.26c0,19.68-15.64,37.48-36.7,37.48-22.34,0-38.62-15.43-38.62-36.85s15.48-37.48,36.54-37.48c23.14,0,38.78,15.43,38.78,36.85Zm-36.86,33.38c15.32,0,22.18-17.01,22.18-31.81,0-13.23-7.02-34.33-24.1-34.33-14.2,0-21.86,16.06-21.86,31.81,0,14.17,7.66,34.33,23.78,34.33Z"/><path class="cls-2" d="m1203.73,99.95v108.97c0,4.09,1.75,5.35,6.38,5.35h4.31v4.09c-5.9,0-11.97-.31-17.87-.31-5.42,0-10.85.16-16.28.31v-4.09h3.67c3.83,0,7.02-.16,7.02-5.04v-86.92c0-9.45-.8-11.34-8.46-13.23v-2.52c8.94-2.99,13.88-5.35,16.44-6.77,2.23-1.1,2.87-1.73,3.51-1.73.8,0,1.28.79,1.28,1.89Z"/><path class="cls-2" d="m1248.09,99.95v108.97c0,4.09,1.75,5.35,6.38,5.35h4.31v4.09c-5.9,0-11.97-.31-17.87-.31-5.42,0-10.85.16-16.28.31v-4.09h3.67c3.83,0,7.02-.16,7.02-5.04v-86.92c0-9.45-.8-11.34-8.46-13.23v-2.52c8.94-2.99,13.88-5.35,16.44-6.77,2.23-1.1,2.87-1.73,3.51-1.73.8,0,1.28.79,1.28,1.89Z"/><path class="cls-2" d="m1328.52,171.45c0,.79,0,1.73-.16,2.52l-1.44.94h-44.84c-.32,2.05-.32,4.25,0,8.98.96,14.8,10.37,27.4,23.46,27.4,8.94,0,15.8-4.88,21.54-10.55l2.23,2.2c-8.94,11.97-18.51,17.79-29.52,17.79-23.62,0-30.48-21.42-30.48-34.49,0-30.71,21.06-39.84,32.23-39.84,14.36,0,26.97,9.29,26.97,25.04Zm-18.19-1.57c3.19,0,4.47-1.1,4.47-4.09,0-7.56-4.63-14.33-14.04-14.33s-16.28,6.93-18.19,18.42h27.77Z"/><path class="cls-2" d="m1400.33,151.29c1.12,0,5.9,0,10.21-.79v7.56l-15.8-.63c2.71,3.31,4.15,7.72,4.15,11.97,0,12.76-11.33,24.25-29.04,24.25-2.71,0-6.22-.32-9.25-.95-3.03,2.21-4.79,4.25-4.79,8.03,0,5.04,3.99,7.24,11.17,7.24l22.5.16c12.61.16,21.38,3.78,21.38,15.75,0,6.14-7.98,30.39-42.29,30.39-17.87,0-30.16-7.72-30.16-17.64,0-8.98,6.7-15.43,18.67-18.11v-.31c-7.66-2.21-14.04-6.93-14.04-13.86,0-1.1,0-3.31.64-4.88,5.58-3.15,11.33-6.14,13.24-7.87-8.94-4.57-15-10.55-15-20.94,0-14.64,11.33-24.25,29.84-24.25,11.17,0,18.83,4.88,28.56,4.88Zm-29.2,97.95c11.97,0,27.93-5.2,27.93-18.11,0-10.24-10.69-12.75-23.46-12.75-13.56,0-25.53,1.73-25.53,14.8,0,9.45,7.98,16.06,21.06,16.06Zm-.48-59.68c9.58,0,15.48-7.24,15.48-18.42,0-9.29-4.95-20.63-16.6-20.63-9.1,0-13.88,8.98-13.88,17.95,0,10.55,4.79,21.1,15,21.1Z"/><path class="cls-2" d="m1479.16,171.45c0,.79,0,1.73-.16,2.52l-1.44.94h-44.84c-.32,2.05-.32,4.25,0,8.98.96,14.8,10.37,27.4,23.46,27.4,8.94,0,15.8-4.88,21.54-10.55l2.23,2.2c-8.94,11.97-18.51,17.79-29.52,17.79-23.62,0-30.48-21.42-30.48-34.49,0-30.71,21.06-39.84,32.23-39.84,14.36,0,26.97,9.29,26.97,25.04Zm-18.19-1.57c3.19,0,4.47-1.1,4.47-4.09,0-7.56-4.63-14.33-14.04-14.33s-16.28,6.93-18.19,18.42h27.77Z"/><path class="cls-2" d="m514.85,286.05h18.6c14.19,0,23.84,8.84,23.84,21.78s-9.65,21.78-23.84,21.78h-18.6v-43.56Zm18.23,38.14c10.91,0,17.91-6.6,17.91-16.37s-7-16.36-17.91-16.36h-11.92v32.73h11.92Z"/><path class="cls-2" d="m596.46,329.61l-9.52-13.38c-.88.06-1.83.12-2.77.12h-10.91v13.25h-6.31v-43.56h17.22c11.48,0,18.42,5.72,18.42,15.18,0,6.72-3.53,11.57-9.71,13.75l10.47,14.62h-6.87Zm-.19-28.38c0-6.22-4.23-9.77-12.3-9.77h-10.72v19.6h10.72c8.07,0,12.3-3.61,12.3-9.83Z"/><path class="cls-2" d="m644.83,324.2v5.41h-32.04v-43.56h31.15v5.41h-24.85v13.38h22.14v5.29h-22.14v14.06h25.73Z"/><path class="cls-2" d="m683.18,318.72h-23.46l-4.86,10.89h-6.5l19.99-43.56h6.24l20.05,43.56h-6.62l-4.86-10.89Zm-2.21-4.98l-9.52-21.34-9.52,21.34h19.05Z"/><path class="cls-2" d="m742.15,329.61l-.06-31.73-15.96,26.45h-2.9l-15.96-26.26v31.55h-6.05v-43.56h5.17l18.42,30.62,18.16-30.62h5.17l.06,43.56h-6.05Z"/><path class="cls-2" d="m757.73,325.69c0-2.49,1.96-4.23,4.29-4.23s4.16,1.74,4.16,4.23-1.89,4.29-4.16,4.29-4.29-1.8-4.29-4.29Z"/><path class="cls-2" d="m799.04,291.47v15.18h22.14v5.35h-22.14v17.61h-6.31v-43.56h31.15v5.41h-24.85Z"/><path class="cls-2" d="m832.78,286.05h6.31v38.14h23.9v5.41h-30.21v-43.56Z"/><path class="cls-2" d="m865.83,307.83c0-12.76,9.96-22.28,23.52-22.28s23.4,9.46,23.4,22.28-9.96,22.28-23.4,22.28-23.52-9.52-23.52-22.28Zm40.61,0c0-9.64-7.32-16.74-17.09-16.74s-17.22,7.09-17.22,16.74,7.32,16.74,17.22,16.74,17.09-7.09,17.09-16.74Z"/><path class="cls-2" d="m922.02,310.82v-24.77h6.31v24.52c0,9.64,4.48,14,12.42,14s12.49-4.36,12.49-14v-24.52h6.12v24.77c0,12.63-7,19.29-18.67,19.29s-18.67-6.66-18.67-19.29Z"/><path class="cls-2" d="m1001.8,329.61l-9.52-13.38c-.88.06-1.83.12-2.77.12h-10.91v13.25h-6.31v-43.56h17.22c11.48,0,18.41,5.72,18.41,15.18,0,6.72-3.53,11.57-9.71,13.75l10.47,14.62h-6.87Zm-.19-28.38c0-6.22-4.23-9.77-12.3-9.77h-10.72v19.6h10.72c8.07,0,12.3-3.61,12.3-9.83Z"/><path class="cls-2" d="m1018.14,286.05h6.31v43.56h-6.31v-43.56Z"/><path class="cls-2" d="m1033.65,324.63l2.33-4.85c3.28,2.92,8.89,5.04,14.57,5.04,7.63,0,10.91-2.92,10.91-6.72,0-10.64-26.74-3.92-26.74-20.1,0-6.72,5.3-12.45,16.9-12.45,5.17,0,10.53,1.37,14.19,3.86l-2.08,4.98c-3.85-2.43-8.2-3.55-12.11-3.55-7.5,0-10.72,3.11-10.72,6.91,0,10.64,26.74,3.98,26.74,19.97,0,6.66-5.42,12.38-17.09,12.38-6.75,0-13.37-2.24-16.9-5.48Z"/><path class="cls-2" d="m1114.82,286.05v43.56h-6.31v-19.41h-25.35v19.41h-6.31v-43.56h6.31v18.73h25.35v-18.73h6.31Z"/><path class="cls-2" d="m1124.34,325.69c0-2.49,1.96-4.23,4.29-4.23s4.16,1.74,4.16,4.23-1.89,4.29-4.16,4.29-4.29-1.8-4.29-4.29Z"/><path class="cls-2" d="m1155.31,324.63l2.33-4.85c3.28,2.92,8.89,5.04,14.57,5.04,7.63,0,10.91-2.92,10.91-6.72,0-10.64-26.74-3.92-26.74-20.1,0-6.72,5.3-12.45,16.9-12.45,5.17,0,10.53,1.37,14.19,3.86l-2.08,4.98c-3.85-2.43-8.2-3.55-12.11-3.55-7.5,0-10.72,3.11-10.72,6.91,0,10.64,26.74,3.98,26.74,19.97,0,6.66-5.42,12.38-17.09,12.38-6.75,0-13.37-2.24-16.9-5.48Z"/><path class="cls-2" d="m1198.13,310.82v-24.77h6.31v24.52c0,9.64,4.48,14,12.42,14s12.49-4.36,12.49-14v-24.52h6.12v24.77c0,12.63-7,19.29-18.67,19.29s-18.67-6.66-18.67-19.29Z"/><path class="cls-2" d="m1244.8,307.83c0-12.88,9.96-22.28,23.4-22.28,6.81,0,12.74,2.3,16.78,6.78l-4.1,3.92c-3.41-3.55-7.57-5.17-12.42-5.17-9.96,0-17.34,7.09-17.34,16.74s7.38,16.74,17.34,16.74c4.86,0,9.02-1.68,12.42-5.23l4.1,3.92c-4.04,4.48-9.96,6.84-16.84,6.84-13.37,0-23.33-9.4-23.33-22.28Z"/><path class="cls-2" d="m1289.45,307.83c0-12.88,9.96-22.28,23.4-22.28,6.81,0,12.74,2.3,16.78,6.78l-4.1,3.92c-3.41-3.55-7.57-5.17-12.42-5.17-9.96,0-17.34,7.09-17.34,16.74s7.38,16.74,17.34,16.74c4.86,0,9.02-1.68,12.42-5.23l4.1,3.92c-4.04,4.48-9.96,6.84-16.84,6.84-13.37,0-23.33-9.4-23.33-22.28Z"/><path class="cls-2" d="m1370.68,324.2v5.41h-32.04v-43.56h31.15v5.41h-24.85v13.38h22.13v5.29h-22.13v14.06h25.73Z"/><path class="cls-2" d="m1412.94,324.2v5.41h-32.04v-43.56h31.15v5.41h-24.85v13.38h22.13v5.29h-22.13v14.06h25.73Z"/><path class="cls-2" d="m1423.16,286.05h18.6c14.19,0,23.84,8.84,23.84,21.78s-9.65,21.78-23.84,21.78h-18.6v-43.56Zm18.23,38.14c10.91,0,17.91-6.6,17.91-16.37s-7-16.36-17.91-16.36h-11.92v32.73h11.92Z"/><path class="cls-2" d="m1470.27,325.69c0-2.49,1.96-4.23,4.29-4.23s4.16,1.74,4.16,4.23-1.89,4.29-4.16,4.29-4.29-1.8-4.29-4.29Z"/><rect class="cls-3" x="512.88" y="246.27" width="321.11" height="8.13"/><rect class="cls-3" x="903.34" y="246.27" width="420.22" height="8.13"/><rect class="cls-3" x="1417.89" y="246.27" width="61.75" height="8.13"/></svg>