<?xml version="1.0" encoding="utf-8"?>
<!-- Generator: Adobe Illustrator 19.1.0, SVG Export Plug-In . SVG Version: 6.00 Build 0)  -->
<svg version="1.1" id="Layer_1" xmlns="http://www.w3.org/2000/svg" xmlns:xlink="http://www.w3.org/1999/xlink" x="0px" y="0px"
	 width="175px" height="45px" viewBox="0 0 175 45" style="enable-background:new 0 0 175 45;" xml:space="preserve">
<style type="text/css">
	.st0{fill:#FFFFFF;}
	.st1{fill:#EE3124;}
</style>
<g id="XMLID_494_">
	<g id="XMLID_445_">
		<g id="XMLID_479_">
			<path id="XMLID_480_" class="st0" d="M62.1,35.1l0,0.1H62h-0.5l0-0.1c-0.3-1.1-1.3-1.5-2.2-1.5l0,0c-1.8,0-2.6,1.6-2.6,3.5l0,0
				c0,3.3,2.1,3.8,3,3.8l0,0c0.8,0,1.6-0.4,2.1-1.2l0,0l0-0.1l0.1,0l0.4,0.2l-0.4,1.5l-0.1,0c-0.9,0.2-1.4,0.3-2.1,0.3l0,0
				c-3.3,0-4.7-2.2-4.7-4.4l0,0c0-2.5,1.8-4.3,4.2-4.3l0,0c1.4,0,2,0.3,2.7,0.5l0,0l0.1,0L62.1,35.1"/>
		</g>
		<g id="XMLID_476_">
			<path id="XMLID_477_" class="st0" d="M67.4,41.4c-0.4,0-0.8,0-1.1,0l0,0c-0.4,0-0.7,0-1.1,0l0,0H65v-0.1V41l0.1,0
				c0.3,0,0.4-0.3,0.5-0.8l0,0v-1.7c0-1.4-0.1-3.5-0.1-4.2l0,0c0-0.5,0-0.8-0.4-0.8l0,0l-0.1,0v-0.1V33h0.1c0.4,0,0.7,0,1.1,0l0,0
				c0.4,0,0.7,0,1.1,0l0,0h0.1v0.1v0.3v0.1l-0.1,0C67,33.5,67,33.7,67,34.1l0,0c0,1.1,0,2.5,0,3.8l0,0v2.3c0,0.4,0.1,0.7,0.4,0.8
				l0,0l0.1,0v0.1L67.4,41.4L67.4,41.4L67.4,41.4z"/>
		</g>
		<g id="XMLID_473_">
			<path id="XMLID_474_" class="st0" d="M75.9,41.6c-0.4,0-0.8,0-1.2,0l0,0c-0.4,0-0.8,0-1.2,0l0,0h-0.1v-0.1v-0.3l0.1,0
				c0.5-0.2,0.6-0.4,0.6-1l0,0v-1.9c0-1.6-0.1-3.3-0.1-4.3l0,0h-1.4c-0.6,0-0.8,0.2-1,0.8l0,0l0,0.1h-0.1H71V33l0.1,0
				c0.2,0.1,0.4,0.1,0.6,0.1l0,0c0.2,0,0.4,0,0.6,0l0,0h4.8c0.3,0,0.8-0.1,1-0.2l0,0l0.1-0.1v1.8v0.1h-0.1h-0.5l0-0.1
				c-0.1-0.7-0.4-0.8-1-0.8l0,0h-1.3c0,1-0.1,2.3-0.1,3.6l0,0v2.5c0,0.7,0.2,0.9,0.6,1l0,0l0.1,0v0.1L75.9,41.6L75.9,41.6L75.9,41.6
				z"/>
		</g>
		<g id="XMLID_470_">
			<path id="XMLID_471_" class="st0" d="M85.5,41.4c-0.4,0-0.8,0-1.2,0l0,0c-0.4,0-0.8,0-1.2,0l0,0H83v-0.1v-0.3V41l0.1,0
				c0.5-0.1,0.6-0.3,0.6-0.8l0,0v-2.2l-2-3.6c-0.2-0.4-0.3-0.6-0.6-0.8l0,0l0,0v-0.1V33h0.1c0.4,0,0.8,0,1.1,0l0,0
				c0.4,0,0.7,0,1.1,0l0,0h0.1v0.1v0.3l-0.1,0c-0.2,0.1-0.3,0.1-0.3,0.3l0,0c0,0.1,0.1,0.4,0.2,0.7l0,0l1.3,2.5l1.3-2.4
				c0.2-0.4,0.2-0.6,0.2-0.8l0,0c0-0.2-0.2-0.3-0.4-0.3l0,0l-0.1,0v-0.1V33h0.1c0.3,0,0.7,0,1,0l0,0c0.3,0,0.6,0,1,0l0,0h0.1v0.1
				v0.3l-0.1,0c-0.3,0.1-0.5,0.4-0.8,0.9l0,0L85,37.7v2.4c0,0.6,0.1,0.7,0.6,0.8l0,0l0.1,0v0.1L85.5,41.4L85.5,41.4L85.5,41.4z"/>
		</g>
		<g id="XMLID_467_">
			<path id="XMLID_468_" class="st0" d="M104.1,35.1l0,0.1H104h-0.5l0-0.1c-0.3-1.1-1.3-1.5-2.2-1.5l0,0c-1.8,0-2.6,1.6-2.6,3.5l0,0
				c0,3.3,2.1,3.8,3,3.8l0,0c0.8,0,1.6-0.4,2.1-1.2l0,0l0-0.1l0.1,0l0.4,0.2l-0.4,1.5l-0.1,0c-0.9,0.2-1.4,0.3-2.1,0.3l0,0
				c-3.3,0-4.7-2.2-4.7-4.4l0,0c0-2.5,1.8-4.3,4.2-4.3l0,0c1.4,0,2,0.3,2.7,0.5l0,0l0.1,0L104.1,35.1z"/>
		</g>
		<g id="XMLID_461_">
			<path id="XMLID_462_" class="st0" d="M111.3,33c2.5,0,4.3,1.6,4.3,4.4l0,0c0,2.8-1.8,4.4-4.3,4.4l0,0c-2.5,0-4.3-1.6-4.3-4.4l0,0
				C107,34.6,108.8,33,111.3,33L111.3,33 M108.5,37.4L108.5,37.4 M111.3,41.2L111.3,41.2L111.3,41.2V41c1.8,0,2.6-1.7,2.6-3.7l0,0
				c0-1.9-0.8-3.7-2.6-3.7l0,0c-1.8,0-2.6,1.7-2.6,3.7l0,0c0,1.9,0.8,3.7,2.6,3.7l0,0V41.2L111.3,41.2 M114.1,37.4L114.1,37.4"/>
		</g>
		<g id="XMLID_458_">
			<path id="XMLID_459_" class="st0" d="M124.5,41.6c-0.2-0.1-0.3-0.1-0.5-0.1l0,0c-0.2,0-0.3,0-0.5,0l0,0h-3.5c-0.1,0-0.3,0-0.4,0
				l0,0c-0.1,0-0.3,0-0.4,0l0,0H119v-0.1v-0.3V41h0.1c0.4,0,0.6-0.3,0.6-0.6l0,0v-6c0-0.5-0.2-0.8-0.6-0.9l0,0l-0.1,0v-0.1V33h0.1
				c0.4,0,0.8,0,1.2,0l0,0c0.4,0,0.8,0,1.2,0l0,0h0.1v0.1v0.3l-0.1,0c-0.4,0.1-0.5,0.3-0.5,0.9l0,0c0,0.4,0,1.1,0,2.2l0,0v4
				c0.2,0,0.4,0.1,1.1,0.1l0,0c1.9,0,2.1-0.3,2.4-1.1l0,0l0-0.1l0.1,0l0.5,0.3L124.5,41.6L124.5,41.6L124.5,41.6z"/>
		</g>
		<g id="XMLID_455_">
			<path id="XMLID_456_" class="st0" d="M133.5,41.6c-0.2-0.1-0.3-0.1-0.5-0.1l0,0c-0.2,0-0.3,0-0.5,0l0,0h-3.5c-0.1,0-0.3,0-0.4,0
				l0,0c-0.1,0-0.3,0-0.4,0l0,0H128v-0.1v-0.3V41h0.1c0.4,0,0.6-0.3,0.6-0.6l0,0v-6c0-0.5-0.2-0.8-0.6-0.9l0,0l-0.1,0v-0.1V33h0.1
				c0.4,0,0.8,0,1.2,0l0,0c0.4,0,0.8,0,1.2,0l0,0h0.1v0.1v0.3l-0.1,0c-0.4,0.1-0.5,0.3-0.5,0.9l0,0c0,0.4,0,1.1,0,2.2l0,0v4
				c0.2,0,0.4,0.1,1.1,0.1l0,0c1.9,0,2.1-0.3,2.4-1.1l0,0l0-0.1l0.1,0l0.5,0.3L133.5,41.6L133.5,41.6L133.5,41.6z"/>
		</g>
		<g id="XMLID_452_">
			<path id="XMLID_453_" class="st0" d="M142.2,41.7c-0.2-0.1-0.3-0.1-0.5-0.1l0,0c-0.2,0-0.3,0-0.5,0l0,0H137v-0.1v-0.3v-0.1l0.1,0
				c0.4-0.1,0.5-0.3,0.5-0.6l0,0v-2c0-1.6-0.1-3.3-0.1-4.3l0,0c0-0.2-0.2-0.4-0.5-0.5l0,0l-0.1,0v-0.1v-0.4h4.4
				c0.3,0,0.6-0.1,0.8-0.2l0,0l0.1,0v0.1c0,0.3,0,0.6,0,0.9l0,0c0,0.3,0,0.6,0,0.9l0,0V35h-0.1h-0.5l0-0.1c-0.2-0.6-0.4-0.9-1-0.9
				l0,0H139v2.9h1.5c0.6,0,0.7,0,1-0.6l0,0l0-0.1h0.1h0.4v0.1c0,0.4,0,0.7,0,1l0,0c0,0.3,0,0.7,0,1l0,0v0.1h-0.1h-0.4l0-0.1
				c-0.3-0.8-0.4-0.8-1-0.8l0,0H139v3.1h1.7c0.8,0,1-0.1,1.5-0.8l0,0l0-0.1l0.1,0l0.4,0.2L142.2,41.7L142.2,41.7L142.2,41.7z"/>
		</g>
		<g id="XMLID_449_">
			<path id="XMLID_450_" class="st0" d="M146,37.3c0-3.2,2.5-4.3,4.7-4.3l0,0c1,0,1.7,0.2,2.4,0.4l0,0l0.1,0l0.1,1.3l-0.1,0v-0.1
				v0.1l0.1,0l0,0.1h-0.1h-0.5l0,0c-0.4-0.8-1.2-1.1-1.9-1.1l0,0c-2,0-3,1.4-3,3.5l0,0c0,2.2,1.1,3.8,3.2,3.8l0,0
				c0.6,0,0.9-0.1,1.2-0.2l0,0c0.2-0.2,0.2-0.3,0.2-1.1l0,0c0-0.8-0.1-0.8-0.4-1l0,0l-0.1,0v-0.1v-0.4l0.1,0c0.3,0,0.7,0,1,0l0,0
				c0.3,0,0.7,0,1,0l0,0l0.1,0v0.1v0.3l-0.1,0c-0.2,0-0.3,0.1-0.3,0.8l0,0c0,0.6,0,1,0,1.4l0,0l0,0.1l-0.1,0
				c-0.8,0.4-1.8,0.6-2.7,0.6l0,0C148.5,41.7,146,40.3,146,37.3L146,37.3z"/>
		</g>
		<g id="XMLID_446_">
			<path id="XMLID_447_" class="st0" d="M162.2,41.7c-0.2-0.1-0.3-0.1-0.5-0.1l0,0c-0.2,0-0.3,0-0.5,0l0,0H157v-0.1v-0.3v-0.1l0.1,0
				c0.4-0.1,0.5-0.3,0.5-0.6l0,0v-2c0-1.6-0.1-3.3-0.1-4.3l0,0c0-0.2-0.2-0.4-0.5-0.5l0,0l-0.1,0v-0.1v-0.4h4.4
				c0.3,0,0.6-0.1,0.8-0.2l0,0l0.1,0v0.1c0,0.3,0,0.6,0,0.9l0,0c0,0.3,0,0.6,0,0.9l0,0V35h-0.1h-0.5l0-0.1c-0.2-0.6-0.4-0.9-1-0.9
				l0,0H159v2.9h1.5c0.6,0,0.7,0,1-0.6l0,0l0-0.1h0.1h0.4v0.1c0,0.4,0,0.7,0,1l0,0c0,0.3,0,0.7,0,1l0,0v0.1h-0.1h-0.4l0-0.1
				c-0.3-0.8-0.4-0.8-1-0.8l0,0H159v3.1h1.8c0.8,0,1-0.1,1.5-0.8l0,0l0-0.1l0.1,0l0.4,0.2L162.2,41.7L162.2,41.7L162.2,41.7z"/>
		</g>
	</g>
	<g id="XMLID_411_">
		<path id="XMLID_415_" class="st0" d="M54.2,25.7c-0.3-0.1-0.6-0.2-1-0.3l0,0c-0.3,0-0.6-0.1-1-0.1h-0.4h-7.3c-0.2,0-0.5,0-0.8,0
			l0,0c-0.3,0-0.5,0-0.8,0l0,0H43v-0.1v-0.5v-0.1h0.1c0.8,0,1.3-0.6,1.3-1.3l0,0V12.4c0-1.1-0.5-1.6-1.2-1.8l0,0l0,0v0V10h0.1
			c0.8,0,1.5,0.1,2.3,0.1l0,0c0.8,0,1.5-0.1,2.3-0.1l0,0h0.1v0.1v0.5l0,0c-0.8,0.2-1,0.7-1,1.9l0,0c0,0.7-0.1,2.1-0.1,4l0,0V24
			c0.4,0.1,1.9,0.1,3.2,0.1h-0.4c3.5,0,4.4-0.7,4.9-2l0,0l0-0.1l0.8,0.4L54.2,25.7L54.2,25.7L54.2,25.7z M63.6,12
			c3.9,0,6.6,2.4,6.6,6.7c0,4.3-2.7,6.7-6.6,6.7c-3.9,0-6.6-2.4-6.6-6.7C57,14.4,59.7,12,63.6,12z M63.6,24.6c2.9,0,4.2-2.9,4.2-5.9
			c0-3.1-1.3-5.9-4.2-5.9c-2.9,0-4.2,2.9-4.2,5.9C59.4,21.8,60.7,24.6,63.6,24.6z M88,18.6c0-4.9,3.8-6.6,7.3-6.6l0,0
			c1.6,0,2.7,0.3,3.8,0.7l0,0l0,0l0.1,1.9l-0.1,0v-0.1v0.1l0.1,0l0,0.1h-0.8l0,0c-0.6-1.3-1.9-1.7-3.1-1.7l0,0
			c-3.2,0-4.9,2.3-4.9,5.7l0,0c0,3.5,1.8,6.1,5.1,6.1l0,0c0.9,0,1.5-0.1,1.9-0.4l0,0c0.4-0.3,0.4-0.5,0.4-1.8l0,0
			c0-1.3-0.2-1.4-0.7-1.6l0,0l0,0v0v-0.5l0.1,0c0.5,0,1,0.1,1.6,0.1l0,0c0.5,0,1,0,1.6-0.1l0,0l0.1,0v0.1v0.5l0,0
			c-0.4,0.1-0.6,0.3-0.6,1.4l0,0c0,1,0,1.6,0.1,2.2l0,0v0l0,0c-1.3,0.6-2.8,0.9-4.2,0.9l0,0C91.9,25.5,88,23.3,88,18.6L88,18.6z
			 M112.3,23.2c0,1.2,1.5,1.4,2.7,1.4c1.7,0,2.7-1.4,2.7-3c0-2-1.1-3.5-3-3.5c-0.3,0-2,0-2.4,0V23.2z M114.6,25.4
			c-0.3,0-1.9,0-2.1,0l0,0H109v-0.1v-0.4l0,0c0.9-0.1,1.1-0.4,1.1-1.3l0,0V19c0-2.6-0.1-5.4-0.1-7.4l0,0c0-0.8-0.3-1-0.8-1.1l0,0
			l0,0v0V10h0c1,0,1.8,0.1,2.6,0.1l0,0c0.9,0,2.7-0.1,3.2-0.1l0,0c2.3,0,5,1.1,5,4l0,0c0,1.9-1.4,3.1-2.8,3.6l0,0
			c1.8,0.6,3.1,1.8,3.1,4l0,0c0,2.9-2.6,3.8-4.8,3.8l0,0C115.2,25.4,114.9,25.4,114.6,25.4L114.6,25.4z M114.6,17.1
			c1.8,0,2.9-1.2,2.9-3.1l0,0c0-1.9-0.8-3.1-2.9-3.1l0,0c-0.6,0-2.1,0-2.1,0.4l0,0l-0.1,5.8C112.7,17.1,114.3,17.1,114.6,17.1
			L114.6,17.1z M132.1,25.5c-0.3-0.1-0.5-0.2-0.8-0.2l0,0c-0.2,0-0.5-0.1-0.8-0.1l0,0H124v-0.1v-0.4v-0.1l0,0
			c0.6-0.1,0.9-0.5,0.9-1.1l0,0v-3.1c0-2.5-0.1-5.2-0.1-6.8l0,0c0-0.4-0.3-0.7-0.8-0.8l0,0l0,0v0v-0.5h6.8c0.4,0,1-0.2,1.3-0.3l0,0
			l0.1,0v0.1c0,0.5-0.1,0.9-0.1,1.4l0,0c0,0.5,0.1,0.9,0.1,1.4l0,0v0.1h-0.1h-0.7l0,0c-0.3-0.9-0.7-1.5-1.6-1.5l0,0h-2.9v4.8h2.5
			c1,0,1.3-0.1,1.7-1l0,0l0,0h0h0.6v0.1c0,0.5-0.1,1.1-0.1,1.6l0,0c0,0.6,0.1,1.1,0.1,1.6l0,0v0.1h0h-0.6l0,0
			c-0.4-1.3-0.6-1.3-1.6-1.3l0,0h-2.5v5.1h2.8c1.3,0,1.7-0.2,2.4-1.4l0,0l0,0l0.6,0.3L132.1,25.5L132.1,25.5L132.1,25.5z
			 M145.6,25.3c-0.6,0-1.1-0.1-1.7-0.1l0,0c-0.6,0-1.1,0.1-1.7,0.1l0,0h-0.1v-0.1v-0.5h0.1c0.3,0,0.5-0.2,0.5-0.6l0,0
			c0-0.2-0.1-0.6-0.2-0.9l0,0l-0.6-1.7H138l-0.4,1.6c-0.1,0.3-0.1,0.7-0.1,0.9l0,0c0,0.4,0.2,0.7,0.6,0.7l0,0h0.1v0.1v0.5H138
			c-0.5,0-1-0.1-1.5-0.1l0,0c-0.5,0-1,0.1-1.5,0.1l0,0H135v-0.1v-0.5l0,0c0.6-0.1,1.3-1.9,1.6-2.7l0,0l3.6-10h0h0.2l3.7,10.5
			c0.6,1.7,0.8,2.2,1.3,2.3l0,0l0,0v0.1L145.6,25.3L145.6,25.3L145.6,25.3z M138.3,20.5h3.2l-1.6-4.7L138.3,20.5L138.3,20.5z
			 M147,18.7c0-3.9,2.7-6.7,6.6-6.7l0,0c2.2,0,3.1,0.4,4.3,0.7l0,0l0,0l0.1,2.5l-0.1,0v-0.1v0.1l0.1,0l0,0.1h-0.8l0,0
			c-0.5-1.7-2.2-2.4-3.6-2.4l0,0c-2.9,0-4.1,2.6-4.1,5.7l0,0c0,5.2,3.4,6.1,4.8,6.1l0,0c1.4,0,2.6-0.6,3.3-1.9l0,0l0,0l0.6,0.3
			l-0.5,2.1l0,0c-1.4,0.3-2.2,0.4-3.3,0.4l0,0C149.3,25.5,147,22.1,147,18.7L147,18.7z M170.5,19.3c-1.2-0.1-2.5-0.4-3.3-0.6
			c-1.8-0.4-2.6-0.2-3.3-0.1l0,0.5l0,0c0,1.5,0,2.6,0,4.1l0,0c0,0.6,0.2,1.3,0.8,1.3l0,0l0.1,0v0.1v0.5h-0.1c-0.6,0-1.2-0.1-1.7-0.1
			l0,0c-0.6,0-1.2,0.1-1.7,0.1l0,0h-0.1V25v-0.5l0,0c0.5,0,0.8-0.5,0.8-1.3l0,0v-2.7c0-2.2-0.2-5.5-0.2-6.7l0,0
			c0-0.8-0.1-1.3-0.7-1.4l0,0l0,0v0V12h0.1c0.6,0,1.2,0.1,1.7,0.1l0,0c0.6,0,1.2-0.1,1.8-0.1l0,0h0v0.1v0.4v0l0,0
			c-0.6,0.1-0.6,0.5-0.7,1.2l0,0c0,1.3,0,2.4,0,3.7v0.3c0.2,0,1.3-0.3,2.2-0.3c1.7,0,3.5,0.4,4.4,0.6l0-0.3c0-1.2-0.1-2.4-0.1-3.7
			l0,0c0-0.8-0.1-1.3-0.7-1.4l0,0l0,0v0V12h0.1c0.6,0,1.2,0.1,1.8,0.1l0,0c0.6,0,1.2-0.1,1.7-0.1l0,0h0.1v0.1v0.5l0,0
			c-0.6,0.1-0.6,0.5-0.7,1.2l0,0c0,1.4,0,2.9-0.1,4.5h0c0.6,0,1.1-0.2,1.7-0.5c0,0-0.1,0.6-0.1,0.6c-0.3,0.3-0.9,0.7-1.5,0.9
			c0,0,0,0-0.1,0l0,0.1c0,0.1,0,0.3,0,0.4l0,0v3.6c0,0.6,0.2,1.3,0.8,1.3l0,0l0.1,0v0.1v0.5h-0.1l0,0c-0.6,0-1.2-0.1-1.7-0.1l0,0
			c-0.6,0-1.2,0.1-1.7,0.1l0,0h-0.1V25v-0.5l0.1,0c0.5,0,0.8-0.5,0.8-1.3l0,0C170.6,21.9,170.5,20.7,170.5,19.3L170.5,19.3z"/>
		<g id="XMLID_412_">
			<g id="XMLID_413_">
				<path id="XMLID_414_" class="st0" d="M84.5,26.7l-1-1.2l-8.3-9.9l0.1,6.9c0,1.4,0.4,2.1,1.2,2.3l0,0l0,0v0v0.5h-0.1
					c-0.6,0-1.1-0.1-1.7-0.1l0,0c-0.6,0-1.1,0.1-1.7,0.1l0,0H73v-0.1v-0.4v0l0,0c0.6-0.2,1-0.7,1-1.7l0,0l0-11h0.8l8.2,9.9v-6.2
					c0-2.3-0.4-2.8-1.2-2.9l0,0l0,0v0v-0.5h0.1c0.6,0,1.1,0.1,1.7,0.1l0,0c0.6,0,1.1-0.1,1.7-0.1l0,0h0.1v0.1v0.5l0,0
					c-0.7,0.1-1.1,0.7-1.1,2.2l0,0l0,6.5c0,0,0.1,2.6,0.4,3.4c0.2,0.5,0.5,1.2,0.5,1.2L84.5,26.7z"/>
			</g>
		</g>
	</g>
	<path id="XMLID_407_" class="st1" d="M25.4,40c8.5,0,12.3-5.5,12.3-10.8c0-5.8-4.6-9.4-8.4-10.7c2.5-2.2,4.7-4.6,4.7-8.7
		c0-2.4-1.2-6.5-7.4-7.3c-2-0.2-15.5,0-15.6,0c-2.9,0-5.3,0-6.6-0.3C2.7,1.9,1.2,1.6,0.6,0.3C0.2-0.4-0.2,0.3,0.1,0.9
		C0.3,1.4,0.6,2,1.2,2.7C3.4,5,8.5,4.9,9.6,8.1c0.5,1.6-0.4,3-1.7,3.2c-0.1,0-0.2,0.1-0.2,0.2c0,0,0,0,0,0c0,1.8,0,4.1,0,8.3v7.4
		c0,5.6,0,10.4-0.3,12.9c-0.2,1.8-0.5,3.1-1.6,3.3c-0.5,0.1-1.2,0.2-2,0.2c-0.7,0-0.9,0.2-0.9,0.5c0,0.4,0.4,0.6,1.1,0.6
		c1.1,0,2.6-0.1,3.9-0.1c1.3-0.1,2.6-0.1,3.2-0.1c2.3,0,9.5,0.1,12,0.2c2.5,0.1,5.4,0.2,9.5,0.2c2.9,0,3.2-0.3,3.5-1.6
		c0.4-1.8,1.4-5.8,1.5-6.5c0.1-0.7,0.1-1-0.3-1.1c-0.4-0.1-0.5,0.3-0.8,0.8c-0.9,1.8-2.1,2.7-3,3.3c-1.7,1.2-3.6,1.7-6.6,1.7
		c-4.4,0-10.2-0.4-11.1-1.3c0,0,0,0,0,0c-0.7-0.5-1.3-1.6-1.3-3.6c0-2.8,0-30.4,0-30.9c0-1.2,1.8-1.2,1.8,0.3
		c0,1.4,0.1,12.2,0.1,12.2v2.1c0,0-0.1,15-0.1,15.5c-0.1,2,0.6,3.7,4,4C22.1,39.9,23.5,39.9,25.4,40z M21.5,5.2
		c0-0.5,0.1-0.7,0.4-0.8c0.5-0.1,0.9-0.1,1.5-0.1c4,0,5.8,4.4,5.8,7.7c0,2.4-0.7,4.2-1.9,5.3c-0.8,0.7-1.8,0.9-3.3,0.9
		c-1.1,0-1.7,0-2.2-0.1c-0.2,0-0.3-0.1-0.3-0.5V5.2z M21.5,20.6c0-0.2,0.1-0.3,0.3-0.3c0.7,0,1.2,0,2,0.1c1.8,0.1,2.9,0.4,3.8,1.2
		c3.5,2.6,4.5,6.8,4.5,9.9c0,5.2-3.5,6.4-5.6,6.4c-1.1,0-2.1,0-3.4-0.6c-1.5-0.6-1.6-1.5-1.6-4.8V20.6z"/>
	<g id="XMLID_402_">
		<path id="XMLID_405_" class="st0" d="M38.7,42.3c0-0.1,0-0.1-0.1-0.1h-0.1c-0.2,0-0.3,0-0.4,0.3c0,0-0.1,0-0.1,0
			c0-0.2,0.1-0.3,0.1-0.4c0,0,0,0,0,0c0,0,0,0,0,0c0,0.1,0,0.1,0.2,0.1h1.1c0.1,0,0.2,0,0.2-0.1c0,0,0,0,0,0c0,0,0,0,0,0
			c0,0.1,0,0.4,0,0.4c0,0-0.1,0-0.1,0c0-0.2-0.1-0.3-0.4-0.3h-0.2c-0.1,0-0.1,0-0.1,0.1v1.2c0,0.3,0,0.3,0.1,0.3l0.1,0
			c0,0,0,0.1,0,0.1c-0.2,0-0.3,0-0.4,0c-0.1,0-0.2,0-0.4,0c0,0,0-0.1,0-0.1l0.1,0c0.1,0,0.1,0,0.1-0.3V42.3z"/>
		<path id="XMLID_403_" class="st0" d="M42,43.9C42.1,43.9,42.1,43.9,42,43.9c-0.1,0.1-0.2,0.1-0.3,0.1c-0.1,0-0.2,0-0.4,0
			c0,0,0-0.1,0-0.1l0.1,0c0.1,0,0.1,0,0.1-0.2v-1.2h0c-0.1,0.2-0.1,0.2-0.2,0.4l-0.2,0.5c-0.1,0.2-0.2,0.5-0.3,0.6c0,0,0,0-0.1,0
			c0-0.2-0.2-0.4-0.2-0.6l-0.2-0.5c0-0.1-0.1-0.3-0.2-0.4h0c0,0.1,0,0.4,0,0.5c0,0.2,0,0.4,0,0.7c0,0.2,0,0.2,0.1,0.3l0.1,0
			c0,0,0,0.1,0,0.1c-0.1,0-0.2,0-0.3,0c-0.1,0-0.2,0-0.3,0c0,0,0-0.1,0-0.1l0,0c0.1,0,0.1-0.1,0.2-0.2c0-0.2,0-0.4,0-0.7
			c0-0.2,0-0.4,0-0.6c0-0.1,0-0.2-0.1-0.2l-0.1,0c0,0,0-0.1,0-0.1c0.1,0,0.1,0,0.2,0c0.1,0,0.2,0,0.3,0c0,0.2,0.1,0.3,0.1,0.5
			l0.3,0.7c0,0,0.1,0.2,0.1,0.3c0-0.1,0.1-0.2,0.1-0.3l0.2-0.5c0.1-0.2,0.2-0.4,0.2-0.5c0.1,0,0.2,0,0.2,0c0.1,0,0.2,0,0.3,0
			c0,0,0,0.1,0,0.1l-0.1,0c-0.1,0-0.1,0.1-0.1,0.2c0,0.4,0,0.8,0,1.3C41.8,43.8,41.9,43.8,42,43.9L42,43.9z"/>
	</g>
</g>
</svg>
