<?xml version="1.0" encoding="utf-8"?>
<!-- Generator: Adobe Illustrator 23.1.1, SVG Export Plug-In . SVG Version: 6.00 Build 0)  -->
<svg version="1.0" id="Layer_1" xmlns="http://www.w3.org/2000/svg" xmlns:xlink="http://www.w3.org/1999/xlink" x="0px" y="0px"
	 width="339.1px" height="199.4px" viewBox="0 0 339.1 199.4" style="enable-background:new 0 0 339.1 199.4;" xml:space="preserve"
	>
<style type="text/css">
	.st0{fill:url(#SVGID_1_);}
	.st1{fill:url(#SVGID_2_);}
	.st2{fill:url(#SVGID_3_);}
	.st3{fill:url(#SVGID_4_);}
	.st4{fill:url(#SVGID_5_);}
	.st5{fill:url(#SVGID_6_);}
</style>
<g>
	
		<linearGradient id="SVGID_1_" gradientUnits="userSpaceOnUse" x1="238.5096" y1="649.923" x2="302.0663" y2="676.8654" gradientTransform="matrix(1 0 0 1 0 -590)">
		<stop  offset="0" style="stop-color:#227D3C"/>
		<stop  offset="6.720000e-02" style="stop-color:#388F3E"/>
		<stop  offset="0.1672" style="stop-color:#51A441"/>
		<stop  offset="0.2708" style="stop-color:#64B343"/>
		<stop  offset="0.3792" style="stop-color:#6EBC44"/>
		<stop  offset="0.5" style="stop-color:#72BF44"/>
		<stop  offset="0.5139" style="stop-color:#76C043"/>
		<stop  offset="0.6263" style="stop-color:#8FC83D"/>
		<stop  offset="0.7426" style="stop-color:#A2CE38"/>
		<stop  offset="0.8643" style="stop-color:#ACD136"/>
		<stop  offset="1" style="stop-color:#B0D235"/>
	</linearGradient>
	<path class="st0" d="M301.1,70.8c-35.2-19.6-80.2-8.8-80.2-8.8c49.8-5.7,79,22.9,88.2,44L301.1,70.8z"/>
	<path d="M88.4,100.2H92l-8,32.3h-3.6L88.4,100.2z"/>
	<path d="M99,100.2h13.9c4,0,6.8,1.2,8.4,3.2c1.2,1.6,1.5,3.8,0.9,6.4v0.1c-1.3,5.3-5.8,8.5-11.1,9.4l6.6,13.2h-4.5L107,120h-0.1
		h-9.1l-3.1,12.5H91L99,100.2z M108.4,116.7c4.8,0,8.9-2.5,9.9-6.6V110c1-4-1.4-6.4-6.7-6.4h-10l-3.3,13.1
		C98.5,116.7,108.4,116.7,108.4,116.7z"/>
	<path d="M136.8,100h3.4l6.6,32.5h-3.9l-1.7-8.5h-17.6l-5.9,8.5H114L136.8,100z M140.6,120.7l-3.2-16.5l-11.5,16.5H140.6z"/>
	<polygon points="48.5,91.2 44.1,91.2 33.8,132.4 38,132.4 46.5,98.3 56.3,121 56.3,121 77.4,98.3 68.9,132.4 73.2,132.4 83.5,91.2 
		79,91.2 58.1,114 	"/>
	<path d="M166.1,129.2c-9.2,0-14.4-7.6-12-17.3v-0.1c2.4-9.7,11.2-17.2,20.6-17.2c5.6,0,9,2.3,11.6,5.6L190,97
		c-3.1-3.8-6.9-6.4-14.4-6.4c-12.1,0-23.2,9.7-26.1,21.3v0.1c-2.9,11.8,3.5,21.2,15.4,21.2c7.4,0,12.8-2.8,18.1-7.1l-2.1-2.8
		C176.1,127,171.8,129.2,166.1,129.2z"/>
	<path d="M185.6,116.4L185.6,116.4c2.2-9,10.9-16.8,20.7-16.8s14.5,7.7,12.3,16.6c0,0.1,0,0.1,0,0.1c-2.2,8.9-10.8,16.7-20.7,16.7
		C188.1,133,183.4,125.3,185.6,116.4z M214.7,116.4L214.7,116.4c1.8-7.4-2-13.4-9.4-13.4s-14.1,5.9-15.9,13.2v0.1
		c-1.8,7.3,2,13.3,9.4,13.3C206.2,129.6,212.9,123.8,214.7,116.4z"/>
	<path d="M132,167.5c-7.5,0-11.6-6.2-9.7-14v-0.1c2-7.8,9.1-13.9,16.6-13.9c4.5,0,7.3,1.9,9.4,4.5l3-2.6c-2.6-3.1-5.6-5.2-11.6-5.2
		c-9.8,0-18.8,7.8-21.1,17.2v0.1c-2.4,9.6,2.8,17.1,12.4,17.1c6,0,10.3-2.3,14.7-5.8l-1.7-2.2C140.1,165.8,136.6,167.5,132,167.5z"
		/>
	<path d="M147.8,157.2L147.8,157.2c1.8-7.3,8.8-13.6,16.7-13.6s11.7,6.2,9.9,13.4c0,0,0,0,0,0.1c-1.8,7.2-8.8,13.5-16.7,13.5
		C149.8,170.6,146,164.4,147.8,157.2z M171.3,157.2L171.3,157.2c1.5-6-1.6-10.8-7.6-10.8s-11.4,4.8-12.9,10.7v0.1
		c-1.5,5.9,1.6,10.8,7.6,10.8C164.4,167.9,169.9,163.1,171.3,157.2z"/>
	<path d="M216.4,127.8l2.9-2.7c2.6,3,5.5,4.6,9.9,4.6c4.3,0,7.8-2.3,8.6-5.5v-0.1c0.8-3-0.4-4.7-6.9-6.1c-7-1.6-9.8-4-8.5-9.3v-0.1
		c1.3-5.1,6.7-8.8,12.8-8.8c4.7,0,7.7,1.3,10.4,4l-2.8,2.8c-2.4-2.4-5.1-3.5-8.4-3.5c-4.2,0-7.4,2.3-8.2,5.2v0.1
		c-0.8,3,0.5,4.8,7.2,6.3c6.8,1.6,9.5,4.2,8.2,9.1v0.1c-1.4,5.5-6.9,9.1-13.3,9.1C223.2,132.9,219.4,131.2,216.4,127.8z"/>
	<path d="M259,103.6h-10.8l0.8-3.4h25.4l-0.8,3.4h-10.8l-7.2,28.9h-3.7L259,103.6z"/>
	<path d="M284.1,100h3.4l6.6,32.5h-3.9l-1.7-8.5H271l-6,8.5h-3.7L284.1,100z M288,120.7l-3.2-16.5l-11.5,16.5H288z"/>
	
		<linearGradient id="SVGID_2_" gradientUnits="userSpaceOnUse" x1="183.8249" y1="646.3594" x2="342.0279" y2="611.1263" gradientTransform="matrix(1 0 0 1 0 -590)">
		<stop  offset="0" style="stop-color:#1A3D6D"/>
		<stop  offset="0.3276" style="stop-color:#0891C0"/>
		<stop  offset="0.5" style="stop-color:#00B8E7"/>
		<stop  offset="0.7052" style="stop-color:#3FC2E9"/>
		<stop  offset="0.9042" style="stop-color:#77CBEB"/>
		<stop  offset="1" style="stop-color:#8CCFEC"/>
		<stop  offset="1" style="stop-color:#A5D6EC"/>
	</linearGradient>
	<path class="st1" d="M140.9,93.9c0,0,81.5-85.3,198.1-45.9L328.5,0C288.2,2.2,201.2,16.4,140.9,93.9z"/>
	
		<linearGradient id="SVGID_3_" gradientUnits="userSpaceOnUse" x1="88.958" y1="751.4656" x2="10.8934" y2="774.954" gradientTransform="matrix(1 0 0 1 0 -590)">
		<stop  offset="0" style="stop-color:#1A3D6D"/>
		<stop  offset="0.3276" style="stop-color:#0891C0"/>
		<stop  offset="0.5" style="stop-color:#00B8E7"/>
		<stop  offset="0.7052" style="stop-color:#3FC2E9"/>
		<stop  offset="0.9042" style="stop-color:#77CBEB"/>
		<stop  offset="1" style="stop-color:#8CCFEC"/>
		<stop  offset="1" style="stop-color:#A5D6EC"/>
	</linearGradient>
	<path class="st2" d="M22.8,176.2l-5.5,23.2c27-7.4,62.9-24.2,97.7-62.2C114.9,137.3,75.7,174.7,22.8,176.2z"/>
	
		<linearGradient id="SVGID_4_" gradientUnits="userSpaceOnUse" x1="73.8616" y1="744.9656" x2="-1.4401" y2="761.546" gradientTransform="matrix(1 0 0 1 0 -590)">
		<stop  offset="0" style="stop-color:#006281"/>
		<stop  offset="0.2822" style="stop-color:#0081A3"/>
		<stop  offset="0.5" style="stop-color:#0095B8"/>
		<stop  offset="0.7052" style="stop-color:#3FAFCF"/>
		<stop  offset="0.9042" style="stop-color:#77C6E4"/>
		<stop  offset="1" style="stop-color:#8CCFEC"/>
		<stop  offset="1" style="stop-color:#93D6DE"/>
	</linearGradient>
	<path class="st3" d="M11.7,160.1l-2.6,11.1c45.3,5.6,79.5-18.9,79.5-18.9C51.7,168.3,27.2,166.5,11.7,160.1z"/>
	
		<linearGradient id="SVGID_5_" gradientUnits="userSpaceOnUse" x1="52.3481" y1="741.032" x2="-0.1562" y2="724.4516" gradientTransform="matrix(1 0 0 1 0 -590)">
		<stop  offset="0" style="stop-color:#227D3C"/>
		<stop  offset="6.720000e-02" style="stop-color:#388F3E"/>
		<stop  offset="0.1672" style="stop-color:#51A441"/>
		<stop  offset="0.2708" style="stop-color:#64B343"/>
		<stop  offset="0.3792" style="stop-color:#6EBC44"/>
		<stop  offset="0.5" style="stop-color:#72BF44"/>
		<stop  offset="0.5139" style="stop-color:#76C043"/>
		<stop  offset="0.6263" style="stop-color:#8FC83D"/>
		<stop  offset="0.7426" style="stop-color:#A2CE38"/>
		<stop  offset="0.8643" style="stop-color:#ACD136"/>
		<stop  offset="1" style="stop-color:#B0D235"/>
	</linearGradient>
	<path class="st4" d="M6.6,119.6L0,147.2c23.9,20.9,63.2,11.2,63.2,11.2C28.3,164.6,8.3,138.3,6.6,119.6z"/>
	
		<linearGradient id="SVGID_6_" gradientUnits="userSpaceOnUse" x1="219.3664" y1="654.3026" x2="323.6648" y2="656.3747" gradientTransform="matrix(1 0 0 1 0 -590)">
		<stop  offset="0" style="stop-color:#006281"/>
		<stop  offset="0.2822" style="stop-color:#0081A3"/>
		<stop  offset="0.5" style="stop-color:#0095B8"/>
		<stop  offset="0.7052" style="stop-color:#3FAFCF"/>
		<stop  offset="0.9042" style="stop-color:#77C6E4"/>
		<stop  offset="1" style="stop-color:#8CCFEC"/>
		<stop  offset="1" style="stop-color:#93D6DE"/>
	</linearGradient>
	<path class="st5" d="M319.2,49.5C244.5,30,174,72.2,174,72.2c125.9-45.6,153.5,15.4,153.5,15.4L319.2,49.5z"/>
	<path d="M180.6,143.9h3l-5.7,23.6h14.9l-0.7,2.8h-17.8L180.6,143.9z"/>
	<path d="M200.7,143.9h3l-5.7,23.6h14.9l-0.7,2.8h-17.8L200.7,143.9z"/>
	<path d="M221.5,143.9h19.1l-0.6,2.7h-16.1l-2.2,9h14.4l-0.6,2.7H221l-2.2,9.2h16.3l-0.6,2.7h-19.3L221.5,143.9z"/>
	<path d="M240.5,157.2L240.5,157.2c1.8-7.3,8.6-13.7,16.5-13.7c4.5,0,6.9,1.3,9,3.5l-2.5,2.3c-1.6-1.8-3.6-3-7.3-3
		c-5.8,0-11.2,4.9-12.6,10.8v0.1c-1.5,6.3,1.4,11,7.8,11c3,0,6.1-1.2,8.3-2.6l1.6-6.6h-8l0.6-2.7h10.9l-2.5,10.5
		c-3,2.2-7.1,4-11.6,4C242.4,170.8,238.7,164.7,240.5,157.2z"/>
	<path d="M272.9,143.9H292l-0.6,2.7h-16.1l-2.2,9h14.4l-0.6,2.7h-14.4l-2.2,9.2h16.3l-0.6,2.7h-19.3L272.9,143.9z"/>
</g>
</svg>
