<?xml version="1.0" encoding="UTF-8"?><svg id="a" xmlns="http://www.w3.org/2000/svg" width="226.16" height="60.03" viewBox="0 0 226.16 60.03"><path d="M71,29.68l3.87,8.34,1.74-6c.08-.29.13-.59.15-.89,0-.28-.11-.55-.31-.74-.29-.21-.64-.32-1-.31l.12-.31h3.95l-.08.31c-.45,0-.88.16-1.24.43-.43.41-.72.93-.85,1.51l-3,10.37h-.25l-5.1-10.73-2.41,8.36c-.07.25-.11.51-.12.77-.01.3.1.59.31.81.29.21.64.32,1,.31l-.08.31h-4.01l.08-.31c.25,0,.5-.02.74-.08.3-.13.56-.33.77-.58.29-.36.5-.78.62-1.23l2.59-9.09c-.2-.29-.46-.53-.77-.7-.29-.13-.61-.18-.93-.15l.08-.31h4.13v-.08h0Z" style="fill:#ffc600; stroke-width:0px;"/><path d="M82.69,42.45c-.86.05-1.71-.17-2.44-.62-.62-.42-1.11-1.01-1.39-1.7-.3-.66-.46-1.38-.46-2.11.02-1.44.42-2.86,1.16-4.1.76-1.36,1.85-2.5,3.17-3.33,1.17-.78,2.54-1.21,3.95-1.24.76,0,1.51.2,2.17.58,1.31.76,2.12,2.15,2.15,3.66-.05,1.67-.56,3.29-1.47,4.68-.82,1.39-1.96,2.56-3.33,3.41-1.09.52-2.3.79-3.51.77ZM86.37,30.11c-.43-.02-.86.07-1.24.27-.41.23-.77.54-1.08.89-.45.53-.83,1.12-1.13,1.75-.46,1.01-.82,2.05-1.08,3.13-.31,1.07-.47,2.18-.5,3.29-.05.61.13,1.21.5,1.7.31.39.79.6,1.28.58.64.01,1.27-.22,1.74-.66,1.07-1.12,1.86-2.47,2.32-3.95.54-1.48.84-3.03.89-4.6.06-.64-.1-1.29-.46-1.82-.31-.37-.76-.58-1.24-.58Z" style="fill:#ffc600; stroke-width:0px;"/><path d="M95.81,36.02l-1.08,3.79c-.13.39-.2.79-.23,1.2,0,.23.09.44.27.58.37.2.79.28,1.2.23l-.12.31h-6l.12-.31c.47.04.93-.08,1.32-.35.36-.44.6-.97.71-1.53l2.32-8c.1-.35.17-.71.19-1.08,0-.22-.08-.43-.23-.58-.34-.17-.72-.26-1.1-.26l.08-.31h5.22c1.1-.11,2.2.17,3.13.77.61.48.95,1.22.93,2-.01.89-.4,1.74-1.08,2.32-.7.55-1.52.94-2.4,1.12l1.12,3.79c.18.64.46,1.25.82,1.81.33.23.72.35,1.12.35v.31h-3.95l-1.78-6.16h-.31s-.08.09-.27,0ZM95.96,35.48h.54c.84.02,1.64-.31,2.21-.93.59-.66.89-1.52.85-2.4.03-.49-.13-.98-.46-1.35-.33-.32-.78-.48-1.24-.46h-.43l-1.47,5.14Z" style="fill:#ffc600; stroke-width:0px;"/><path d="M105.52,29.68h10.06l-.93,3.34h-.31v-.46c.03-.56-.18-1.11-.58-1.51-.59-.41-1.29-.63-2-.62l-2.76,9.47c-.12.38-.2.77-.23,1.16-.02.22.09.42.27.54.35.19.76.27,1.16.23l-.08.31h-6.12l.12-.31c.49.03.98-.09,1.39-.35.4-.47.68-1.03.81-1.63l2.71-9.4c-.83,0-1.64.22-2.36.62-.73.5-1.34,1.17-1.77,1.95h-.35l.97-3.34Z" style="fill:#ffc600; stroke-width:0px;"/><path d="M119,35.45h4.6l1-3.52c.1-.35.16-.71.19-1.08,0-.22-.08-.43-.23-.58-.37-.18-.78-.27-1.2-.27l.12-.31h6.19l-.12.31c-.5-.04-.99.1-1.39.39-.4.42-.68.95-.81,1.51l-2.32,8c-.12.36-.2.74-.23,1.12-.01.2.07.38.23.5.36.18.76.27,1.16.27l-.08.31h-6.08l.15-.31c.47.04.93-.09,1.32-.35.39-.45.65-1,.77-1.59l1.08-3.71h-4.57l-1.08,3.75c-.13.36-.2.74-.23,1.12,0,.21.09.42.27.54.34.19.73.27,1.12.23l-.08.31h-6l.12-.31c.47.03.93-.09,1.32-.35.39-.45.65-1,.77-1.59l2.28-8c.1-.35.17-.71.19-1.08.01-.22-.07-.43-.23-.58-.35-.2-.76-.3-1.16-.27l.12-.31h6.08l-.15.31c-.45-.04-.91.09-1.28.35-.38.45-.66.98-.81,1.55l-1.03,3.64Z" style="fill:#ffc600; stroke-width:0px;"/><path d="M134.62,30.38l-1.39,4.84h.43c.84.06,1.68-.1,2.44-.46.59-.38,1.05-.94,1.32-1.59h.31l-1.41,4.85h-.32c.04-.27.07-.54.08-.81,0-.31-.11-.61-.31-.85-.2-.23-.47-.39-.77-.46-.42-.08-.85-.11-1.28-.08h-.72l-1.17,4.2c-.09.26-.14.53-.15.81,0,.14.07.27.19.35.35.15.74.22,1.12.19,1.04,0,2.06-.22,3-.66.97-.48,1.83-1.16,2.52-2h.39l-1.28,3.44h-10.62l.08-.31c.45.04.91-.09,1.28-.35.38-.46.63-1.01.74-1.59l2.32-8c.1-.33.16-.66.19-1,.02-.22-.09-.42-.27-.54-.37-.16-.76-.25-1.16-.27l.08-.31h10.1l-.81,3.13h-.31c.01-.46-.09-.91-.31-1.32-.24-.38-.59-.67-1-.85-.69-.22-1.41-.31-2.13-.27h-1.16l-.02-.09Z" style="fill:#ffc600; stroke-width:0px;"/><path d="M147.23,38.16h-3.87l-.77,1-.89,1c-.15.19-.28.4-.39.62-.06.13-.09.28-.08.43.01.17.1.33.23.43.23.14.5.22.77.23v.31h-3.75l.08-.31c.32-.03.63-.16.89-.35.56-.43,1.05-.94,1.48-1.5l8.9-10.56h.39l-.43,10.22v1c-.04.33.06.67.27.93.23.22.53.35.85.35l-.08.31h-5.42l.12-.31c.31,0,.63-.05.93-.12.21-.12.37-.31.46-.54.19-.45.28-.94.27-1.43l.04-1.71ZM147.23,37.39l.23-4-3.44,4h3.21Z" style="fill:#ffc600; stroke-width:0px;"/><path d="M162.63,29.41l-1.08,4.26h-.31c-.05-.54-.17-1.08-.35-1.59-.23-.52-.57-.98-1-1.35-.4-.3-.89-.46-1.39-.46-.48.01-.94.2-1.28.54-.34.32-.54.77-.54,1.24,0,.48.14.94.39,1.35.51.74,1.11,1.41,1.78,2,.59.53,1.1,1.14,1.51,1.82.27.51.4,1.08.39,1.66,0,.66-.19,1.3-.54,1.86-.39.58-.95,1.02-1.6,1.28-.73.32-1.52.48-2.32.46-.67-.02-1.34-.09-2-.23-.52-.11-1.06-.19-1.59-.23-.2,0-.39.03-.58.08-.21.1-.42.22-.62.35h-.31l1.08-4.8h.35c.06.74.23,1.47.5,2.17.24.56.63,1.04,1.12,1.39.49.34,1.07.51,1.66.5.58.02,1.14-.2,1.55-.62.4-.36.63-.89.62-1.43,0-.47-.13-.93-.35-1.35-.45-.68-.99-1.31-1.59-1.86-.68-.63-1.27-1.36-1.74-2.17-.23-.47-.35-.99-.35-1.51-.02-.93.39-1.82,1.12-2.4.81-.69,1.84-1.04,2.9-1,.72.03,1.44.15,2.13.35.35.11.71.18,1.08.19.16,0,.32-.04.46-.12.19-.12.36-.28.5-.46h.39v.08h.01Z" style="fill:#ffc600; stroke-width:0px;"/><path d="M164.57,29.68h10.06l-.93,3.34h-.31v-.46c.03-.56-.18-1.11-.58-1.51-.59-.41-1.29-.63-2-.62l-2.71,9.44c-.12.38-.2.77-.23,1.16-.02.22.09.42.27.54.35.19.76.27,1.16.23l-.08.31h-6.22l.12-.31c.49.03.98-.09,1.39-.35.4-.47.68-1.03.81-1.63l2.71-9.4c-.83,0-1.64.22-2.36.62-.7.52-1.27,1.2-1.67,1.98h-.39l.96-3.34Z" style="fill:#ffc600; stroke-width:0px;"/><path d="M179.23,30.02l.12-.31h6.11l-.12.31c-.46-.03-.92.11-1.28.39-.4.43-.66.97-.77,1.55l-2.32,8c-.12.38-.19.77-.23,1.16-.02.21.09.4.27.5.39.18.81.28,1.24.27l-.08.31h-6.17l.12-.31c.48.04.95-.08,1.35-.35.39-.45.65-1,.77-1.59l2.28-8c.12-.36.18-.74.19-1.12.02-.22-.09-.42-.27-.54-.37-.2-.79-.29-1.21-.27Z" style="fill:#ffc600; stroke-width:0px;"/><path d="M188.72,42.45c-.86.05-1.71-.17-2.44-.62-.62-.42-1.11-1.01-1.39-1.7-.3-.66-.46-1.37-.46-2.09.02-1.44.42-2.86,1.16-4.1.76-1.36,1.85-2.5,3.17-3.33,1.17-.78,2.54-1.21,3.95-1.24.76,0,1.51.2,2.17.58,1.29.77,2.09,2.14,2.12,3.64-.05,1.67-.56,3.29-1.47,4.68-.82,1.39-1.96,2.56-3.33,3.41-1.08.52-2.28.79-3.48.77ZM192.4,30.11c-.43-.02-.86.07-1.24.27-.41.23-.77.54-1.08.89-.45.53-.83,1.12-1.13,1.75-.46,1.01-.82,2.05-1.08,3.13-.31,1.07-.47,2.18-.5,3.29-.05.61.13,1.21.5,1.7.31.39.79.6,1.28.58.64.01,1.27-.22,1.74-.66,1.07-1.12,1.86-2.47,2.32-3.95.54-1.48.84-3.03.89-4.6.06-.64-.1-1.29-.46-1.82-.31-.37-.77-.58-1.25-.58h0Z" style="fill:#ffc600; stroke-width:0px;"/><path d="M198.93,42.45l.85-10.68v-.77c.03-.27-.06-.53-.23-.74-.23-.18-.52-.27-.81-.27l.15-.31h5.11l-.12.31h-.23c-.31-.02-.61.11-.81.35-.26.36-.39.8-.39,1.24l-.5,6.35,3.79-5.15.12-1.2v-.58c.02-.25-.07-.5-.23-.7-.22-.19-.52-.29-.81-.27l.08-.31h5.1l-.12.31c-.37-.03-.73.1-1,.35-.27.35-.41.79-.39,1.24l-.5,6.35,3.68-5c.42-.55.81-1.14,1.16-1.74.1-.16.15-.35.15-.54,0-.15-.07-.29-.19-.39-.24-.15-.52-.23-.81-.23l.08-.31h3.37l-.08.31c-.27.03-.53.14-.74.31-.41.36-.78.78-1.08,1.24l-8,10.87h-.53l.66-8.44-6.15,8.44h-.54l-.04-.04Z" style="fill:#ffc600; stroke-width:0px;"/><path d="M219,38.16h-3.87l-.77,1-.89,1c-.15.19-.28.4-.39.62-.06.13-.09.28-.08.43.01.17.1.33.23.43.23.14.5.22.77.23v.31h-3.75l.08-.31c.32-.03.63-.16.89-.35.54-.44,1.03-.94,1.45-1.5l8.9-10.56h.43l-.43,10.22v1c-.04.33.06.67.27.93.23.22.53.35.85.35l-.08.31h-5.42l.12-.31c.31,0,.63-.05.93-.12.21-.12.37-.31.46-.54.19-.45.28-.94.27-1.43l.03-1.71ZM219,37.39l.23-4-3.44,4h3.21Z" style="fill:#ffc600; stroke-width:0px;"/><path d="M72.67,49.53l-.74,3.17h-.27c.03-.7-.2-1.39-.66-1.93-.39-.44-.96-.68-1.55-.66-.77.04-1.5.36-2.05.89-.8.73-1.39,1.65-1.74,2.67-.37.91-.57,1.88-.58,2.86-.06.7.17,1.39.62,1.93.46.46,1.09.71,1.74.66.57,0,1.13-.12,1.63-.39.56-.32,1.06-.74,1.47-1.24h.35c-.48.77-1.13,1.42-1.89,1.91-.7.37-1.49.56-2.28.54-1.07.05-2.12-.34-2.9-1.08-.74-.76-1.14-1.78-1.1-2.84,0-1.1.32-2.19.89-3.13,1.24-2.03,3.42-3.29,5.8-3.37.53.01,1.05.1,1.55.27.22.06.44.1.66.12.29-.02.56-.16.74-.39h.31,0Z" style="fill:#ffc600; stroke-width:0px;"/><path d="M75.84,60.02c-.7.04-1.4-.13-2-.5-.5-.33-.89-.8-1.12-1.35-.23-.52-.37-1.09-.39-1.66.02-1.16.34-2.29.93-3.29.61-1.08,1.47-2,2.52-2.67.93-.62,2.01-.97,3.13-1,.61,0,1.21.16,1.74.46.55.28,1.02.7,1.35,1.23.3.5.46,1.08.46,1.66-.03,1.34-.44,2.64-1.2,3.75-.64,1.12-1.56,2.05-2.67,2.71-.84.47-1.79.7-2.75.66ZM78.78,50.15c-.34,0-.68.06-1,.19-.31.2-.6.43-.85.7-.36.42-.67.87-.93,1.36-.37.8-.65,1.63-.85,2.48-.24.86-.37,1.74-.39,2.63-.04.48.1.96.39,1.35.24.3.61.47,1,.46.52,0,1.01-.19,1.39-.54.87-.88,1.5-1.95,1.86-3.13.43-1.18.67-2.42.7-3.68.05-.52-.09-1.04-.39-1.47-.25-.24-.58-.38-.93-.39v.04Z" style="fill:#ffc600; stroke-width:0px;"/><path d="M88,49.77l.74,6.85,4.72-6.85h3.54l-.08.27c-.38-.02-.76.09-1.08.31-.32.35-.55.78-.66,1.24l-1.81,6.43c-.1.29-.16.59-.19.89-.02.18.07.35.23.43.28.14.58.2.89.19l-.08.27h-5l.08-.27c.42.03.84-.08,1.2-.31.34-.34.57-.77.66-1.24l1.84-6.51-5.7,8.28h-.3l-.93-8.47-1.9,6.66c-.07.23-.11.46-.12.7-.02.23.08.45.27.58.25.18.55.26.85.23l-.08.27h-3.33l.08-.27c.33,0,.65-.09.93-.27.41-.32.7-.77.81-1.28l2.13-7.39c-.14-.19-.32-.34-.54-.43-.26-.1-.53-.14-.81-.12l.08-.27h3.56v.08Z" style="fill:#ffc600; stroke-width:0px;"/><path d="M101.26,49.77l.74,6.85,4.72-6.85h3.52l-.08.27c-.38-.02-.76.09-1.08.31-.32.35-.55.78-.66,1.24l-1.82,6.43c-.1.29-.16.59-.19.89-.02.18.07.35.23.43.28.12.58.18.89.19l-.08.27h-5l.08-.27c.42.03.84-.08,1.2-.31.34-.34.57-.77.66-1.24l1.86-6.5-5.73,8.28h-.31l-.93-8.47-1.9,6.66c-.07.23-.11.46-.12.7-.02.23.08.45.27.58.25.18.55.26.85.23l-.08.27h-3.3l.08-.27c.33,0,.65-.09.93-.27.41-.32.7-.77.81-1.28l2.18-7.41c-.14-.19-.32-.34-.54-.43-.26-.1-.53-.14-.81-.12l.08-.27h3.56v.08h-.03Z" style="fill:#ffc600; stroke-width:0px;"/><path d="M117.48,49.77h3.41l-.08.27c-.32,0-.62.1-.89.27-.39.32-.66.75-.77,1.24l-1.32,4.6c-.26,1.14-.83,2.18-1.66,3-.76.6-1.71.9-2.67.85-.96.03-1.9-.27-2.67-.85-.22-.23-.39-.51-.5-.81-.11-.26-.17-.53-.19-.81.04-.53.15-1.05.31-1.55l1.24-4.41c.09-.29.14-.59.15-.89.01-.17-.06-.33-.19-.43-.31-.14-.66-.21-1-.19l.08-.27h5l-.08.27c-.4-.01-.79.09-1.12.31-.33.33-.56.75-.66,1.2l-1.23,4.45c-.18.58-.28,1.18-.31,1.78,0,.38.17.74.46,1,.37.33.86.49,1.35.46.47.03.93-.05,1.36-.24.36-.2.68-.48.93-.81.38-.62.67-1.29.85-2l1.32-4.57c.07-.21.11-.44.12-.66.01-.27-.1-.53-.31-.7-.29-.14-.61-.19-.93-.15v-.36Z" style="fill:#ffc600; stroke-width:0px;"/><path d="M124.79,49.77l3.13,6.66,1.39-4.84c.07-.23.11-.46.12-.7,0-.22-.08-.43-.23-.58-.23-.18-.52-.27-.81-.27l.08-.27h3.13l-.08.27c-.36.03-.7.15-1,.35-.35.33-.58.76-.66,1.24l-2.36,8.28h-.23l-4.06-8.55-1.9,6.66c-.06.2-.09.41-.08.62-.01.25.09.49.27.66.25.17.55.25.85.23l-.08.27h-3.27l.08-.27c.2,0,.39-.02.58-.08.24-.1.45-.26.62-.46.23-.3.38-.64.46-1l2.09-7.27c-.17-.23-.38-.42-.62-.58-.24-.09-.49-.13-.74-.12v-.27l3.32.02Z" style="fill:#ffc600; stroke-width:0px;"/><path d="M132.22,50.02l.08-.27h4.88l-.08.27c-.36-.01-.71.09-1,.31-.31.35-.52.78-.62,1.24l-1.83,6.45c-.09.3-.15.62-.19.93,0,.16.07.32.19.43.31.15.66.21,1,.19l-.08.27h-5l.08-.27c.38.04.76-.06,1.08-.27.31-.35.52-.78.62-1.24l1.82-6.42c.09-.29.14-.59.15-.89,0-.16-.07-.32-.19-.43-.06-.21-.41-.24-.91-.3Z" style="fill:#ffc600; stroke-width:0px;"/><path d="M138.22,49.77h8.09l-.77,2.71h-.27v-.39c.02-.45-.15-.88-.46-1.2-.47-.32-1.02-.49-1.59-.5l-2.22,7.54c-.1.3-.16.61-.19.93,0,.18.08.35.23.46.29.13.61.2.93.19l-.08.27h-5l.08-.27c.39.04.79-.06,1.12-.27.32-.36.53-.81.62-1.28l2.29-7.54c-.67,0-1.32.17-1.9.5-.58.39-1.06.93-1.39,1.55h-.27l.78-2.7Z" style="fill:#ffc600; stroke-width:0px;"/><path d="M148.82,55.34l-.82-3.64c-.08-.46-.25-.89-.5-1.28-.23-.23-.53-.37-.85-.39l.08-.27h4.84l-.08.27c-.36-.04-.71.06-1,.27-.2.16-.32.4-.31.66.02.29.06.57.12.85l.66,2.94,1.63-2.21c.29-.38.55-.78.77-1.2.1-.19.15-.4.15-.62,0-.17-.07-.34-.19-.46-.19-.16-.42-.25-.66-.27l.08-.27h3v.3c-.25.02-.5.12-.7.27-.43.43-.82.89-1.16,1.39l-2.88,3.89-.58,2.32c-.1.28-.18.56-.23.85,0,.2.08.4.23.54.24.16.53.23.81.19h.27l-.08.27h-5.11l.08-.27c.3.02.61-.03.89-.15.21-.09.38-.24.5-.43.15-.3.27-.61.35-.93l.69-2.62Z" style="fill:#ffc600; stroke-width:0px;"/><path d="M167.74,49.53l-.74,3.18h-.27c.03-.7-.2-1.39-.66-1.93-.39-.44-.96-.68-1.55-.66-.77.04-1.5.36-2.05.89-.8.73-1.39,1.65-1.74,2.67-.37.91-.57,1.88-.58,2.86-.06.7.17,1.39.62,1.93.46.46,1.09.71,1.74.66.57,0,1.13-.12,1.63-.39.56-.32,1.06-.74,1.47-1.24h.39c-.48.76-1.11,1.41-1.86,1.9-.7.37-1.49.56-2.28.54-1.07.05-2.12-.34-2.9-1.08-.76-.75-1.18-1.77-1.16-2.84,0-1.1.32-2.19.89-3.13,1.24-2.03,3.42-3.29,5.8-3.37.53.01,1.05.1,1.55.27.22.06.44.1.66.12.29-.02.56-.16.74-.39h.31-.01Z" style="fill:#ffc600; stroke-width:0px;"/><path d="M171,60.02c-.7.04-1.4-.13-2-.5-.5-.33-.89-.8-1.12-1.35-.23-.52-.37-1.09-.39-1.66.02-1.16.34-2.29.93-3.29.61-1.08,1.47-2,2.52-2.67.93-.62,2.01-.97,3.13-1,.61,0,1.21.16,1.74.46.54.3.98.74,1.28,1.28.3.5.46,1.08.46,1.66-.03,1.34-.44,2.64-1.2,3.75-.64,1.12-1.56,2.05-2.67,2.71-.82.44-1.75.65-2.68.61ZM173.9,50.15c-.34,0-.68.06-1,.19-.31.2-.6.43-.85.7-.35.43-.65.89-.89,1.39-.37.8-.65,1.63-.85,2.48-.24.86-.37,1.74-.39,2.63-.04.48.1.96.39,1.35.24.3.61.47,1,.46.52,0,1.01-.19,1.39-.54.87-.88,1.5-1.95,1.86-3.13.43-1.18.67-2.42.7-3.68.05-.52-.09-1.04-.39-1.47-.27-.27-.63-.42-1.01-.42l.04.04Z" style="fill:#ffc600; stroke-width:0px;"/><path d="M184.92,59.79h-8l.08-.27c.35.02.71-.07,1-.27.31-.35.52-.78.62-1.24l1.86-6.42c.1-.27.15-.56.15-.85,0-.18-.08-.35-.23-.46-.27-.15-.58-.22-.89-.19l.08-.27h4.8l-.08.27c-.36-.01-.71.1-1,.31-.31.34-.52.75-.62,1.2l-1.7,5.88c-.16.44-.26.89-.31,1.35,0,.11.05.22.15.27.17.09.35.13.54.12.83,0,1.66-.2,2.4-.58.79-.38,1.48-.95,2-1.66h.23l-1.08,2.81Z" style="fill:#ffc600; stroke-width:0px;"/><path d="M193.94,59.79h-8l.08-.27c.35.02.71-.07,1-.27.31-.35.52-.78.62-1.24l1.86-6.46c.1-.27.15-.56.15-.85,0-.18-.08-.35-.23-.46-.27-.15-.58-.22-.89-.19l.08-.27h4.8l-.08.27c-.36-.01-.71.1-1,.31-.31.34-.52.75-.62,1.2l-1.71,5.87c-.16.44-.26.89-.31,1.35,0,.11.05.22.15.27.17.09.35.13.54.12.83,0,1.66-.2,2.4-.58.79-.38,1.48-.95,2-1.66h.22l-1.06,2.86Z" style="fill:#ffc600; stroke-width:0px;"/><path d="M201.1,50.31l-1.1,3.87h.35c.66.05,1.33-.07,1.93-.35.46-.31.82-.76,1-1.28h.27l-1.12,3.91h-.27c.04-.22.07-.44.08-.66.01-.24-.07-.48-.23-.66-.17-.18-.38-.32-.62-.39-.33-.06-.66-.09-1-.08h-.58l-1,3.37c-.07.21-.11.44-.12.66,0,.11.05.22.15.27.28.13.59.18.89.15.83,0,1.65-.18,2.4-.54.78-.38,1.47-.94,2-1.63h.31l-1,2.75h-8.44v-.27c.35.02.71-.07,1-.27.31-.35.51-.78.58-1.24l1.86-6.46c.09-.27.14-.56.15-.85.01-.17-.06-.33-.19-.43-.29-.14-.61-.2-.93-.19v-.27h8.13l-.66,2.52h-.27c0-.35-.09-.69-.23-1-.21-.31-.5-.56-.85-.7-.55-.18-1.12-.26-1.7-.23h-.93.14Z" style="fill:#ffc600; stroke-width:0px;"/><path d="M216.58,49.53l-.66,3.21h-.27c.03-.72-.19-1.43-.62-2-.43-.44-1.02-.66-1.63-.62-.77.01-1.52.27-2.13.74-.79.61-1.42,1.41-1.82,2.32-.5,1.03-.75,2.15-.74,3.29-.05.81.2,1.61.7,2.24.41.48,1,.76,1.63.77.35-.01.68-.09,1-.23l.74-2.63c.09-.29.16-.59.19-.89,0-.18-.08-.35-.23-.46-.24-.15-.53-.21-.81-.19l.08-.27h4.3l-.08.27c-.22,0-.43.05-.62.15-.16.08-.29.22-.35.39,0,.12-.12.35-.23.74l-.85,3c-1.06.42-2.19.63-3.33.62-.79.02-1.57-.13-2.28-.46-.66-.34-1.21-.87-1.59-1.51-.43-.71-.64-1.53-.62-2.36,0-1.88.95-3.64,2.52-4.68,1.3-.96,2.88-1.46,4.49-1.43.27-.02.54-.02.81,0l1,.23c.2.06.41.1.62.12.26-.01.5-.16.62-.39h.23l-.07.03Z" style="fill:#ffc600; stroke-width:0px;"/><path d="M221.64,50.31l-1.12,3.87h.35c.66.05,1.33-.07,1.93-.35.46-.31.82-.76,1-1.28h.27l-1.07,3.91h-.27c.04-.22.07-.44.08-.66.01-.24-.07-.48-.23-.66-.17-.18-.38-.32-.62-.39-.33-.06-.66-.09-1-.08h-.58l-1,3.37c-.07.21-.11.44-.12.66,0,.11.05.22.15.27.28.13.59.18.89.15.83,0,1.65-.18,2.4-.54.78-.38,1.47-.94,2-1.63h.3l-1,2.75h-8.44v-.27c.35.02.71-.07,1-.27.31-.35.51-.78.58-1.24l1.86-6.46c.09-.27.14-.56.15-.85.01-.17-.06-.33-.19-.43-.29-.13-.61-.2-.93-.19v-.27h8.13l-.66,2.52h-.27c0-.35-.09-.69-.23-1-.21-.31-.5-.56-.85-.7-.55-.18-1.12-.26-1.7-.23h-.93.12Z" style="fill:#ffc600; stroke-width:0px;"/><path d="M0,59.36s4.57-11.18,7.47-17.57c5.53-12.15,13.35-25.26,18.88-30.37C30.65,7.47,39.24-.46,49.45.02c9.75.46,22,16.29,5.3,59.4l-22.6-.12s11.11-22.28,12.12-27.49c.62-3.21,4.49-11.72-.46-16.79-3.45-3.52-18.08-6.85-36.26,38.58l30.22-13.43-8.52,19.27-29.25-.08Z" style="fill:#ffc600; stroke-width:0px;"/></svg>