<svg id="Layer_1" data-name="Layer 1" xmlns="http://www.w3.org/2000/svg" viewBox="0 0 576 285.52"><defs><style>.cls-1{fill:#6caddf;}.cls-2{fill:#06357a;}.cls-3{fill:#fff;}</style></defs><path class="cls-1" d="M83.46,241.4c16.83,0,29.39,10.62,29.39,28C112.85,286.2,101,300,83,300c-20.49,0-29-15.93-29-29.39C54,258.53,62.82,241.4,83.46,241.4ZM85,297.19c6.73,0,20.64-3.89,20.64-25.65,0-18-10.92-27.59-22.73-27.59-12.49,0-21.84,8.22-21.84,24.6C61.1,286,71.57,297.19,85,297.19Z" transform="translate(-54 -55.24)"/><path class="cls-1" d="M130.5,244.32c.89-2.47,1.19-2.92,1.64-2.92s.75.38,1.65,2.7c1.12,2.84,12.86,33.72,17.42,45.09,2.69,6.65,4.86,7.85,6.43,8.3a9.76,9.76,0,0,0,3,.45c.45,0,.75.07.75.44s-.67.6-1.5.6c-1.12,0-6.58,0-11.74-.15-1.42-.07-2.24-.07-2.24-.52s.22-.45.52-.52c.45-.15.9-.83.45-2l-7-18.4a.66.66,0,0,0-.68-.45H123.17a.79.79,0,0,0-.75.6l-4.49,13.24a15.82,15.82,0,0,0-1,5c0,1.49,1.57,2.17,2.84,2.17h.75c.52,0,.74.14.74.44s-.45.6-1.12.6c-1.79,0-5-.22-5.83-.22s-4.94.22-8.45.22c-1,0-1.42-.15-1.42-.6s.3-.44.67-.44c.53,0,1.57-.08,2.17-.15,3.44-.45,4.94-3.29,6.28-7Zm7.77,29.91c.38,0,.38-.22.3-.52l-7.1-20.19c-.38-1.12-.75-1.12-1.12,0l-6.58,20.19c-.15.37,0,.52.22.52Z" transform="translate(-54 -55.24)"/><path class="cls-1" d="M165.34,264.14c0-11.67,0-13.76-.15-16.15-.15-2.55-.75-3.74-3.21-4.27a14,14,0,0,0-2.55-.22c-.29,0-.59-.15-.59-.45,0-.45.37-.6,1.19-.6,3.37,0,7.78.23,8.23.23.67,0,5-.23,7.25-.23.82,0,1.2.15,1.2.6,0,.3-.3.45-.6.45a11,11,0,0,0-1.87.22c-2,.38-2.62,1.65-2.77,4.27-.15,2.39-.15,4.48-.15,16.15v4.48h.3c1.27-1.42,14.81-15.18,17.5-18.09,2.09-2.17,4-4.11,4-5.39a1.49,1.49,0,0,0-1-1.57c-.38-.15-.68-.3-.68-.6s.38-.52.9-.52c1.5,0,3.81.23,5.61.23.37,0,5.31-.23,7.18-.23.82,0,1.12.15,1.12.52s-.15.53-.75.53a11.13,11.13,0,0,0-4.19,1c-3.06,1.35-4.71,3.22-8.07,6.44-1.87,1.79-14.88,14.5-16.45,16.37,1.94,2.17,17.49,18.25,20.56,21.09,6.28,5.83,7.55,7,11.14,8.52a13.68,13.68,0,0,0,4.64,1c.52,0,1,.14,1,.44s-.37.6-1.64.6h-3.82c-2.09,0-3.51,0-5.16-.15-4-.37-5.83-2-9.05-4.56-3.36-2.77-19.21-19.89-22.8-24.3h-.38v7.33c0,7.18,0,13.08.38,16.22.22,2.17.67,3.82,2.91,4.12a25.78,25.78,0,0,0,2.92.3c.45,0,.6.22.6.44,0,.38-.38.6-1.2.6-3.66,0-8-.22-8.6-.22s-4.93.22-7.18.22c-.82,0-1.19-.15-1.19-.6,0-.22.15-.44.6-.44a11.48,11.48,0,0,0,2.24-.3c1.49-.3,1.87-1.95,2.17-4.12.37-3.14.37-9,.37-16.22Z" transform="translate(-54 -55.24)"/><path class="cls-1" d="M225.61,277.45c0,11,.3,15.78,1.65,17.12,1.19,1.2,3.14,1.72,9,1.72,4,0,7.25-.07,9.05-2.24a10.42,10.42,0,0,0,1.94-4.49c.08-.6.23-1,.68-1s.44.3.44,1.12a47.57,47.57,0,0,1-1.12,7.48c-.52,1.72-.75,2-4.71,2-10.77,0-15.7-.45-20-.45-.67,0-5.08.22-7.33.22-.82,0-1.19-.15-1.19-.6,0-.22.15-.44.59-.44a11.58,11.58,0,0,0,2.25-.3c1.49-.3,1.87-1.95,2.17-4.12.37-3.14.37-9,.37-16.22V264.14c0-11.67,0-13.76-.15-16.15-.15-2.55-.75-3.74-3.21-4.27a14,14,0,0,0-2.55-.22c-.3,0-.6-.15-.6-.45,0-.45.38-.6,1.2-.6,3.37,0,8.08.23,8.45.23s5.83-.23,8.08-.23c.82,0,1.19.15,1.19.6,0,.3-.3.45-.6.45a17.25,17.25,0,0,0-2.46.22c-2.17.38-2.77,1.65-2.92,4.27-.15,2.39-.15,4.48-.15,16.15Z" transform="translate(-54 -55.24)"/><path class="cls-1" d="M273.62,244.32c.9-2.47,1.19-2.92,1.64-2.92s.75.38,1.65,2.7c1.12,2.84,12.86,33.72,17.42,45.09,2.69,6.65,4.86,7.85,6.43,8.3a9.76,9.76,0,0,0,3,.45c.45,0,.75.07.75.44s-.67.6-1.5.6c-1.12,0-6.58,0-11.73-.15-1.43-.07-2.25-.07-2.25-.52s.23-.45.52-.52c.45-.15.9-.83.45-2L283,277.37a.65.65,0,0,0-.67-.45H266.29a.8.8,0,0,0-.75.6l-4.48,13.24a15.59,15.59,0,0,0-1.05,5c0,1.49,1.57,2.17,2.84,2.17h.75c.52,0,.75.14.75.44s-.45.6-1.13.6c-1.79,0-5-.22-5.83-.22s-4.93.22-8.45.22c-1,0-1.42-.15-1.42-.6s.3-.44.67-.44c.53,0,1.57-.08,2.17-.15,3.44-.45,4.94-3.29,6.28-7Zm7.77,29.91c.38,0,.38-.22.3-.52l-7.1-20.19c-.37-1.12-.75-1.12-1.12,0l-6.58,20.19c-.15.37,0,.52.22.52Z" transform="translate(-54 -55.24)"/><path class="cls-1" d="M313.47,288.81c.15,6.13.9,8.08,2.92,8.68a16.66,16.66,0,0,0,3.74.45c.37,0,.6.14.6.44s-.45.6-1.35.6c-4.26,0-7.25-.22-7.93-.22s-3.81.22-7.17.22c-.75,0-1.2-.07-1.2-.6,0-.3.22-.44.6-.44a10.83,10.83,0,0,0,3.06-.45c1.87-.53,2.25-2.69,2.25-9.5l.07-42.85c0-2.91.23-3.74.82-3.74s1.87,1.65,2.62,2.4c1.12,1.27,12.26,13.31,23.78,25.65,7.4,7.92,15.55,17.05,18,19.51l-.83-38c-.07-4.86-.59-6.51-2.91-7.11a19.85,19.85,0,0,0-3.67-.37c-.52,0-.59-.23-.59-.53s.59-.52,1.49-.52c3.37,0,7,.23,7.78.23s3.29-.23,6.35-.23c.83,0,1.35.08,1.35.52s-.3.53-.82.53a6.74,6.74,0,0,0-1.8.22c-2.46.53-2.76,2.17-2.76,6.66l-.15,43.82c0,4.93-.15,5.31-.68,5.31s-1.49-.83-5.45-4.79c-.83-.75-11.6-11.74-19.52-20.26-8.68-9.35-17.13-18.77-19.52-21.46Z" transform="translate(-54 -55.24)"/><path class="cls-1" d="M370.3,264.14c0-11.67,0-13.76-.15-16.15-.15-2.55-.74-3.74-3.21-4.27a14,14,0,0,0-2.54-.22c-.3,0-.6-.15-.6-.45,0-.45.37-.6,1.19-.6,3.37,0,8.08.23,8.45.23.9,0,5.61-.23,10.1-.23,7.4,0,21.09-.67,30,8.53a26.69,26.69,0,0,1,7.26,19,30.56,30.56,0,0,1-8.08,21.09c-3.21,3.36-9.94,8.6-22.66,8.6-6.43,0-15.85-.9-16.6-.9-.37,0-5.08.22-7.32.22-.83,0-1.2-.15-1.2-.6,0-.22.15-.44.6-.44a11.48,11.48,0,0,0,2.24-.3c1.5-.3,1.87-1.95,2.17-4.12.37-3.14.37-9,.37-16.22Zm6.28,8.07c0,7.93.08,14.81.15,16.23.08,1.87.23,4.86.83,5.68,1,1.42,3.88,3,12.71,3a25.09,25.09,0,0,0,17.79-6.95c3.89-3.81,6-11,6-17.87a26.79,26.79,0,0,0-7.18-18.85c-7-7.4-15.55-8.45-24.45-8.45a19.79,19.79,0,0,0-4.86.53,1.35,1.35,0,0,0-.9,1.49c-.08,2.54-.08,10.17-.08,15.93Z" transform="translate(-54 -55.24)"/><path class="cls-1" d="M463.7,292c-7.25-6.5-9.05-15-9.05-22.13A29.82,29.82,0,0,1,463,249.41c4.48-4.49,11.29-8,22.8-8a64.37,64.37,0,0,1,10.84.9,64,64,0,0,0,7.63,1.12c.82.08,1,.38,1,.83s-.23,1.49-.38,4.18c-.15,2.47-.15,6.58-.22,7.71s-.23,1.57-.68,1.57-.59-.53-.59-1.57a10.33,10.33,0,0,0-3.15-7.63c-2.61-2.24-8.37-4.26-14.95-4.26-9.95,0-14.58,2.91-17.2,5.46-5.46,5.23-6.73,11.88-6.73,19.51,0,14.28,11,27.37,27,27.37,5.6,0,10-.67,13-3.74,1.57-1.64,2.54-4.93,2.76-6.28.15-.82.3-1.12.75-1.12s.52.52.52,1.12a76.92,76.92,0,0,1-1.64,9.57c-.45,1.42-.6,1.57-1.95,2.17-3,1.2-8.67,1.72-13.45,1.72C477.16,300,469.61,297.26,463.7,292Z" transform="translate(-54 -55.24)"/><path class="cls-1" d="M520.68,277.3c0,7.18,0,13.08.37,16.22.23,2.17.67,3.82,2.92,4.12a32.35,32.35,0,0,0,3.36.3c.45,0,.6.22.6.44,0,.38-.37.6-1.19.6-4.12,0-8.83-.22-9.2-.22s-5.09.22-7.33.22c-.82,0-1.2-.15-1.2-.6,0-.22.15-.44.6-.44a11.48,11.48,0,0,0,2.24-.3c1.5-.3,1.87-1.95,2.17-4.12.38-3.14.38-9,.38-16.22V264.14c0-11.67,0-13.76-.15-16.15-.15-2.55-.9-3.82-2.55-4.19a9.48,9.48,0,0,0-2.31-.3c-.3,0-.6-.15-.6-.45,0-.45.37-.6,1.19-.6,2.47,0,7.18.23,7.56.23s5.08-.23,7.33-.23c.82,0,1.19.15,1.19.6,0,.3-.3.45-.6.45a11,11,0,0,0-1.87.22c-2,.38-2.61,1.65-2.76,4.27-.15,2.39-.15,4.48-.15,16.15Z" transform="translate(-54 -55.24)"/><path class="cls-1" d="M554.25,277.3c0,7.18,0,13.08.37,16.22.23,2.17.68,3.82,2.92,4.12a32.51,32.51,0,0,0,3.37.3c.45,0,.59.22.59.44,0,.38-.37.6-1.19.6-4.11,0-8.83-.22-9.2-.22s-5.08.22-7.33.22c-.82,0-1.19-.15-1.19-.6,0-.22.15-.44.59-.44a11.58,11.58,0,0,0,2.25-.3c1.49-.3,1.87-1.95,2.17-4.12.37-3.14.37-9,.37-16.22V245.67l-11.07.15c-4.63.07-6.43.6-7.62,2.39a13,13,0,0,0-1.28,2.32c-.22.6-.44.75-.74.75s-.38-.23-.38-.68c0-.75,1.5-7.18,1.65-7.77s.45-1.43.75-1.43c.52,0,1.27.75,3.29.9s5,.38,5.9.38h28a36.21,36.21,0,0,0,7.41-.75c.37,0,.37.45.37.9,0,2.24-.22,7.4-.22,8.22,0,.67-.23,1-.53,1s-.52-.22-.59-1.27l-.08-.82c-.3-2.24-2-4-9.2-4.11l-9.42-.15Z" transform="translate(-54 -55.24)"/><path class="cls-1" d="M599.94,279.62a15.92,15.92,0,0,0-1.72-7.86c-.52-1.19-10.54-17.64-13.16-21.53A20.69,20.69,0,0,0,580,244.7a7.13,7.13,0,0,0-3.21-1.2c-.38,0-.75-.15-.75-.53s.3-.52,1-.52c1.42,0,7,.23,7.41.23s3.36-.23,6.28-.23c.82,0,1,.23,1,.52s-.45.38-1.12.68a1.52,1.52,0,0,0-1,1.34,6.37,6.37,0,0,0,1,2.92c1.19,2.17,12.41,21.46,13.76,23.63,1.42-3.14,10.91-19.52,12.41-22a7.28,7.28,0,0,0,1.27-3.81c0-1-.3-1.87-1.2-2.09-.67-.23-1.12-.38-1.12-.75s.45-.45,1.2-.45c1.94,0,4.34.23,4.93.23s5.84-.23,7.26-.23c.52,0,1,.15,1,.45s-.38.6-1,.6a7.15,7.15,0,0,0-3.44,1,14.32,14.32,0,0,0-4,3.82c-2.46,3-12.93,20.56-14.28,23.78a17.91,17.91,0,0,0-1.12,7.48v6.43c0,1.19,0,4.33.23,7.47.14,2.17.82,3.82,3.06,4.12a32.51,32.51,0,0,0,3.37.3c.44,0,.59.22.59.44,0,.38-.37.6-1.19.6-4.12,0-8.83-.22-9.2-.22s-5.08.22-7.33.22c-.82,0-1.19-.15-1.19-.6,0-.22.14-.44.59-.44a11.58,11.58,0,0,0,2.25-.3c1.49-.3,2.17-1.95,2.31-4.12.23-3.14.23-6.28.23-7.47Z" transform="translate(-54 -55.24)"/><path class="cls-1" d="M79.38,324.19c0-5.38,0-6.35-.07-7.45s-.34-1.73-1.48-2a6.37,6.37,0,0,0-1.17-.1c-.14,0-.28-.07-.28-.21s.17-.28.55-.28c1.55,0,3.66.11,4,.11s2.38-.11,3.42-.11c.38,0,.55.07.55.28s-.14.21-.28.21a5,5,0,0,0-.86.1c-.93.14-1.21.76-1.28,2s-.07,2.07-.07,7.45V329c0,5,1.11,7.1,2.59,8.52a6.76,6.76,0,0,0,5.22,1.9A7.22,7.22,0,0,0,95.6,337c1.59-2,2-4.9,2-8.45v-4.32c0-5.38,0-6.35-.07-7.45s-.35-1.73-1.49-2a6.29,6.29,0,0,0-1.17-.1c-.14,0-.28-.07-.28-.21s.18-.28.56-.28c1.55,0,3.45.11,3.65.11s1.87-.11,2.9-.11c.38,0,.56.07.56.28s-.14.21-.28.21a3.07,3.07,0,0,0-.86.1c-.94.17-1.21.76-1.28,2s-.07,2.07-.07,7.45v3.7c0,3.72-.41,7.86-3.18,10.32a10.08,10.08,0,0,1-7.1,2.55c-1.18,0-4.66-.14-7.12-2.45-1.69-1.62-3-4-3-9.08Z" transform="translate(-54 -55.24)"/><path class="cls-1" d="M143.75,335.58c.07,2.83.41,3.73,1.34,4a7.69,7.69,0,0,0,1.73.2c.17,0,.28.07.28.21s-.21.28-.63.28c-2,0-3.34-.11-3.65-.11s-1.76.11-3.32.11c-.34,0-.55,0-.55-.28s.1-.21.28-.21a5,5,0,0,0,1.41-.2c.86-.24,1-1.25,1-4.39l0-19.77c0-1.35.1-1.73.38-1.73s.86.76,1.21,1.1c.52.59,5.66,6.15,11,11.84,3.42,3.66,7.18,7.87,8.29,9l-.38-17.53c0-2.24-.28-3-1.35-3.28a8.94,8.94,0,0,0-1.69-.17c-.24,0-.28-.11-.28-.24s.28-.25.69-.25c1.56,0,3.21.11,3.59.11s1.52-.11,2.94-.11c.38,0,.62,0,.62.25s-.14.24-.38.24a3.19,3.19,0,0,0-.83.1c-1.14.24-1.28,1-1.28,3.07l-.06,20.23c0,2.28-.07,2.45-.31,2.45s-.7-.38-2.52-2.21c-.38-.35-5.35-5.42-9-9.35-4-4.32-7.91-8.67-9-9.91Z" transform="translate(-54 -55.24)"/><path class="cls-1" d="M211.18,330.27c0,3.31,0,6,.18,7.49.1,1,.31,1.76,1.34,1.9.49.06,1.25.13,1.56.13s.27.11.27.21-.17.28-.55.28c-1.9,0-4.07-.11-4.25-.11s-2.34.11-3.38.11c-.38,0-.55-.07-.55-.28s.07-.21.28-.21a6,6,0,0,0,1-.13c.69-.14.86-.9,1-1.9.17-1.45.17-4.18.17-7.49v-6.08c0-5.38,0-6.35-.06-7.45S207.8,315,207,314.8a4.66,4.66,0,0,0-1.07-.13c-.14,0-.27-.07-.27-.21s.17-.28.55-.28c1.14,0,3.31.11,3.48.11s2.35-.11,3.39-.11c.38,0,.55.07.55.28s-.14.21-.28.21a4.9,4.9,0,0,0-.86.1c-.93.17-1.21.76-1.28,2s-.07,2.07-.07,7.45Z" transform="translate(-54 -55.24)"/><path class="cls-1" d="M263.75,336.07c2-4.63,6.62-16.67,7.38-19.16a4.7,4.7,0,0,0,.31-1.31.86.86,0,0,0-.45-.8,4.59,4.59,0,0,0-1.31-.13c-.2,0-.38,0-.38-.21s.21-.28.76-.28c1.38,0,3,.11,3.38.11.21,0,1.7-.11,2.7-.11.38,0,.58.07.58.25s-.13.24-.41.24a3.18,3.18,0,0,0-1.66.41c-.45.31-1,.9-1.9,3.25-.37,1-2.1,5.1-3.86,9.35-2.11,5-3.66,8.77-4.45,10.46-1,2.07-1.11,2.62-1.45,2.62s-.59-.48-1.25-2.14l-8.45-21.16c-.76-1.93-1.28-2.31-2.49-2.66a5.63,5.63,0,0,0-1.31-.13c-.21,0-.27-.11-.27-.24s.34-.25.89-.25c1.66,0,3.63.11,4,.11s1.9-.11,3.21-.11c.62,0,.93.07.93.25s-.1.24-.34.24a4,4,0,0,0-1.31.17.69.69,0,0,0-.45.69,12.93,12.93,0,0,0,.93,2.86Z" transform="translate(-54 -55.24)"/><path class="cls-1" d="M314.65,324.19c0-5.38,0-6.35-.07-7.45s-.34-1.73-1.48-2a6.48,6.48,0,0,0-1.18-.1c-.13,0-.27-.07-.27-.21s.17-.28.55-.28c1.55,0,3.73.11,3.9.11s7.11,0,7.9,0a8.75,8.75,0,0,0,1.49-.17c.17,0,.31-.17.48-.17s.14.14.14.31-.17.65-.28,1.62c0,.35-.1,1.86-.17,2.28,0,.17-.1.38-.24.38s-.28-.17-.28-.45a3.71,3.71,0,0,0-.2-1.24c-.25-.56-.59-1-2.45-1.18-.59-.07-4.35-.1-4.73-.1-.14,0-.21.1-.21.35v9.52c0,.24,0,.35.21.35.45,0,4.69,0,5.49-.07s1.31-.14,1.62-.49.38-.44.52-.44.17.06.17.27-.17.8-.28,1.93c-.07.69-.14,2-.14,2.21s0,.66-.24.66-.24-.14-.24-.31a3.47,3.47,0,0,0-.14-1.14c-.14-.48-.45-1.07-1.79-1.21-.93-.1-4.35-.17-4.94-.17a.22.22,0,0,0-.24.24v3c0,1.17,0,5.18,0,5.9.1,2.38.62,2.83,4,2.83a9.93,9.93,0,0,0,3.32-.38c.9-.38,1.31-1.07,1.55-2.49.07-.38.14-.51.31-.51s.21.27.21.51-.28,2.63-.45,3.35c-.24.9-.52.9-1.86.9-5.22,0-7.53-.21-8.53-.21-.17,0-2.35.11-3.38.11-.38,0-.55-.07-.55-.28s.06-.21.27-.21a6.16,6.16,0,0,0,1-.13c.69-.14.86-.9,1-1.9.17-1.45.17-4.18.17-7.49Z" transform="translate(-54 -55.24)"/><path class="cls-1" d="M368.49,324.19c0-5.38,0-6.35-.07-7.45s-.34-1.73-1.48-2a6.48,6.48,0,0,0-1.18-.1c-.14,0-.27-.07-.27-.21s.17-.28.55-.28c1.55,0,3.73.11,3.9.11.38,0,3-.11,4.07-.11a10.64,10.64,0,0,1,6.32,1.52,6,6,0,0,1,2.38,4.7c0,2.55-1.07,5.1-4.18,8,2.83,3.62,5.18,6.7,7.18,8.84a7.2,7.2,0,0,0,4.21,2.48,8.61,8.61,0,0,0,1.35.1c.17,0,.31.11.31.21s-.21.28-.83.28H388.3a7,7,0,0,1-3.69-.66c-1.49-.79-2.69-2.48-4.66-5.07-1.45-1.9-3.07-4.21-3.76-5.11a.55.55,0,0,0-.45-.21l-4.25-.07c-.17,0-.24.11-.24.28v.83c0,3.31,0,6,.17,7.49.11,1,.31,1.76,1.35,1.9.48.06,1.24.13,1.55.13s.28.11.28.21-.17.28-.55.28c-1.9,0-4.08-.11-4.25-.11s-2.21.11-3.24.11c-.38,0-.56-.07-.56-.28s.07-.21.28-.21a6.16,6.16,0,0,0,1-.13c.69-.14.86-.9,1-1.9.17-1.45.17-4.18.17-7.49Zm2.76,3a.45.45,0,0,0,.24.41,9.57,9.57,0,0,0,3.63.55,4.49,4.49,0,0,0,2.59-.65c1.2-.83,2.1-2.7,2.1-5.32,0-4.31-2.28-6.9-6-6.9a9.89,9.89,0,0,0-2.31.21.4.4,0,0,0-.28.41Z" transform="translate(-54 -55.24)"/><path class="cls-1" d="M424.75,339.83c-.49-.24-.52-.38-.52-1.31,0-1.73.14-3.11.17-3.66,0-.38.1-.55.28-.55s.24.1.24.38A6.21,6.21,0,0,0,425,336c.52,2.56,2.8,3.52,5.11,3.52a4.6,4.6,0,0,0,4.93-4.59c0-2.38-1-3.76-4-6.21l-1.55-1.28c-3.66-3-4.48-5.14-4.48-7.49,0-3.69,2.76-6.21,7.14-6.21a13.17,13.17,0,0,1,3.21.35,6.19,6.19,0,0,0,1.21.17c.27,0,.34.07.34.24s-.13,1.31-.13,3.66c0,.55-.08.79-.25.79s-.24-.17-.27-.45a6.16,6.16,0,0,0-.45-1.72c-.21-.38-1.14-1.83-4.32-1.83a3.92,3.92,0,0,0-4.24,4c0,2,1,3.14,4.21,5.8l1,.76c4.07,3.21,5,5.35,5,8.11a7.14,7.14,0,0,1-2.93,5.73,9,9,0,0,1-5.21,1.45A10.45,10.45,0,0,1,424.75,339.83Z" transform="translate(-54 -55.24)"/><path class="cls-1" d="M482.31,330.27c0,3.31,0,6,.17,7.49.11,1,.31,1.76,1.35,1.9.48.06,1.24.13,1.55.13s.28.11.28.21-.17.28-.55.28c-1.9,0-4.07-.11-4.25-.11s-2.34.11-3.38.11c-.38,0-.55-.07-.55-.28s.07-.21.27-.21a6.16,6.16,0,0,0,1-.13c.69-.14.86-.9,1-1.9.17-1.45.17-4.18.17-7.49v-6.08c0-5.38,0-6.35-.07-7.45s-.41-1.76-1.17-1.94a4.66,4.66,0,0,0-1.07-.13c-.14,0-.28-.07-.28-.21s.18-.28.56-.28c1.14,0,3.31.11,3.48.11s2.35-.11,3.38-.11c.38,0,.56.07.56.28s-.14.21-.28.21a4.9,4.9,0,0,0-.86.1c-.93.17-1.21.76-1.28,2s-.07,2.07-.07,7.45Z" transform="translate(-54 -55.24)"/><path class="cls-1" d="M534.74,330.27c0,3.31,0,6,.17,7.49.1,1,.31,1.76,1.34,1.9.49.06,1.25.13,1.56.13s.27.11.27.21-.17.28-.55.28c-1.9,0-4.07-.11-4.24-.11s-2.35.11-3.39.11c-.38,0-.55-.07-.55-.28s.07-.21.28-.21a6,6,0,0,0,1-.13c.69-.14.87-.9,1-1.9.18-1.45.18-4.18.18-7.49v-14.6l-5.11.07c-2.14,0-3,.27-3.52,1.1a6.07,6.07,0,0,0-.59,1.07c-.1.28-.21.35-.34.35s-.18-.11-.18-.31.69-3.32.76-3.59.21-.66.35-.66a6.24,6.24,0,0,0,1.52.42c1,.1,2.31.17,2.72.17H540.4a16.42,16.42,0,0,0,3.41-.35c.18,0,.18.21.18.42,0,1-.11,3.41-.11,3.79s-.1.45-.24.45-.24-.1-.28-.59l0-.38c-.14-1-.93-1.82-4.25-1.89l-4.34-.07Z" transform="translate(-54 -55.24)"/><path class="cls-1" d="M588.61,331.34a7.3,7.3,0,0,0-.8-3.63c-.24-.55-4.86-8.14-6.07-9.94a9.65,9.65,0,0,0-2.35-2.55,3.2,3.2,0,0,0-1.48-.55c-.17,0-.35-.07-.35-.24s.14-.25.45-.25c.66,0,3.25.11,3.42.11s1.55-.11,2.9-.11c.38,0,.45.11.45.25s-.21.17-.52.31a.68.68,0,0,0-.45.62,2.87,2.87,0,0,0,.45,1.34c.55,1,5.73,9.91,6.35,10.91.66-1.45,5-9,5.73-10.15a3.35,3.35,0,0,0,.59-1.76c0-.48-.14-.86-.55-1s-.52-.18-.52-.35.2-.21.55-.21c.9,0,2,.11,2.28.11s2.69-.11,3.35-.11c.24,0,.44.07.44.21s-.17.28-.44.28a3.23,3.23,0,0,0-1.59.48,6.55,6.55,0,0,0-1.83,1.76,108.87,108.87,0,0,0-6.59,11,8.21,8.21,0,0,0-.52,3.45v3c0,.55,0,2,.1,3.45.07,1,.38,1.76,1.42,1.9.48.06,1.24.13,1.55.13s.28.11.28.21-.18.28-.56.28c-1.89,0-4.07-.11-4.24-.11s-2.35.11-3.38.11c-.38,0-.56-.07-.56-.28s.07-.21.28-.21a6,6,0,0,0,1-.13c.69-.14,1-.9,1.07-1.9.11-1.45.11-2.9.11-3.45Z" transform="translate(-54 -55.24)"/><path class="cls-2" d="M342,219.44h-1.12l-.18,0c-4.86-.28-15.59-4.85-27.33-11.66s-20.79-13.68-23.15-17.57l-.31-.51-.2-.57c-14.63-40.76-17.8-81.27-8.92-114.06.08-.31.15-.57.2-.78l0,0v0c1.06-3.87,3.06-6.24,6.47-7.67,4.13-1.75,31.61-11.28,53.49-11.28h1.1c21.89,0,49.37,9.53,53.51,11.28,3.4,1.43,5.39,3.8,6.46,7.67v.08c.06.21.13.47.21.77,8.88,32.79,5.71,73.3-8.92,114.07l-.2.57-.32.51c-2.35,3.89-11.43,10.79-23.14,17.57s-22.47,11.38-27.33,11.66H342Z" transform="translate(-54 -55.24)"/><path class="cls-3" d="M389.51,152c-.42,0-.57.26-.71,1a12.15,12.15,0,0,1-2.65,5.54c-2.86,2.7-7.09,3.3-12.46,3.3a28.43,28.43,0,0,1-6.49-.74v3.42a57.26,57.26,0,0,0,6.49.35c4.58,0,10-.46,12.89-1.52,1.29-.52,1.43-.66,1.86-1.91A62.59,62.59,0,0,0,390,153C390,152.46,389.88,152,389.51,152Zm9.72-76.15c-.07-.29-.15-.52-.19-.71v0l0,0A9.88,9.88,0,0,0,392.88,68c-3.94-1.62-30-10.43-50.82-10.43H341c-20.78,0-46.88,8.81-50.81,10.43a9.91,9.91,0,0,0-6.15,7.08v.09c0,.19-.12.43-.19.71-8.44,30.31-5.43,67.75,8.47,105.43l.19.51.3.48c2.23,3.59,10.86,10,22,16.24s21.33,10.52,25.95,10.77l.18,0h1.41c4.61-.25,14.8-4.48,25.95-10.77s19.75-12.65,22-16.24l.3-.48.18-.51C404.66,143.6,407.67,106.15,399.23,75.85ZM317.85,190.42c-11.85-6.69-18.67-12.27-19.91-14.27-21.8-59.1-9.56-97.57-8.13-102.95.62-2.15,1.45-2.85,2.78-3.4,3.12-1.28,28-9.7,47.55-9.94l-.77,18.91h-31.8c-.47,0-.84.15-.84.32v2c0,.17.37.31.84.31h31.69l-1.72,42.34c-4.52-6.76-12.5-10.58-22-10.58-18.29,0-26.11,15.1-26.11,25.78,0,11.87,7.55,25.92,25.71,25.92.74,0,1.45,0,2.16-.08v-2.43h-.36c-11.94,0-21.22-9.89-21.22-25.25,0-14.44,8.29-21.69,19.36-21.69,10.47,0,20.15,8.5,20.15,24.32,0,11.16-4.17,17-8.83,19.9,0-3.27.05-4.52.15-5.87.15-2.39.76-3.63,2.8-3.9a12.12,12.12,0,0,1,1.89-.21c.31,0,.61-.13.61-.4s-.38-.56-1.21-.56c-2.27,0-6.82.21-7.5.21s-5.52-.21-8.93-.21c-.83,0-1.21.14-1.21.56s.3.4.6.4a18.17,18.17,0,0,1,2.8.21c2.5.48,3.1,1.57,3.25,3.9s.16,4.1.16,14.76v10c0,7.36,1.56,11.89,3.88,15.05C321.85,192.62,319.92,191.58,317.85,190.42Zm41.93-13.35c0,7-.91,12.85-4.39,16.74a16.69,16.69,0,0,1-11.89,4.92c-4.32,0-7.73-.61-11.44-3.75-3.26-2.8-5.68-7-5.68-16.89V162.55c8.75-3.9,14.32-12.35,15.09-22.26a23.73,23.73,0,0,0,8.6,17.45,28.38,28.38,0,0,0,9.71,5.24v14.09Zm25.35-.92c-1.25,2-8.06,7.58-19.92,14.27q-2.35,1.34-4.52,2.47c3.28-4.81,3.86-11.19,3.86-17v-7.32c0-10.66,0-12.58.15-14.76.16-2.39.76-3.49,2.8-3.9a13,13,0,0,1,1.9-.21c.3,0,.69-.13.69-.4s-.38-.56-1.21-.56c-2.28,0-5.92.21-6.45.21s-4.62-.21-8-.21c-.83,0-1.21.14-1.21.56s.3.4.6.4a15.32,15.32,0,0,1,2.58.21c2.5.48,3.11,1.57,3.26,3.9.08,1.11.11,2.17.13,4.34a23.91,23.91,0,0,1-11.91-20.41c0-6.73,1.21-12.59,6.44-17.2,2.51-2.25,6.95-4.82,16.47-4.82,6.3,0,11.81,1.78,14.31,3.76a8.75,8.75,0,0,1,3,6.72c0,.93.07,1.39.57,1.39s.58-.4.65-1.39.07-4.61.22-6.79c.13-2.37.36-3.16.36-3.69s-.15-.66-.94-.73a67.09,67.09,0,0,1-7.3-1,67,67,0,0,0-10.38-.79c-11,0-17.55,3.1-21.84,7.06a24.05,24.05,0,0,0-3.77,4.43L344.16,81.4H375.5c.47,0,.84-.14.84-.31v-2c0-.17-.37-.32-.84-.32H344.07l-.65-18.9c19.5.37,44,8.66,47.07,9.93,1.32.55,2.16,1.25,2.77,3.4C394.69,78.58,406.93,117.05,385.13,176.15Z" transform="translate(-54 -55.24)"/></svg>