<?xml version="1.0" encoding="UTF-8"?>
<svg width="97px" height="137px" viewBox="0 0 97 137" version="1.1" xmlns="http://www.w3.org/2000/svg" xmlns:xlink="http://www.w3.org/1999/xlink">
    <title>Logos/Logo</title>
    <defs>
        <polygon id="path-1" points="0 136.593326 96.640853 136.593326 96.640853 0 0 0"></polygon>
    </defs>
    <g id="Symbols" stroke="none" stroke-width="1" fill="none" fill-rule="evenodd">
        <g id="Header/Header-LG" transform="translate(-50.000000, 0.000000)">
            <g id="Logos/Logo" transform="translate(50.000000, 0.000000)">
                <polygon id="Fill-1" fill="#B30838" points="0.00145530303 136.593326 96.640853 136.593326 96.640853 0 0.00145530303 0"></polygon>
                <polygon id="Fill-2" fill="#FFFFFF" points="2.5467803 94.2112947 94.0940727 94.2112947 94.0940727 2.52224211 2.5467803 2.52224211"></polygon>
                <polygon id="Fill-3" fill="#B30838" points="1.49284985 70.8405368 33.1311377 38.7436 43.1741839 48.9450526 60.2477991 32.2743158 95.1503317 66.3613579 95.1503317 93.0287684 1.49284985 93.0287684"></polygon>
                <g id="Group-41" transform="translate(0.000000, 0.000000)">
                    <path d="M4.48116909,107.712428 C4.75622136,108.406081 5.2044547,109.530923 7.11090167,109.530923 C8.31589258,109.530923 8.97077894,109.151649 8.97077894,108.457997 C8.97077894,107.790302 8.39738955,107.438428 6.99593273,107.242302 C5.22773955,106.992818 3.53958803,106.195334 3.53958803,104.311944 C3.53958803,103.094807 4.11297742,102.114176 5.10112818,101.644049 C5.62940318,101.396007 6.30611909,101.277755 7.14437364,101.277755 C9.53252591,101.277755 10.4522774,102.585744 10.7156873,103.187102 L9.45248424,104.404239 C8.94749409,103.396207 8.28242061,102.952039 7.17930091,102.952039 C6.11110848,102.952039 5.49114939,103.331313 5.49114939,103.958628 C5.49114939,104.534028 5.9277403,104.796492 7.29426985,105.031555 C9.46412667,105.410828 10.9223403,106.11746 10.9223403,108.091702 C10.9223403,108.915144 10.6938577,109.608797 10.2456244,110.132281 C9.59073803,110.903807 8.67244182,111.229723 7.13418652,111.229723 C4.64125242,111.229723 3.8146403,110.354365 3.14956682,109.072334 L4.48116909,107.712428 Z" id="Fill-4" fill="#FFFFFF"></path>
                    <path d="M16.537627,103.487493 L15.389393,107.293208 L17.6975036,107.293208 L16.537627,103.487493 Z M15.240952,101.498829 L17.8241149,101.498829 L20.8089414,110.930198 L18.799168,110.930198 L18.2490634,109.111703 L14.8494755,109.111703 L14.2979157,110.930198 L12.2895975,110.930198 L15.240952,101.498829 Z" id="Fill-6" fill="#FFFFFF"></path>
                    <path d="M24.7480102,103.448267 L24.7480102,108.954225 L26.2862655,108.954225 C27.6644374,108.954225 28.3527958,108.052909 28.3527958,106.247394 C28.3527958,104.454857 27.6877223,103.448267 26.4929185,103.448267 L24.7480102,103.448267 Z M22.7047647,101.499983 L26.8829397,101.499983 C29.0644389,101.499983 30.4775382,103.383373 30.4775382,106.299309 C30.4775382,109.150352 29.0993662,110.929909 26.917867,110.929909 L22.7047647,110.929909 L22.7047647,101.499983 Z" id="Fill-8" fill="#FFFFFF"></path>
                    <path d="M34.553842,103.448267 L34.553842,108.954225 L36.0920973,108.954225 C37.4702692,108.954225 38.1586276,108.052909 38.1586276,106.247394 C38.1586276,104.454857 37.4935541,103.448267 36.2987503,103.448267 L34.553842,103.448267 Z M32.5105965,101.499983 L36.6902268,101.499983 C38.8717261,101.499983 40.28337,103.383373 40.28337,106.299309 C40.28337,109.150352 38.905198,110.929909 36.7236988,110.929909 L32.5105965,110.929909 L32.5105965,101.499983 Z" id="Fill-10" fill="#FFFFFF"></path>
                    <polygon id="Fill-12" fill="#FFFFFF" points="42.2237255 101.499551 44.2451414 101.499551 44.2451414 109.046087 48.0231081 109.046087 48.0231081 110.929477 42.2237255 110.929477"></polygon>
                    <polygon id="Fill-14" fill="#FFFFFF" points="49.50417 101.499551 55.2453405 101.499551 54.9353609 103.227193 51.5255859 103.227193 51.5255859 105.188456 54.6704958 105.188456 54.6704958 106.914656 51.5255859 106.914656 51.5255859 109.203277 55.027045 109.203277 55.3384798 110.929477 49.50417 110.929477"></polygon>
                    <path d="M59.0806461,106.888409 L59.0806461,109.202988 L61.1238915,109.202988 C61.8821044,109.202988 62.2954105,108.810736 62.2954105,108.091125 C62.2954105,107.280662 61.8020627,106.888409 60.7920824,106.888409 L59.0806461,106.888409 Z M59.0806461,103.199504 L59.0806461,105.162209 L60.9288809,105.162209 C61.7671355,105.162209 62.2037264,104.808894 62.2037264,104.12822 C62.2037264,103.55282 61.7438506,103.199504 60.9638082,103.199504 L59.0806461,103.199504 Z M57.0475877,101.499262 L61.2737877,101.499262 C62.3419802,101.499262 63.0652658,101.734325 63.5484264,102.272231 C63.9151627,102.664483 64.1101733,103.199504 64.1101733,103.761925 C64.1101733,105.266041 62.8702552,105.685694 62.1236847,105.933736 C62.7552862,106.077946 63.0070536,106.181778 63.3519605,106.403862 C63.983562,106.823515 64.4201529,107.476788 64.4201529,108.392525 C64.4201529,109.896641 63.2719188,110.929188 61.5954097,110.929188 L57.0475877,110.929188 L57.0475877,101.499262 Z" id="Fill-16" fill="#FFFFFF"></path>
                    <path d="M70.0005123,103.487493 L68.8522783,107.293208 L71.1603889,107.293208 L70.0005123,103.487493 Z M68.702382,101.498829 L71.2870002,101.498829 L74.2718267,110.930198 L72.2620533,110.930198 L71.7119487,109.111703 L68.3123608,109.111703 L67.760801,110.930198 L65.7524828,110.930198 L68.702382,101.498829 Z" id="Fill-18" fill="#FFFFFF"></path>
                    <path d="M83.573105,108.915577 C83.2165558,109.594808 82.3666588,111.230156 79.9552217,111.230156 C77.3371315,111.230156 75.6955497,109.307829 75.6955497,106.247682 C75.6955497,103.305787 77.3269444,101.278187 79.6918118,101.278187 C82.4699853,101.278187 83.1481565,103.121198 83.4581361,103.866766 L81.8049118,104.965651 C81.3799633,103.853787 80.8051186,103.212051 79.8300656,103.212051 C78.578505,103.212051 77.8319345,104.338335 77.8319345,106.247682 C77.8319345,108.144051 78.6003345,109.242935 79.9450345,109.242935 C81.1500255,109.242935 81.7350573,108.092135 81.9649952,107.633545 L83.573105,108.915577 Z" id="Fill-20" fill="#FFFFFF"></path>
                    <polygon id="Fill-22" fill="#FFFFFF" points="85.2606744 101.499551 87.3039198 101.499551 87.3039198 105.462456 90.771907 101.499551 93.2750282 101.499551 90.4051706 104.690929 93.4933236 110.929477 91.2652547 110.929477 88.9920714 106.274361 87.2820903 108.183708 87.2820903 110.929477 85.2606744 110.929477"></polygon>
                    <path d="M12.6777268,128.854701 C12.3211776,129.533933 11.4712806,131.16928 9.05984348,131.16928 C6.44320864,131.16928 4.80017152,129.246954 4.80017152,126.186806 C4.80017152,123.243469 6.43156621,121.215869 8.79643364,121.215869 C11.5746071,121.215869 12.2527783,123.060322 12.5627579,123.805891 L10.9095336,124.904775 C10.4845852,123.792912 9.90974045,123.152617 8.93468742,123.152617 C7.68312682,123.152617 6.93655636,124.276017 6.93655636,126.186806 C6.93655636,128.083175 7.70641167,129.180617 9.04965636,129.180617 C10.2546473,129.180617 10.8396791,128.029817 11.069617,127.572669 L12.6777268,128.854701 Z" id="Fill-24" fill="#FFFFFF"></path>
                    <path d="M23.2136842,129.141824 C24.5685713,129.141824 25.3486137,127.991024 25.3486137,126.173972 C25.3486137,124.355477 24.5685713,123.243614 23.2136842,123.243614 C21.858797,123.243614 21.0772993,124.355477 21.0772993,126.173972 C21.0772993,127.991024 21.858797,129.141824 23.2136842,129.141824 M23.2136842,121.190056 C25.5552667,121.190056 27.496641,122.956635 27.496641,126.173972 C27.4849986,129.324972 25.5552667,131.169424 23.2136842,131.169424 C20.8706463,131.169424 18.9307273,129.389866 18.9307273,126.173972 C18.9307273,122.956635 20.8706463,121.190056 23.2136842,121.190056" id="Fill-26" fill="#FFFFFF"></path>
                    <polygon id="Fill-28" fill="#FFFFFF" points="34.3576671 121.438963 36.379083 121.438963 36.379083 128.9855 40.1570497 128.9855 40.1570497 130.868889 34.3576671 130.868889"></polygon>
                    <polygon id="Fill-30" fill="#FFFFFF" points="46.8568283 121.438963 48.8782442 121.438963 48.8782442 128.9855 52.6562108 128.9855 52.6562108 130.868889 46.8568283 130.868889"></polygon>
                    <polygon id="Fill-32" fill="#FFFFFF" points="59.2187543 121.438963 64.9599248 121.438963 64.6499452 123.165163 61.2401702 123.165163 61.2401702 125.126426 64.3865354 125.126426 64.3865354 126.854068 61.2401702 126.854068 61.2401702 129.141247 64.7416293 129.141247 65.0516089 130.868889 59.2187543 130.868889"></polygon>
                    <path d="M79.0785471,129.37732 C78.5153448,130.267099 77.195385,131.156878 75.6906017,131.156878 C73.2340502,131.156878 71.5109714,129.168215 71.5109714,126.317173 C71.5109714,124.224678 72.3273964,121.203467 75.6789592,121.203467 C77.4369653,121.203467 78.2635774,122.132183 78.9402933,123.073878 L77.6669032,124.511657 C77.1604577,123.753109 76.5521411,123.177709 75.6789592,123.177709 C74.1872736,123.177709 73.6357138,124.342931 73.6357138,126.278236 C73.6357138,128.213541 74.2906002,129.207152 75.5538032,129.207152 C76.1621198,129.207152 76.6219956,129.036983 77.0353017,128.685109 L77.0353017,127.467973 L75.2772956,127.467973 L75.2772956,125.793688 L79.0785471,125.793688 L79.0785471,129.37732 Z" id="Fill-34" fill="#FFFFFF"></path>
                    <polygon id="Fill-36" fill="#FFFFFF" points="86.0087002 121.438963 91.7498706 121.438963 91.4398911 123.165163 88.0301161 123.165163 88.0301161 125.126426 91.1764812 125.126426 91.1764812 126.854068 88.0301161 126.854068 88.0301161 129.141247 91.5315752 129.141247 91.8415547 130.868889 86.0087002 130.868889"></polygon>
                    <mask id="mask-2" fill="white">
                        <use xlink:href="#path-1"></use>
                    </mask>
                    <g id="Clip-39"></g>
                    <polygon id="Fill-38" fill="#FFFFFF" mask="url(#mask-2)" points="4.13015 116.849463 92.5136136 116.849463 92.5136136 115.1074 4.13015 115.1074"></polygon>
                    <polygon id="Fill-40" fill="#FDBE56" mask="url(#mask-2)" points="0.00145530303 95.8379895 96.6423083 95.8379895 96.6423083 93.0345368 0.00145530303 93.0345368"></polygon>
                </g>
            </g>
        </g>
    </g>
</svg>