<?xml version="1.0" encoding="utf-8"?>
<!-- Generator: Adobe Illustrator 26.3.1, SVG Export Plug-In . SVG Version: 6.00 Build 0)  -->
<svg version="1.1" id="Layer_1" xmlns="http://www.w3.org/2000/svg" xmlns:xlink="http://www.w3.org/1999/xlink" x="0px" y="0px"
	 width="222px" height="222px" viewBox="0 0 222 222" style="enable-background:new 0 0 222 222;" xml:space="preserve">
<style type="text/css">
	.st0{fill:#002D5B;}
	.st1{clip-path:url(#SVGID_00000000201933197551717190000014805708411227403700_);}
	.st2{fill:#FFFFFF;}
	.st3{fill-rule:evenodd;clip-rule:evenodd;fill:#FFFFFF;}
</style>
<g>
	<rect x="0" class="st0" width="222" height="222"/>
</g>
<g>
	<defs>
		<rect id="SVGID_1_" x="28.5" y="40.94" width="165" height="140.12"/>
	</defs>
	<clipPath id="SVGID_00000092436394446474206870000004119748244177316231_">
		<use xlink:href="#SVGID_1_"  style="overflow:visible;"/>
	</clipPath>
	<g id="Group_9377" style="clip-path:url(#SVGID_00000092436394446474206870000004119748244177316231_);">
		<path id="Path_9729" class="st2" d="M48.49,105.98h122.76v2.32H48.49V105.98z"/>
		<path id="Path_9730" class="st2" d="M52.22,67.28v-2.32H167.5v2.32L52.22,67.28z"/>
		<path id="Path_9731" class="st2" d="M52.22,103.27v-1.93H167.5v1.93H52.22z"/>
		<path id="Path_9732" class="st2" d="M130.35,96.17c-3.18,1.49-6.66,2.23-10.17,2.16c-4.93,0-8.83-1.3-11.69-3.9
			c-2.82-2.59-4.24-6.14-4.26-10.66c0-4.56,1.37-8.1,4.1-10.64c2.74-2.54,6.56-3.81,11.51-3.81c3.35,0.1,6.68,0.57,9.93,1.38V76
			h-2.68l-0.02-0.37c0.01-0.37-0.01-0.74-0.05-1.1c-0.03-1.26-0.81-2.39-1.98-2.87c-1.68-0.79-3.53-1.16-5.39-1.07
			c-3.02-0.11-5.91,1.22-7.8,3.58c-1.94,2.39-2.89,5.58-2.91,9.57c0,3.99,1.13,7.11,3.41,9.39c2.26,2.24,5.41,3.36,9.49,3.36
			c2.95-0.06,5.84-0.78,8.47-2.11v1.79H130.35z"/>
		<path id="Path_9733" class="st2" d="M140.09,98l-6.86-23.03c-0.3-1.2-0.72-2.36-1.26-3.47c-0.75-0.28-1.57-0.38-2.37-0.3
			l-0.46-0.03v-1.15h11.51v1.14h-0.41c-0.9-0.05-1.79,0.02-2.68,0.18c-0.37,0.12-0.6,0.47-0.57,0.86c0.1,0.94,0.31,1.87,0.63,2.76
			l4.76,16.07l7.42-20.68h1.53l7.41,21.26l5.57-16.63c0.37-1.04,0.68-2.1,0.93-3.17c0-0.43-1.13-0.64-3.39-0.65h-0.39v-1.14h8.85
			v1.14l-0.4,0.04c-0.88-0.04-1.75,0.08-2.59,0.35c-0.55,1.1-1.01,2.24-1.37,3.42L158.09,98h-1.45l-7.59-21.26L141.59,98H140.09z"/>
		<path id="Path_9734" class="st2" d="M83.16,70.02l18.34,21.44V74.85c0-1.68-0.15-2.69-0.5-3.02c-0.3-0.32-1.35-0.52-3.13-0.64
			l-0.39-0.03v-1.14h10.01v1.14l-0.41,0.03c-1.76,0.1-2.8,0.3-3.13,0.64c-0.3,0.31-0.46,1.33-0.48,3.02v23.16h-1.55L81.98,74.87
			v17.93c0,1.68,0.15,2.69,0.48,3.02c0.3,0.3,1.35,0.51,3.15,0.64L86,96.48v1.16H75.94v-1.16l0.39-0.02
			c1.78-0.11,2.82-0.32,3.15-0.64c0.3-0.31,0.46-1.32,0.48-3.02V74.85c0-1.69,0-3.47-1.67-3.47c-1.63,0-1.66,1.74-1.66,3.47v11.57
			c0.07,1.89-0.1,3.79-0.5,5.64c-0.37,1.27-1.05,2.42-2,3.34c-1.87,1.94-4.78,2.91-8.74,2.93c-7.95,0-11.93-3.68-11.95-11.03V74.85
			c0-1.68-0.15-2.69-0.5-3.02c-0.3-0.32-1.32-0.52-3.11-0.64l-0.41-0.03v-1.14H62.1v1.14l-0.39,0.03c-1.78,0.1-2.82,0.3-3.15,0.64
			c-0.3,0.3-0.46,1.31-0.48,3.02v11.81c-0.06,1.87,0.03,3.74,0.26,5.6c0.21,0.93,0.66,1.78,1.3,2.48c1.39,1.57,3.48,2.35,6.3,2.35
			c2.28,0.11,4.53-0.62,6.3-2.05c0.81-0.67,1.4-1.56,1.72-2.56c0.32-1.65,0.46-3.33,0.41-5V74.85c0-1.68-0.15-2.69-0.5-3.02
			c-0.3-0.32-1.35-0.52-3.13-0.64l-0.39-0.03v-1.14L83.16,70.02L83.16,70.02z"/>
		<path id="Path_9735" class="st3" d="M109.86,49.06L73.65,59.82h-3.93l40.14-11.91L150,59.82h-3.93L109.86,49.06z M157.66,59.82
			l-47.8-14.24l-47.8,14.24h-9.44l57.25-16.94l57.25,16.94H157.66z M170.84,62.61H48.88l-3.34-2.66l64.33-19.01l64.32,19
			L170.84,62.61z"/>
		<path id="Path_9736" class="st2" d="M164.4,97.99c-1.82-0.03-3.28-1.53-3.25-3.35c0.03-1.82,1.53-3.28,3.35-3.25
			c1.8,0.03,3.25,1.5,3.25,3.3C167.74,96.52,166.24,98,164.4,97.99z M164.4,91.82c-1.58,0.03-2.84,1.33-2.82,2.91
			c0.03,1.58,1.33,2.84,2.91,2.82c1.56-0.03,2.82-1.3,2.82-2.87C167.3,93.09,166,91.81,164.4,91.82
			C164.4,91.82,164.4,91.82,164.4,91.82z"/>
		<path id="Path_9737" class="st2" d="M163.23,93.04h1.54c0.61,0,0.99,0.33,0.99,0.84c0.03,0.37-0.2,0.72-0.57,0.81v0.01
			c0.38,0.07,0.46,0.34,0.5,0.66c-0.02,0.31,0.04,0.62,0.19,0.89h-0.49c-0.12-0.13-0.06-0.48-0.12-0.79
			c-0.06-0.31-0.12-0.58-0.54-0.58h-1.06v1.37h-0.44L163.23,93.04z M164.56,94.51c0.4,0,0.75-0.11,0.75-0.57
			c0.02-0.28-0.19-0.53-0.47-0.55c-0.04,0-0.07,0-0.11,0h-1.08v1.12L164.56,94.51L164.56,94.51z"/>
		<path id="Path_9738" class="st2" d="M56.78,121.14l0.06-0.06c0.79,0.08,1.58,0.11,2.37,0.11c0.99,0,1.88-0.06,2.54-0.11l0.06,0.06
			v0.6l-0.06,0.06c-0.56-0.05-1.12,0.04-1.63,0.27c-0.23,0.21-0.3,0.4-0.3,5.23v2.81c0,3.89-1.97,5.79-6.2,5.79
			c-3.3,0-5.82-1.19-5.82-4.85v-3.75c0-4.83-0.07-5.02-0.3-5.23c-0.51-0.23-1.07-0.32-1.63-0.27l-0.07-0.06v-0.6l0.07-0.06
			c1.06,0.04,2.07,0.11,3.09,0.11s2.03-0.06,3.09-0.11l0.07,0.06v0.6l-0.07,0.06c-0.56-0.05-1.12,0.04-1.63,0.27
			c-0.23,0.21-0.3,0.4-0.3,5.23v3.41c0,1.75,0.87,3.69,4.21,3.69c3.13,0,4.42-1.38,4.42-4.17v-2.94c0-4.83-0.07-5.02-0.3-5.23
			c-0.51-0.23-1.07-0.32-1.63-0.27l-0.06-0.06v-0.6H56.78z"/>
		<path id="Path_9739" class="st2" d="M70.79,124.02l0.05-0.05c0.76,0.03,1.5,0.09,2.27,0.09c0.58,0,1.15-0.05,1.73-0.09l0.05,0.05
			v0.48l-0.05,0.05c-0.64,0-1.07,0.09-1.27,0.33c-0.25,0.31-0.27,5.42-0.27,6.58c0,1.96,0.07,3.43,0.1,4.37l-0.1,0.09
			c-0.49-0.14-0.99-0.23-1.5-0.26c-1.27-1.35-5.31-6.25-7.76-9.37h-0.03v4.35c0,3.86,0.05,4.02,0.24,4.18
			c0.41,0.18,0.86,0.26,1.31,0.21l0.05,0.05v0.48l-0.05,0.05c-0.66-0.03-1.34-0.09-2-0.09c-0.66,0-1.34,0.05-2,0.09l-0.05-0.05
			v-0.48l0.05-0.05c0.45,0.04,0.89-0.03,1.3-0.21c0.19-0.17,0.24-0.32,0.24-4.18v-1.68c0-3.86-0.05-4.02-0.24-4.18
			c-0.41-0.18-0.86-0.26-1.3-0.22l-0.05-0.05v-0.48l0.05-0.05c0.63,0.03,1.24,0.09,1.88,0.09c0.43,0,0.85-0.03,1.27-0.09
			c0.61,1.02,6.46,8.06,7.73,9.56h0.04c0-0.53-0.07-2.3-0.07-4.58c0-3.86-0.05-4.02-0.24-4.18c-0.41-0.18-0.86-0.26-1.31-0.21
			l-0.05-0.05L70.79,124.02L70.79,124.02z"/>
		<path id="Path_9740" class="st2" d="M75.71,124.02l0.05-0.05c0.85,0.03,1.66,0.09,2.48,0.09s1.63-0.05,2.48-0.09l0.05,0.05v0.48
			l-0.05,0.05c-0.45-0.04-0.89,0.03-1.3,0.21c-0.19,0.17-0.24,0.32-0.24,4.18v1.68c0,3.86,0.05,4.02,0.24,4.18
			c0.41,0.18,0.86,0.26,1.3,0.21l0.05,0.05v0.48l-0.05,0.05c-0.85-0.03-1.66-0.09-2.48-0.09s-1.63,0.05-2.48,0.09l-0.05-0.05v-0.48
			l0.05-0.05c0.45,0.04,0.89-0.03,1.3-0.21c0.19-0.17,0.24-0.32,0.24-4.18v-1.68c0-3.86-0.05-4.02-0.24-4.18
			c-0.41-0.18-0.86-0.26-1.3-0.21l-0.05-0.05V124.02z"/>
		<path id="Path_9741" class="st2" d="M89.62,124.02l0.05-0.05c0.68,0.03,1.36,0.09,2.03,0.09c0.56,0,1.1-0.05,1.61-0.09l0.05,0.05
			v0.48l-0.05,0.05c-0.64,0-0.85,0.06-1.07,0.55c-1.93,4.25-4.22,9.43-4.61,10.62h-0.88c-0.12-0.88-4.39-10.18-4.66-10.73
			c-0.19-0.38-0.68-0.43-1.07-0.43l-0.05-0.05v-0.48l0.05-0.05c0.71,0.03,1.42,0.09,2.13,0.09c0.82,0,1.61-0.05,2.41-0.09l0.05,0.05
			v0.48l-0.05,0.05c-1.07,0-1.27,0.09-1.27,0.35c0,0.4,2.88,7.17,3.42,8.31c1.15-2.65,3.37-7.6,3.37-8.21
			c0-0.31-0.15-0.45-1.42-0.45l-0.05-0.05v-0.48L89.62,124.02z"/>
		<path id="Path_9742" class="st2" d="M93.9,124.02l0.05-0.05c0.85,0.03,1.66,0.09,2.48,0.09c3.13,0,5.29-0.05,6.39-0.09l0.1,0.09
			c-0.09,0.87-0.15,1.75-0.2,2.57l-0.05,0.05h-0.5l-0.05-0.05c0.04-0.51-0.02-1.02-0.15-1.51c-0.94-0.22-1.91-0.31-2.88-0.26
			c-0.69,0-1.3,0.05-1.64,0.06c-0.09,1.47-0.09,2.9-0.09,4.33c0.64,0.01,1.34,0.03,1.98,0.03c0.93,0,1.51-0.05,1.61-0.23
			c0.15-0.37,0.22-0.76,0.22-1.15l0.05-0.05h0.44l0.05,0.05c0,0.65-0.04,1.32-0.04,1.98c0,0.45,0.04,1.12,0.04,1.7l-0.05,0.05h-0.44
			l-0.05-0.05c-0.03-0.41-0.11-0.81-0.24-1.2c-0.09-0.22-0.64-0.3-2.08-0.3c-0.58,0-1.02,0.01-1.49,0.03c0,1.55,0,3.11,0.04,4.65
			c1.59,0.05,3.18-0.02,4.76-0.21c0.26-0.54,0.41-1.12,0.44-1.72l0.05-0.05h0.54l0.05,0.05c-0.07,0.7-0.15,1.8-0.19,2.72l-0.14,0.09
			c-1.12-0.03-2.32-0.05-3.51-0.06c-1.17-0.01-2.31-0.01-3.3-0.01c-0.49,0-0.97,0.03-1.45,0.09l-0.05-0.05v-0.31l0.07-0.09
			c0.56-0.25,0.68-0.33,0.71-0.43c0.05-0.15,0.12-0.33,0.12-5.78c0-3.86-0.05-4.02-0.24-4.18c-0.41-0.18-0.86-0.26-1.3-0.21
			l-0.05-0.05L93.9,124.02L93.9,124.02z"/>
		<path id="Path_9743" class="st2" d="M109.02,129.35c0.19,0.01,0.34,0.03,0.51,0.03c1.36,0.14,2.58-0.85,2.71-2.21
			c0.01-0.1,0.01-0.19,0.01-0.29c0-1.42-1.08-2.12-2.7-2.12c-0.49,0-0.98,0.07-1.46,0.2c-0.01,0.63-0.07,1.66-0.07,5.67
			c0,3.86,0.05,4.02,0.24,4.18c0.39,0.18,0.81,0.25,1.24,0.21l0.05,0.05v0.48l-0.05,0.05c-0.78-0.03-1.59-0.09-2.41-0.09
			s-1.63,0.05-2.48,0.09l-0.05-0.05v-0.48l0.05-0.05c0.45,0.04,0.89-0.03,1.3-0.21c0.19-0.17,0.24-0.32,0.24-4.18v-1.68
			c0-3.86-0.05-4.02-0.24-4.18c-0.41-0.18-0.86-0.26-1.3-0.21l-0.05-0.05v-0.48l0.05-0.05c0.85,0.03,1.66,0.09,2.48,0.09
			c1.02,0,2.03-0.09,2.98-0.09c2.44,0,4.1,0.47,4.1,2.5c-0.05,1.65-1.28,3.03-2.91,3.27l3.29,4.63c0.41,0.57,0.61,0.67,1.12,0.67
			l0.05,0.05v0.48l-0.05,0.05c-0.39-0.03-0.85-0.09-1.29-0.09c-0.46,0-0.9,0.05-1.35,0.09c-1.32-1.98-2.85-4.28-4.19-5.97
			L109.02,129.35z"/>
		<path id="Path_9744" class="st2" d="M117.36,132.6l0.05,0.05c-0.02,0.37,0,0.75,0.05,1.12c0.04,0.25,0.83,1.2,2.73,1.2
			c1.93,0,3.05-0.97,3.05-2.55c0-3.35-6.66-0.4-6.66-4.95c0-2.28,1.68-3.72,4.53-3.72c1.1,0,2.2,0.23,3.2,0.68l0.05,0.11
			c-0.17,0.74-0.27,1.49-0.29,2.25l-0.05,0.05l-0.54-0.05l-0.05-0.05c0-1,0-1.18-0.1-1.3c-0.66-0.58-1.51-0.88-2.39-0.83
			c-1.83,0-2.66,1.02-2.66,2.2c0,1.5,0.82,1.76,3.59,2.18c1.97,0.28,3.07,0.98,3.07,2.72c0,1.81-1.44,4.12-5.15,4.12
			c-1.09,0-2.17-0.23-3.15-0.69l-0.05-0.1c0.12-0.79,0.18-1.58,0.19-2.38l0.05-0.05L117.36,132.6L117.36,132.6z"/>
		<path id="Path_9745" class="st2" d="M126.24,124.02l0.05-0.05c0.85,0.03,1.66,0.09,2.48,0.09c0.81,0,1.63-0.05,2.48-0.09
			l0.05,0.05v0.48l-0.05,0.05c-0.45-0.04-0.9,0.03-1.31,0.21c-0.19,0.17-0.24,0.32-0.24,4.18v1.68c0,3.86,0.05,4.02,0.24,4.18
			c0.41,0.18,0.86,0.26,1.31,0.21l0.05,0.05v0.48l-0.05,0.05c-0.85-0.03-1.66-0.09-2.48-0.09c-0.81,0-1.63,0.05-2.48,0.09
			l-0.05-0.05v-0.48l0.05-0.05c0.45,0.04,0.9-0.03,1.31-0.21c0.19-0.17,0.24-0.32,0.24-4.18v-1.68c0-3.86-0.05-4.02-0.24-4.18
			c-0.41-0.18-0.86-0.26-1.31-0.21l-0.05-0.05V124.02z"/>
		<path id="Path_9746" class="st2" d="M134.56,135.08l0.05-0.05c0.45,0.04,0.9-0.03,1.31-0.21c0.19-0.17,0.24-0.32,0.24-4.18
			c0-1.2-0.07-3.03-0.1-5.72c-0.69-0.01-1.2-0.01-1.74-0.01c-0.88,0-1.2,0.03-1.32,0.18c-0.12,0.13-0.14,0.26-0.25,1.53l-0.07,0.06
			h-0.53l-0.05-0.05c0.03-0.87,0-1.75-0.1-2.62l0.05-0.05c1.59,0.05,3.54,0.09,5.05,0.09s3.46-0.03,5.05-0.09l0.05,0.05
			c-0.1,0.87-0.13,1.74-0.1,2.62l-0.05,0.05h-0.53l-0.07-0.06c-0.12-1.27-0.14-1.4-0.25-1.53c-0.12-0.15-0.44-0.18-1.32-0.18
			c-0.54,0-1.05,0-1.75,0.01c-0.03,2.68-0.1,4.52-0.1,5.72c0,3.86,0.05,4.02,0.24,4.18c0.41,0.18,0.86,0.26,1.31,0.21l0.05,0.05
			v0.48l-0.05,0.05c-0.85-0.03-1.66-0.09-2.48-0.09s-1.63,0.05-2.48,0.09l-0.05-0.05L134.56,135.08L134.56,135.08z"/>
		<path id="Path_9747" class="st2" d="M145.73,135.08l0.05-0.05c0.45,0.04,0.9-0.03,1.31-0.21c0.19-0.17,0.24-0.32,0.24-4.18
			c-3.27-5.53-3.85-5.78-4.68-5.78c-0.07,0-0.12,0.01-0.19,0.01l-0.05-0.05v-0.5l0.05-0.05c0.35,0,1.81-0.23,2.15-0.3
			c0.92,0.13,2.17,2.35,3.98,5.55c1.19-1.78,2.26-3.63,3.22-5.55c0.29,0.01,0.56,0.05,0.85,0.05c0.29,0,0.56-0.03,0.79-0.05
			l0.05,0.05v0.15c-0.93,0.9-4.42,5.85-4.42,6.65c0,3.68,0.05,3.83,0.24,4c0.41,0.18,0.86,0.26,1.3,0.21l0.05,0.05v0.48l-0.05,0.05
			c-0.85-0.03-1.66-0.09-2.42-0.09c-0.76,0-1.58,0.05-2.42,0.09l-0.05-0.05L145.73,135.08L145.73,135.08z"/>
		<path id="Path_9748" class="st2" d="M161.94,135.62c-0.86,0.07-1.71-0.23-2.34-0.83c-0.56-0.71-0.84-1.61-0.77-2.52
			c-0.01-1.79,0.65-3.52,1.86-4.85c1.04-1.3,2.61-2.07,4.27-2.09c0.87-0.07,1.74,0.23,2.38,0.82c0.58,0.71,0.86,1.61,0.79,2.52
			c0.01,1.8-0.66,3.54-1.88,4.86C165.2,134.83,163.62,135.59,161.94,135.62z M164.48,125.73c-1.04,0-1.96,0.7-2.75,2.09
			c-0.79,1.44-1.19,3.06-1.16,4.7c-0.03,0.67,0.15,1.34,0.5,1.91c0.28,0.48,0.8,0.77,1.35,0.77c1.06,0,1.99-0.69,2.78-2.04
			c0.79-1.4,1.2-3,1.17-4.61c0.05-0.73-0.11-1.45-0.46-2.09C165.6,125.98,165.05,125.7,164.48,125.73z"/>
		<path id="Path_9749" class="st2" d="M169.95,139.07h-1.57l2.61-12.88l0.04-0.18h-1.52l0.09-0.45h1.51l0.03-0.11
			c0.36-1.35,1.01-2.6,1.91-3.67c0.72-0.71,1.7-1.1,2.71-1.06c0.35,0,0.69,0.03,1.04,0.08c0.27,0.04,0.54,0.11,0.8,0.19l-0.44,2.19
			h-0.81l0.19-0.16l0.09-0.59c0.03-0.15,0.05-0.29,0.05-0.44c0.01-0.29-0.14-0.57-0.4-0.71c-0.32-0.16-0.68-0.23-1.04-0.21
			c-0.61-0.02-1.18,0.28-1.5,0.8c-0.45,0.92-0.76,1.9-0.91,2.92l-0.13,0.59l-0.04,0.18h2.93l-0.09,0.45h-2.93l-0.02,0.12
			L169.95,139.07z"/>
		<path id="Path_9750" class="st2" d="M40.13,143.72l0.06-0.06c0.95,0.04,1.88,0.11,2.84,0.11c0.72,0,1.44-0.06,2.16-0.11l0.07,0.06
			v0.6l-0.07,0.06c-0.81,0-1.33,0.11-1.59,0.42c-0.32,0.4-0.34,6.77-0.34,8.22c0,2.46,0.09,4.29,0.13,5.46l-0.13,0.11
			c-0.61-0.18-1.24-0.29-1.88-0.33c-1.59-1.68-6.63-7.81-9.69-11.7h-0.05v5.43c0,4.83,0.07,5.02,0.3,5.23
			c0.51,0.23,1.07,0.32,1.63,0.27l0.07,0.06v0.6l-0.07,0.06c-0.83-0.04-1.67-0.11-2.5-0.11c-0.83,0-1.67,0.07-2.5,0.11l-0.07-0.06
			v-0.6l0.07-0.06c0.56,0.05,1.12-0.04,1.63-0.27c0.23-0.21,0.3-0.4,0.3-5.23v-2.1c0-4.83-0.07-5.02-0.3-5.23
			c-0.51-0.23-1.07-0.32-1.63-0.27l-0.07-0.06v-0.6l0.07-0.06c0.78,0.04,1.55,0.11,2.35,0.11c0.53,0,1.06-0.03,1.59-0.11
			c0.76,1.27,8.07,10.08,9.65,11.95h0.04c0-0.67-0.09-2.87-0.09-5.73c0-4.83-0.07-5.02-0.3-5.23c-0.51-0.23-1.07-0.32-1.63-0.27
			l-0.06-0.06L40.13,143.72z"/>
		<path id="Path_9751" class="st2" d="M51.37,146.32c3.42,0,6.15,1.82,6.15,5.75c0.01,3.49-2.8,6.33-6.29,6.34
			c-0.09,0-0.19,0-0.28-0.01c-4.63,0-6.05-3.31-6.05-6.13C44.89,148.54,47.72,146.32,51.37,146.32z M51.08,147.13
			c-2.39,0-4.19,1.78-4.19,4.55c0,3.61,1.97,5.93,4.53,5.93c2.76,0,4.1-2.27,4.1-4.96C55.52,148.36,52.93,147.13,51.08,147.13z"/>
		<path id="Path_9752" class="st2" d="M62.74,151.93c0.19,0.01,0.34,0.03,0.51,0.03c1.36,0.14,2.58-0.85,2.71-2.22
			c0.01-0.1,0.01-0.19,0.01-0.29c0-1.42-1.08-2.12-2.7-2.12c-0.49,0-0.98,0.07-1.46,0.2c-0.01,0.63-0.07,1.66-0.07,5.67
			c0,3.86,0.05,4.02,0.24,4.18c0.39,0.18,0.81,0.25,1.24,0.21l0.05,0.05v0.48l-0.05,0.05c-0.78-0.03-1.59-0.09-2.41-0.09
			s-1.63,0.05-2.48,0.09l-0.05-0.05v-0.48l0.05-0.05c0.45,0.04,0.89-0.03,1.3-0.21c0.19-0.17,0.24-0.32,0.24-4.18v-1.68
			c0-3.86-0.05-4.02-0.24-4.18c-0.41-0.18-0.86-0.26-1.3-0.21l-0.05-0.05v-0.48l0.05-0.05c0.85,0.03,1.66,0.09,2.48,0.09
			c1.02,0,2.03-0.09,2.99-0.09c2.44,0,4.1,0.47,4.1,2.5c-0.05,1.65-1.28,3.03-2.91,3.27l3.29,4.63c0.41,0.57,0.61,0.67,1.12,0.67
			l0.05,0.05v0.48l-0.05,0.05c-0.39-0.03-0.85-0.09-1.29-0.09c-0.46,0-0.9,0.05-1.36,0.09c-1.32-1.98-2.85-4.28-4.19-5.97
			L62.74,151.93z"/>
		<path id="Path_9753" class="st2" d="M71.84,157.65l0.05-0.05c0.45,0.04,0.89-0.03,1.3-0.21c0.19-0.17,0.24-0.32,0.24-4.18
			c0-1.2-0.07-3.03-0.1-5.72c-0.69-0.01-1.2-0.01-1.74-0.01c-0.88,0-1.2,0.03-1.32,0.18c-0.12,0.13-0.14,0.26-0.25,1.53l-0.07,0.06
			h-0.53l-0.05-0.05c0.03-0.87,0-1.75-0.1-2.62l0.05-0.05c1.59,0.05,3.54,0.09,5.05,0.09s3.46-0.03,5.05-0.09l0.05,0.05
			c-0.1,0.87-0.13,1.74-0.1,2.62l-0.05,0.05h-0.53l-0.07-0.06c-0.12-1.27-0.14-1.4-0.25-1.53c-0.12-0.15-0.44-0.18-1.32-0.18
			c-0.54,0-1.05,0-1.74,0.01c-0.04,2.68-0.1,4.52-0.1,5.72c0,3.86,0.05,4.02,0.24,4.18c0.41,0.18,0.86,0.26,1.31,0.21l0.05,0.05
			v0.48l-0.05,0.05c-0.85-0.03-1.66-0.09-2.48-0.09s-1.63,0.05-2.48,0.09l-0.05-0.05L71.84,157.65L71.84,157.65z"/>
		<path id="Path_9754" class="st2" d="M79.74,157.65l0.05-0.05c0.45,0.04,0.89-0.03,1.3-0.21c0.19-0.17,0.24-0.32,0.24-4.18v-1.68
			c0-3.86-0.05-4.02-0.24-4.18c-0.41-0.18-0.86-0.26-1.3-0.21l-0.05-0.05v-0.48l0.05-0.05c0.85,0.03,1.66,0.09,2.48,0.09
			s1.63-0.05,2.48-0.09l0.05,0.05v0.48l-0.05,0.05c-0.45-0.04-0.89,0.03-1.3,0.21c-0.19,0.17-0.24,0.32-0.24,4.25
			c1.1,0.01,2.13,0.03,3.15,0.03c1.02,0,2.05-0.01,3.15-0.03c0-3.93-0.05-4.08-0.24-4.25c-0.41-0.18-0.86-0.26-1.31-0.21l-0.05-0.05
			v-0.48l0.05-0.05c0.85,0.03,1.66,0.09,2.48,0.09s1.63-0.05,2.48-0.09l0.05,0.05v0.48l-0.05,0.05c-0.45-0.04-0.9,0.03-1.31,0.21
			c-0.19,0.17-0.24,0.32-0.24,4.18v1.68c0,3.86,0.05,4.02,0.24,4.18c0.41,0.18,0.86,0.26,1.31,0.21l0.05,0.05v0.48l-0.05,0.05
			c-0.85-0.03-1.66-0.09-2.48-0.09s-1.63,0.05-2.48,0.09l-0.05-0.05v-0.48l0.05-0.05c0.45,0.04,0.9-0.03,1.31-0.21
			c0.19-0.17,0.24-0.32,0.24-4.25v-0.68c-1.1-0.01-2.13-0.03-3.15-0.03c-1.02,0-2.05,0.01-3.15,0.03v0.68
			c0,3.93,0.05,4.08,0.24,4.25c0.41,0.18,0.86,0.26,1.3,0.21l0.05,0.05v0.48l-0.05,0.05c-0.85-0.03-1.66-0.09-2.48-0.09
			s-1.63,0.05-2.48,0.09l-0.05-0.05V157.65z"/>
		<path id="Path_9755" class="st2" d="M112.21,156.25c-0.17,0.4-0.32,0.79-0.47,1.19c-1.53,0.71-3.2,1.06-4.89,1.04
			c-4.17,0-8.17-2.5-8.17-7.41c0-4.67,3.2-7.69,8.49-7.69c1.66,0.03,3.32,0.29,4.91,0.77l0.13,0.14c-0.27,0.96-0.4,1.94-0.4,2.94
			l-0.07,0.06h-0.68l-0.07-0.06c-0.01-0.52-0.05-1.04-0.13-1.56c-1.12-0.91-2.54-1.37-3.98-1.29c-3.96,0-5.72,3.08-5.72,5.96
			c0,3.79,2.22,6.89,6.78,6.89c1.41,0.01,2.8-0.38,4-1.13L112.21,156.25z"/>
		<path id="Path_9756" class="st2" d="M120.86,157.65l0.05-0.05c1.24,0,1.27-0.1,1.27-0.26c-0.27-1.03-0.65-2.03-1.14-2.99h-4.48
			c-1.03,2.32-1.07,2.57-1.07,2.78c0,0.4,0.44,0.42,1.37,0.47l0.05,0.05v0.48l-0.05,0.05c-0.61-0.03-1.29-0.09-1.95-0.09
			c-0.66,0-1.34,0.05-1.95,0.09l-0.05-0.05v-0.48l0.05-0.05c1.03-0.03,1.08-0.11,1.56-1.12c1.5-3.17,3.25-7.12,4.44-9.95h0.71
			c3.73,8.66,4.24,9.86,4.69,10.63c0.19,0.32,0.34,0.42,1.1,0.43l0.05,0.05v0.48l-0.05,0.05c-0.73-0.03-1.51-0.09-2.29-0.09
			s-1.56,0.05-2.29,0.09l-0.05-0.05L120.86,157.65z M118.8,149.11l-1.9,4.45h3.8L118.8,149.11z"/>
		<path id="Path_9757" class="st2" d="M130.68,151.93c0.19,0.01,0.34,0.03,0.51,0.03c1.36,0.14,2.58-0.85,2.71-2.21
			c0.01-0.1,0.01-0.19,0.01-0.29c0-1.42-1.08-2.12-2.69-2.12c-0.49,0-0.98,0.07-1.45,0.2c-0.01,0.63-0.07,1.66-0.07,5.67
			c0,3.86,0.05,4.02,0.24,4.18c0.39,0.18,0.81,0.25,1.24,0.21l0.05,0.05v0.48l-0.05,0.05c-0.78-0.03-1.59-0.09-2.41-0.09
			c-0.82,0-1.63,0.05-2.48,0.09l-0.05-0.05v-0.48l0.05-0.05c0.45,0.04,0.89-0.03,1.3-0.21c0.19-0.17,0.24-0.32,0.24-4.18v-1.68
			c0-3.86-0.05-4.02-0.24-4.18c-0.41-0.18-0.86-0.26-1.3-0.21l-0.05-0.05v-0.48l0.05-0.05c0.85,0.03,1.66,0.09,2.48,0.09
			c1.01,0,2.03-0.09,2.98-0.09c2.44,0,4.1,0.47,4.1,2.5c-0.05,1.65-1.28,3.03-2.91,3.27l3.29,4.63c0.41,0.57,0.61,0.67,1.12,0.67
			l0.05,0.05v0.48l-0.05,0.05c-0.39-0.03-0.85-0.09-1.29-0.09c-0.46,0-0.9,0.05-1.35,0.09c-1.32-1.98-2.85-4.28-4.19-5.97
			L130.68,151.93z"/>
		<path id="Path_9758" class="st2" d="M144.61,146.32c3.42,0,6.14,1.82,6.14,5.75c0.01,3.49-2.8,6.33-6.29,6.34
			c-0.09,0-0.19,0-0.28-0.01c-4.63,0-6.05-3.31-6.05-6.13C138.14,148.54,140.97,146.32,144.61,146.32z M144.32,147.13
			c-2.39,0-4.19,1.78-4.19,4.55c0,3.61,1.97,5.93,4.53,5.93c2.76,0,4.1-2.27,4.1-4.96C148.76,148.36,146.17,147.13,144.32,147.13z"
			/>
		<path id="Path_9759" class="st2" d="M151.97,146.59l0.05-0.05c0.85,0.03,1.66,0.09,2.48,0.09s1.63-0.05,2.48-0.09l0.05,0.05v0.48
			l-0.05,0.05c-0.45-0.04-0.9,0.03-1.31,0.21c-0.19,0.17-0.24,0.32-0.24,4.18v1.15c0,1.55,0,3.11,0.04,4.65c0.9,0,4.51,0,4.78-0.3
			c0.27-0.55,0.44-1.15,0.5-1.76l0.05-0.05h0.54l0.05,0.05c-0.07,0.77-0.15,1.9-0.25,2.93c-1.19-0.03-2.42-0.05-3.63-0.06
			c-1.19-0.01-2.32-0.01-3.32-0.01c-0.49,0-0.97,0.03-1.45,0.09l-0.05-0.05v-0.33l0.05-0.05c0.58-0.26,0.69-0.35,0.73-0.45
			c0.05-0.15,0.12-0.33,0.12-5.78c0-3.86-0.05-4.02-0.24-4.18c-0.41-0.18-0.86-0.26-1.31-0.21l-0.05-0.05L151.97,146.59
			L151.97,146.59z"/>
		<path id="Path_9760" class="st2" d="M162.32,146.59l0.05-0.05c0.85,0.03,1.66,0.09,2.48,0.09s1.63-0.05,2.48-0.09l0.05,0.05v0.48
			l-0.05,0.05c-0.45-0.04-0.9,0.03-1.31,0.21c-0.19,0.17-0.24,0.32-0.24,4.18v1.68c0,3.86,0.05,4.02,0.24,4.18
			c0.41,0.18,0.86,0.26,1.31,0.21l0.05,0.05v0.48l-0.05,0.05c-0.85-0.03-1.66-0.09-2.48-0.09s-1.63,0.05-2.48,0.09l-0.05-0.05v-0.48
			l0.05-0.05c0.45,0.04,0.89-0.03,1.3-0.21c0.19-0.17,0.24-0.32,0.24-4.18v-1.68c0-3.86-0.05-4.02-0.24-4.18
			c-0.41-0.18-0.86-0.26-1.3-0.21l-0.05-0.05V146.59z"/>
		<path id="Path_9761" class="st2" d="M177.49,146.59l0.05-0.05c0.76,0.03,1.5,0.09,2.27,0.09c0.58,0,1.16-0.05,1.73-0.09l0.05,0.05
			v0.48l-0.05,0.05c-0.64,0-1.07,0.09-1.27,0.33c-0.25,0.31-0.27,5.42-0.27,6.58c0,1.96,0.07,3.43,0.1,4.37l-0.1,0.09
			c-0.49-0.15-1-0.23-1.51-0.26c-1.27-1.35-5.3-6.25-7.76-9.37h-0.03v4.35c0,3.86,0.05,4.02,0.24,4.18c0.41,0.18,0.86,0.26,1.3,0.21
			l0.05,0.05v0.48l-0.05,0.05c-0.66-0.03-1.34-0.09-2-0.09s-1.34,0.05-2,0.09l-0.05-0.05v-0.48l0.05-0.05
			c0.45,0.04,0.89-0.03,1.3-0.21c0.19-0.17,0.24-0.32,0.24-4.18v-1.68c0-3.86-0.05-4.02-0.24-4.18c-0.41-0.18-0.86-0.26-1.3-0.21
			l-0.05-0.05v-0.49l0.05-0.05c0.63,0.03,1.24,0.09,1.88,0.09c0.43,0,0.85-0.03,1.27-0.09c0.61,1.02,6.46,8.06,7.73,9.56h0.03
			c0-0.53-0.07-2.3-0.07-4.58c0-3.86-0.05-4.02-0.24-4.18c-0.41-0.18-0.86-0.26-1.3-0.21l-0.05-0.05L177.49,146.59z"/>
		<path id="Path_9762" class="st2" d="M188.83,157.65l0.05-0.05c1.24,0,1.27-0.1,1.27-0.26c-0.27-1.03-0.65-2.03-1.14-2.99h-4.47
			c-1.03,2.32-1.07,2.57-1.07,2.78c0,0.4,0.44,0.42,1.37,0.47l0.05,0.05v0.48l-0.05,0.05c-0.61-0.03-1.29-0.09-1.95-0.09
			c-0.66,0-1.34,0.05-1.95,0.09l-0.05-0.05v-0.48l0.05-0.05c1.03-0.03,1.08-0.11,1.56-1.12c1.51-3.17,3.25-7.12,4.44-9.95h0.71
			c3.73,8.66,4.24,9.86,4.69,10.63c0.19,0.32,0.34,0.42,1.1,0.43l0.05,0.05v0.48l-0.05,0.05c-0.73-0.03-1.51-0.09-2.28-0.09
			c-0.77,0-1.56,0.05-2.28,0.09l-0.05-0.05L188.83,157.65z M186.78,149.11l-1.89,4.45h3.8L186.78,149.11z"/>
		<path id="Path_9763" class="st2" d="M64.68,166.29l0.07-0.06c0.85,0.06,1.69,0.11,2.54,0.11c0.63,0,1.27-0.04,1.93-0.11l0.07,0.06
			v0.6l-0.07,0.06c-0.99,0-1.25,0.11-1.57,1.1c-0.4,1.25-2.82,9.31-3.79,12.85h-1.04l-4.62-11.35c-1.76,3.79-4.53,9.7-5.14,11.35
			h-1.02l-3.18-12.66c-0.27-1.08-0.38-1.29-1.57-1.29l-0.07-0.06v-0.6l0.07-0.06c0.97,0.06,1.93,0.11,2.9,0.11
			c0.89,0,1.78-0.04,2.67-0.11l0.07,0.06v0.6l-0.07,0.06c-1.23,0-1.59,0.19-1.59,0.67c0.57,3.21,1.29,6.4,2.18,9.54h0.04
			c1.74-3.67,4.93-10.43,5.12-10.98h0.68c0.23,0.88,2.94,7.31,4.47,10.98h0.04c1.97-6.85,2.54-8.93,2.54-9.51
			c0-0.65-0.59-0.69-1.61-0.69l-0.07-0.06L64.68,166.29L64.68,166.29z"/>
		<path id="Path_9764" class="st2" d="M69.49,169.16l0.05-0.05c0.85,0.03,1.66,0.09,2.48,0.09s1.63-0.05,2.48-0.09l0.05,0.05v0.48
			l-0.05,0.05c-0.45-0.04-0.89,0.03-1.3,0.21c-0.19,0.17-0.24,0.32-0.24,4.18v1.68c0,3.86,0.05,4.02,0.24,4.18
			c0.41,0.18,0.86,0.26,1.3,0.21l0.05,0.05v0.48l-0.05,0.05c-0.85-0.04-1.66-0.09-2.48-0.09s-1.63,0.05-2.48,0.09l-0.05-0.05v-0.48
			l0.05-0.05c0.45,0.04,0.89-0.03,1.3-0.21c0.19-0.17,0.24-0.32,0.24-4.18v-1.68c0-3.86-0.05-4.02-0.24-4.18
			c-0.41-0.18-0.86-0.26-1.3-0.21l-0.05-0.05L69.49,169.16z"/>
		<path id="Path_9765" class="st2" d="M75.45,169.16l0.05-0.05c0.85,0.03,1.66,0.09,2.48,0.09s1.63-0.05,2.48-0.09l0.05,0.05v0.48
			l-0.05,0.05c-0.45-0.04-0.89,0.03-1.3,0.21c-0.19,0.17-0.24,0.32-0.24,4.18v1.15c0,1.55,0,3.11,0.04,4.65c0.9,0,4.51,0,4.78-0.3
			c0.27-0.55,0.44-1.15,0.5-1.76l0.05-0.05h0.53l0.05,0.05c-0.07,0.77-0.15,1.9-0.25,2.93c-1.19-0.04-2.42-0.05-3.62-0.07
			c-1.19-0.01-2.32-0.01-3.32-0.01c-0.49,0-0.97,0.03-1.45,0.08l-0.05-0.05v-0.33l0.05-0.05c0.58-0.26,0.69-0.35,0.73-0.45
			c0.05-0.15,0.12-0.33,0.12-5.78c0-3.86-0.05-4.02-0.24-4.18c-0.41-0.18-0.86-0.26-1.3-0.21l-0.05-0.05v-0.5H75.45z"/>
		<path id="Path_9766" class="st2" d="M85.81,169.16l0.05-0.05c0.85,0.03,1.25,0.09,2,0.09c0.48,0,0.95-0.03,1.42-0.09
			c1.58,3.4,3.75,7.57,4.46,8.97c1.54-2.99,3.03-5.95,4.51-8.97c0.46,0.03,1.07,0.09,1.56,0.09c0.49,0,1.19-0.05,1.66-0.09
			l0.05,0.05v0.48l-0.05,0.05c-0.45-0.04-0.89,0.03-1.3,0.21c-0.19,0.17-0.24,0.32-0.24,4.18v1.68c0,3.86,0.05,4.02,0.24,4.18
			c0.41,0.18,0.86,0.26,1.3,0.21l0.05,0.05v0.48l-0.05,0.05c-0.85-0.04-1.66-0.09-2.48-0.09s-1.63,0.05-2.48,0.09l-0.05-0.05v-0.48
			l0.05-0.05c0.45,0.04,0.9-0.03,1.31-0.21c0.19-0.17,0.24-0.32,0.24-4.18v-4.1h-0.04c-1.63,3.08-4.29,8.16-4.66,9.3h-0.35
			c-0.46-1.34-3.81-7.6-4.66-9.3h-0.03v4.09c0,3.86,0.05,4.02,0.24,4.18c0.39,0.18,0.82,0.25,1.25,0.21l0.05,0.05v0.48l-0.05,0.05
			c-0.63-0.04-1.27-0.09-1.9-0.09c-0.68,0-1.37,0.05-2.05,0.09l-0.05-0.05v-0.48l0.05-0.05c0.45,0.04,0.89-0.03,1.3-0.21
			c0.19-0.17,0.24-0.32,0.24-4.18v-1.68c0-3.86-0.05-4.02-0.24-4.18c-0.41-0.18-0.86-0.26-1.3-0.21l-0.05-0.05L85.81,169.16
			L85.81,169.16z"/>
		<path id="Path_9767" class="st2" d="M102.43,169.16l0.05-0.05c0.85,0.03,1.66,0.09,2.48,0.09s1.63-0.05,2.48-0.09l0.05,0.05v0.48
			l-0.05,0.05c-0.45-0.04-0.89,0.03-1.3,0.21c-0.19,0.17-0.24,0.32-0.24,4.18v1.68c0,3.86,0.05,4.02,0.24,4.18
			c0.41,0.18,0.86,0.26,1.3,0.21l0.05,0.05v0.48l-0.05,0.05c-0.85-0.04-1.66-0.09-2.48-0.09s-1.63,0.05-2.48,0.09l-0.05-0.05v-0.48
			l0.05-0.05c0.45,0.04,0.89-0.03,1.3-0.21c0.19-0.17,0.24-0.32,0.24-4.18v-1.68c0-3.86-0.05-4.02-0.24-4.18
			c-0.41-0.18-0.86-0.26-1.3-0.21l-0.05-0.05V169.16z"/>
		<path id="Path_9768" class="st2" d="M117.6,169.16l0.05-0.05c0.76,0.03,1.51,0.09,2.27,0.09c0.58,0,1.15-0.05,1.73-0.09l0.05,0.05
			v0.48l-0.05,0.05c-0.64,0-1.07,0.09-1.27,0.33c-0.25,0.31-0.27,5.41-0.27,6.58c0,1.96,0.07,3.43,0.1,4.37l-0.1,0.09
			c-0.49-0.15-1-0.23-1.51-0.26c-1.27-1.35-5.3-6.25-7.76-9.37h-0.04v4.35c0,3.86,0.05,4.02,0.24,4.18c0.41,0.18,0.86,0.26,1.3,0.21
			l0.05,0.05v0.48l-0.05,0.05c-0.66-0.03-1.34-0.08-2-0.08c-0.66,0-1.34,0.05-2,0.08l-0.05-0.05v-0.48l0.05-0.05
			c0.45,0.04,0.89-0.03,1.3-0.21c0.19-0.17,0.24-0.32,0.24-4.18v-1.68c0-3.86-0.05-4.02-0.24-4.18c-0.41-0.18-0.86-0.26-1.3-0.21
			l-0.05-0.05v-0.48l0.05-0.05c0.63,0.03,1.24,0.09,1.88,0.09c0.43,0,0.85-0.03,1.27-0.09c0.61,1.02,6.46,8.06,7.73,9.56h0.03
			c0-0.53-0.07-2.3-0.07-4.58c0-3.86-0.05-4.02-0.24-4.18c-0.41-0.18-0.86-0.26-1.31-0.21l-0.05-0.05L117.6,169.16L117.6,169.16z"/>
		<path id="Path_9769" class="st2" d="M130.92,176.05l0.05-0.05c0.25,0.01,1.37,0.06,2.22,0.06c0.61,0,1.76-0.05,2-0.06l0.05,0.05
			v0.35l-0.03,0.07c-0.23,0.09-0.44,0.22-0.63,0.38c-0.07,0.09-0.12,0.35-0.12,1.5c0,0.55,0.04,1.1,0.1,1.65l-0.07,0.1
			c-1.63,0.54-3.33,0.84-5.05,0.88c-4.27,0-6.64-2.5-6.64-6.03c0-4,3.25-6.05,6.8-6.05c1.63-0.03,3.26,0.23,4.81,0.75l0.05,0.11
			c-0.21,0.76-0.34,1.54-0.39,2.33l-0.05,0.05h-0.44l-0.05-0.05c0-0.47-0.08-0.94-0.22-1.38c-1.05-0.68-2.27-1.03-3.52-1.02
			c-3.24,0-4.92,2.05-4.92,4.96c0,3.31,2.13,5.45,5,5.45c0.91,0,1.8-0.16,2.66-0.45c0.05-0.63,0.07-1.28,0.07-1.59
			c0-1.05-0.01-1.2-0.14-1.27c-0.48-0.14-0.98-0.22-1.49-0.23l-0.05-0.05L130.92,176.05L130.92,176.05z"/>
		<path id="Path_9770" class="st2" d="M138.68,180.23l0.05-0.05c0.44,0.04,0.89-0.03,1.3-0.21c0.19-0.17,0.24-0.32,0.24-4.18
			c0-1.2-0.07-3.03-0.1-5.72c-0.69-0.01-1.2-0.01-1.74-0.01c-0.88,0-1.2,0.03-1.32,0.18c-0.12,0.13-0.14,0.26-0.25,1.53l-0.07,0.06
			h-0.53l-0.05-0.05c0.03-0.87,0-1.75-0.1-2.62l0.05-0.05c1.59,0.05,3.54,0.09,5.05,0.09s3.46-0.03,5.05-0.09l0.05,0.05
			c-0.1,0.87-0.13,1.74-0.1,2.62l-0.05,0.05h-0.53l-0.07-0.06c-0.12-1.27-0.14-1.4-0.25-1.53c-0.12-0.15-0.44-0.18-1.32-0.18
			c-0.54,0-1.05,0-1.75,0.01c-0.03,2.68-0.1,4.52-0.1,5.72c0,3.86,0.05,4.02,0.24,4.18c0.41,0.18,0.86,0.26,1.3,0.21l0.05,0.05v0.48
			l-0.05,0.05c-0.85-0.04-1.66-0.09-2.48-0.09s-1.63,0.05-2.48,0.09l-0.05-0.05L138.68,180.23L138.68,180.23z"/>
		<path id="Path_9771" class="st2" d="M153.45,168.9c3.42,0,6.14,1.82,6.14,5.75c0.01,3.49-2.8,6.33-6.29,6.34
			c-0.09,0-0.19,0-0.28-0.01c-4.63,0-6.05-3.31-6.05-6.13C146.98,171.11,149.82,168.9,153.45,168.9z M153.17,169.69
			c-2.39,0-4.19,1.78-4.19,4.55c0,3.61,1.97,5.93,4.53,5.93c2.76,0,4.1-2.27,4.1-4.96C157.6,170.93,155.02,169.7,153.17,169.69
			L153.17,169.69z"/>
		<path id="Path_9772" class="st2" d="M169.02,169.16l0.05-0.05c0.76,0.03,1.5,0.09,2.27,0.09c0.58,0,1.16-0.05,1.73-0.09l0.05,0.05
			v0.48l-0.05,0.05c-0.64,0-1.07,0.09-1.27,0.33c-0.25,0.31-0.27,5.41-0.27,6.58c0,1.96,0.07,3.43,0.1,4.37l-0.1,0.09
			c-0.49-0.15-1-0.23-1.51-0.26c-1.27-1.35-5.3-6.25-7.76-9.37h-0.04v4.35c0,3.86,0.05,4.02,0.24,4.18c0.41,0.18,0.86,0.26,1.3,0.21
			l0.05,0.05v0.48l-0.05,0.05c-0.66-0.03-1.34-0.08-2-0.08s-1.34,0.05-2,0.08l-0.05-0.05v-0.48l0.05-0.05
			c0.45,0.04,0.9-0.04,1.31-0.21c0.19-0.17,0.24-0.32,0.24-4.18v-1.68c0-3.86-0.05-4.02-0.24-4.18c-0.41-0.18-0.86-0.26-1.31-0.21
			l-0.05-0.05v-0.48l0.05-0.05c0.63,0.03,1.24,0.09,1.88,0.09c0.43,0,0.85-0.03,1.27-0.09c0.61,1.02,6.46,8.06,7.73,9.56h0.03
			c0-0.53-0.07-2.3-0.07-4.58c0-3.86-0.05-4.02-0.24-4.18c-0.41-0.18-0.86-0.26-1.3-0.21l-0.05-0.05L169.02,169.16z"/>
	</g>
</g>
</svg>
