<?xml version="1.0" encoding="UTF-8"?>
<svg xmlns="http://www.w3.org/2000/svg" xmlns:xlink="http://www.w3.org/1999/xlink" version="1.1" id="Layer_1" x="0px" y="0px" viewBox="0 0 314 50" style="enable-background:new 0 0 314 50;" xml:space="preserve">
<style type="text/css">
	.st0{fill:url(#SVGID_1_);}
	.st1{fill:#CCCCCC;}
	.st2{fill:#FFD520;}
	.st3{fill:#E03A3E;}
	.st4{stroke:#000000;stroke-width:0;stroke-linecap:round;stroke-linejoin:round;}
</style>
<g>
	<path d="M81.1,49.2L69.4,24.7h-0.1L68,45.3c-0.1,2.3,1.6,2.8,3.7,2.9v0.9h-9.6v-0.9c3.4,0,3.8-0.7,4-4.9l1.1-17.9   c0.2-3,0.1-3.9-2.8-4v-0.8h7l11.1,23.1l11-23.1h6.7v0.8c-2.2,0.2-3.1,0.2-3,1.8L98.7,44c0.3,4.2,0.6,4.2,4,4.2v0.9H90.9v-0.9   c2.2,0,4.3-0.6,4.1-3l-1.3-20.6h-0.1L82.1,49.2H81.1z"></path>
	<path d="M121.1,34.5h-7.9l3.9-10.6L121.1,34.5z M121.9,36.5l3.1,8.3c0.2,0.5,0.5,1.1,0.5,1.9c0,1.3-1,1.6-3.6,1.6h-1.2v0.9h12.6   v-0.9c-2.3,0-3.3-0.5-4.2-2.9L119.6,20h-4l0.4,1l-8.4,22.8c-1.5,4-2,4.5-5,4.5v0.9h10.6v-0.9h-0.7c-2.5,0-3.7-0.5-3.7-1.7   c0-0.6,0.6-2,0.9-2.9l2.7-7.2H121.9z"></path>
	<path d="M141.6,21.2c0.8-0.1,1.4-0.1,2.3-0.1c7.1,0,9,3.3,9,7.6c0,5.5-3.4,7.7-8.5,7.7c-1.1,0-1.8,0-2.9-0.1V21.2z M141.6,37.1   c0.7,0,1.3,0.1,2.4,0.1c1.2,0,2,0,3.1-0.1c1.1,0.7,2.7,2.1,4.8,4.1l3,3c4.1,4.1,6.1,5.8,14.2,5.4v-0.8c-3.5-0.2-6.3-1.9-9-4.6   l-3.6-3.6c-2.1-2.1-3.5-3.4-5.2-4.8c3.8-1.1,6.1-4,6.1-7.4c0-4.7-3.8-8.2-12.3-8.2c-3,0-3.9,0-5.8,0.1c-1.9,0.1-4.7,0.3-5.8,0.3   v0.9h1c2.7,0,3.4,0.8,3.4,3.7v19.3c0,3.1-1,3.8-3.7,3.8h-0.8v0.9h13v-0.9h-1.1c-2.6,0-3.7-0.7-3.7-3.4V37.1z"></path>
	<path d="M184.7,24.8c1.5-2.5,0.6-3.3-2.3-3.3v-0.9h10.3v0.9c-3.1,0.2-4.4,1.5-5.7,3.6L179.4,38v6.9c0,2.4,0.9,3.4,3.7,3.4h0.6v0.9   H171v-0.9h0.9c2.9,0,3.7-1.1,3.7-3.3v-6.5l-8.2-12.7c-2.2-3.5-3.3-4.2-6.3-4.3v-0.9h12.2v0.9c-3.6,0-3.8,0.9-2.5,3l7.4,11.3   L184.7,24.8z"></path>
	<path d="M212.8,49.2h-20.5v-0.9h1.5c2.1,0,2.9-0.7,2.9-3V25c0-2.4-0.7-3.4-3.6-3.4h-0.6v-0.9H206v0.9h-1.7c-3,0-3.8,0.3-3.8,3.2   v21.1c0,1.2,0.5,1.7,1.8,1.7h6.7c2.7,0,3.5-1.1,6.4-5.1h0.8L212.8,49.2z"></path>
	<path d="M233.8,34.5h-7.9l3.9-10.6L233.8,34.5z M234.6,36.5l3.1,8.3c0.2,0.5,0.5,1.1,0.5,1.9c0,1.3-1,1.6-3.6,1.6h-1.2v0.9H246   v-0.9c-2.3,0-3.3-0.5-4.2-2.9L232.2,20h-4l0.4,1l-8.4,22.8c-1.5,4-2,4.5-5,4.5v0.9h10.6v-0.9h-0.7c-2.5,0-3.7-0.5-3.7-1.7   c0-0.6,0.6-2,0.9-2.9l2.7-7.2H234.6z"></path>
	<path d="M275.7,49.5L252,24.6v19.6c0,3.3,0.7,4,4.6,4v0.9H246v-0.9h0.2c2.8,0,3.8-1,3.8-3.1V22.7c-1.1-0.7-2.2-1.1-3.9-1.1v-0.9   h7.2l21.6,22.5V24.9c0-2.8-0.8-3.3-4.5-3.4v-0.9h10.7v0.9c-3.4,0-4.2,0.6-4.2,2.4v25.6H275.7z"></path>
	<path d="M289.7,21.3c0.6,0,1.8-0.2,3.7-0.2c6.4,0,9.7,1.6,11.8,3.7c2.7,2.7,3.7,6.5,3.7,9.8c0,4.7-2.1,8.2-3.8,9.9   c-2.8,2.8-5.4,3.7-11.6,3.7c-3.6,0-3.8-0.6-3.8-2.5V21.3z M285.9,44.9c0,2.7-1.1,3.3-3.6,3.3h-0.8v0.9h14.7c11.6,0,17-8.3,17-15.2   c0-7.6-5.3-13.7-17.5-13.7c-2.4,0-5.2,0-7.7,0.1c-2.5,0.1-4.8,0.2-6.5,0.3v0.8h0.9c2.7,0,3.5,0.7,3.5,3.7V44.9z"></path>
</g>
<g>
	<path d="M75.5,2.3l0.3,0c1.6,0.1,1.9,0.3,1.9,2.4V10c0,3.8-2.7,4.6-4.9,4.6c-3.1,0-4.9-1.6-4.9-4.6V3.7c0-1.1,0.3-1.4,1.5-1.4h0.5   v-1h-6.5v1l0.3,0c1.5,0,1.7,0.2,1.7,1.4v6.6c0,3.7,2.7,6,6.9,6c5.2,0,7-3.3,7-6.1V4.1c0-1.3,0.4-1.8,1.8-1.8l0.3,0v-1h-5.9V2.3z"></path>
	<path d="M100.4,2.3l0.3,0c1.8,0,1.9,0.3,1.9,1.4V12L92.3,1.3h-4v1l0.3,0c0.7,0,1.2,0.2,1.6,0.4v11.1c0,0.8-0.2,1.2-1.6,1.2h-0.4v1   h5.9v-1h-0.3c-1.8,0-2-0.3-2-1.7v-9l11.2,11.8l0.1,0.1h1v-13c0-0.6,0-0.9,1.8-0.9h0.3v-1h-5.9V2.3z"></path>
	<path d="M113.4,2.3l0.3,0c1.2,0.1,1.4,0.3,1.4,1.3v9.7c0,1.4-0.2,1.6-1.4,1.7l-0.3,0v1h6.1v-1h-0.3c-1.4,0-1.6-0.3-1.6-1.5V3.9   c0-1.4,0.3-1.5,1.6-1.5h0.3v-1h-6.1V2.3z"></path>
	<path d="M137.1,2.3h0.3c1.8,0,1.8,0.4,1.8,0.7c0,0.3-0.1,0.7-0.4,1.3l-3.3,8.7l-3.8-9.5c-0.2-0.5-0.1-0.6-0.1-0.7   c0.2-0.3,0.8-0.4,2-0.5l0.3,0v-1H127v1h0.3c1.2,0,1.4,0.2,2,1.6l5,12.5h1.5l4.8-12.3c0.5-1.3,1-1.8,2.1-1.8h0.3v-1h-5.9V2.3z"></path>
	<path d="M161.8,12.3c-0.6,2-1,2.4-2.3,2.4h-3.5c-0.7,0-0.9-0.1-0.9-1V9.1h3.6c0.7,0,1.1,0,1.3,1.5l0,0.3h1V6h-1l0,0.3   c-0.1,1.3-0.5,1.4-1,1.4H155v-5h4.5c0.6,0,1.1,0.2,1.4,2.1l0,0.3h1l-0.2-3.8h-11.5v1h0.8c1.3,0,1.5,0.4,1.5,1.5v9.6   c0,1.2-0.2,1.6-1.8,1.6h-0.9v1h12.7l0.4-4h-1L161.8,12.3z"></path>
	<path d="M185.1,13.1l-1.8-1.8c-0.8-0.8-1.5-1.5-2.2-2c1.7-0.7,2.7-2.1,2.7-3.8c0-2.7-2.4-4.3-6.4-4.3c-1.5,0-1.9,0-2.9,0.1l-0.6,0   c-0.8,0.1-1.8,0.1-2.2,0.1h-0.3v1h0.8c1.2,0,1.4,0.3,1.4,1.5v9.6c0,1.4-0.4,1.6-1.5,1.6h-0.7v1h7v-1h-0.8c-1.2,0-1.5-0.3-1.5-1.4   v-3.5c0.2,0,0.5,0,0.9,0c0.5,0,0.8,0,1.2,0l0.2,0c0.6,0.4,1.4,1.1,2.2,1.9l1.5,1.5c1.9,1.9,3,2.8,6.3,2.8c0.3,0,0.6,0,1,0l0.3,0v-1   l-0.3,0C187.8,15.2,186.5,14.5,185.1,13.1z M176,2.1c0.3,0,0.5,0,0.8,0c2.9,0,4.2,1.1,4.2,3.5c0,2.4-1.3,3.5-3.9,3.5l-0.6,0   c-0.2,0-0.4,0-0.5,0V2.1z"></path>
	<path d="M199.8,7.2c-1.6-1-3.1-2-3.1-3.3c0-1.1,0.9-1.8,2.2-1.8c1.5,0,2.8,1,3.4,2.5l0.1,0.2h0.9l-0.5-3.5h-0.8L202,1.4   c-0.1,0.1-0.1,0.1-0.2,0.1c-0.3,0-0.5-0.1-0.8-0.2c-0.5-0.2-1.1-0.4-2.3-0.4c-2.5,0-4.3,1.5-4.3,3.6c0,2.2,2.1,3.6,4,4.8   c1.7,1.1,3.2,2,3.2,3.4c0,1.6-1.4,2.4-2.8,2.4c-1.7,0-3.1-1.2-3.5-3l-0.1-0.2h-1l0.6,4.1h0.8l0.1-0.2c0-0.1,0.1-0.1,0.2-0.1   c0.1,0,0.4,0.1,0.6,0.2c0.7,0.2,1.7,0.5,2.5,0.5c2.8,0,4.9-1.8,4.9-4.2C204,9.8,201.8,8.5,199.8,7.2z"></path>
	<path d="M212.9,2.3l0.3,0c1.2,0.1,1.4,0.3,1.4,1.3v9.7c0,1.4-0.2,1.6-1.4,1.7l-0.3,0v1h6.1v-1h-0.3c-1.4,0-1.6-0.3-1.6-1.5V3.9   c0-1.4,0.3-1.5,1.6-1.5h0.3v-1h-6.1V2.3z"></path>
	<path d="M240.8,1l0,0.2c0,0-0.1,0.1-0.4,0.1h-11c-0.1,0-0.3,0-0.4-0.1l0-0.3h-1l-0.4,4.3h1l0-0.2c0.4-2.1,0.8-2.3,1.4-2.3h3.7v11   c0,1-0.2,1.4-1.5,1.4H231v1h7.8v-1h-1.1c-1.3,0-1.5-0.4-1.5-1.4v-11h3.7c0.6,0,1,0.2,1.4,2.3l0,0.2h1L241.8,1H240.8z"></path>
	<path d="M259.7,2.3h0.3c0.9,0,1.1,0.2,1.2,0.3c0,0.1,0.1,0.3-0.3,0.9l-3,5.1l-3.4-5.2c-0.4-0.6-0.4-0.7-0.3-0.8   c0-0.1,0.2-0.2,1.3-0.2h0.3v-1h-6.6v1l0.3,0c1.3,0,1.8,0.2,2.9,2l4,6.3v3.1c0,0.9-0.2,1.3-1.5,1.3h-0.7v1h6.9v-1h-0.6   c-1.3,0-1.5-0.4-1.5-1.4v-3.3l3.8-6.3c0.6-1,1.2-1.5,2.6-1.7l0.3,0v-1h-5.7V2.3z"></path>
	<path d="M286.4,1c-5,0-8.6,3.4-8.6,8c0,4.2,3.7,7.4,8.5,7.4c4.8,0,8.4-3.5,8.4-8.1C294.7,4.2,291.1,1,286.4,1z M285.8,2.1   c3.6,0,6.2,2.8,6.2,6.9c0,3-1.6,6.2-5.2,6.2c-3.6,0-6.3-3-6.3-7C280.5,5.8,281.9,2.1,285.8,2.1z"></path>
	<path d="M307.9,2.7c1.2,0,1.6,0.4,1.6,1.6l0,0.3h1V1.3h-10.8v1l0.3,0c1.3,0,1.4,0.4,1.4,1.8v8.9c0,1.8-0.2,1.9-1.4,1.9l-0.3,0v1   h6.1v-1h-0.3c-1.6,0-1.7-0.4-1.7-1.5V8.9h3.9c0.9,0,1.3,0.2,1.3,1.4l0,0.3h1V6h-1l0,0.3c-0.1,1-0.5,1.2-1,1.2h-4.2V2.7H307.9z"></path>
</g>
<g>
	<g>
		<radialGradient id="SVGID_1_" cx="26.4871" cy="25.3962" r="25.2868" gradientUnits="userSpaceOnUse">
			<stop offset="0" style="stop-color:#FFFFFF"></stop>
			<stop offset="0.5149" style="stop-color:#FDFDFD"></stop>
			<stop offset="0.7003" style="stop-color:#F6F6F6"></stop>
			<stop offset="0.8325" style="stop-color:#EBEBEB"></stop>
			<stop offset="0.9387" style="stop-color:#DADADA"></stop>
			<stop offset="1" style="stop-color:#CCCCCC"></stop>
		</radialGradient>
		<path class="st0" d="M26.5,50.7c-13.9,0-25.3-11.3-25.3-25.3c0-13.9,11.3-25.3,25.3-25.3c13.9,0,25.3,11.3,25.3,25.3    C51.8,39.3,40.4,50.7,26.5,50.7z"></path>
	</g>
	<g>
		<path class="st1" d="M26.5,50.7c-13.9,0-25.3-11.3-25.3-25.3c0-13.9,11.3-25.3,25.3-25.3c13.9,0,25.3,11.3,25.3,25.3    C51.8,39.3,40.4,50.7,26.5,50.7z M26.5,0.4c-13.8,0-25,11.2-25,25s11.2,25,25,25c13.8,0,25-11.2,25-25S40.2,0.4,26.5,0.4z"></path>
	</g>
	<path class="st2" d="M51.6,24.8c0,0.1-0.4,0.5-0.9,0.8c0,0,0,0,0,0c-0.6,0.4-1.6,0.7-2.7,1c-1.2,0.3-2.6,0.6-4.2,0.8   c-1.6,0.2-3.4,0.4-5.3,0.6c0,0,0,0,0,0c-2.4,0.2-4,0.3-5.9,0.4c-2.1,0.1-4.2,0.1-6.4,0.1c0,0.3,0,0.6,0,0.8c0,2,0,3.8,0,5.6   c0.1,9.6,0.1,9.6,0.4,15.5c13.9,0,25.1-11.2,25.1-25.1C51.6,25.4,51.6,25,51.6,24.8z"></path>
	<g>
		<path d="M26.1,29.4c0,2,0,3.8,0,5.6c4,3.8,4,3.8,5.7,5.5c0.4-3.2,0.7-7,0.7-11.2c0-0.3,0-0.6,0-0.8c-2.5,0.1-4.2,0.1-6.4,0.1    C26.1,28.9,26.1,29.1,26.1,29.4z"></path>
		<path d="M35.3,44.8c-0.9-1.4-1.7-2.4-3.5-4.3c-0.9,6.1-2.4,9.9-4.3,10c0.2,0,0.4,0,0.6,0c0.2,0,0.4,0,0.6-0.1    C31.4,50.2,33.6,48.2,35.3,44.8z"></path>
		<path d="M38.1,34.5c0,0-1.4,7.5-2.8,10.3c0.8,1.5,0.8,2.1,0.5,3.1c2.4-1.9,4.4-4.6,5.8-8.1C40.8,38,40.2,37,38.1,34.5z"></path>
		<path d="M31,50.1c0.5-0.1,0.5-0.1,1.5-0.3l0.6-0.2c1.9-0.6,2.2-0.9,2.8-1.7c-1.7,1.2-3.4,2-5.4,2.3L31,50.1z"></path>
		<path d="M42.1,44c3.6-4.1,5.8-9.9,5.8-16.5c0-0.3,0-0.6,0-0.8c-1.2,0.3-2.6,0.6-4.2,0.8c0,0.3,0,0.6,0,0.8c0,4.3-0.7,8.2-2.1,11.5    C42.5,41.7,42.5,42.5,42.1,44z"></path>
		<path d="M38.5,28c-2.4,0.2-4,0.3-5.9,0.4c3.4,3.6,4.2,4.4,5.6,6.1c0.2-1.8,0.3-3.7,0.3-5.6C38.5,28.6,38.5,28.3,38.5,28z"></path>
	</g>
	<path d="M21,1.6c1.4-0.6,2.7-1.2,5.5-1.3l0,0C24.6,0.4,22.7,0.9,21,1.6"></path>
	<g>
		<path class="st3" d="M43.3,27.4c-1.3-0.2-2.4-2.4-1.8-4.6c-1.8,1.3-3.9-1.3-3.6-3.8c0.2-1.3,1-2.4,2.5-1.9c-0.6-2-1.3-4-2.2-5.8    c-1.3,0.2-2.7,0.3-4.2,0.4c1.3,2,0,3.9-1.8,3.6c-1.4-0.2-2.6-1.6-2.3-3.3c-1.1,0.8-3.4,0.5-3.6-1.9c-0.1,5.1-0.1,11.6-0.1,18.4    c6.7,0.1,14.5-0.6,17.6-1.1c0,0,0,0,0,0C43.6,27.5,43.4,27.5,43.3,27.4z"></path>
	</g>
	<g>
		<path class="st3" d="M10.3,32.5c1.9-0.7,4.2,2.5,3.4,4.7c-0.4,1-1.4,1.3-2.4,0.7c0.6,1.9,1.3,3.6,2.1,5.1c1.3,0.2,2.8,0.3,4.4,0.5    c-1.3-1.6-0.3-2.9,1.5-2.8c1.5,0.1,3.5,1.3,3,3c1.3-0.6,3.6-0.1,3.9,1.6c-0.1-3.8-0.1-9.3-0.1-15.8c0-0.3,0-0.5,0-0.8    c-2.1,0-4.3-0.1-6.4-0.2c-4.5-0.2-7.6-0.4-11.4-1.1c0,0,0,0,0,0C10.2,28,10.8,30.9,10.3,32.5z"></path>
	</g>
	<path class="st3" d="M38.4,9.3L38.4,9.3L38.4,9.3C38.4,9.3,38.4,9.3,38.4,9.3L38.4,9.3C38.4,9.3,38.4,9.3,38.4,9.3   c0.3,0,0.5-0.1,0.7-0.1c1.4-0.3,4.7-1,4.7-2c0,0,1.3,1.3,2.2,3.1c0.1,0.2,0.2,0.4,0.3,0.7c0.1,0.3,0.2,0.7,0.2,0.9   c0,0.5-0.4,0.6-0.7,0.4c0,0-0.1,0-0.1,0c-1.3-0.6-1.7-1.8-2-2.3c-0.7,0.2-1.7,0.7-2.6,0.9c-0.1,0-0.3,0.1-0.4,0.1   c1.1,1.8,2.1,3.8,2.8,5.9c1.3-1.3,3.2,1.1,3.3,3.4c0.1,1.4-0.6,2.6-1.8,2.1c1,1.9,0.7,4.6-1.2,5.2C43.4,21.4,42.4,15.9,38.4,9.3   L38.4,9.3L38.4,9.3"></path>
	<path class="st3" d="M38.4,9.4L38.4,9.4L38.4,9.4L38.4,9.4L38.4,9.4c-3.2-4.9-5.7-6.7-9-7.9c-0.6-0.3-2.8-1.1-3-1.1l0,0l0,0   c0.6,0.8,1.7,1.3,2,1.4c-0.1,0.3,0,0.9,1,1.7c0.2,0.1,0.3,0.2,0.5,0.3c1.6,0.9,2,0.2,2.1-0.1c0,0,0,0,0,0c0.5,0.4,1.5,1.1,2.5,2.4   c0.6,0.7,1.2,1.4,1.6,2c-1,0.1-2.3,0.2-3.7,0.3c-0.1-1.6-1.2-2.4-2-2.7C29,5,28.5,6.9,29.2,8.2c-1.3-0.7-2.7-0.1-3,1.9   C31.2,10.1,34.6,9.9,38.4,9.4L38.4,9.4L38.4,9.4"></path>
	<path class="st3" d="M38.7,4.8c0,0,0-0.1,0-0.2c0-0.1,0.1-0.1,0.1-0.1s0-0.1,0.1-0.1c0.3-0.1,1-0.2,3.1,1.2c-4.4-3.4-9-4.8-13-5.2   c-0.6-0.1-1.6-0.1-1.6-0.1c1.3,0.1,2.1,0.4,2.3,0.5C29.8,0.9,30,1,30,1c0,0,0,0,0,0c0.3,0,0.5,0.1,0.9,0.2c0.4,0.1,1,0.4,1.6,0.6   C33.1,2.1,34,2.7,34,3c-0.1,0.1-0.2,0.1-0.6,0c1.5,1.1,3.6,3.1,4.9,4.5c0.9-0.2,2.2-0.3,2.8-0.5C41,7.1,39.1,5.6,38.7,4.8z"></path>
	<path class="st3" d="M13.1,44.3C11,44,9.7,43.6,8.9,43.2c-0.1-0.1-0.2-0.1-0.2-0.1c0,0-1.2-1.2-2.3-2.6c-0.8-1-1.4-2.1-1.5-2.2   c0,0,0.2,0,0.3,0c1.1,0.4,2.9,3.5,2.9,3.5c0.7,0.3,1.6,0.5,2.7,0.7c-1-1.6-1.9-3.3-2.6-5.2c-1.6,0.8-3.6-3.3-2.9-5.1   c0.1-0.4,0.5-1.1,1.6-0.3c-0.8-1.8-0.6-4.6,1.3-4.6C8.3,33.4,9.2,38.7,13.1,44.3"></path>
	<path class="st3" d="M26.2,45.6c-0.2,0.9-1.4,1.7-3.2,1c0.8,1.1,0.1,2-1.3,1.7c-1.1-0.2-2.4-1.1-2.5-2c-1.4-0.1-2.6-0.2-3.7-0.4   c1.1,1.2,2.2,2.2,3.5,3c0.2-0.1,0.4,0,1.1,0.2c1,0.3,1.9,0.8,2.8,1.1c0,0-0.2,0-0.2,0c-0.7-0.1-0.9-0.2-1.3-0.2   c-1.9-0.4-5.1-1.4-8.3-5.7h0h0l0,0c3.9,0.6,7.7,0.9,13.1,0.9C26.2,45.4,26.2,45.5,26.2,45.6"></path>
	<path class="st2" d="M26.4,0.3C13,0.3,1.6,11.3,1.4,24.9l0,0c0,0,0.1,0.3,0.7,0.6v0v0c0.5,0.3,1.3,0.7,2.3,1   c1.3,0.3,2.6,0.6,3.9,0.8l0,0c3.8,0.6,6.9,0.9,11.4,1.1c2.1,0.1,4.3,0.2,6.4,0.2c0-1.3,0-8.6,0-15.6c0-0.9,0-1.9,0-2.8   C26.3,5.6,26.3,0.9,26.4,0.3L26.4,0.3z"></path>
	<path d="M38.5,47.5c-1.4,0.8-1.7,0.8-3.6,1.6c-0.5,0.2-1,0.3-1.6,0.5c3.4-0.9,8-4.7,8.8-5.6c-0.4,0.9-0.7,1.5-1.7,2.3   C40.1,46.5,38.9,47.2,38.5,47.5z"></path>
	<path d="M4.4,26.5c-1-0.3-1.8-0.6-2.3-1C2.3,16.5,7.4,8.4,14.7,4c-1.7,1.5-2.5,2.5-3.4,4.6C7.2,13.3,4.6,19.7,4.4,26.5"></path>
	<path d="M14.8,4c1.8-1.3,2.9-2.3,5.8-3c2-0.5,3.8-0.7,5.9-0.7l0,0C22.2,0.4,18.2,1.9,14.8,4"></path>
	<path d="M13.4,28c-1.8-0.2-3.6-0.4-5.1-0.7c0.1-4.6,1.1-8.9,2.7-12.8c0.6,2.5,1.2,3.9,3,6.9C13.6,23.6,13.4,25.8,13.4,28"></path>
	<path d="M26.2,10.1c0,2.8,0,5.6-0.1,7.8c0,2.2,0,3.8,0,4.1c-2.5-2.6-3.8-4-5.6-6.3c1.2-7.8,3.4-14,5.9-15.4l0,0l0,0   C26.3,1,26.3,5.4,26.2,10.1z"></path>
	<g>
		<path d="M17.4,9.8c-1.6,3.3-2.8,7.3-3.4,11.6c1.5,2.3,2.5,3.6,5.5,7c0-4.5,0.4-8.8,1-12.8C18.7,13.1,18.1,11.9,17.4,9.8z"></path>
	</g>
	<path class="st4" d="M50.6,25.6c0,0.3,0,0.6,0,0.8c0,8.9-4.3,16.3-11.1,20.4L39.4,47c3.2-2,7.2-5.3,9.8-10.7   c2.7-5.4,2.4-11.4,2.4-11.4C51.5,25.1,51.1,25.4,50.6,25.6z"></path>
	<g>
		<path d="M21,1.6c-3.7,1.4-7,3.9-9.6,7c-0.7,2.3-0.7,3.6-0.4,6c1.6-3.8,3.9-7.1,6.6-9.6C18.4,3.5,18.9,2.7,21,1.6z"></path>
	</g>
	<path d="M17.4,9.9c-0.5-2.1-0.5-3.1,0.2-4.9c2.6-2.4,5.6-4.2,8.9-4.7C22.9,1.2,19.7,4.9,17.4,9.9"></path>
</g>
</svg>
