<svg width="353" height="149" xmlns="http://www.w3.org/2000/svg" xmlns:xlink="http://www.w3.org/1999/xlink"><defs><filter x="-3.7%" y="-6.3%" width="107.4%" height="118.6%" filterUnits="objectBoundingBox" id="a"><feOffset dy="4" in="SourceAlpha" result="shadowOffsetOuter1"/><feGaussianBlur stdDeviation="3.5" in="shadowOffsetOuter1" result="shadowBlurOuter1"/><feColorMatrix values="0 0 0 0 0.450980392 0 0 0 0 0.450980392 0 0 0 0 0.450980392 0 0 0 0.231889205 0" in="shadowBlurOuter1"/></filter><path d="M338.8 0c0 31.165-.53 53.686-1.589 67.564-1.32 17.289-16.407 33.33-32.846 39.902-5.027 2.01-50.149 10.922-135.365 26.734l-.007-.002-2.522-.47c-83.047-15.518-127.06-24.272-132.036-26.262-16.439-6.572-31.527-23.713-32.846-41.002C.553 52.898.024 31.423 0 2.04L0 0Z" id="b"/></defs><g fill="none" fill-rule="evenodd"><g transform="translate(7)"><use fill="#000" filter="url(#a)" xlink:href="#b"/><use fill="#FFF" xlink:href="#b"/></g><path d="M305.978 32.778v-.092c-.046-.644-.046-1.47-.046-2.343v-.138l-.138.046c-.23.046-1.285.046-2.34.046h-3.26c-.643 0-1.24 0-2.02-.046h-.092a.47.47 0 0 0-.183.321c0 .138.045.276.137.322l.322.046c.872.092.918.184.918 2.067v6.34c0 1.884-.046 1.976-.918 2.068l-.505.046-.046.046c-.092.092-.138.276-.092.367 0 .138.092.23.184.276h.091c.827-.046 1.423-.046 2.204-.046.688 0 1.331 0 2.341.046h.092c.138-.046.184-.23.184-.322 0-.137-.046-.275-.138-.321l-.643-.092c-.918-.092-.964-.184-.964-2.067v-2.435c0-.322 0-.322.46-.322h1.193c.596 0 1.101 0 1.331.092.23.092.367.23.459.551l.184.735.046.046c.183.138.55.138.642-.046v-.092c0-.183 0-.413-.046-.689 0-.321-.046-.689-.046-1.01 0-.368 0-.736.046-1.057 0-.276.046-.506.046-.735v-.092c-.092-.138-.275-.138-.321-.138-.138 0-.276.046-.321.138l-.184.78c-.092.414-.23.46-.367.506-.184.046-.735.092-1.47.092h-1.193c-.459 0-.459 0-.459-.322v-3.675c0-.551 0-.551.413-.551h1.056c.735 0 1.285 0 1.653.092.734.183.964.689 1.147 1.562v.046l.046.045a.492.492 0 0 0 .276.092c.092 0 .275-.092.321-.183m-11.798 3.4c0-2.987-1.974-6.203-6.243-6.203-3.673 0-6.427 2.757-6.427 6.34 0 3.033 2.203 6.11 6.427 6.11 3.535.047 6.243-2.664 6.243-6.248Zm-2.066.55c0 3.63-2.157 4.917-3.994 4.917-3.626 0-4.59-3.676-4.59-5.881 0-3.676 2.203-4.962 4.085-4.962 3.352 0 4.5 3.216 4.5 5.927ZM277.7 66.777c0 7.626 5.646 14.334 15.057 14.334 8.171 0 14.69-6.202 14.69-14.794 0-7.442-4.912-14.518-14.69-14.518-8.676.046-15.057 6.524-15.057 14.978Zm4.223-1.333c0-9.28 5.692-12.266 10.1-12.266 8.079 0 11.155 7.534 11.155 14.518 0 8.315-4.82 12.129-9.916 12.129-8.263 0-11.339-8.132-11.339-14.38Zm-9.319-34.55a.417.417 0 0 0 .138-.32.387.387 0 0 0-.184-.322h-.092c-1.24.092-1.974.092-3.305 0h-.092a.31.31 0 0 0-.183.275c-.046.138 0 .276.137.368l.046.046.368.046c.32.046.55.138.596.184-.046.23-.688 1.378-1.056 2.113l-.091.138c-.414.827-.918 1.7-1.515 2.756-.46-.827-.918-1.745-1.377-2.664-.184-.368-.368-.69-.505-1.057a21.497 21.497 0 0 1-.551-1.286c0-.046.092-.092.642-.184l.276-.046.046-.046c.092-.092.137-.276.092-.414-.046-.137-.092-.23-.23-.23h-.092c-.413.047-1.056.047-1.882.047-.826 0-1.469 0-2.02-.046h-.092c-.091.046-.137.138-.183.275a.358.358 0 0 0 .092.368l.045.046.551.092c.46.092.689.138 1.286 1.286l2.065 4.043c.505.965.551 1.149.551 2.114v.918c0 1.93-.046 2.022-.918 2.114l-.597.046-.045.046c-.092.092-.138.275-.092.367 0 .138.092.23.183.276h.092c.964-.046 1.561-.046 2.295-.046.735 0 1.332 0 2.388.046h.091c.092-.046.138-.138.184-.276 0-.138 0-.275-.092-.367l-.046-.046-.734-.046c-.826-.046-.918-.184-.918-2.114v-.918c0-1.333.046-1.47.826-2.803l1.102-1.93c.092-.183.183-.321.275-.505.689-1.195 1.194-2.067 1.928-2.205l.597-.138Zm-6.197 21.594a24.52 24.52 0 0 0-5.371-.643c-6.381 0-10.559 1.976-13.405 4.962-2.617 2.803-3.81 6.432-3.81 10.016 0 3.721 1.331 7.075 3.902 9.602 3.26 3.308 7.85 4.686 12.9 4.686 2.295 0 5.325-.505 7.574-1.102.78-.23 1.56-.368 2.066-.368a.328.328 0 0 0 .046-.505c-.78-.276-1.01-1.333-1.01-2.987V73.76c0-2.16.046-3.354 1.836-3.537l.689-.092c.275-.276.275-.873-.046-1.057a67.22 67.22 0 0 1-4.5.138c-2.478 0-4.82-.046-6.059-.138-.275.138-.321.873 0 1.057l1.882.23c2.617.275 2.755.55 2.755 4.088v1.7c0 1.333-.23 2.114-.413 2.435-.46.735-2.02 1.287-4.637 1.287-8.493 0-12.67-6.386-12.67-14.518 0-6.34 3.58-12.175 11.798-12.175 4.315 0 7.483 1.424 8.676 6.018.276.276 1.01.23 1.148-.138-.367-2.527-.643-4.732-.643-6.156-.597.046-1.882-.23-2.708-.414Zm-7.208-22.466v-.092c-.046-.138-.23-.138-.32-.138-.047 0-.093 0-.185.046h-.045l-.046.046c-.23.414-.322.414-1.24.414h-7.299c-.78 0-1.148-.046-1.194-.414v-.092a.35.35 0 0 0-.23-.092c-.045 0-.183 0-.275.046l-.045.046v.046c-.138.69-.368 1.838-.643 2.619v.046l.046.046c.092.23.459.321.642.184h.046v-.046c.184-.414.368-.781.78-1.149.368-.367 1.286-.413 2.067-.413h.964c.413 0 .413 0 .413.413v7.902c0 1.93-.092 1.976-.964 2.068l-.643.046h-.046c-.092.046-.183.184-.138.367 0 .138.046.276.184.322h.092c1.056-.046 1.744-.046 2.433-.046.689 0 1.24 0 2.295.046h.092a.47.47 0 0 0 .184-.322c0-.137-.046-.275-.138-.321l-.643-.092c-.872-.092-.918-.184-.918-2.068v-7.948c0-.184 0-.367.046-.367.046-.046.23-.046.367-.046h1.24c.964 0 1.606.138 1.974.413.183.138.321.551.367 1.195v.046l.046.046c.046.091.184.137.321.137.184 0 .322-.091.367-.183v-.092c-.229-.506-.137-1.93.046-2.619Zm-16.067 9.372V33.1c0-1.93.046-2.067.964-2.113l.46-.046h.045c.092-.046.138-.184.138-.322 0-.046-.046-.275-.184-.321h-.092c-.826.046-1.469.046-2.157.046-.735 0-1.377 0-2.204-.046h-.091a.47.47 0 0 0-.184.321c0 .138.046.276.138.322h.046l.459.046c.918.092.964.184.964 2.113v6.294c0 1.884-.046 1.976-.964 2.114l-.505.046-.046.046c-.092.092-.138.275-.092.367 0 .138.092.23.184.276h.091c.918-.046 1.47-.046 2.204-.046.688 0 1.285 0 2.157.046h.092a.47.47 0 0 0 .184-.322c0-.137-.046-.275-.138-.321l-.505-.092c-.918-.138-.964-.23-.964-2.114ZM240.24 79.41c-1.836-.23-2.387-.827-3.58-4.502l-5.785-17c-.643-1.883-1.331-3.813-1.882-5.65-.092-.276-.367-.368-.643-.368-.459.551-1.193 1.332-2.203 1.608.137.69-.138 1.47-.735 2.986l-4.315 11.44c-1.79 4.733-2.984 7.49-3.718 9.419-.597 1.516-1.515 1.975-2.525 2.067l-1.377.138c-.276.23-.184.873.091 1.057 1.148-.046 2.663-.138 4.04-.138 1.974.046 3.305.046 4.407.138.367-.184.367-.827.092-1.057l-1.377-.138c-1.01-.092-1.24-.321-1.24-.827 0-.46.276-1.608.918-3.491l1.47-4.457c.275-.873.55-1.01 1.606-1.01h6.381c1.286 0 1.423.137 1.745 1.056l1.882 5.743c.321 1.01.55 1.792.55 2.251 0 .414-.596.69-1.468.781l-1.24.138c-.275.23-.275.873.092 1.057 1.24-.046 2.846-.138 4.866-.138 1.882 0 3.397.046 5.096.138.23-.184.275-.827 0-1.057l-1.148-.184Zm-10.926-11.532h-5.187c-1.194 0-1.24-.045-.872-1.01l2.662-7.351c.46-1.287.872-2.297 1.01-2.481h.092c.275.505.643 1.654.964 2.665l2.295 6.891c.368 1.149.276 1.286-.964 1.286Zm1.745-35.238c0-.69.275-1.838 1.974-1.838 1.56 0 2.02 1.01 2.25 1.884l.045.046c.046.092.138.092.275.092.138 0 .322-.046.414-.184v-.046.046c0-.735-.138-1.746-.322-2.206l-.046-.091h-.091c-.138 0-.368-.046-.597-.092-.413-.092-1.102-.23-1.653-.23-2.25 0-3.718 1.286-3.718 3.17 0 1.608 1.24 2.665 1.974 3.17l1.652 1.103c1.24.78 1.378 1.608 1.378 2.343 0 .919-.643 1.884-2.066 1.884-1.79 0-2.571-1.379-2.892-2.527v-.046c-.046-.092-.138-.138-.276-.138a.417.417 0 0 0-.367.184l-.046.046v.046c.046.78.276 2.113.505 2.527v.045h.046c.367.184 1.331.69 2.8.69 2.341 0 3.902-1.379 3.902-3.4 0-1.424-.734-2.573-2.25-3.492l-1.422-.873c-.551-.367-1.47-1.102-1.47-2.113Zm-4.453 9.648c.092-.046.138-.184.092-.276 0-.092-.092-.184-.138-.23h-.046c-.413-.045-.826-.183-1.148-.459-1.193-1.01-2.157-2.527-3.534-4.64-.092-.138-.092-.23-.092-.23.597-.23 2.25-1.103 2.25-3.032 0-1.47-.827-2.205-1.516-2.573-.872-.46-2.02-.551-2.984-.551-1.606 0-2.846.046-3.948.137h-.046a.387.387 0 0 0-.183.322c0 .138.046.276.138.368h.045l.597.092c.597.091.643.183.643 1.93v6.34c0 1.883-.046 1.975-.918 2.067l-.505.046-.046.046c-.092.138-.092.275-.092.413.046.138.092.23.184.23h.092c.78-.046 1.423-.046 2.203-.046.735 0 1.331 0 2.112.046h.092c.137-.046.183-.23.183-.322a.866.866 0 0 0-.092-.367l-.046-.046-.413-.046c-.918-.138-.918-.184-.918-2.068v-2.205c0-.23 0-.23.689-.23.688 0 .918.184 1.147.506.276.367.597.873.873 1.378.321.505.596.965.826 1.286 1.194 1.746 2.112 2.298 3.764 2.298.23-.092.505-.138.735-.184Zm-5.28-6.57c-.504.368-1.193.413-1.744.413-.78 0-1.056-.045-1.102-.045v-4.641c0-.413 0-.413 1.01-.413 1.974 0 2.663 1.378 2.663 2.573 0 1.01-.276 1.654-.826 2.113Zm-9.135 3.951v-.092c-.092-.184-.275-.23-.413-.23-.092 0-.184.046-.23.046l-.045.046c-.505 1.011-.964 1.517-1.194 1.654-.367.184-.918.23-2.203.23-1.47 0-1.837-.184-2.02-.367-.23-.276-.322-.827-.322-1.746v-2.435c0-.322 0-.322.46-.322h1.01c.596 0 1.055 0 1.33.092.23.046.368.23.46.551l.137.69.046.045c.046.092.184.138.322.138.183 0 .275-.046.367-.184v-.091c0-.184 0-.414-.046-.644 0-.321-.046-.689-.046-1.056 0-.368 0-.735.046-1.057 0-.276.046-.505.046-.69v-.091c-.046-.092-.184-.184-.367-.184-.138 0-.276.046-.322.138l-.183.781c-.092.413-.184.46-.322.505-.183.046-.734.092-1.469.092h-1.01c-.459 0-.459 0-.459-.367v-3.446c0-.551 0-.551.413-.551h1.286c.734 0 1.331 0 1.698.092.78.183.964.689 1.194 1.47l.046.092.046.046c.046.091.183.091.275.091a.521.521 0 0 0 .367-.137l.046-.046-.046-.276c-.091-1.01-.183-1.884-.275-2.16l-.046-.137-.138.046c-.183.046-1.285.046-2.34.046h-3.306c-.689 0-1.24 0-2.066-.046h-.092a.47.47 0 0 0-.183.321c0 .138.046.276.137.322l.322.046c.918.092.964.23.964 2.067v6.34c0 1.93-.092 1.976-.964 2.068l-.643.046-.046.046c-.092.092-.138.276-.092.367 0 .138.092.23.184.276h.092c1.01-.046 1.652-.046 2.387-.046h1.607c1.515 0 3.075 0 4.728.046h.092l.046-.092c.183-.321.642-1.7.734-2.343Zm-12.073-8.775c.092-.092.092-.276.092-.368 0-.137-.092-.23-.138-.275h-.092c-.597.046-1.148.046-1.698.046-.689 0-1.378 0-1.837-.046h-.092a.387.387 0 0 0-.183.321c0 .138.046.276.138.368l.045.046.368.046c.597.092.688.184.688.184 0 .137 0 .275-.137.643-.322.78-1.148 2.802-1.653 3.95-.138.322-.275.69-.46 1.104a60.2 60.2 0 0 1-1.1 2.526c-.827-1.93-1.608-3.859-2.388-5.788-.505-1.287-.826-2.206-.872-2.435.046-.046.183-.138.688-.184l.322-.046.046-.046a.522.522 0 0 0 .137-.368.387.387 0 0 0-.183-.321h-.092c-.78.046-1.423.046-2.112.046-.734 0-1.285 0-1.836-.046h-.046l-.046.046a.387.387 0 0 0-.183.321c0 .138.045.276.137.322l.046.046.367.046c.689.092.919.413 1.332 1.378l3.03 7.58c.367.92.642 1.7.826 2.344v.046l.046.046c.092.046.23.046.321.046.092 0 .184-.046.276-.092l.045-.046v-.046c.322-.965 1.148-3.032 1.837-4.594l.964-2.16c.826-1.838 1.515-3.262 1.974-4.043.23-.367.459-.505.826-.551l.597-.046Zm-11.523 24.58c-3.213 2.48-5.325 6.524-5.325 11.21 0 5.467 2.617 9.326 6.014 11.624 3.076 2.067 6.702 2.848 10.512 2.848 2.709 0 5.739-.643 6.703-.965.459-.183.964-.321 1.469-.413.643-.827 1.744-3.584 2.02-5.79-.184-.275-.827-.367-1.102-.183-.964 2.481-3.397 6.065-8.86 6.065-6.932 0-12.578-4.916-12.578-13.783 0-8.776 5.508-12.865 11.981-12.865 6.152 0 8.034 3.308 8.677 6.203.275.276.918.23 1.147-.092-.321-2.573-.55-5.238-.597-6.202-.367.046-.688-.046-1.193-.184-1.974-.552-5.188-1.011-7.483-1.011-4.361-.092-8.309 1.103-11.385 3.538Zm-5.417-16.08v-6.295c0-1.93.046-2.067.964-2.113l.46-.046h.045c.092-.046.138-.184.138-.322 0-.046-.046-.275-.184-.321h-.091c-.827.046-1.47.046-2.158.046-.78 0-1.377 0-2.203-.046h-.092a.47.47 0 0 0-.184.321c0 .138.046.276.138.322h.046l.459.046c.872.092.964.23.964 2.113v6.294c0 1.884-.046 1.976-.964 2.114l-.505.046-.046.046c-.092.092-.138.275-.092.367 0 .138.092.23.184.276h.092c.918-.046 1.469-.046 2.203-.046.689 0 1.285 0 2.158.046h.091a.47.47 0 0 0 .184-.322c0-.137-.046-.275-.138-.321l-.505-.092c-.918-.138-.964-.23-.964-2.114Zm-8.814 34.64V58.966c0-4.502.092-5.191 2.571-5.42l1.056-.093c.275-.184.184-.919-.092-1.057-2.112.092-3.535.138-5.233.138-1.79 0-3.214-.046-5.325-.138-.276.138-.322.873-.092 1.057l1.056.092c2.479.23 2.57.919 2.57 5.421v15.07c0 4.502-.091 5.1-2.57 5.375l-1.056.138c-.276.276-.184.919.092 1.057 2.111-.092 3.534-.138 5.325-.138 1.698 0 3.121.046 5.233.138.276-.138.321-.873.092-1.057l-1.056-.138c-2.479-.275-2.57-.873-2.57-5.375Zm2.158-43.14c.092-.092.138-.23.092-.368a.31.31 0 0 0-.184-.275l-.046-.046h-.046c-.596.046-1.056.046-1.79.046-.643 0-1.194 0-2.066-.046h-.092a.31.31 0 0 0-.183.275.37.37 0 0 0 .137.414l.046.046.322.046c.596.092.918.184 1.01.275.23.322.321 1.654.321 3.584v4.273c-.597-.643-1.24-1.333-2.066-2.251l-2.433-2.757c-1.744-1.976-2.754-3.262-2.984-3.813l-.046-.092h-.091c-.23.046-.505.046-.78.046-.322 0-1.24 0-1.975-.046h-.092c-.092.046-.137.138-.183.275a.44.44 0 0 0 .091.414l.046.046.368.046c.459.046.826.184 1.01.367.32.368.367.69.367 1.195v5.237c0 .873 0 2.849-.23 3.4-.046.092-.183.23-.688.276l-.505.046-.046.046c-.092.092-.138.184-.092.321.046.138.092.23.138.322l.046.046h.046c.596-.046 1.101-.046 1.836-.046.597 0 1.193 0 2.066.046h.046l.045-.046c.092-.046.138-.138.138-.276 0-.137 0-.275-.092-.367l-.046-.046-.596-.046c-.414-.046-.735-.138-.78-.276-.184-.321-.322-1.654-.322-3.583v-3.86c0-.321 0-.643.046-.873.275.322.734.873 1.147 1.379.276.321.551.643.735.873l4.086 4.64c1.377 1.562 2.02 2.297 2.249 2.665l.046.046h.092c.23 0 .413-.092.459-.276v-.092c-.046-.184-.046-.919-.046-3.078v-4.457c0-.918 0-2.802.23-3.353 0-.046.229-.184.872-.276l.367-.046Zm-15.792 0c.092-.092.138-.23.092-.368 0-.092-.092-.183-.184-.275h-.092c-.596.046-1.101.046-1.836.046-.688 0-1.331 0-2.02-.046h-.046l-.045.046c-.092.046-.138.137-.138.275s0 .276.092.368l.046.046.505.046c.413.046.688.138.78.321.184.368.321 1.654.321 3.584v2.021c0 2.068-.597 4.549-3.397 4.549-2.341 0-3.443-1.47-3.443-4.594v-3.814c0-1.883.046-2.021.918-2.067l.46-.046h.045c.092-.046.138-.184.138-.322s-.046-.275-.184-.321h-.091c-.827.046-1.424.046-2.158.046-.735 0-1.331 0-2.158-.046h-.091c-.138.046-.184.23-.184.321 0 .138.046.276.138.322h.046l.459.046c.872.092.918.23.918 2.067v4.181c0 2.113.459 3.446 1.423 4.273.78.643 1.928 1.01 3.397 1.01 1.377 0 2.708-.505 3.443-1.332.872-.919 1.285-2.343 1.285-4.318v-1.976c0-.873 0-2.986.23-3.538.092-.183.367-.321.78-.367l.551-.138Zm-20.245 22.558c.276-.184.184-.919-.091-1.057-1.837.092-3.26.138-4.912.138-1.837 0-3.26-.092-5.326-.138-.275.138-.32.873-.091 1.057l1.101.092c2.204.184 2.48.873 2.48 5.33v15.253c0 4.456-.092 4.87-2.434 5.283l-.734.138c-.276.276-.184.919.092 1.057 1.652-.046 3.075-.138 4.912-.138 1.652 0 3.075.046 5.37.138.276-.138.322-.873.092-1.057l-1.239-.138c-2.387-.275-2.57-.827-2.57-5.283v-5.973c0-1.286.091-1.332 2.11-1.332h12.074c2.02 0 2.112.092 2.112 1.332v5.973c0 4.456 0 4.87-2.57 5.283l-.827.138c-.276.276-.184.919.092 1.057a99.626 99.626 0 0 1 5.095-.138c1.653 0 3.076.046 5.096.138.275-.138.321-.873.092-1.057l-1.01-.138c-2.433-.275-2.525-.827-2.525-5.283V58.874c0-4.457.092-5.1 2.525-5.33l.872-.092c.275-.184.184-.919-.092-1.057a97.55 97.55 0 0 1-5.004.138c-1.744 0-3.167-.046-5.095-.138-.276.138-.322.873-.092 1.057l.826.092c2.48.276 2.571.873 2.571 5.33v4.87c0 1.332-.092 1.332-2.112 1.332H139.2c-2.02 0-2.112-.046-2.112-1.332v-4.87c0-4.457.092-5.1 2.525-5.33l.872-.092Zm-1.698-13.783v-.092c-.092-.184-.276-.23-.413-.23-.092 0-.184.046-.23.046l-.046.046c-.505 1.011-.964 1.517-1.193 1.654-.368.184-.918.23-2.204.23-1.469 0-1.836-.184-2.02-.367-.23-.276-.275-.827-.275-1.746v-2.435c0-.322 0-.322.459-.322h1.01c.597 0 1.056 0 1.331.092.23.046.367.23.46.551l.137.69.046.045c.046.092.183.138.321.138.184 0 .276-.046.367-.184v-.091c0-.184 0-.414-.045-.644 0-.321-.046-.689-.046-1.056 0-.368 0-.735.046-1.057 0-.276.045-.505.045-.69v-.091c-.045-.092-.183-.184-.367-.184-.138 0-.275.046-.321.138l-.184.781c-.092.413-.183.46-.321.505-.184.046-.735.092-1.47.092h-1.01c-.458 0-.458 0-.458-.367v-3.446c0-.551 0-.551.413-.551h1.285c.735 0 1.332 0 1.699.092.826.183.964.689 1.193 1.47l.046.092.046.046c.046.091.184.091.276.091a.521.521 0 0 0 .367-.137l.046-.046-.046-.276c-.092-1.01-.184-1.884-.275-2.16l-.138-.091-.138.046c-.184.046-1.285.046-2.341.046h-3.305c-.689 0-1.24 0-2.066-.046h-.092a.47.47 0 0 0-.184.321c0 .138.046.276.138.322l.321.046c.919.092.964.23.964 2.067v6.34c0 1.93-.091 1.976-.964 2.068l-.642.046-.046.046c-.092.092-.138.276-.092.367 0 .138.092.23.184.276h.091c1.01-.046 1.653-.046 2.388-.046h1.606c1.515 0 3.076 0 4.729.046h.092l.045-.092c.184-.367.643-1.746.78-2.389Zm-14.736-.276v-6.34c0-1.883.046-1.975.918-2.067l.367-.046.046-.046c.092-.046.138-.184.138-.322 0-.046-.046-.275-.184-.321h-.092c-.872.046-1.423.046-2.065.046-.78 0-1.378 0-2.112-.046h-.092a.47.47 0 0 0-.183.321c0 .138.045.276.137.322l.413.046c.919.092.964.23.964 2.067v2.022c0 .413 0 .413-.734.413h-5.05c-.734 0-.734 0-.734-.413v-2.022c0-1.883.046-1.975.918-2.067l.321-.046.046-.046c.092-.046.138-.184.138-.322 0-.046-.046-.275-.184-.321h-.092c-.78.046-1.377.046-2.02.046-.459 0-.872 0-1.285-.046-.275 0-.597 0-.918-.046h-.092c-.092.138-.092.367-.092.413 0 .138.046.276.138.322h.046l.505.046c.78.046.918.23.918 2.067v6.34c0 1.838-.046 1.93-.918 2.068l-.321.046-.046.046c-.092.092-.138.276-.092.367 0 .138.092.23.184.276H113.722c.413 0 .826-.046 1.331-.046.643 0 1.24 0 2.25.046h.091c.138-.046.184-.23.184-.322 0-.137-.046-.275-.138-.321l-.55-.092c-.827-.092-.965-.184-.965-2.067v-2.481c0-.414 0-.414.735-.414h5.05c.734 0 .734 0 .734.414v2.48c0 1.884 0 1.93-.964 2.068l-.367.046-.046.046c-.092.092-.138.276-.092.367 0 .138.092.23.184.276h.092c.826-.046 1.469-.046 2.111-.046.689 0 1.286 0 2.112.046h.092a.47.47 0 0 0 .183-.322c0-.137-.045-.275-.137-.321l-.46-.092c-1.055-.046-1.101-.138-1.101-2.022Zm-14.507-9.372v-.046l-.045-.046c-.046-.138-.276-.138-.322-.138-.046 0-.092 0-.183.046h-.046l-.046.046c-.23.414-.322.414-1.24.414h-7.299c-.78 0-1.148-.046-1.193-.414v-.046l-.046-.046a.35.35 0 0 0-.23-.092c-.046 0-.183 0-.275.046l-.046.046v.046c-.138.69-.367 1.838-.643 2.619v.046l.046.046c.092.23.46.321.643.184h.046v-.046c.183-.414.367-.781.78-1.195.367-.367 1.285-.413 2.066-.413h.964c.413 0 .413 0 .413.413v7.902c0 1.93-.092 1.976-.964 2.068l-.643.046h-.046c-.091.046-.183.184-.137.367 0 .138.046.276.183.322h.092c1.102-.046 1.745-.046 2.433-.046.689 0 1.24 0 2.295.046h.092c.138-.046.184-.23.184-.322 0-.137-.046-.275-.138-.321l-.643-.092c-.872-.092-.918-.184-.918-2.068v-7.902c0-.184 0-.367.046-.367.046-.046.23-.046.368-.046h1.239c.964 0 1.607.138 1.974.413.184.138.321.551.367 1.195v.046l.046.046c.046.091.184.137.321.137.184 0 .322-.091.368-.183v-.092c-.184-.506-.046-1.93.137-2.619ZM97.563 66.684c0 5.467 2.617 9.326 6.014 11.624 3.075 2.067 6.702 2.848 10.512 2.848 2.709 0 5.738-.643 6.703-.965.459-.183.964-.321 1.469-.413.642-.827 1.744-3.584 2.02-5.79-.184-.275-.827-.367-1.102-.183-.964 2.481-3.397 6.065-8.86 6.065-6.932 0-12.579-4.916-12.579-13.783 0-8.776 5.51-12.865 11.982-12.865 6.151 0 8.034 3.308 8.676 6.203.276.276.918.23 1.148-.092-.321-2.573-.551-5.238-.597-6.202-.367.046-.688-.046-1.193-.184-1.974-.552-5.188-1.011-7.483-1.011-4.407 0-8.31 1.195-11.43 3.584-3.168 2.435-5.28 6.478-5.28 11.164Zm-11.018-7.167V30.02c-23.687-2.297-41.545 0-41.545 0v29.496c1.882 19.985 20.612 22.328 20.75 22.282 3.397-.551 19.05-3.721 20.795-22.282Zm-34.843 7.35c.368.276.827.368 1.24.552.505 1.332 0 2.619-.276 2.067-.505-.918-.734-1.7-.964-2.618Zm0-14.472c-.046-.045-2.662 1.609-4.36.827 1.239-.689 5.6-3.445 6.793-4.226.551.137.78-.092.964-.184-.459.046-1.974.276-1.193-1.103.275 1.195 2.387.092 3.167-.092 2.112-.505 2.112 1.792 1.928 2.711-.045.368.643.597 1.01.551-.596 1.47-1.652.092-1.744.644-.046.23-.735.413-.735.964 0 .781.322.368.322.965.046.597-.23.138-.184.781.092 1.011 1.79-.138 2.48.138.366.138.596.46.917.368.092-.092.046-.46.046-.598-.046-.321-.643-.367-.918-.78-.23-.368.275-1.517.55-1.884.414 1.883 2.159 1.286 2.434 3.308.184.55-.597 1.194 0 2.113-.46.46-1.01 2.619-.046 3.63-.184.459-.367 1.516.505 2.159-.275.643-.23 1.378 0 2.16-.55 0-.413-3.033-3.673-3.17-.091-.047-.091.367 0 .504.414.69.919.644.78 2.252-.045.551-.366-.092-.55-.23-.413-.368-.689-.414-.872-1.516-1.331 1.057-1.194 2.297-1.102 2.94 0 0-.275-.78-.643-1.608 0-.046 1.332-1.7 1.561-2.067 2.755-4.962-1.79 1.608-1.79 1.562-.23-.552-.46-1.057-.597-1.195.046-.046.78-.919 1.148-1.608 2.111-4.41-1.286 1.47-1.377 1.379-.276-.23-.46-.506-.643-.414-.046.69-.184.597-.138 1.286-.367.46-1.102 1.241-1.653 1.609 0 0-.137-1.241-.091-1.287.275-.322 1.33-1.47 1.515-1.792 3.488-5.467-1.653 1.333-1.653 1.24-.046-.229-.321-.596-.597-.872 0 0 1.148-1.562 1.423-2.114 2.112-4.364-1.698 1.93-1.744 1.93-.092-.092-.138-.092-.23-.138-.092-.046.138-1.24.276-1.975.275-1.47-.505-.276-.689 2.021-.184.046-.688.092-.872.23.138.597.275.138.505.735.321.69-.413 1.884.23 2.71.229.322.275.276.229.506-.413-.046-.643-.046-.918.276-.505-2.206-.46-3.262-.367-5.514.045-1.01.367-2.572.23-2.572-.093-.046-2.434 5.926-2.985 7.075-.964-.322.597-5.467 2.617-7.948.183-.781-1.056.78-1.79 1.424-.69.597-1.561 1.332-2.48 1.057 1.194-1.287 3.948-3.676 4.27-4.273.275-.505-1.882 1.608-4.132.827 1.47-.735 4.866-2.481 4.866-3.722Zm4.086 11.21c0 .552-.046.966.138 1.517.275.827.137.597-.23.276-.275-.322-.55-.552-.688-.92 0-.275.183-.275.78-.872Zm5.463-13.415c-.321-.551.413-1.102.413-1.102 0 1.562 2.02.505 3.076 1.01.275.138.413.322.55.598-1.193-.827-3.305.78-4.04-.506ZM49.36 37.51c-1.79 0-1.744-2.71 0-2.71 1.79 0 1.79 2.71 0 2.71Zm0 5.421c-1.836 0-1.836-2.71 0-2.71 1.79 0 1.79 2.71 0 2.71Zm1.836-7.397h1.561v1.562h-1.56v-1.562Zm0 5.422h1.561v1.562h-1.56v-1.562Zm14.277 4.226s-1.652-.873-3.58-1.01c-1.883-.138-5.647 1.378-8.539 1.194V32.548s3.305.46 4.682-.092c4.637-1.792 7.483.23 7.483.23v12.496h-.046Zm3.214 2.068c.092.46-.368.597-.368.597.69.184 1.01-.23 1.148-.505.276 1.102-.872 1.148-1.193 1.24 0 0 .55.184.596.551.092.92.689.873.827.782 0 .091-.23.689-.873.183-.137.092.184.276.23.735.092.598.046 1.149.734 1.47-.413.322-.918-.55-.964-.413-.045.138.597.414-.091 2.068-.322-.184-.138-.138-.505-.598-.276-.23-.368-.275-.138.092.413.506.505 1.654.367 1.976-.321-.138-.23-.414-.643-.781-.045.138.138.919.551 1.286.689.643.964 1.424.964 1.562.046.597-.137 1.333-.183 2.114-.322-.046-.643-1.011-.689-.965-.092.046.046.965.689 1.562.321.919.183 1.378.092 1.424-.092.046-.46-.919-.643-.735.918 2.297.275 3.124.046 3.86-.184-.736-.276-1.287-.505-2.114-.505.367-.597.965-1.24 1.516 0-.965-.55-3.216-.964-3.767 0-.046-.78 2.021-1.147 2.986-.46 1.195-.505 2.665 0 3.86-1.102-1.609-1.24-4.595-.276-4.963.092-.23-.046-.919-.275-.827-.046.322 0 .644-.322.965-.734-.23-.413-1.148-.32-1.424.963-1.149.366-1.424.32-1.378-.091.275-.183.597-.505.689-.596-1.057-.23-2.757.965-3.997.045-.46-.505.367-.919.321-.091-.919.23-2.435 1.883-2.527-.322-.091-.505-.137-.551-.413.505-.092 2.065-.184 1.836-1.424-.138.137-.184.367-.597.643-.275.184-.597.184-.734-.046.734-.23.505-1.149-.46-.873-.275.092-.734-.23-.734-.551.23.23.643.046.872-.092 1.056-.69 1.745.321 1.882.551.046 0 .46-1.01-1.055-1.286-.138-.368-.46-.965-1.515-.92-.322-1.194-1.377-.596-1.332-.045-1.101-.827 0-1.838.46-1.976.32.046.229 1.011.78.827.138-.046-.413-.689-.23-.965.505-.275.505.368.735.138.138-.413.597-.643 1.01-.689 1.056-.367 1.928.873 2.984.276Zm10.053-1.884c-2.433.138-7.437-1.24-8.722-1.24-2.663 0-3.902 1.01-3.902 1.01v-12.45s3.489-1.608 6.014-.69c3.075 1.15 6.656.644 6.656.644l-.046 12.726Zm3.214-4.916c1.331-.184 1.56 1.378 1.56 1.378-.32-.275-1.01-.367-1.423-.091-1.515.964-2.846.964-2.846.964v-2.435c-.046.046.23.552 2.709.184Zm1.606-3.308c0-.092-.046-.184-.046-.321-.045-.23-.734-.368-1.193-.184-.689.321-2.387 1.286-3.03 1.102v-2.435c1.56.69 2.158.046 2.663.046 1.515 0 1.606 1.425 1.606 1.425-.046.183-.046.275 0 .367Zm-1.744 25.04c-.46.137-1.653.597-1.928 1.056.138-2.573-.689-5.1-.964-5.697-.505-1.194.23 2.757.275 3.676 0 .046-4.269-5.514-1.698-1.24.688 1.102 1.698 1.837 1.698 1.837 0 .78-.046 1.332-.183 1.746-.276.23-5.83-7.397-2.755-2.114.368.644 2.617 2.62 2.571 2.665a3.676 3.676 0 0 1-.734 1.057c-.046-.046-1.286-.965-1.286-1.011-.092-.597-.092-1.149-.826-.735 0 0-2.755-3.17-1.47-.965.552.965.919 1.103 1.057 1.24 0 0-.413.598-.551 1.195-.046.23-2.387-2.573-1.47-.78.276.55 1.332 1.194 1.332 1.24a7.85 7.85 0 0 1-.321.964c-.138.276-2.204 1.93-2.158 1.93 0 0 .413-1.286 1.286-1.93.504-.367.504-.275.826-.505 0-.184-.184-.505-.413-.597-.276-.092-1.24.092-1.24.092.092-.46-.321-1.517-.321-2.665-.367.046-1.01.597-1.148.919-.092 1.883-.505 1.332-.918 2.71-.413-.55.046-1.378-.367-1.93-.551-.734-.643-1.24-.735-2.159.138-.091.689-.689.184-2.067-.092-2.113.872-2.894-.826-4.365.137-.046.23-1.102.23-1.102 1.239.643 1.01-.781 1.468-1.057.78-.46.643-.919.276-1.47 2.203.643-.092 2.113.872 2.16.734 0 1.193-.139 1.515-.644.321-.505-.046-.827.872-1.654.092-.092.321-.643-.413-.781-.184-.046 0-.643 0-.643-.597.505-.78 1.194-1.699.735-.505-.23-.78 0-1.01.092 0 0-.091-.414.322-.552 1.056-.367 1.285-.78 1.24-.964-.139-.552-.184 0-.139-.552 0-.23.276-.551.505-.78.689-.828 1.194-.552 1.378-.46.413-.322.459-.276.872-.46.642-.275 2.066.184 2.846.552.367.183.826.275 1.285.183 0 .23-.183.368-.321.414-.23.092-.55 0-.505.184 0 .092.367.138.55.183 1.149.322 2.664 1.379 1.7 1.15-.138-.047.734.642 1.33 1.47l2.204 2.159c-.092.137-.872 0-3.35-2.298-.368.322 2.983 2.849 4.406 5.514-.138.092-1.836-.552-2.479-1.195-.964-1.01-2.066-3.538-2.525-3.17-.046 0 1.837 2.94 2.755 4.686.459.873.872 2.114.872 3.078.138 4.687-.55 4.32-.55 4.32-1.103-3.676-1.608-7.95-3.214-9.925-.643-.78 1.698 3.446 1.79 7.26Zm-4.82 4.18c-.505.414-.827.598-.689.368.138-.23.23-.46.276-.643l.413.275Zm-.322-.551c.092-.413.092-.643.184-1.01 0-.139.046-.139.046-.276 0-.046 1.056.873 1.148.918-.276.322-.505.46-.735.69-.275-.138-.688-.276-.643-.322Zm3.443 1.195c-1.469 1.47-3.718.918-5.462 1.7-1.607.597-2.755 2.067-4.407 2.434-.505.138-.551.414-.276.414.184 0 1.194 1.057 2.8.23.551-.276 2.25-1.195 2.525-1.287-.918.873-1.377 1.654-2.203 2.114-.505.275-2.525 1.01-4.545.597-.918-.184-1.607.643-1.377.643.459-.138 1.01-.046 1.331.368.597.46 1.423 1.056 2.158.183.23-.275 1.423-.872 2.479.23-1.148-.046-1.056 2.022-3.26 1.792-.826 0-2.616-1.884-3.121-1.286-.918 1.01 1.974 1.975.734 3.262-1.102 1.148-2.479-.92-2.479-.92.689.276 1.974.506 1.423-.643-.23-.459-.642-.872-.642-1.7-.092-.413-2.663 3.308-4.361 1.609-.69-.644-2.02-2.114-3.26-2.665 3.26-.276 3.719 1.01 3.902 1.24 1.056 1.379 1.974 0 2.204-.275.321-.368.826-.92.642-1.011-1.24-.597-2.708-.735-3.764-.23 2.295-3.17 4.086-.184 4.086-.184.23.138-.046-1.883-2.341-1.975-1.424-.092-2.663 1.194-3.627 1.194-.78 0-3.214-1.608-3.764-3.078 1.423 1.057 3.213 1.654 4.315.965 2.111-1.24 4.728.643 4.866.413-.597-.459-1.928-2.25-5.509-1.24-1.377.781-1.974-.597-2.846-.597 1.469-1.287 2.479-.644 2.984-.598.138 0-.597-.597-1.102-.643-3.994-.413-6.519-1.516-6.519-1.516s.322-.78 2.02-.23c0 0-1.515-.918-1.515-2.159.046-.735.413-1.562-.137-2.16 2.295-.091.688 3.125 2.295 3.952.046 0-.46-.781.23-1.378.32.964 1.147 1.424 1.744 1.608.138-.092.321-.368.321-.368-.597-1.01-.688-2.205-.505-3.538h.046c.138 0 .367.46.505.781.321.735.321 1.746 1.01 2.62.367.459.597.964.918 1.194.138-.322.046-.92 0-1.057-.092-.551-.413-1.516.505-2.343.46 1.24 1.01.919 1.102 1.516.092.827.092.735 0 1.378.046.92.872 1.149 1.56 1.746 1.653.873 2.71 1.378 3.444 2.527.367-1.93-4.82-2.297-4.178-6.019-.092-1.47.184-1.608-.872-2.526 2.066.046 3.213 3.491 3.305 4.089.23 1.148.918 1.194 1.837 2.71.137.046-1.699-3.997.505-7.443 0 0 .734 1.792.413 2.987-.23.689 0 1.47.046 1.93.045.459-.092-1.655 1.469-2.711.091.78.872 2.021.137 3.308-.872 1.608-.918 1.01-.964 2.986.092-.046.322-1.332.918-2.113 1.286-1.563.368-2.435 1.607-3.814.092.69.276.414.367 1.011.184 1.378-1.285 2.848-.964 2.803.368-.046.964-.368 1.148-1.425 0 0 .505.965.046 1.287-.872.551-1.056 1.194-.918 1.883.688-.827 1.652-1.745 1.469-2.94.092-.735.872-1.01 1.01-2.665.046-.275.321-.597.597-.78-.138.918.596 1.883-.23 3.031.184.092.872-.872 1.928-.55-2.066.367-1.469 2.618-3.03 3.629-.459.321-.413.643-.55.689 1.422-.092 2.478-1.746 2.662-1.884 1.423-.965 1.698-1.102 2.295-2.665.23-.597.046-.827.827-1.654.32.782-.138 2.39-.276 2.757-.275.735-1.148 1.378-.964 1.378 3.764-1.654 3.719-2.802 4.637-3.997.275-.46 1.606-1.24 2.111-1.332-.137.23-.642.69-.688 1.103-.046.827-.322 1.332-.735 2.021.23.276.689-.551 1.148-.138-.505.322-.78 1.011-1.24 1.425Zm.643-.23c-.23 1.102-.597 2.113-1.285 3.078-.46.69-.643-.643-.276-1.884a4.435 4.435 0 0 0 1.561-1.194ZM77.87 38.75c-.092-.046-.275-.046-.367-.046-.092 0-.184.184-.046.184.092.046.275.046.413.046.138.046.092-.138 0-.184Zm-.413.552c.092.046.275.046.413.046.092 0 .092-.184 0-.184-.092-.046-.275-.046-.367-.046-.138 0-.23.138-.046.184Zm0 2.389a6.198 6.198 0 0 0-.505-.414c-.138.092-.367.276-.505.368-.092-.138-.276-.322-.505-.506-.138.092-.55.46-.689.552.23 0 .597.092.597.321v1.516c.138.046.321 0 .551 0v-1.654c.092-.046.138-.091.184-.137.091.046.321.367.505.413.091-.092.367-.322.459-.413.137-.046 0-.138-.092-.046Zm-.689-1.884c.138-.23.322-.643.322-.965 0-.367-.23-.965-.827-1.148-.688.23-1.147.827-1.147 1.47 0 .367.321 1.194 1.01 1.194.23-.184.413-.413.642-.551Zm-.413.138c-.138-.046-.597-.414-.734-.735-.138-.368-.138-.781.275-1.057.321.138.689.413.735.69 0 .413-.092.872-.276 1.102Zm-.046-2.94.505-.552s-.23-.184-.367-.322c0-.137 0-1.24.046-1.286-.367-.322-.643-.368-.827-.368-.32.046-.642.46-.734.598-.092.092-.046.23 0 .275.046.046.138.092.23.138 0 0-.046 0-.046-.046-.138.138-.368.506-.368.781 0 .276.23.644.414.781.183-.137.459-.367.826-.459.092.23.183.368.321.46Zm-.275-1.287c-.23-.092-.735-.322-.918-.46-.046-.045-.046-.045 0-.137.091-.184.23-.322.321-.322.092 0 .597.276.55.414.047.091.047.321.047.505Zm0 .781c-.138 0-.23.046-.413.138-.138-.092-.505-.551-.23-1.01-.046 0-.092-.047-.092-.047.23.138.505.276.735.322v.597Zm-1.47-2.297c-.137 0-.917 0-.917-.046a.924.924 0 0 1 .046-.69c.045-.137-.046-.183-.138-.045-.046.138-.46.689-.872.873-.23.092.275.275.23.275 0 .552.09 1.333.183 1.654.092.184.275.506.459.414.092-.046.321-.46.367-.551.138-.092 0-.276-.092-.138-.092.092-.183-.046-.23-.138-.045-.092-.137-1.287-.091-1.287 0 0 .964-.137 1.056-.137.092.046.092-.184 0-.184Zm-2.616 2.16.413-.506c-.275-.046-.413-.092-.597-.322v-1.24l-.413-.414h-.137l-.643.552c-.046.091.092.091.184 0l.459.275v1.24c.045.139.137.276.32.46h.414v-.046Zm-.321-2.803.23-.184v-.322l-.276-.275-.276.23v.367l.184.184h.138Zm-1.01-.368c-.184 0-.735.046-.918.046-.184.046-.184.138-.046.138.183 0 .183.046.275.276.092.23-.321 1.24-.413 1.47-.138-.184-.55-1.103-.55-1.24 0-.093.183-.185.275-.185.137-.045.137-.137.046-.183-.322-.046-1.515-.138-1.699-.184-.138 0-.23.138-.046.138s.367-.046.597.23c.23.321.964 1.93 1.148 2.618.091-.138.826-2.297.872-2.527.046-.23.23-.46.413-.505.23 0 .23-.092.046-.092Zm-3.49 5.192c0 .873.368.965.781 1.194.368.23 1.01.184 1.515.046.184-.046.276-.046.276.092 0 .092.137.092.137 0v-.919c0-.092-.137-.092-.137 0 0 .138 0 .184-.138.322-.321.505-1.148.46-1.607-.138-.138-.184-.275-.46-.138-.551.184-.046.735.046 1.056.092.23 0 .689.045.78.091.047.046.138.092.138 0v-.55c0-.093-.091-.047-.137 0-.046.045-.597.137-.78.183-.23.046-.873.092-1.01.046-.184-.046-.138-.414.045-.597.46-.598 1.378-.552 1.699-.046.092.183.092.23.092.367 0 .092.137.092.137 0v-1.057c0-.091-.137-.091-.137 0 0 .046-.138.092-.276.046-.275-.091-1.102.046-1.469.23s-.826.597-.826 1.149Zm.139 1.562c0 .275.091 2.435.091 2.756 0 .184.23.368.414.506.091-.138.32-.46.505-.597.091-.092.045-.138-.046-.138-.184.092-.322 0-.368-.184v-2.343c-.091.046-.459.046-.596 0Zm1.79 1.792c-.138.137-.413.505-.413.735 0 .275.138.505.275.689.276-.184.413-.46.872-.597.046.183.184.23.368.367.092-.092.459-.551.55-.643.092-.092.047-.138-.091-.092-.138.092-.184.046-.413-.184 0-.138 0-1.056.046-1.102-.184-.184-.368-.46-.551-.46-.322.046-.689.551-.78.69-.093.091 0 .505.045.55l.092.047Zm.23.183c.183.092.275.046.504 0v.414c-.137.092-.275.138-.413.23-.137-.138-.321-.23-.091-.644Zm-.138-.78c.092-.184.183-.184.275-.184.092 0 .413.23.367.367v.505c-.23.046-.413.046-.642-.183-.046-.046-.046-.414 0-.506Zm1.882-.368c-.184.092.275.275.23.275 0 .552-.092 1.379.091 1.654.092.184.368.276.551.23.184-.046.367-.413.46-.46.137-.091 0-.183-.093-.091-.091.092-.367.046-.413-.046-.046-.092-.046-1.24 0-1.287h.413c.092 0 .092-.23 0-.23-.137 0-.367-.045-.413-.091-.046-.092 0-.46.092-.597.092-.138-.046-.23-.138-.046-.091.183-.413.505-.78.689Zm.092-2.39c0 .506-.23 1.011-.505 1.287.505-.138.55-.413.826-.78.138.229.413.504.643.596.138-.092.55-.551.642-.643-.275-.092-.826-.367-.964-.689-.091-.23-.091-.322.046-.505.092.137.78.459 1.102-.092-.321-.138-.643-.322-.734-.506-.092.092-.368.414-.551.506-.046-.184-.322-.368-.551-.414-.092.092-.597.46-.826.597-.092.046-.046.184.045.138.092-.046.276-.183.46-.275.091.092.367.321.367.78Zm2.341.093c.046-.322.275-.414.367-.506.138.138.276.322.505.322.184 0 .413-.092.46-.184-.184-.138-.552-.551-.643-.597-.184.092-1.056.551-1.102 1.056-.092.736.138.873.459 1.287.184.23.505.23.643.23.137-.092.688-.644.78-.69.046-.045-.046-.137-.092-.045-.046.045-.046.091-.138.091-.091 0-.459.092-.688-.046-.276-.183-.597-.505-.551-.918Zm-.413 2.343c-.138.138-.322.275-.551.505.184 0 .321.046.367.23.092.138 0 .827.046 1.102 0 .23.184.322.367.506.184-.046.735-.276.964-.414 0 .23.23.46.414.506.091-.092.23-.184.367-.322-.138-.092-.138-.092-.184-.321-.046-.184 0-.92 0-1.241-.138-.184-.321-.413-.505-.551-.138.138-.321.275-.55.551.183 0 .504.046.504.184 0 .184.046.551 0 .873-.046.321-.872.184-.872-.046 0-.23.046-.827.046-1.103-.092-.184-.184-.276-.413-.46Zm-5.417 7.397c-.46-.092-.826-.414-1.286-.598-.596-.23-1.239.23-1.239.322 0 .184.184.23.643-.046a.527.527 0 0 0 .046.781c-.138-.046-.368-.092-.551-.138-.046.138.183.23.275.276.872.321 1.377-.46 2.112-.597Zm-1.377.413s.23-.23.23-.413c0-.23-.23-.368-.23-.368.183.046.596.276.78.414l-.78.367Zm-4.407-6.11.23-.276c-.276-.046-.139-.046-.276-.184v-1.057l-.322-.505h-.137l-.551.505c-.138.138 0 .184.138.046l.367.184v1.103c.046.138.138.184.321.367l.23-.183Zm.091-3.676c.184.506.597.69.919.69a2.86 2.86 0 0 1 .367-.552c.138-.184 0-.322-.092-.092-.092.184-.505 0-.643-.138-.183-.184-.321-.689-.183-.827.137-.184.367-.092.688-.092.184 0 .23-.183.276-.275-.092-.046-.23-.138-.413-.23-.184.138-.505.368-.597.46-.184.091-.505.55-.322 1.056Zm.78 2.803c-.183.183-.32.413-.32.689 0 .276.091.505.367.643.23-.184.55-.367.826-.46.138.184.367.276.505.414.092-.092.367-.367.46-.413.091-.092 0-.184-.093-.092-.046.092-.275.046-.321-.092 0-.092-.092-1.287-.046-1.333-.184-.183-.459-.597-.643-.597-.275.046-.734.46-.826.552-.092.091 0 .597.092.689-.046-.046 0-.046 0 0Zm.735.092c-.23 0-.413-.046-.642-.276-.046-.046-.092-.322-.046-.414.092-.183.092-.23.183-.23.092 0 .505.276.505.414a.94.94 0 0 1 0 .506Zm-.55.046c.183.137.32.137.55.091v.322c0 .046.046.092.046.138l-.413.138c-.138-.092-.55-.368-.183-.69Zm1.606-2.206.23-.275c-.276-.046-.276-.046-.413-.138v-1.24l-.23-.322h-.138l-.55.505c-.138.138 0 .184.137.046l.276.184v1.148c.046.138.137.184.321.368l.367-.276Zm-.413-4.273c-.092 0-.275.184.367.276.092-.046.23-.276-.367-.276Zm0-.413c-.092 0-.275.276.367.276.138 0 .184-.23-.367-.276Zm.138 1.93-.276-.276-.275.23v.321l.184.184h.183l.184-.184v-.275Zm-.551-2.62c-.184-.137-.367-.459-.826-.459-.46 0-.964.414-1.148.644-.23.321.046.643.321.873-.183.137-.459.413-.688.643.092.092.596.367.918.321.459 0 .826-.23 1.102-.46.459-.367.32-.734-.184-1.01-.046-.046-.092-.046-.138-.046.322-.23.597-.413.643-.505Zm-1.148.966c.138.092.322.137.46.23.229.137.137.413-.138.505-.276.138-.735-.23-.827-.368.092-.092.276-.23.505-.367Zm.46-.644c-.047.046-.138.138-.276.23h-.23c-.23-.046-.321-.23-.459-.367-.092-.138.184-.276.322-.276.137.046.459.23.642.413Zm-1.883.965a.863.863 0 0 1-1.056-.505c.276-.276.735-.735 1.01-.965-.183-.184-.275-.46-.597-.46-.275 0-.964.322-1.101 1.195-.092.827.642 1.287 1.285 1.287.184 0 .46-.276.597-.322.275-.138.184-.276-.138-.23Zm-1.102-.643c-.183-.551-.091-.735.23-1.01a.924.924 0 0 0 .367.367c-.183.184-.459.551-.597.643Zm-.78-.505c.138-.092 0-.184-.092-.092a3.34 3.34 0 0 1-.367-.414c-.092.092-.367.23-.505.322-.092-.138-.23-.138-.46-.322-.137.092-.412.276-.55.46.275.092.46.092.46.321v1.47c.137.046.32 0 .504 0v-1.7a.634.634 0 0 0 .184-.137c.091.046.23.275.367.367.092 0 .367-.183.459-.275Zm-2.112 2.848c-.275.046-.734.368-.826.643-.046.138 0 .552.092.598l.092.092c-.184.183-.368.321-.368.597 0 .275.23.505.46.597a.901.901 0 0 1 .596-.413c0 .183.046.367.184.459.092-.092.459-.46.55-.505.093-.092 0-.184-.091-.092-.046.046-.184-.046-.23-.092 0-.092 0-1.287.046-1.333-.137-.137-.321-.55-.505-.55Zm0 1.195c-.321.23-.413.183-.642-.046a.557.557 0 0 1-.046-.46c.092-.138.275-.321.367-.321.092 0 .321.321.321.46v.367Zm0 .597v.184c-.046 0-.137.046-.23.092-.137-.092-.688-.276-.32-.598.229.138.32.046.55-.092v.414Zm-.23-2.481c-.045-.046-.137-.138-.137-.23v-.873c0-.092-.184-.092-.184 0 0 .138 0 .322-.091.506-.322.46-.919.689-1.332.092-.137-.184-.183-.506-.183-.69-.046-.275.183-.643.183-.689.551-.689 1.286-.183 1.332.092.046.184.091.414.091.552 0 .091.184.091.184 0v-1.24c0-.093-.138-.093-.138 0 0 .183-.091.183-.23.137-.275-.092-.871-.23-1.193 0-.321.184-.78.597-.78 1.103 0 .872.321.918.734 1.194.368.23.827.092 1.286-.046.183-.046.183.046.275.184.184.184.276.046.184-.092Zm-2.386 1.24c-.322.46-.46 1.195.046 1.609.23.183.459.367.964.275.091-.184.137-.275.32-.505-.32.046-.596 0-.871-.184-.505-.413-.368-1.057-.184-1.286.276-.414.689.183.735.275.091-.092.23-.275.413-.367-.138-.184-.276-.414-.368-.506-.367.092-.872.368-1.055.69Zm.183 3.952c-.092.827.689 1.332 1.056 1.47a4.66 4.66 0 0 1 .46-.735c.137-.184 0-.23-.139-.092-.183.184-.688 0-.826-.23.23-.184.918-.735 1.194-.965-.184-.183-.46-.597-.505-.873-.276.23-1.102.552-1.24 1.425Zm.827-.873c.091.183.32.551.413.597-.184.184-.643.505-.78.597-.23-.321-.368-.78.367-1.194Zm1.698-.322c-.184.138-.275.276-.505.46.092.137.276.275.321.505v1.47h.46c-.046-.184 0-1.47 0-1.7.091-.092.137-.138.275-.23.092.092.321.138.321.276s.046.781 0 1.01c-.046.277-.046.506.138.782.138-.138.55-.414.643-.505.092-.092.046-.138-.092-.092-.138.046-.138.046-.138-.046 0-.138-.046-.827-.092-1.287 0-.46-.23-.551-.367-.643-.138.138-.413.322-.597.46-.183 0-.23-.23-.367-.46Zm1.745-1.057c.137-.137.275-.321.32-.367.093-.092 0-.184-.09-.092-.093.092-.276-.092-.276-.092-.046-.092-.184-1.103-.138-1.103 0 0 .643-.091.734-.091.046 0 .092-.184 0-.184-.091 0-.596.046-.596 0-.046-.092-.092-.46.046-.781.091-.138 0-.276-.046-.138s-.46.78-.735.873c-.23.092-.183.138-.046.184.092 0 .23.137.184.137 0 .506-.092 1.149.092 1.425.137.183.413.321.55.23Zm2.203.23c-.092.138-.184.322-.459.414.138.137.321.275.46.367.137-.138.275-.321.412-.46-.137-.045-.321-.137-.413-.32Zm-1.01-.551c.184 0 .551.092.872.092.414-.046.78-.69.597-1.24-.183-.506-.734-.414-1.102-.506-.321-.092-.505-.322-.091-.551.459-.276.964.183 1.01.275.091.138.137.138.137-.046 0-.413-.046-.184-.046-.551 0-.138-.091-.138-.137 0 0 .138-.184.092-.276.092-.138 0-.505-.046-.826.138-.184.137-.643.459-.413.918.137.23 1.01.46 1.24.598.229.138.275.505.045.689-.275.23-.964.046-1.102-.092-.137-.138-.183-.276-.23-.46.047-.321-.091-.321-.091-.137s.046.78.092.919c.046.137.183.092.183 0 0-.138.046-.138.138-.138Zm-.918 1.838c-.184.137.184.321.184.275 0 .506-.046 1.057.091 1.333.092.183.46.275.505.137.046-.137.322-.459.368-.55.091-.093 0-.185-.092-.093-.184.184-.276.092-.46-.046-.045-.092-.091-.78-.045-.827 0 0 .367-.046.413-.046.046 0 .046-.183 0-.183-.092 0-.413 0-.413-.046-.046-.092.046-.598.092-.827 0-.138-.046-.184-.092-.046 0 .137-.367.78-.551.919Z" fill="maroon" fill-rule="nonzero"/></g></svg>
