<?xml version="1.0" encoding="UTF-8"?>
<svg id="Layer_2" data-name="Layer 2" xmlns="http://www.w3.org/2000/svg" viewBox="0 0 312 109.8">
  <defs>
    <style>
      .cls-1 {
        fill: #fff;
      }

      .cls-2 {
        fill: #ffd200;
      }

      .cls-3 {
        fill: #003e7e;
      }
    </style>
  </defs>
  <g id="Layer_1-2" data-name="Layer 1">
    <g id="_4-Color" data-name="4-Color">
      <g>
        <g>
          <g>
            <path class="cls-3" d="M108.1,28.8c0-.4,0-.5-.4-.5h-1c-1.2,0-1.5.6-2,1.8-.2.1-.5.1-.6-.1.3-1.1.4-2.1.5-2.7.1,0,.1-.1.2-.1s.2,0,.2.1q.1.3,1.3.3h6c1.1,0,1.3,0,1.4-.4h.2c.1,0,.2.1.2.1-.2.5-.3,1.8-.2,2.8-.1.1-.5.2-.6,0-.3-1-.5-1.8-1.7-1.8h-1q-.4,0-.4.5v7.1c0,1.5.1,1.6.8,1.7l.6.1c.1.1.1.5,0,.6h-5.3c-.1-.1-.1-.5,0-.6l.7-.1c.7-.1.8-.2.8-1.7v-7.1h.3Z"/>
            <path class="cls-3" d="M122.2,33.1q-.7,0-.7.5v2.3c0,1.5.1,1.6.8,1.7l.5.1c.1.1.1.5,0,.6h-4.8c-.1-.1-.1-.5,0-.6h.4c.7-.1.8-.3.8-1.7v-6c0-1.5-.1-1.6-.8-1.7h-.4c-.1-.1-.1-.5,0-.6h4.6c.1.1.1.5,0,.6h-.3c-.7.1-.8.3-.8,1.7v1.9q0,.5.7.5h3.3q.7,0,.7-.5v-2c0-1.5-.1-1.6-.8-1.7l-.4-.1c-.1-.1-.1-.5,0-.6h4.7c.1.1.1.5,0,.6h-.3c-.7.1-.8.3-.8,1.7v6c0,1.5.1,1.6.8,1.7l.4.1c.1.1.1.5,0,.6h-4.7c-.1-.1-.1-.5,0-.6h.4c.7-.1.8-.3.8-1.7v-2.3c0-.4,0-.5-.7-.5h-3.4Z"/>
            <path class="cls-3" d="M137.4,31.7c0,.4,0,.5.4.5h1.1c.8,0,1-.1,1.2-.9l.1-.4c.1-.1.5-.1.6,0v3.4c-.1.1-.5.2-.6,0l-.1-.4c-.2-.8-.4-.9-1.2-.9h-1.1q-.4,0-.4.5v1.9c0,.7.1,1.2.3,1.5s.5.4,1.7.4c1.4,0,1.9,0,2.8-1.9.1-.2.5-.1.6.1-.1.8-.4,2.1-.7,2.6h-8.6c-.1-.1-.1-.5,0-.6l.8-.1c.7-.1.8-.2.8-1.7v-6c0-1.5-.1-1.6-.8-1.7l-.4-.1c-.1-.1-.1-.5,0-.6h7.8c0,.3.1,1.4.2,2.5-.1.2-.4.2-.6.1-.2-.6-.4-1-.6-1.3-.3-.3-.8-.5-1.6-.5h-1.1q-.5,0-.5.6v3s-.1,0-.1,0Z"/>
            <path class="cls-3" d="M154.8,29.9c0-1.5-.1-1.6-.8-1.7l-.4-.1c-.1-.1-.1-.4,0-.5h4.6c.1.1.1.4,0,.5l-.4.1c-.7.1-.8.3-.8,1.7v3.7c0,1.9.2,3.9,2.6,3.9,2,0,2.7-1.8,2.7-4v-1.9c0-1.3-.1-2.5-.2-2.9-.1-.3-.5-.4-.9-.5l-.4-.1c-.1-.1-.1-.4,0-.5h3.9c.1.1.1.4,0,.5l-.3.1c-.4.1-.7.2-.9.5-.2.4-.2,1.6-.2,2.9v1.8c0,1.5-.1,2.9-1,3.9-.7.8-1.9,1.2-3.2,1.2-1.2,0-2.3-.2-3.2-.9-.8-.7-1.2-1.9-1.2-3.6l.1-4.1h0Z"/>
            <path class="cls-3" d="M178.3,35.4v2.6c-.1.2-.6.4-.9.4,0,0-.5-.8-1.3-1.7l-3.7-4.6c-.9-1.2-1.5-1.8-1.7-2-.1.2-.1.4-.1,1v3.1c0,1.3.1,2.5.2,2.9.1.3.5.4.9.5l.4.1c.1.1.1.5,0,.6h-3.9c-.1-.1-.1-.4,0-.6h.3c.4-.1.7-.2.9-.5.2-.4.2-1.6.2-2.9v-4.1c0-.9,0-1.1-.1-1.4-.1-.3-.4-.4-.9-.5l-.4-.1c-.1-.1-.1-.5.1-.6h3.5c.2.7,1.2,1.9,2.6,3.6l1.3,1.6c.7.8,1.2,1.4,1.5,1.8.1-.2.1-.4.1-.7v-2.2c0-1.3-.1-2.5-.2-2.9-.1-.3-.5-.4-.9-.5l-.4-.1c-.1-.1-.1-.5,0-.6h3.9c.1.1.1.4,0,.6h-.3c-.4.1-.7.2-.9.5-.2.4-.2,1.6-.2,2.9v3.8h0Z"/>
            <path class="cls-3" d="M187,35.8c0,1.5.1,1.6.8,1.7l.4.1c.1.1.1.5,0,.6h-4.8c-.1-.1-.1-.5,0-.6l.4-.1c.7-.1.8-.2.8-1.7v-5.9c0-1.5-.1-1.6-.8-1.7l-.4-.1c-.1-.1-.1-.5,0-.6h4.8c.1.1.1.5,0,.6l-.4.1c-.7.1-.8.2-.8,1.7v5.9Z"/>
            <path class="cls-3" d="M199.1,34.2c-.8,1.9-1.2,3.2-1.6,4.1-.1.1-.3.1-.6.1-.2,0-.3,0-.4-.1-.2-.4-.4-1.3-.7-1.8l-2.6-6.5c-.7-1.6-.6-1.6-1.4-1.7l-.4-.1c-.1-.2-.1-.5.1-.5h4.6c.1.1.1.4,0,.5l-.5.1c-.3.1-.4.2-.4.3s.3.8.6,1.8l1.4,3.6c.2.6.4,1,.5,1.2.1-.3.3-.7.5-1.2l.6-1.5c.4-1,1.1-2.8,1.3-3.3.1-.3.2-.5.2-.6s0-.2-.4-.3l-.5-.1c-.1-.1-.1-.5.1-.5h3.5c.1.1.1.4,0,.5l-.4.1c-.4.1-.7.2-.9.6-.4.5-.8,1.4-1.3,2.7l-1.3,2.6Z"/>
            <path class="cls-3" d="M209.2,31.7c0,.4,0,.5.4.5h1.1c.8,0,1-.1,1.2-.9l.1-.4c.1-.1.5-.1.6,0v3.4c-.1.1-.5.2-.6,0l-.1-.4c-.2-.8-.4-.9-1.2-.9h-1.1q-.4,0-.4.5v1.9c0,.7.1,1.2.3,1.5s.5.4,1.7.4c1.4,0,1.9,0,2.8-1.9.1-.2.5-.1.6.1-.1.8-.4,2.1-.7,2.6h-8.6c-.1-.1-.1-.5,0-.6l.8-.1c.7-.1.8-.2.8-1.7v-6c0-1.5-.1-1.6-.8-1.7l-.4-.1c-.1-.1-.1-.5,0-.6h7.8c0,.3.1,1.4.2,2.5-.1.2-.4.2-.6.1-.2-.6-.4-1-.6-1.3-.3-.3-.8-.5-1.6-.5h-1.3q-.5,0-.5.6v3h.1Z"/>
            <path class="cls-3" d="M219.5,30.2c0-1.6,0-1.8-.7-1.9l-.4-.1c-.2-.1-.2-.5,0-.6,1.2-.1,2.4-.1,4-.1,1.4,0,2.5.2,3.1.6.9.5,1.4,1.3,1.4,2.4,0,1.4-1,2-1.7,2.4-.2.1-.2.2-.1.4,1.1,2.1,1.7,3.3,2.5,4,.4.3.8.4,1.1.4.1.1.1.3.1.4-.3.1-.8.1-1.3.1-1.5,0-2.4-.5-3.1-1.7-.5-.8-.9-1.6-1.2-2.5-.2-.4-.4-.6-.8-.6q-.6,0-.6.4v2c0,1.5.1,1.6.8,1.7l.4.1c.1.1.1.5,0,.6h-4.7c-.1-.1-.1-.5,0-.6l.4-.1c.7-.1.8-.2.8-1.7v-5.6ZM221.7,32.2q0,.6,1,.6c.6,0,.9-.1,1.2-.4.3-.3.6-.8.6-1.7,0-1.4-.8-2.4-2.1-2.4q-.7,0-.7.8v3.1Z"/>
            <path class="cls-3" d="M234.9,38.4c-1.5,0-2.4-.4-2.7-.6-.3-.4-.5-1.5-.5-2.6.1-.2.5-.2.6,0,.3,1,1.4,2.5,2.8,2.5,1.2,0,1.7-.8,1.7-1.6,0-1.3-1.2-2.1-2.2-2.5-1.2-.6-2.4-1.5-2.4-3.1,0-1.8,1.4-3.1,3.7-3.1.5,0,1.2.1,1.8.3.2.1.4.1.5.1.1.4.3,1.2.3,2.3-.1.2-.5.2-.6,0-.3-.8-1-2-2.1-2s-1.6.7-1.6,1.5c0,.7.7,1.4,1.5,1.8l1.1.6c1,.5,2.3,1.5,2.3,3.2-.2,1.9-1.8,3.2-4.2,3.2Z"/>
            <path class="cls-3" d="M246.5,35.8c0,1.5.1,1.6.8,1.7l.4.1c.1.1.1.5,0,.6h-4.8c-.1-.1-.1-.5,0-.6l.4-.1c.7-.1.8-.2.8-1.7v-5.9c0-1.5-.1-1.6-.8-1.7l-.4-.1c-.1-.1-.1-.5,0-.6h4.8c.1.1.1.5,0,.6l-.4.1c-.7.1-.8.2-.8,1.7v5.9Z"/>
            <path class="cls-3" d="M255.5,28.8c0-.4,0-.5-.4-.5h-1c-1.2,0-1.5.6-2,1.8-.2.1-.5.1-.6-.1.3-1.1.4-2.1.5-2.7.1,0,.1-.1.2-.1s.2,0,.2.1q.1.3,1.3.3h6c1.1,0,1.3,0,1.4-.4h.2c.1,0,.2.1.2.1-.2.5-.3,1.8-.2,2.8-.1.1-.5.2-.6,0-.3-1-.5-1.8-1.7-1.8h-1q-.4,0-.4.5v7.1c0,1.5.1,1.6.8,1.7l.6.1c.1.1.1.5,0,.6h-5.3c-.1-.1-.1-.5,0-.6l.7-.1c.7-.1.8-.2.8-1.7v-7.1h.3Z"/>
            <path class="cls-3" d="M270.9,35.8c0,1.5.1,1.6.8,1.7l.6.1c.1.1.1.5,0,.6h-5.1c-.1-.1-.1-.5,0-.6l.5-.1c.7-.1.8-.2.8-1.7v-.8c0-.8,0-1.1-.4-1.9l-1.9-3.9c-.3-.7-.5-.9-1-1l-.5-.1c-.1-.1-.1-.5.1-.6h4.6c.1.1.2.4,0,.6l-.5.1c-.3.1-.4.1-.4.1,0,.1.1.4.4,1.1l.8,1.7c.2.5.5,1.2.7,1.6.5-.8.9-1.7,1.3-2.5.6-1.1.8-1.7.8-1.9,0-.1-.2-.2-.5-.2l-.4-.1c-.1-.1-.1-.5,0-.6h3.4c.2.1.2.4.1.6l-.4.1c-.3.1-.6.2-.8.4-.2.3-.6.9-1.4,2.3l-1,1.8c-.4.8-.6,1.2-.6,2.1v1.1h0Z"/>
            <path class="cls-3" d="M296.4,32.8c0,3.5-2.3,5.6-5.8,5.6-3.2,0-5.6-2.1-5.6-5.5,0-3.2,2.4-5.6,5.7-5.6s5.7,2.3,5.7,5.5ZM290.6,28.1c-2,0-3,1.8-3,4.5,0,2,.7,5.1,3.3,5.1,2.1,0,2.9-2,2.9-4.6,0-2.8-1.2-5-3.2-5Z"/>
            <path class="cls-3" d="M304.2,31.9c0,.4,0,.5.4.5h1.2c.8,0,1-.1,1.2-.9l.1-.4c.1-.1.5-.1.6,0v3.4c-.1.1-.5.2-.6,0l-.1-.4c-.2-.8-.3-.9-1.2-.9h-1.2q-.4,0-.4.5v2.2c0,1.5.1,1.6.8,1.7l.6.1c.1.1.1.5,0,.6h-5c-.1-.1-.1-.5,0-.6l.5-.1c.7-.1.8-.2.8-1.7v-6c0-1.5-.1-1.6-.8-1.7h-.3c-.1-.1-.1-.5,0-.6h7.9v2.5c-.1.2-.4.2-.6.1-.2-.7-.3-1-.5-1.2-.3-.3-.8-.5-1.6-.5h-1.2q-.5,0-.5.7l-.1,2.7h0Z"/>
          </g>
          <path class="cls-3" d="M126.3,81.7c-3.1-.1-5.2-.2-7.3-.2s-4.3,0-7.7.2h-.2c-.2-.1-.4-.5-.4-.9,0-.3,0-.8.3-1h0l2.2-.3c2.2-.2,2.6-.2,2.6-5.6v-22.3q0-2.1-1.1-2.1h-2.8c-4.4,0-5.7.5-7.6,4.6-.2.2-.5.3-.7.3-.5,0-1.1-.2-1.2-.7v-.2c.8-2.7,1.6-5.9,1.9-7.8.2-.4.6-.4.8-.4.3,0,.6.1.7.3.2,1.2.7,1.2,4.2,1.2h20.3c2.4,0,3-.1,3.6-1.2v-.1h.1c.2-.1.4-.2.7-.2.4,0,.7.1.8.4v.2c-.5,2.1-.9,6.5-.7,8.1v.2c-.2.3-.6.5-1,.5-.3,0-.6-.1-.8-.3l-.1-.1v-.1c-.6-3.8-1.4-4.8-6.7-4.8h-2.8q-1.1,0-1.1,2.1v22.4c0,5.4.4,5.4,2.6,5.7l1.9.2.1.1c.3.3.3.8.3,1.1-.1.3-.2.6-.4.7h-.5Z"/>
          <path class="cls-3" d="M153.5,82.3c-8.9,0-18-6-18-17.6,0-10.7,7.6-18.5,18.1-18.5,12.1,0,17.7,9.4,17.7,18.2-.1,10.2-7.7,17.9-17.8,17.9ZM152.9,48.7c-4.9,0-10.2,3.8-10.2,14.5,0,13.1,7.1,16.6,11.2,16.6,6.4,0,10.1-5.3,10.1-14.5,0-8-3.4-16.6-11.1-16.6Z"/>
          <path class="cls-3" d="M199,81.7c-2-.1-6.3-.2-11.9-.2h-5.2c-2.6,0-5.1.1-7.1.2h-.2c-.3-.2-.5-.7-.5-1,0-.4.1-.7.4-.9l1.6-.3c2.2-.3,2.6-.3,2.6-5.6v-19.3c0-5.3-.4-5.3-2.6-5.7l-1.4-.2h0c-.3-.2-.4-.7-.3-1.1,0-.4.2-.7.5-.8h.1c2.5.1,4.8.2,7,.2s4.4-.1,6.6-.2h.1c.3.1.5.5.5.9,0,.3-.1.8-.4,1l-1.2.2c-2.2.3-2.6.4-2.6,5.7v18.1c0,2.2.1,4.3.8,5.2.5.6,1.2,1.1,5.2,1.1,5.4,0,6.2-.2,8.4-5.4v-.1h.1c.2-.1.4-.2.7-.2.5,0,1,.2,1.2.5v.2c-.4,2.2-1.5,6.1-2.1,7.5l-.1.1-.2.1Z"/>
          <path class="cls-3" d="M230.6,81.7c-2.2-.1-6.4-.2-12.3-.2h-5.7c-2,0-5.1,0-7.5.2h-.2c-.2-.1-.4-.4-.4-.7-.1-.3,0-.8.3-1.1l.1-.1,1.9-.2c2.2-.2,2.6-.3,2.6-5.7v-19.3c0-5.4-.4-5.4-2.6-5.8l-.9-.1-.1-.1c-.3-.3-.3-.8-.3-1.1.1-.3.2-.6.4-.7h.2c1.8.1,4.1.2,6.4.2h9.5c3.5,0,6.1-.1,6.7-.2h.2v.2c.1.5.2,1.9.4,3.5.1,1.3.3,2.7.4,3.7v.2c-.2.4-.7.5-1.1.5-.3,0-.6-.1-.8-.2h-.1v-.1c-.8-3.1-1.5-4.2-3-4.5-1-.3-2.3-.5-3.9-.5h-3.3q-1.9,0-1.9,2.8v8.7q0,1.2,1,1.2h2.4c4.4,0,5-.1,5.3-2.1l.4-1.8h.1c.2-.2.6-.3,1-.3s.8.2,1,.4v1.2c-.1,1.3-.1,2.7-.1,4.2,0,1.4,0,2.7.1,4,0,.5.1,1.5.1,1.5v.1c-.2.3-.7.4-1,.4-.4,0-.7-.1-1-.3l-.1-.1-.4-2.1c-.3-2-1-2.1-5.3-2.1h-2.4q-1,0-1,1.2v6.6c0,2.4.1,4.4.8,5.2.5.6,1.2,1.1,5.5,1.1h.6c5.6,0,6.7-1.4,8.4-5.4v-.1h0c.2-.2.5-.2.8-.2.5,0,1,.2,1.2.6v.2c-.3,2.2-1.4,6.1-2.1,7.6l-.1.1-.2-.5Z"/>
          <path class="cls-3" d="M251.2,81.8c-1.7,0-3.2-.1-4.5-.2-1-.1-1.9-.1-2.7-.1-1.9,0-4.2.1-6.3.2h-.2c-.2-.1-.4-.4-.4-.7-.1-.3,0-.8.3-1.1l.1-.1,1.2-.2c2.2-.3,2.6-.3,2.6-5.7v-18.9c0-5-.1-5.4-2.2-5.7l-1.1-.1h0c-.3-.2-.4-.6-.3-.9,0-.4.2-.7.4-.9h.1c3.7-.3,7.6-.5,12.5-.5s8.4.5,11.8,1.8c6.5,2.5,10.4,8.3,10.4,15.6,0,6.5-3.4,12.1-9,15.1-3.5,1.6-7.6,2.4-12.7,2.4ZM251.6,49.3c-2.2,0-3.6.4-3.9.7-.3.3-.3,1.7-.3,3.7v18.2c0,4.9.2,7.5,5.4,7.5,8,0,12.6-5.5,12.6-15,.1-9.6-5-15.1-13.8-15.1Z"/>
          <path class="cls-3" d="M294.2,82.3c-8.9,0-18-6-18-17.6,0-10.7,7.6-18.5,18.1-18.5,12.1,0,17.7,9.4,17.7,18.2,0,10.2-7.7,17.9-17.8,17.9ZM293.7,48.7c-4.9,0-10.2,3.8-10.2,14.5,0,13.1,7.1,16.6,11.2,16.6,6.4,0,10.1-5.3,10.1-14.5,0-8-3.5-16.6-11.1-16.6Z"/>
        </g>
        <path class="cls-3" d="M96.2,8.6C66.8,15,48.1,0,48.1,0,48.1,0,29.4,15,0,8.6,0,32.6-.7,76.2,48.1,109.8c48.8-33.6,48.1-77.2,48.1-101.2Z"/>
      </g>
      <path class="cls-1" d="M48,102.1l-.5-.3c-.3-.2-27.7-18-36.6-49.9C5.1,31.3,6,16.5,6,16.4l.1-.9.9.1c.1,0,12.2,1.2,21.6-.8,10.6-2.2,18.9-6.7,19-6.7l.4-.2.4.2c.1,0,8.5,4.5,19.2,6.7,9.4,2,21.4.8,21.6.8l.9-.1.1.9c0,.1.9,15-4.9,35.5-9,31.9-36.4,49.8-36.7,49.9l-.6.3ZM7.8,17.3c-.1,3.5,0,16.7,4.8,34.1,8.1,29,31.8,46.1,35.4,48.6,3.6-2.5,27.4-19.7,35.5-48.6,4.9-17.4,4.9-30.6,4.8-34.1-3,.2-12.9.8-21.2-.9-9.5-2-17.4-5.8-19.2-6.7-1.8.9-9.5,4.7-19.1,6.7-8.1,1.8-18,1.2-21,.9Z"/>
      <g>
        <g>
          <path class="cls-2" d="M48.7,29.3c-.4,0-1.1.1-1.9.3s-1.5.4-2,.8c-.5.4-.9,1.1-1.1,2.2-.2,1.1-.3,2.5-.3,4.1v14.2c0,1.8-.4,3.4-1.1,4.7-.8,1.3-1.7,2.4-3,3.3-1.2.8-2.5,1.4-3.8,1.8s-2.6.5-3.9.5c-2,0-3.7-.3-5.3-.8-1.5-.5-2.8-1.2-3.9-2.1-1-.9-1.8-1.9-2.3-3s-.8-2.3-.8-3.5v-19.4c0-.5-.1-1-.3-1.3-.2-.4-.5-.7-1.1-1-.4-.2-.9-.4-1.5-.5s-1.1-.2-1.5-.2v-1.6h13.6v1.6c-.4,0-1,.1-1.6.2-.6.1-1.1.2-1.4.3-.5.2-.9.5-1,.9-.2.4-.3.9-.3,1.4v18.1c0,.9.1,1.8.3,2.8s.6,1.9,1.1,2.7c.6.8,1.4,1.5,2.5,2.1,1,.5,2.5.8,4.3.8,1.7,0,3.1-.3,4.3-.8,1.1-.5,2.1-1.2,2.7-2.1.6-.8,1.1-1.7,1.3-2.6.3-.9.4-1.8.4-2.7v-13.6c0-1.7-.1-3.1-.4-4.2-.2-1.1-.6-1.8-1.1-2.1-.5-.4-1.3-.7-2.2-.9s-1.6-.3-2.1-.4v-1.6h13.3l.1,1.6h0Z"/>
          <path class="cls-2" d="M76.7,43.9h-1.6c-.1-.5-.4-1.2-.7-1.9-.4-.7-.8-1.5-1.2-2.1-.5-.7-.9-1.3-1.5-1.8-.5-.5-1.1-.8-1.6-.9-.5-.1-1.1-.1-1.8-.1h-3.3v25.6c0,.5.1,1,.3,1.4.2.4.6.7,1.1,1,.3.1.8.2,1.7.4.9.2,1.5.3,2,.3v1.6h-15v-1.6c.4,0,1.1-.1,1.9-.2.9-.1,1.5-.2,1.8-.3.5-.2.9-.5,1.1-.8.2-.4.4-.9.4-1.5v-26h-3c-.7,0-1.4.1-2,.1-.5.1-1,.4-1.5.9s-1,1.1-1.5,1.8-.8,1.4-1.2,2.2c-.3.8-.6,1.4-.7,1.9h-1.6v-8.7h28v8.7h-.1Z"/>
        </g>
        <g>
          <g>
            <path class="cls-2" d="M40.2,76.6s2.4-.2,4.5,1.2c1.8,1.2,2.8,3.7,2.8,3.7,0,0-3,.3-5-1-2-1.5-2.3-3.9-2.3-3.9h0Z"/>
            <path class="cls-2" d="M56,76.6s-2.4-.2-4.5,1.2c-1.8,1.2-2.8,3.7-2.8,3.7,0,0,3,.3,5-1,2-1.5,2.3-3.9,2.3-3.9h0Z"/>
          </g>
          <path class="cls-2" d="M48.1,67.5s2.3,3.2,2.3,6.3c0,2.9-2.3,6-2.3,6,0,0-2.3-3.1-2.3-6,0-3.1,2.3-6.3,2.3-6.3Z"/>
        </g>
      </g>
    </g>
  </g>
</svg>