<?xml version="1.0" encoding="UTF-8"?>
<svg id="Layer_2" data-name="Layer 2" xmlns="http://www.w3.org/2000/svg" viewBox="0 0 413 263.33">
  <defs>
    <style>
      .cls-1 {
        fill: #492365;
      }

      .cls-2 {
        fill: #fff;
      }
    </style>
  </defs>
  <g id="Group_74" data-name="Group 74">
    <g id="WSU_Stacked-_White" data-name="WSU Stacked- White">
      <g>
        <path class="cls-2" d="M48.4,207.52h-1.45c-11.58-25.12-12.96-28.58-14.16-31.79h-.06c-1.2,3.28-2.71,6.74-14.67,31.79h-1.45l-9.19-30.72c-4.78-15.93-5.29-18-7.43-18.32v-.94c1.64,0,4.03.07,7.05.07s5.22-.07,8.18-.07v.94c-3.09.32-2.52,2.46.5,13.1,2.27,7.87,3.15,11.27,3.96,14.54h.13c1.26-3.27,2.46-6.11,5.98-14.11,2.14-4.6,4.66-9.56,6.61-13.6h1.32c1.95,3.97,4.28,8.7,6.68,13.54,3.27,7.68,4.53,10.64,5.79,13.86h.19c.69-3.28,1.51-6.37,3.78-13.98,3.02-10.96,3.59-13.03.57-13.35v-.94c2.08.07,4.53.07,7.55.07s4.79,0,6.61-.07v.94c-1.95.38-2.58,2.39-7.3,18.26l-9.19,30.79Z"/>
        <path class="cls-2" d="M70.62,177.3c0-16.37,0-18.57-2.52-18.83v-.94c2.2,0,7.49.07,13.4.07,5.35,0,11.02,0,14.99-.07-.13,3.09-.19,6.23-.26,10.71h-.94c-.38-2.4-2.64-3.03-6.92-3.03h-8.31v12.71h7.12c4.47,0,5.66-.13,6.17-1.51h.89c-.06,1.88-.06,3.59-.06,5.15,0,1.89,0,3.66.06,5.73h-.89c-.38-1.51-1.7-1.76-6.04-1.76h-7.25v11.52c0,1.32.13,1.63,1.26,1.77,3.15.06,6.67.06,9.57,0,3.08-.07,4.91-.52,5.35-2.65h.94c-.12,4.54-.19,7.43-.19,10.58-4.34-.06-9.44-.06-14.1-.06-6.8,0-12.77,0-14.92.06v-.94c2.64-.25,2.64-2.46,2.64-20.09v-8.43Z"/>
        <path class="cls-2" d="M135.96,192.78c0,4.97-2.58,8.81-6.05,11.02-3.08,2.01-7.11,3.01-14.22,3.01-2.14,0-4.22-.12-6.61-.12-1.39,0-3.28-.06-5.48-.06v-.94c2.71-.12,2.71-2.39,2.71-19.96v-8.43c0-16.37,0-18.39-2.46-18.64v-1c1.45,0,4.22-.06,5.85-.06,1.82-.07,4.72-.2,7.3-.2,3.02,0,6.11.38,8.37,1.14,3.72,1.13,8.56,4.52,8.56,11.83,0,5.28-3.59,9.56-7.99,10.64v.06c5.35.88,10.01,5.41,10.01,11.65v.06ZM124.69,171.26c0-3.9-2.77-6.24-6.86-6.24-1.01,0-2.08.14-2.71.2v12.59c.69,0,1.32.06,1.76.06,1.07,0,2.33-.12,3.52-.56,2.02-.7,4.28-2.59,4.28-5.99v-.06ZM126.32,191.97c0-3.47-2.39-5.48-4.72-6.24-1.07-.31-2.71-.56-4.1-.56-.63,0-1.7.06-2.39.12v12.22c0,.94.12,1.06.5,1.26.75.13,1.76.13,2.52.13,1.63,0,3.4-.38,4.66-1.07,1.7-.88,3.53-2.71,3.53-5.8v-.05Z"/>
        <path class="cls-2" d="M143.88,177.3c0-16.37,0-18.57-2.52-18.83v-.94c2.21,0,7.49.07,13.4.07,5.36,0,11.02,0,14.99-.07-.13,3.09-.19,6.23-.25,10.71h-.95c-.38-2.4-2.64-3.03-6.92-3.03h-8.31v12.71h7.12c4.47,0,5.67-.13,6.17-1.51h.88c-.07,1.88-.07,3.59-.07,5.15,0,1.89,0,3.66.07,5.73h-.88c-.38-1.51-1.7-1.76-6.05-1.76h-7.24v11.52c0,1.32.13,1.63,1.27,1.77,3.14.06,6.67.06,9.57,0,3.08-.07,4.91-.52,5.35-2.65h.95c-.12,4.54-.19,7.43-.19,10.58-4.35-.06-9.44-.06-14.1-.06-6.79,0-12.78,0-14.92.06v-.94c2.64-.25,2.64-2.46,2.64-20.09v-8.43Z"/>
        <path class="cls-2" d="M180.57,177.3c0-16.37,0-18.57-2.64-18.7v-.94c1.64,0,3.9-.06,6.49-.13,1.89-.06,4.97-.13,7.04-.13,3.53,0,6.61.44,9.26,1.32,4.4,1.51,8.93,5.6,8.93,13.41,0,5.6-2.83,9.32-5.22,11.14-1.2,1.01-2.64,1.89-3.84,2.33v.2c2.02,2.63,3.78,5.09,11.4,15.42,1.82,2.46,3.65,4.35,5.04,4.6v.88h-10.27c-1.13,0-2.13-.13-2.83-.75-3.84-5.73-7.93-11.96-12.27-18.33-.63,0-1.45-.05-2.08-.05v2.7c0,13.1.07,15.3,2.46,15.55v.94c-1.52-.06-4.28-.06-6.87-.06-2.95,0-5.54,0-7.17.06v-.94c2.58-.25,2.58-2.46,2.58-20.09v-8.43ZM200.15,172.52c0-4.47-2.89-7.36-7.8-7.36-1.13,0-2.26.12-2.77.19v15.23c.7.06,1.39.06,2.08.06,1.89,0,3.65-.5,4.97-1.38,1.82-1.08,3.52-3.28,3.52-6.68v-.06Z"/>
        <path class="cls-2" d="M263.34,193.54c0,7.87-6.23,13.85-16.36,13.85-3.84,0-7.81-.82-10.01-1.82.13-3.21.25-6.11.38-11.08h.95c.44,1.69,1.38,2.89,2.52,3.65,1.45.82,3.47,1.2,5.54,1.2,4.02,0,6.98-2.02,6.98-5.66,0-2.27-1.26-4.09-3.59-5.92-1.63-1.31-3.46-2.71-5.35-4.22-4.53-3.46-6.86-7.3-6.86-12.4,0-7.55,5.73-13.85,15.93-13.85,2.7,0,5.92.45,7.74,1.07-.19,3.59-.25,6.61-.31,10.89h-.94c-.31-1.39-1.14-2.33-2.14-3.02-.94-.57-2.27-.95-3.9-.95-3.91,0-6.61,2.13-6.61,5.42,0,2.07.94,3.59,2.58,5.03,1.51,1.38,3.59,2.9,6.29,5.04,4.41,3.47,7.18,7.24,7.18,12.71v.06Z"/>
        <path class="cls-2" d="M281.2,165.21h-8.5c-3.15,0-4.66.82-5.22,3.27h-.95c0-4.15-.07-7.87-.07-10.95,5.17.07,11.02.07,15.86.07h7.05c5.42,0,11.2,0,15.86-.07v10.95h-1.01c-.56-2.58-2.01-3.27-5.1-3.27h-8.5v20.52c0,17.69,0,20.02,3.02,20.09v.94c-2.07-.06-4.84-.06-7.68-.06-3.02,0-5.91,0-7.68.06v-.94c2.89-.32,2.89-2.46,2.89-20.09v-20.52Z"/>
        <path class="cls-2" d="M314.59,196.75c-2.71,6.67-3.47,8.81-.95,9v1.01c-2.33,0-4.92-.06-7.43-.06-3.34,0-5.54.06-6.93.06v-1.01c1.95-.18,3.02-2.33,10.57-20.08l12.34-28.89h1.51l12.09,28.95c7.36,17.63,8.37,19.84,10.32,20.02v1.01c-1.44-.06-3.64-.06-6.92-.06-2.77,0-5.6,0-8.19.06v-1.01c2.46-.18,1.64-2.33-.94-9h-15.48ZM327.42,189.45l-.06-.19c-3.59-9.64-4.41-12.09-4.84-13.66h-.07c-.44,1.51-1.38,3.96-5.1,13.66l-.06.19h10.13Z"/>
        <path class="cls-2" d="M355.03,165.21h-8.5c-3.14,0-4.65.82-5.22,3.27h-.95c0-4.15-.06-7.87-.06-10.95,5.16.07,11.02.07,15.86.07h7.05c5.41,0,11.2,0,15.86-.07v10.95h-1.01c-.57-2.58-2.02-3.27-5.1-3.27h-8.5v20.52c0,17.69,0,20.02,3.02,20.09v.94c-2.08-.06-4.85-.06-7.68-.06-3.02,0-5.92,0-7.68.06v-.94c2.9-.32,2.9-2.46,2.9-20.09v-20.52Z"/>
        <path class="cls-2" d="M386.43,177.3c0-16.37,0-18.57-2.52-18.83v-.94c2.2,0,7.49.07,13.4.07,5.36,0,11.02,0,14.99-.07-.13,3.09-.2,6.23-.26,10.71h-.94c-.38-2.4-2.65-3.03-6.93-3.03h-8.31v12.71h7.11c4.47,0,5.67-.13,6.17-1.51h.88c-.06,1.88-.06,3.59-.06,5.15,0,1.89,0,3.66.06,5.73h-.88c-.37-1.51-1.7-1.76-6.04-1.76h-7.24v11.52c0,1.32.12,1.63,1.26,1.77,3.14.06,6.67.06,9.57,0,3.08-.07,4.9-.52,5.34-2.65h.95c-.13,4.54-.19,7.43-.19,10.58-4.35-.06-9.45-.06-14.1-.06-6.8,0-12.78,0-14.92.06v-.94c2.65-.25,2.65-2.46,2.65-20.09v-8.43Z"/>
        <path class="cls-2" d="M17.92,240.47c0-12.01,0-13.46-1.91-13.6v-.61c1.12,0,2.57.05,4.3.05,1.63,0,3.04-.05,4.11-.05v.61c-2.05.14-2.05,1.59-2.05,13.6v7.06c0,4.16.75,6.59,2.33,8.56,1.59,2.05,4.35,3.12,7.29,3.12s5.42-.98,7.1-2.99c1.73-1.96,2.48-4.77,2.48-8.88v-6.87c0-12.01.05-13.46-2.05-13.65v-.56c1.17,0,2.57.05,4.07.05,1.69,0,3.04-.05,4.02-.05v.56c-1.83.19-1.83,1.64-1.83,13.65v6.92c0,5.42-1.17,8.88-3.36,11.45-2.15,2.57-5.89,4.49-10.47,4.49-4.86,0-8.74-1.74-11.08-4.95-2.05-2.58-2.95-5.75-2.95-10.57v-7.33Z"/>
        <path class="cls-2" d="M95.75,263.23h-.7c-8.93-10.42-14.21-16.59-17.48-20.42-2.15-2.48-3.69-4.26-6.03-7.25h-.05v12.33c0,12.67,0,14.16,2.01,14.31v.61c-1.26-.05-2.66-.05-4.16-.05-1.68,0-2.71,0-3.78.05v-.56c2.01-.19,2.01-1.69,2.01-14.49v-21.83h.7c9.11,10.7,14.49,17.06,17.76,20.9,2.06,2.38,3.51,4.11,5.7,6.91h.09v-13.36c0-11.87,0-13.37-2.06-13.56v-.56c1.07,0,2.52.05,3.92.05,1.59,0,2.81-.05,3.83-.05v.56c-1.78.19-1.78,1.68-1.78,13.69v22.72Z"/>
        <path class="cls-2" d="M125.08,247.76c0,12.85,0,14.21,2.1,14.45v.61c-1.17,0-2.66-.05-4.3-.05-1.82,0-3.18.05-4.2.05v-.61c2.01-.24,2.01-1.59,2.01-14.4v-7.33c0-12.01,0-13.37-1.96-13.56v-.65c1.03,0,2.43.05,4.12.05,1.54,0,3.13-.05,4.11-.05v.61c-1.87.23-1.87,1.54-1.87,13.6v7.29Z"/>
        <path class="cls-2" d="M162.27,263.28h-.7l-9.39-22.81c-4.96-12.06-5.66-13.46-7.2-13.6v-.61c.75,0,2.24.05,4.07.05s3.5-.05,4.58-.05v.61c-2.3.14-1.68,1.54,2.71,12.34,2.95,7.43,4.35,10.89,5.7,14.95h.09c1.4-4.01,2.71-7.43,5.71-14.95,4.34-10.75,4.95-12.16,2.75-12.34v-.61c1.13.05,2.9.05,4.44.05s2.99,0,3.7-.05v.61c-1.5.14-2.11,1.54-7.1,13.6l-9.36,22.81Z"/>
        <path class="cls-2" d="M196.32,240.47c0-12.01,0-13.46-1.73-13.6v-.61c1.73,0,5,.05,8.79.05s7.71-.05,10.19-.05c-.1,1.96-.19,3.93-.19,5.94h-.56c-.23-1.92-1.59-2.26-4.81-2.26h-7.29v12.34h6.41c3.32,0,4.35-.03,4.68-1.16h.51c-.04,1.03-.04,1.96-.04,2.94,0,1.07,0,2.1.04,3.28h-.51c-.28-1.31-1.26-1.41-4.53-1.41h-6.55v11.97c0,.98.05,1.08.94,1.12h8.13c2.19,0,3.46-.19,3.83-2.06h.56c-.1,1.69-.19,3.83-.19,5.85-2.81,0-6.59-.05-10.1-.05-4.07,0-7.66.05-9.39.05v-.61c1.82-.15,1.82-1.59,1.82-14.45v-7.29Z"/>
        <path class="cls-2" d="M234.75,240.47c0-12.01,0-13.46-1.91-13.56v-.56c1.21,0,2.24-.04,3.69-.04,1.27-.05,3.18-.15,4.4-.15,2.38,0,4.63.28,6.45.98,2.76.99,6.03,3.79,6.03,9.16,0,4.5-2.38,7.25-4.34,8.65-1.04.75-2.24,1.35-3.32,1.69v.09c1.03,1.44,2.06,2.85,8.92,12.1,1.27,1.69,2.77,3.22,3.93,3.37v.61c-.98,0-1.96-.05-3.13-.05-.84,0-1.31.05-2.11.05-.61,0-1.22-.23-1.68-.66-2.94-4.21-6.08-8.74-10.33-14.72h-2.34v1.95c0,11.22,0,12.67,1.82,12.81v.61c-1.08,0-2.38-.05-3.88-.05-1.68,0-2.9.05-4.11.05v-.61c1.91-.15,1.91-1.59,1.91-14.45v-7.29ZM248.91,236.54c0-4.11-2.76-6.68-7.47-6.68-.89,0-1.97.04-2.43.08v14.03c.52.04,1.07.04,1.82.04,1.68,0,3.27-.37,4.53-1.07,1.82-1.03,3.55-3.05,3.55-6.36v-.05Z"/>
        <path class="cls-2" d="M290.67,253.55c0,5.1-3.93,9.68-11.27,9.68-2.43,0-5.09-.55-6.59-1.17.15-2.06.19-3.83.24-6.21h.6c.23,1.31.84,2.2,1.73,2.76.98.6,2.43.89,4.02.89,3.74,0,6.68-2.2,6.68-5.75,0-2.15-.84-3.88-2.99-5.65-1.5-1.22-2.9-2.25-4.58-3.6-3.32-2.62-5.05-5.19-5.05-8.97,0-5.15,4.07-9.49,10.7-9.49,1.96,0,3.93.32,5.24.74-.09,2.02-.19,3.84-.23,5.99h-.56c-.19-1.17-.75-1.87-1.5-2.34-.69-.37-1.77-.66-2.85-.66-3.6,0-6.26,2.11-6.26,5.47,0,1.92.79,3.46,2.24,4.81,1.27,1.27,2.81,2.34,4.87,3.97,3.22,2.48,5.56,5.1,5.56,9.49v.04Z"/>
        <path class="cls-2" d="M317.67,247.76c0,12.85,0,14.21,2.1,14.45v.61c-1.17,0-2.66-.05-4.31-.05-1.82,0-3.17.05-4.2.05v-.61c2.01-.24,2.01-1.59,2.01-14.4v-7.33c0-12.01,0-13.37-1.96-13.56v-.65c1.03,0,2.43.05,4.11.05,1.54,0,3.13-.05,4.11-.05v.61c-1.87.23-1.87,1.54-1.87,13.6v7.29Z"/>
        <path class="cls-2" d="M350.19,229.91h-7.11c-2.57,0-3.41.42-3.83,2.43h-.61v-6.08c3.74.05,8.27.05,11.69.05h4.02c3.78,0,8.32,0,11.68-.05v6.08h-.61c-.42-2.02-1.36-2.43-3.79-2.43h-7.11v17.85c0,12.9,0,14.35,2.11,14.45v.61c-1.17-.05-2.66-.05-4.25-.05-1.68,0-3.27,0-4.3.05v-.61c2.1-.19,2.1-1.54,2.1-14.45v-17.85Z"/>
        <path class="cls-2" d="M399.35,247.99v1.64c0,10.89-.04,12.38,2.11,12.58v.61c-1.12-.05-2.62-.05-4.21-.05-1.87,0-3.51,0-4.35.05v-.61c2.05-.19,2.05-1.68,2.05-12.53v-1.35l-4.07-7.76c-6.54-12.25-7.1-13.51-8.6-13.69v-.61c.55,0,2.05.05,3.78.05,1.64,0,3.32-.05,4.67-.05v.61c-2.15.18-1.4,1.59,2.34,8.87,2.01,3.79,3.22,6.18,4.16,8.09h.09c.89-1.92,2.11-4.21,4.11-8.04,3.83-7.29,4.53-8.78,2.47-8.92v-.61c1.46.05,2.9.05,4.49.05s2.71,0,3.46-.05v.61c-1.31.18-1.87,1.4-8.55,13.74l-3.98,7.38Z"/>
        <path class="cls-1" d="M165.15,3.37v32.28c0,32.44,11.82,54.78,21.73,67.81,9.05,11.89,18.21,18.42,20.96,20.23,2.78-1.72,11.96-7.94,21.01-19.66,9.94-12.86,21.75-35.19,21.63-68.55V3.37h-85.33Z"/>
        <path class="cls-2" d="M207.78,127.62l-.82-.49c-.46-.27-45.18-27.4-45.18-91.47V0h92.08v35.31c.24,66.06-44.78,91.6-45.23,91.85l-.84.47ZM165.15,3.37v32.28c0,32.44,11.82,54.78,21.73,67.81,9.05,11.89,18.21,18.42,20.96,20.23,2.78-1.72,11.96-7.94,21.01-19.66,9.94-12.86,21.75-35.19,21.63-68.55V3.37h-85.33Z"/>
        <path class="cls-2" d="M227.49,32.48c-6.28-8.26-5.23-12.01-5.23-12.01,0,0-3.33,5.97-5,10.93-2.05,6.05,2,12.27,2,12.27l6.88,9.97c2.66,4.17-3.92,13.85-3.92,13.85l-14.26-33.2c-5.79-13.47-2.32-18.56-2.32-18.56-11.79,12.43-10.23,20.27-8.42,25.75,0,0,2.6,6.43,5.92,14.65l-4.58,11.89-9.18-21.84c-3.19-8.29.24-13.86.24-13.86-14.81,12.96-9.33,26.26-6.53,33.06,6.31,15.32,10.49,25.05,11.47,27.7.21.57.4,1.05.4,1.05h2.82c.23-.04.43-.16.57-.37.15-.21,1.07-3.2,1.07-3.2l7.47-25.15c4.86,12.05,10.91,26.93,11.3,27.95.19.49.31.77.31.77h2.76c.16-.03.32-.1.51-.34.22-.3,1.2-3.26,1.2-3.26l10.93-31.6c5.36-13.93-1.33-19.78-6.41-26.45"/>
      </g>
    </g>
  </g>
</svg>