<?xml version="1.0" encoding="UTF-8"?><svg id="Layer_2" xmlns="http://www.w3.org/2000/svg" viewBox="0 0 910.5602 154.5996"><g id="Components"><g id="bee5e848-e0e0-4257-92b1-db851fe99df7_4"><path d="m245.3378,63.043l-19.901,55.6672h-1.67l-14.056-39.6628-14.7518,39.6628h-1.67l-20.0402-56.0847-5.7059-.835v-3.0617h21.571v3.0617l-7.9326.835,14.6126,41.7504,11.5509-31.7303-3.6184-10.0201-5.845-.835v-3.0617h22.1277v3.0617l-7.9326.835v.9742l14.1951,40.7762,14.6126-41.472-7.6542-1.1133v-3.0617h17.9526v3.0617l-5.845,1.2525Z" style="stroke-width:0px;"/><path d="m278.7381,117.8752v-2.6442l6.9584-.835v-16.561h-21.8494v16.561l6.9584.835v2.6442h-20.736v-2.6442l6.9584-.835v-34.5136l-6.9584-.6958v-2.6442h20.5968v2.6442l-6.9584.6958v14.6126h21.8494v-14.6126l-6.9584-.6958v-2.6442h20.5968v2.6442l-6.9584.6958v34.5136l6.9584.835v2.6442h-20.4577Z" style="stroke-width:0px;"/><path d="m310.8859,117.8752v-2.6442l6.9584-.835v-34.5136l-6.9584-.6958v-2.6442h20.736v2.6442l-6.9584.6958v34.5136l6.9584.835v2.6442s-20.736,0-20.736,0Z" style="stroke-width:0px;"/><path d="m376.5731,87.9541l-1.1133-8.0717h-11.5509v34.5136l6.9584.835v2.6442h-20.736v-2.6442l6.9584-.835v-34.5136h-11.6901l-1.1133,8.0717h-3.0617v-11.5509h38.4103v11.5509h-3.0618Z" style="stroke-width:0px;"/><path d="m426.3952,117.8752v-2.6442l6.9584-.835-1.9483-28.8077-15.726,32.2869h-1.5309l-15.4476-31.4519-1.67,27.6944,6.9584,1.1133v2.6442h-17.8135v-2.6442l6.9584-1.1133,2.3659-34.0961-6.9584-.6958v-2.6442h13.0818l15.1693,31.3128,15.3085-31.3128h12.9426v2.6442l-6.9584.5567,2.3659,34.792,6.9584.835v2.6442h-21.0144v-.2783Z" style="stroke-width:0px;"/><path d="m478.7223,117.8752v-2.6442l7.2367-.835-3.8967-9.0459h-16.7001l-3.8967,9.0459,7.2367.835v2.6442h-16.561v-2.6442l5.2884-.9742,16.4218-38.5495h3.0617l16.561,38.6887,5.1492.835v2.6442h-19.9011Zm-5.0101-32.2869h-.1392l-6.8192,16.2826h13.7776l-6.8192-16.2826Z" style="stroke-width:0px;"/><path d="m547.0538,80.2999v37.9928h-2.2267l-29.7819-32.2869v28.1119l6.8192,1.1133v2.6442h-17.6743v-2.6442l6.8192-1.1133v-32.4261l-1.8092-1.9484-5.0101-.5567v-2.6442h11.2726l27.4161,30.0603v-26.1636l-6.8192-1.1133v-2.6442h17.6743v2.6442l-6.6801.9742Z" style="stroke-width:0px;"/><path d="m616.4985,120.9369c-17.1176,0-29.9211-11.9684-29.9211-30.7561s12.5251-31.4519,31.1736-31.4519c5.5667-.1392,11.1334.835,16.2827,2.9225l1.2525-2.9225h3.0617l-.6958,17.396h-3.0617l-1.5309-7.5151c-4.5925-3.8967-8.9067-5.9842-16.8393-5.9842-11.5509,0-21.1535,9.8809-21.1535,26.1636,0,14.6126,7.9326,27.8336,22.1277,27.8336,7.3759,0,14.3343-3.0617,19.3443-8.4892l2.3659,3.0617c-5.7058,6.2626-13.9167,9.8809-22.406,9.7418Z" style="stroke-width:0px;"/><path d="m666.0423,120.9369c-12.6643,0-22.5452-8.7676-22.5452-21.8494-.1392-12.3859,9.8809-22.5452,22.2669-22.6844h.6958c12.6643,0,22.5452,8.7676,22.5452,21.8494.1392,12.3859-9.8809,22.5452-22.2669,22.6844-.2784,0-.4175,0-.6958,0Zm0-41.0545c-8.4892,0-14.6126,6.9584-14.6126,18.3702s6.68,19.2052,15.0301,19.2052,14.6126-6.9584,14.6126-18.3702-6.5409-19.2052-15.0301-19.2052Z" style="stroke-width:0px;"/><path d="m694.2933,119.406v-2.6442l6.9584-.835v-34.5136l-6.9584-.6958v-2.6442h20.736v2.6442l-6.9584.6958v34.5136h16.2827l1.3917-8.7676h3.2008v12.2468h-34.6528Z" style="stroke-width:0px;"/><path d="m737.0178,119.406v-2.6442l6.9584-.835v-34.5136l-6.9584-.6958v-2.6442h20.736v2.6442l-6.9584.6958v34.5136h16.2827l1.3917-8.7676h3.2008v12.2468h-34.6528Z" style="stroke-width:0px;"/><path d="m777.9332,119.406v-2.6442l6.9584-.835v-34.5136l-6.9584-.6958v-2.6442h34.3745v10.8551h-3.0617l-1.1133-7.3759h-16.561v14.4735h11.2726l.6958-4.5925h2.9225v12.6643h-2.9225l-.6958-4.5925h-11.2726v16.561h17.1176l1.2525-7.7934h3.2008v11.2726l-35.2095-.1392h0Z" style="stroke-width:0px;"/><path d="m863.5215,105.6284v10.7159c-5.4276,3.0617-11.4118,4.7317-17.6743,4.5925-13.0818,0-22.9627-8.9067-22.9627-21.9885s9.185-22.5452,23.6585-22.5452c4.5925,0,9.0459.6958,13.3601,2.3659l.835-2.3659h2.9225l-.5567,13.0818h-2.9225l-1.1133-5.7059c-3.8967-2.6442-8.4892-4.0359-13.2209-3.8967-8.7676,0-15.0301,6.9584-15.0301,18.3702s5.9842,19.3443,15.8652,19.3443c5.01,0,8.0717-1.1133,10.1592-2.6442v-9.1851l-7.5151-.835v-2.6442h17.2568v2.505l-3.0616.835Z" style="stroke-width:0px;"/><path d="m875.3507,119.406v-2.6442l6.9584-.835v-34.5136l-6.9584-.6958v-2.6442h34.3745v10.8551h-3.0617l-1.1133-7.3759h-16.561v14.4735h11.2726l.835-4.5925h2.9225v12.6643h-2.9225l-.835-4.5925h-11.2726v16.561h17.1176l1.2525-7.7934h3.2008v11.2726l-35.2095-.1392h0Z" style="stroke-width:0px;"/><path d="m45.2144,123.9986c-.1392-.1392-.2783-.1392-.4175,0h0l-4.8709,2.6442c-.1392.1392-.2783.2783-.2783.4175v12.6643c0,.1392.1392.2783.2783.4175h.5567l4.8709-2.6442c.1392-.1392.2783-.2783.2783-.4175v-12.6643c-.1392-.1392-.2783-.4175-.4175-.4175Zm-3.2009,14.056l-1.3917.6958v-11.5509l1.3917-.6958v11.5509Zm.9742-.5567v-11.4118l1.5308-.835v11.5509l-1.5308.6958Zm35.4878-70.9756c-.2783,0-.4175.1392-.6958.1392-.4175.1392-.835.2783-1.2525.5567l-.6958.6958c-.4175.4175-.9742.6958-1.3917.9742q-.1392.1392-.2783.1392v-.1392h0c0-.2783-.1392-.4175-.2783-.6958h0c0-.4175-.1392-2.3659-.1392-3.4792v-.5567c.1392-.2783.2783-.6958.2783-1.1133v-.1392c-.1392-.9742-.2783-1.8092-.4175-2.7834,0-.2783,0-.5567-.1392-.6958s-.1392-.4175-.2783-.4175h-.4175c-.2783.1392-.1392.2783-.2783.4175,0,.2783-.1392.4175-.1392.6958,0,.5567-.2783,2.2267-.2783,2.7834v.1392c0,.4175,0,.835.2783,1.1133v4.0359h0c0,.2783-.1392.4175-.1392.6958v.1392c0,.1392,0,.2783.1392.4175-.1392.1392-.2783.4175-.2783.6958,0,.5567.4175,1.1133,1.1133,1.1133h0c.4175,0,.835-.2783,1.1133-.6958.1392,0,.2783-.1392.4175-.1392l-.1392-.1392.1392.1392c.1392-.2783.1392-.4175.4175-.4175.2783-.1392.5567-.4175.835-.5567.1392-.1392.2783-.2783.4175-.2783l.1392-.1392h0c.2783,0,.5567-.1392.835-.4175.2783-.2783.5567-.6958.835-.9742s.4175-.4175.4175-.6958v-.1392c0-.2783-.1392-.2783-.1392-.2783Zm-9.1851,30.3386c2.3659.1392,4.4534,1.67,5.1492,4.0359.5567-2.0875,2.6442-3.4792,4.8709-3.0617-2.505-2.7834-6.8192-3.2009-10.0201-.9742Zm5.1492,2.0875c-.6958-.9742-1.5308-1.8092-2.505-2.3658.6958-.1392,1.2525-.2783,1.9484-.2783,1.1133,0,2.0875.2783,3.0617.835-.9742.4175-1.8092.9742-2.505,1.8092Zm-1.1133-43.0029h0c-.5567,0-.9742,0-1.5308.1392-6.2626.835-10.8551,6.2626-10.7159,12.5251h0c-.1392,6.2626,4.4534,11.6901,10.7159,12.5251.5567.1392.9742.1392,1.5308.1392h0c6.5409,0,11.6901-5.7059,11.6901-12.6643h0c0-6.9584-5.1492-12.6643-11.6901-12.6643Zm1.67,24.2152c-.5567.1392-1.1133.1392-1.67.1392h0c-5.8451,0-10.5768-5.1492-10.5768-11.5509h0c0-6.4017,4.8709-11.5509,10.5768-11.5509h.9742c5.1492,1.3917,8.6284,6.2626,8.4892,11.5509,0,5.4275-2.7834,9.8809-7.7934,11.4118Zm-29.7819,2.0875c-3.34-.2783-5.01-5.1492-5.01-11.4118h0c0-6.2626,2.2267-11.1334,5.1492-11.2726q.1392,0,.1392-.1392t-.1392-.1392c-.2783,0-.4175-.1392-.6958-.1392h0c-3.4792,0-6.1234,5.4275-6.1234,11.8293,0,7.6542,2.6442,11.8293,5.5667,11.9684h1.1133q.1392,0,.1392-.1392c0-.4175,0-.5567-.1392-.5567Zm23.5194,57.8938l11.5509,1.8092h.1392c.1392,0,.2783,0,.4175-.1392s.2783-.2783.2783-.5567v-11.6901c0-.2783-.1392-.5567-.4175-.6958h-.1392l-11.4118-1.8092c-.1392,0-.4175,0-.5567.1392-.1392.1392-.2783.2783-.2783.5567v11.6901c-.1392.4175,0,.6958.4175.6958Zm6.8192-10.5768l4.0359.5567v10.2984l-4.0359-.6958v-10.1593Zm-5.9842-.835l4.5925.6958v10.2984l-4.5925-.6958v-10.2984Zm12.9426-104.6542l-3.2009-3.2009v-.1392c.1392-.1392,0-.4175-.1392-.5567l-4.0359-4.0359h0c.1392-.1392,0-.4175-.1392-.5567l-2.7834-2.505c.1392-.1392.1392,0,.2783-.1392.1392-.1392.1392-.4175,0-.5567-.1392-.2783-5.9842-6.2626-5.9842-6.2626,0,0,.1392-.4175.2783-.6958,0-.2783,0-.5567-.1392-.835l-1.2525-.1392V.5567l-.2783-.1392c-.4175-.1392-.835-.2783-1.2525-.4175-.5567,0-.9742.1392-1.3917.4175l-.2783.1392v4.0359l-1.3917,1.2525v.1392l-7.0976,8.7676c-.1392.1392-.1392.2783-.1392.5567,0,.1392,0,.2783.1392.4175s.2783.2783.5567.2783c-.2783.2783-.5567.5567-.6958.835l-1.1133,1.3917h0l-3.2009,3.7575c-.1392.1392-.1392.2783,0,.2783q.1392.1392.2783.1392l-1.8092,2.2267C12.6491,34.792-7.5302,71.5323,2.629,106.7418c10.1593,35.2095,46.8996,55.3888,81.9699,45.2296,35.0703-10.1593,55.3888-46.8996,45.2296-81.9699-6.5409-22.6844-24.4936-40.0803-47.3171-45.9254Zm-8.7676-8.3501v.5567l4.0359,4.3142v.5567l3.7575,3.8967v.4175l4.0359,4.0359v.4175l4.175,4.4534.1392.4175,3.8967,4.175.1392.5567,3.8967,4.175v.4175l3.8967,4.175c-.4175,0-.835.2783-1.1133.5567l-31.8694-36.0445c.835.4175,1.67.6958,2.6442.835l2.3658,2.0875Zm8.7676,111.4735v17.8135l-16.1435-2.505v-17.6743l16.1435,2.3659Zm-10.1593-7.3759l4.175-1.5308s-.2783,4.5925-4.0359,5.845l-.1392-4.3142Zm2.0875,4.7317c1.9484-.6958,3.4792-2.3658,4.0359-4.3142l2.2267.2783v.1392l.1392,4.8709-6.4017-.9742Zm-7.6542-8.6284v-3.2009l21.0143,3.0617v3.0617l-21.0143-2.9225Zm16.1435-1.8092l-6.9584-.9742v-7.0976h.6958c.1392,0,.4175-.1392.4175-.2783v-.1392l.5567-2.0875v-.4175l-.2783-.2783-1.1133-.1392c.2783-1.3917,1.67-2.3658,3.2009-2.2267h.4175c2.9225.9742,2.7834,4.7317,2.7834,4.7317l.2783,8.9067Zm-2.7834-14.6126h-.6958c-2.0875-.1392-3.8967,1.2525-4.3142,3.2009l-1.3917-.1392c-.2783-2.2267-1.9484-3.8967-4.0359-4.175h-.6958c-1.2525,0-2.3659.4175-3.2009,1.2525v-.2783c1.2525-3.34,4.7317-5.4275,8.3501-5.01,3.34.4175,6.2626,2.6442,7.5151,5.7059-.2783-.4175-.835-.5567-1.5308-.5567Zm-3.4792,4.3142l-.2783,1.1133-3.8967-.4175-.1392-1.2525,4.3142.5567Zm-1.8092,2.0875v6.9584l-.6958-.1392-.1392-6.9584.835.1392Zm7.7934-7.6542c-1.1133-1.8092-2.6442-3.2009-4.4534-4.175l1.3917-2.505c2.3659,1.3917,4.175,3.2009,5.5667,5.5667l-2.505,1.1133Zm3.0617,0c.9742,1.8092,1.5308,3.8967,1.67,5.9842l-2.7834-.4175c-.1392-1.5308-.5567-3.0617-1.2525-4.4534l2.3659-1.1133Zm-8.6284-4.7317c-.835-.2783-1.8092-.5567-2.6442-.6958-1.1133-.1392-2.3659,0-3.4792.2783l-1.2525-2.7834c2.9225-.835,5.9842-.5567,8.7676.6958l-1.3917,2.505Zm-7.2367,0c-1.3917.5567-2.6442,1.5308-3.6184,2.7834l-2.6442-1.3917c1.2525-1.8092,3.0617-3.2009,5.1492-4.0359l1.1133,2.6442Zm-4.3142,3.6184c-.6958,1.1133-1.1133,2.3658-1.2525,3.7575l-2.7834-.4175c.1392-1.67.6958-3.34,1.5308-4.8709l2.505,1.5309Zm-.1392,5.9842c.2783-1.67.835-3.7575,3.4792-3.7575h.835c1.1133.5567,1.9484,1.5308,2.2267,2.7834h-.1392c-.1392,0-.2783,0-.2783.1392h-.1392l-.5567.4175c-.1392.1392-.1392.2783-.1392.4175l.4175,2.2267c0,.1392.1392.2783.2783.2783l.835.1392.1392,6.9584-6.2626-.9742h-.2783l-.4175.1392v-8.7676Zm.1392,9.8809v2.9225l-2.6442.9742v-2.9225l2.6442-.9742Zm1.5308,3.8967s-.2783,4.5925-4.0359,5.845v-4.3142l4.0359-1.5308Zm2.0875,2.0875l2.2267.2783h0l.1392,4.7317-5.5667-.835v-.4175c1.5308-.6958,2.7834-2.0875,3.2009-3.7575Zm-3.2009,24.7719l17.1176,2.6442v.1392c-5.5667,1.67-11.2726,2.505-17.1176,2.505v-5.2884Zm15.8651-18.3702v-4.3142l4.175-1.5308c-.1392,0-.4175,4.5925-4.175,5.845Zm2.2267.4175c2.3659-1.1133,4.0359-3.34,4.3142-5.9842.1392-.1392.1392-.2783.1392-.4175v-4.0359c0-.1392-.1392-.4175-.2783-.4175h-.1392l-3.34-.5567-.2783-9.3242v-.2783l4.0359.4175v-.4175c-.1392-2.9225-.9742-5.7059-2.3659-8.2109h0c-1.67-2.6442-3.8967-4.8709-6.6801-6.4017-1.5308-.6958-3.2009-1.2525-4.8709-1.3917-.9742-.1392-1.8092-.1392-2.7834,0-9.7418.5567-11.9684,9.4634-12.2468,10.0201s-.6958,2.0875-.2783,2.505,4.3142.5567,4.8709.6958h.1392c0,.2783-.1392.5567-.1392.9742v9.3242l-2.0875.835c-.1392.1392-.2783.2783-.2783.4175v3.8967h0v.2783l.1392,5.5667v.1392h.1392l1.5308-.2783c.2783,0,.5567-.1392.835-.2783v25.7461c-4.175-.1392-8.3501-.5567-12.5251-1.5308V48.0129c1.3917.1392,2.7834.2783,4.0359.6958.2783.1392.6958.2783.9742.5567,0,.1392.1392.2783.1392.4175v32.9828h0v.9742l32.8436,5.01v-33.6786h.2783c1.3917,0,2.9225.1392,4.3142.4175h0v86.1449c-3.34,1.8092-6.9584,3.34-10.5768,4.4534v-20.1793h.1392Zm-25.7461-43.5595v-31.4519l29.5036,5.01v31.0344l-29.5036-4.5925Zm29.0861-28.1119l-28.5294-5.01c0-1.8092-4.8709-2.3659-6.8192-2.6442h0s-3.7575,1.67-3.2009,3.7575l-11.9684,7.7934s-1.67-1.2525-6.2626,2.2267v-1.3917l.1392-.1392h-.2783c-.2783,0-.6958,0-.9742-.1392h-.1392q-.5567-.2783-.835-1.1133v-.1392l.9742-.5567q0,.1392.1392.2783c.1392.4175.4175.6958.835.835.4175.1392.835.1392,1.2525.1392,1.3917-.9742,3.7575-2.2267,5.1492-1.67l11.9684-7.6542s-.4175-1.2525,1.3917-2.7834h-.1392c-.835.1392-1.67-.1392-2.0875-.835-.1392-.1392-.1392-.4175-.1392-.5567l.9742-.5567c0,.2783.1392.4175.2783.5567.2783.5567,1.67.5567,2.3659.5567.2783-.1392.4175-.2783.6958-.4175h0s1.2525.1392,1.8092.1392c.4175-.2783.9742-.6958.9742-1.1133v-1.1133l2.3659.4175v.9742c0,.6958-.2783.835-.835,1.2525,3.2009.835,3.0617,2.0875,3.0617,2.0875l28.1119,4.8709c1.2525-.6958,3.7575-.5567,5.9842-.4175.4175-.2783.835-.5567.835-1.1133v-1.1133l2.3658.4175v.9742c0,.6958-.2783.835-.6958,1.1133.4175.1392.6958.1392,1.1133.1392v1.5308c-9.0459-.9742-9.8809.4175-9.8809.4175Zm-48.7088,87.8149v-15.726l7.5151-4.175v16.0043l-7.5151,3.8967Zm7.5151-2.7834v6.6801c-2.505-.835-4.8709-1.8092-7.2367-3.0617l7.2367-3.6184Zm-11.8293-18.7877v-2.6442l8.0717-4.175v2.7834l-8.0717,4.0359Zm2.9225,1.67v2.9225c-2.3659-.4175-2.505-1.8092-2.505-2.7834v-.2783l2.505.1392Zm2.7834-22.9627c.4175-.9742.9742-1.67,1.5308-1.67h.5567c.9742,0,1.9483,1.67,2.3659,3.7575,0,.1392,0,.2783.1392.4175-.1392-.1392-.4175-.1392-.6958-.1392h-.4175c-1.2525.4175-1.5308,1.8092-1.67,3.0617h0c-.2783-.835-.835-1.8092-1.8092-1.8092h-.4175c-.1392,0-.2783.1392-.4175.1392.1392-1.2525.4175-2.505.835-3.7575Zm-.5567-2.505c.4175-.9742,1.1133-1.67,2.0875-2.0875.835-.2783,1.67,0,2.0875.6958l-.5567,1.2525c-1.1133-.5567-2.505-.2783-3.2009.6958l-.4175-.5567Zm5.7059,3.4792c-.2783-1.1133-.6958-2.0875-1.3917-2.9225l.5567-1.1133c.5567,1.2525,1.1133,2.505,1.3917,3.7575l-.5567.2783Zm.6958.6958c.2783,1.3917.4175,2.9225.5567,4.3142l-.4175.1392c-.1392-1.3917-.2783-2.7834-.5567-4.175l.4175-.2783Zm-2.6442,17.1176v-.2783h2.9225v3.34c-2.6442-.5567-2.7834-2.0875-2.9225-3.0617Zm1.8092,3.7575l-2.6442,1.5308v-3.4792l.2783-.1392c.5567,1.1133,1.3917,1.8092,2.3659,2.0875Zm-1.8092-9.3243h-.4175v-5.2884s0-3.6184.9742-4.7317c.2783,0,.5567.4175.6958,1.1133.1392.5567.2783,1.2525.2783,1.8092v.6958h0v6.2626l-1.5308.1392h0Zm-2.2267-5.01v5.9842l-1.9483.9742v-6.1234c0-1.5308.2783-3.2009.835-4.5925.2783.1392.4175.4175.6958.9742.2783.9742.4175,1.8092.4175,2.7834Zm-2.9225-6.1234c.1392-1.2525.5567-2.505.9742-3.6184l.2783.4175c-.4175,1.1133-.835,2.0875-1.2525,3.2009Zm3.34,18.5093v3.34c-1.67,0-2.9225-1.3917-2.9225-3.0617v-.2783h2.9225Zm-3.2009,5.5667v-2.7834c.6958.835,1.5308,1.2525,2.505,1.5308l-2.505,1.2525Zm5.4275-9.0459v-2.9225h2.6442v2.9225h-2.6442Zm2.2267-3.8967v-5.7059l2.2267-.6958q.1392,0,.1392-.1392h0c-.6958-9.0459-3.2009-11.5509-4.8709-12.2468-.1392,0-.9742-.1392-1.2525-.1392s-.5567,0-.835.1392c-4.7317,1.5308-4.7317,10.8551-4.8709,14.1951v1.1133h0c0,.1392.1392.4175.2783.4175s.1392.1392.2783.1392.1392,0,.2783-.1392h.1392v5.9842l-3.6184,1.9484c-.1392.1392-.2783.2783-.2783.4175v3.7575c0,.1392.1392.2783.2783.4175h.1392v.4175c0,2.0875,1.67,3.7575,3.7575,3.7575v16.1435c-1.5308-.835-3.0617-1.67-4.4534-2.6442V60.2597s1.9483-1.5308,2.9225-.835v31.4519h0l-.9742,1.5308q-.1392.1392,0,.2783h0c.1392.1392.5567-.1392.5567-.1392l13.2209-6.8192s-.1392-33.2611-.1392-33.5395c0-1.2525,1.8092-2.6442,1.8092-2.6442v97.4175l-3.0617-.835-.1392-33.4003c0-.1392,0-.2783-.1392-.2783q-.1392-.1392-.2783-.1392s-1.1133,0-1.1133,0Zm-8.9067-21.8494v-30.4778l10.7159-6.6801v31.5911l-10.7159,5.5667Zm-14.3343,13.6385c-2.0875-1.8092-4.4534-3.2009-6.9584-4.175-.835-.1392-.6958-.2783-2.505-.5567,1.1133-.5567,2.3659-.835,3.6184-.9742h.2783c2.7834,0,10.0201,1.9484,14.6126,3.34v36.8795c-3.0617-2.0875-5.9842-4.5925-8.6284-7.2367-8.6284-8.6284-14.4735-19.6227-16.7001-31.7303,1.67.2783,2.3659.4175,2.3659.4175l1.5308.2783c.835.2783,1.8092.4175,2.6442.5567,1.9483.5567,3.7575,1.2525,5.5667,2.2267.9742.4175,1.8092.9742,2.505,1.2525s.9742.5567,1.3917.5567q.1392,0,.2783-.1392c.1392-.1392.2783-.2783.2783-.4175s-.2783-.1392-.2783-.2783Zm4.5925-5.0101c-4.3142-.835-7.5151-2.2267-10.2984-2.2267h-.6958c-1.9483.4175-3.7575,1.1133-5.4275,2.0875-.6958-.1392-2.505-.4175-4.7317-.6958-.5567-3.2009-.6958-6.4017-.6958-9.6026,0-16.0043,6.4017-31.4519,17.6743-42.8637,5.2884-5.2884,11.4118-9.4634,18.231-12.5251v.5567l-3.7575,4.4534q-.1392.1392,0,.2783.1392,0,.1392.1392h0l-4.175,5.01c0,.1392-.1392.2783,0,.4175l.1392.1392-4.4534,5.1492q-.1392.1392,0,.2783,0,.1392.1392.1392l-4.175,4.8709c-.1392.2783-.2783.6958-.2783.9742,0,.5567.2783,1.2525.835,1.5308.4175.2783.835.5567,1.3917.5567h0c.2783.1392.5567.2783.835.2783v2.0875h1.8092v1.3917h2.0875v38.6887c-1.5308-.4175-3.0617-.835-4.5925-1.1133Zm-.5567-43.4204c.2783.2783.5567.5567.5567.9742q0,.1392-.1392.2783-.1392.1392-.4175.1392c-.2783,0-.5567-.1392-.835-.2783-.2783-.2783-.5567-.5567-.5567-.9742q0-.1392.1392-.2783.1392-.1392.4175-.1392h0c.2783-.1392.5567,0,.835.2783Zm64.0172-8.3501c-1.1133-.5567-2.3659-.5567-3.4792-.1392l-5.7059-17.6743,5.5667,6.4017,3.6184,11.4118Zm-1.9483-9.3242l5.2884,6.1234,1.3917,3.8967c-1.1133-.5567-2.2267-.5567-3.34-.1392l-3.34-9.8809Zm-.5567,10.9943l2.3658.4175v.9742c0,.4175-.2783.9742-.6958,1.1133l-2.3659-.4175c.4175-.2783.6958-.5567.6958-.9742.1392-.2783.1392-.6958,0-1.1133Zm-2.505-2.505c-1.1133-.4175-2.3659-.5567-3.4792-.1392l-8.0717-24.911,5.4275,6.1234,6.1234,18.9268Zm-3.0617,1.3917l2.2267.4175v.9742c0,.6958-.2783.835-.6958,1.1133l-2.3659-.4175c.4175-.1392.5567-.5567.6958-.9742.1392-.2783.1392-.6958.1392-1.1133Zm-1.67-2.2267c-1.1133-.5567-2.3659-.6958-3.6184-.2783l-10.5768-32.4261,5.5667,6.2626,8.6284,26.4419Zm-4.175,1.2525l2.3659.4175v.9742c0,.6958-.2783.835-.6958,1.1133l-2.3659-.4175c.4175-.2783.6958-.5567.6958-.9742v-1.1133Zm-.6958-2.2267c-1.1133-.4175-2.3659-.4175-3.4792-.1392l-10.2984-31.5911.6958-1.67.2783-.2783c.6958.5567,1.3917.9742,2.2267,1.2525l10.5768,32.4261Zm-4.8709,1.2525l2.2267.4175v.9742c0,.6958-.2783.835-.835,1.2525l-2.3659-.4175c.4175-.2783.835-.5567.835-1.1133.2783-.2783.2783-.6958.1392-1.1133Zm.1392-1.8092c-1.1133-.6958-2.6442-.835-3.8967-.4175l-7.7934-23.9369,2.0875-5.2884,9.6026,29.6428Zm-17.1176-10.9943l2.2267-5.4275,4.5925,14.6126c-1.1133-.6958-2.6442-.835-3.8967-.4175l-2.9225-8.7676Zm1.5308,8.2109c-1.1133-.6958-2.6442-.835-3.8967-.4175l-.4175-1.1133,2.0875-5.01,2.2267,6.5409Zm4.3142,3.6184v-1.1133l2.3659.2783v.9742c0,.6958-.2783.9742-.9742,1.2525l-2.3659-.4175c.5567-.1392.9742-.4175.9742-.9742Zm2.2267-2.0875l-5.2884-16.4218,2.2267-5.5667,7.0976,22.406c-1.1133-.6958-2.6442-.835-4.0359-.4175Zm3.34,3.0617v-1.1133l2.3659.4175v.9742c0,.5567-.2783,1.1133-.835,1.2525l-2.3659-.4175c.4175-.2783.835-.5567.835-1.1133Zm-15.726-5.1492l-.5567-.1392,12.1076-28.9469h.5567l-12.1076,29.0861Zm.835,1.5308v.1392c0,.2783-.4175.4175-.835.4175-.1392,0-.2783,0-.4175-.1392-.5567-.1392-.9742-.6958-.835-.9742v-.1392c.1392-.2783.5567-.4175.835-.4175.1392,0,.2783,0,.4175.1392.4175.2783.835.6958.835.9742Zm-2.505-1.5308c-2.2267.1392-2.6442,2.6442-2.6442,2.6442-.6958-.1392-1.5308,0-2.2267.2783l12.3859-25.0502,3.4792-4.8709-10.9943,26.9986Zm-1.1133,7.5151l-.9742.6958c-.5567-.2783-1.5308-.6958-1.67-1.2525,0-.2783-.1392-.5567-.2783-.6958l.9742-.5567c0,.2783.1392.5567.2783.835.5567.5567,1.1133.835,1.67.9742Zm-3.34,2.2267l-.9742.6958c-.5567-.2783-1.8092-.6958-1.9483-1.3917,0-.1392-.1392-.2783-.1392-.4175l.9742-.5567c0,.1392.1392.4175.1392.5567.1392.4175,1.67.9742,1.9483,1.1133Zm-2.9225-3.7575c-1.1133,0-2.2267.4175-3.0617.9742l7.3759-14.6126,7.3759-10.1593-11.6901,23.7977Zm-.2783,5.8451l-.9742.6958c-.5567-.2783-1.67-.6958-1.9483-1.3917,0-.1392-.1392-.2783-.1392-.5567l.9742-.5567c0,.1392.1392.4175.1392.5567.5567.5567,1.2525,1.1133,1.9483,1.2525Zm-5.2884-1.67c-1.3917-.1392-2.6442.2783-3.7575.9742l10.5768-14.4735-6.8192,13.4993Zm1.9483,3.7575l-.9742.6958c-.5567-.2783-1.5308-.6958-1.8092-1.2525,0-.1392-.1392-.4175-.1392-.5567l.9742-.5567c0,.2783.1392.4175.2783.6958s1.2525.835,1.67.9742Zm-3.8967,1.2525l-.9742.6958q-.4175-.1392-.6958-.835c0-.1392-.1392-.2783-.1392-.4175l.835-.5567q0,.1392.1392.2783c.2783.4175.5567.6958.835.835Zm62.6255-9.7418l2.2267,2.505c-.4175,0-.9742.1392-1.3917.2783l-.835-2.7834Zm.5567,53.4405c.9742-.2783,2.0875-.4175,3.2009-.4175h1.1133c2.9225.4175,5.845,1.2525,8.4892,2.505,1.67.5567,3.8967.9742,4.8709,1.2525.9742.2783,4.4534,1.3917,5.4275,1.3917h.2783c.1392,0,.2783-.2783.2783-.4175s0-.2783-.1392-.2783c-.5567-.6958-1.3917-.9742-3.0617-1.3917-.6958-.1392-.6958-.2783-1.9484-.5567,1.1133-.2783,2.3658-.5567,3.4792-.6958.9742-.1392,2.0875-.1392,3.0617-.1392,1.1133,0,2.3658.1392,3.4792.2783-2.3658,11.5509-8.2109,22.2669-16.561,30.6169-3.6184,3.6184-7.6542,6.8192-12.1076,9.3242l.1392-41.472h0Zm27.1377-.835c-1.9484,0-3.8967.1392-5.845.4175-1.9484.2783-3.8967.835-5.845,1.5308-1.2525-.2783-7.3759-3.34-11.5509-3.34h-.5567c-.9742.1392-2.7834.5567-2.9225.5567s-.2783,0-.4175.1392v-42.0287l.6958.1392v-1.1133l.6958-.6958v-1.2525c.4175-.2783.6958-.6958.6958-1.1133l1.5308-1.1133h.1392c.1392,0,.2783.1392.4175.1392h0c.5567,0,1.1133-.2783,1.5308-.5567h0l.2783-.2783c.5567-.4175.835-.9742.9742-1.5308v-.2783c0-.1392,0-.2783-.1392-.2783l-3.7575-3.8967.1392-.1392c.1392-.1392,0-.4175-.1392-.5567l-4.0359-4.175.1392-.1392c.1392-.1392,0-.4175-.1392-.5567l-3.8967-4.0359h0c.1392-.1392,0-.4175-.1392-.5567l-.6958-.6958c21.8494,9.7418,35.9053,31.4519,35.7661,55.2496,0,3.4792-.2783,6.9584-.835,10.2984-.5567-.1392-1.2525-.1392-2.0875-.1392Zm-22.5452-49.6829c.4175-.4175.9742-.5567,1.1133-.4175s0,.6958-.4175,1.1133c-.2783.2783-.6958.4175-1.1133.2783-.2783-.2783,0-.5567.4175-.9742ZM64.1412.835c.1392,0,.4175,0,.5567.1392v3.2009h-.5567V.835Zm-.5567,3.8967h0l2.505.4175c0,.1392-.1392.2783-.1392.4175l-.1392.1392-2.0875-.2783c0-.1392-.1392-.4175-.1392-.6958Zm-.4175,1.8092l2.3659.2783,5.2884,5.5667c-.5567-.1392-.9742-.4175-1.3917-.6958-.6958-.4175-1.2525-.835-1.2525-.835l-.2783-.2783-.2783.4175c-.2783.4175-.4175.5567-.835.5567-.6958-.1392-1.3917-.4175-1.9484-.6958-.2783-.2783-.6958-.5567-.9742-.835l-.4175-.2783-.2783.4175c-.2783.4175-.6958.6958-1.2525.6958-.2783,0-.6958-.1392-.835-.1392h0l2.0875-4.175Zm-2.505,1.2525l1.5308-1.1133-1.8092,3.6184s-.6958.6958-.6958-.2783c0,0-4.3142,6.1234-4.4534,4.175l5.4275-6.4017Zm-14.891,21.0143l3.7575-4.5925v-.4175l4.0359-4.8709.1392-.4175,5.2884-6.2626c.2783-.1392.4175-.2783.6958-.2783h0v.1392l-31.7303,43.2812-.9742-.9742,3.2009-4.0359v-.4175l3.7575-4.5925.1392-.5567,4.0359-5.01v-.4175l3.8967-4.8709.1392-.4175,3.7575-4.7317-.1392-.5567Zm65.2697,104.9326c-24.9111,24.9111-65.2697,24.9111-90.1808,0-24.9111-24.9111-24.7719-65.2697,0-90.1808,6.8192-6.8192,15.1693-12.1076,24.3544-15.1693l-2.3659,2.9225C11.1183,44.1162-4.1902,80.1607,8.6133,111.891c6.5409,16.2826,19.6227,28.9469,36.1836,35.0703,6.8192,2.505,14.056,3.7575,21.2927,3.7575h0c26.0244,0,49.2654-16.2826,58.1722-40.637,2.505-6.8192,3.7575-14.056,3.7575-21.2927,0-25.6069-15.8651-48.5696-39.802-57.7547l-.835-.835.1392-.1392c.1392-.1392,0-.4175-.1392-.5567l-1.3917-1.2525c33.4003,10.9943,51.4921,47.0387,40.4978,80.439-3.0617,9.4634-8.3501,18.0918-15.4476,25.0502ZM46.4669,69.5839c-.1392,0-.2783.1392-.4175.1392s-.5567.2783-.6958.5567-.2783.5567-.4175.6958l-.835.835-.1392.1392h0c0-.2783-.1392-.4175-.1392-.6958h0v-3.7575c0-.2783.1392-.5567.1392-1.1133v-.1392c0-.5567-.1392-2.2267-.1392-2.6442v-.6958c0-.1392,0-.4175-.1392-.4175h0c-.1392.1392-.1392.2783-.1392.4175v.6958c0,.5567-.1392,2.0875-.1392,2.6442v.1392c0,.4175.1392.835.1392,1.1133v3.7575h0c0,.2783-.1392.2783-.1392.6958v.5567c-.1392.1392-.1392.4175-.1392.5567,0,.5567.2783,1.1133.6958,1.1133.2783,0,.5567-.4175.5567-.6958q.1392,0,.1392-.1392l-.1392-.1392.1392.1392q.1392-.2783.1392-.4175c.1392-.1392.2783-.2783.4175-.5567.1392-.1392.1392-.2783.2783-.2783q0-.1392.1392-.1392h0c.1392,0,.2783-.1392.5567-.2783.1392-.2783.2783-.5567.5567-.835.1392-.2783.2783-.4175.2783-.6958v-.1392c-.4175-.4175-.5567-.4175-.5567-.4175Z" style="stroke-width:0px;"/></g></g></svg>