<svg width="186" height="52" viewBox="0 0 186 52" fill="none" xmlns="http://www.w3.org/2000/svg">
<g clip-path="url(#clip0_447_478)">
<path d="M25.85 51.74C40.1376 51.74 51.72 40.1576 51.72 25.87C51.72 11.5824 40.1376 0 25.85 0C11.5624 0 -0.0200195 11.5824 -0.0200195 25.87C-0.0200195 40.1576 11.5624 51.74 25.85 51.74Z" fill="#3453FB"/>
<path d="M36.63 14.76V16.95H32.74V22.88H36.63V25.07H26.54V22.88H30.41V16.95H26.54V14.76H36.63Z" fill="white"/>
<path d="M31.6701 40.5901C29.6301 40.5901 27.9401 39.9201 26.6001 38.5901C25.2401 37.2301 24.5601 35.5701 24.5601 33.5901C24.5601 31.6101 25.2401 29.9501 26.6001 28.6101C27.9401 27.2601 29.6401 26.5901 31.6701 26.5901C33.3901 26.5901 34.8901 27.0901 36.1601 28.0801C37.4301 29.0701 38.2401 30.3601 38.6101 31.9401H36.1201C35.8101 31.0001 35.2501 30.2501 34.4501 29.6901C33.6501 29.1301 32.7201 28.8501 31.6801 28.8501C30.3501 28.8501 29.2301 29.3101 28.3301 30.2201C27.4301 31.1201 26.9801 32.2401 26.9801 33.5901C26.9801 34.9401 27.4301 36.0701 28.3301 36.9801C29.2301 37.8801 30.3501 38.3301 31.6801 38.3301C32.7201 38.3301 33.6501 38.0501 34.4501 37.4901C35.2501 36.9301 35.8101 36.1801 36.1201 35.2401H38.6101C38.2401 36.8201 37.4301 38.1101 36.1601 39.1001C34.8901 40.0901 33.4001 40.5901 31.6701 40.5901Z" fill="white"/>
<path d="M13.0898 25.0801V23.4301C13.0898 22.4801 13.2498 21.6801 13.5598 21.0501C13.8698 20.4201 14.3298 19.8901 14.9198 19.4801C15.5098 19.0701 16.2398 18.7301 17.0998 18.4701L18.4098 18.0601C18.8898 17.9001 19.2998 17.7101 19.6198 17.4801C19.9498 17.2501 20.1998 16.9701 20.3698 16.6501C20.5498 16.3201 20.6298 15.9501 20.6298 15.5301V15.4501C20.6298 14.8001 20.4098 14.2801 19.9598 13.8901C19.5198 13.5001 18.9098 13.3101 18.1398 13.3101C17.3698 13.3101 16.7698 13.5201 16.3098 13.9301C15.8498 14.3401 15.6098 14.9301 15.6098 15.7001V16.0501H13.0998V15.7401C13.0998 14.7501 13.3198 13.9101 13.7698 13.2101C14.2098 12.5201 14.8198 11.9901 15.5798 11.6201C16.3398 11.2501 17.1998 11.0701 18.1398 11.0701C19.0798 11.0701 19.9298 11.2501 20.6898 11.6101C21.4498 11.9701 22.0398 12.4701 22.4798 13.1201C22.9198 13.7701 23.1398 14.5301 23.1398 15.4001V15.6001C23.1398 16.4801 22.9598 17.2201 22.5998 17.8201C22.2398 18.4301 21.7498 18.9201 21.1398 19.3101C20.5298 19.7001 19.8298 20.0101 19.0398 20.2601L17.7898 20.6501C17.2298 20.8201 16.7898 21.0101 16.4798 21.2101C16.1698 21.4101 15.9498 21.6301 15.8198 21.8801C15.6998 22.1201 15.6298 22.4101 15.6298 22.7501V22.8301H23.0198V25.0601H13.0698L13.0898 25.0801Z" fill="white"/>
<path d="M13.0898 40.3501V38.7001C13.0898 37.7501 13.2498 36.9501 13.5598 36.3201C13.8698 35.6901 14.3298 35.1601 14.9198 34.7501C15.5098 34.3401 16.2398 34.0001 17.0998 33.7401L18.4098 33.3301C18.8898 33.1701 19.2998 32.9801 19.6198 32.7501C19.9498 32.5201 20.1998 32.2401 20.3698 31.9201C20.5498 31.5901 20.6298 31.2201 20.6298 30.8001V30.7201C20.6298 30.0701 20.4098 29.5501 19.9598 29.1601C19.5198 28.7701 18.9098 28.5801 18.1398 28.5801C17.3698 28.5801 16.7698 28.7901 16.3098 29.2001C15.8498 29.6101 15.6098 30.2001 15.6098 30.9701V31.3201H13.0998V31.0101C13.0998 30.0201 13.3198 29.1801 13.7698 28.4801C14.2098 27.7901 14.8198 27.2601 15.5798 26.8901C16.3398 26.5201 17.1998 26.3401 18.1398 26.3401C19.0798 26.3401 19.9298 26.5201 20.6898 26.8801C21.4498 27.2401 22.0398 27.7401 22.4798 28.3901C22.9198 29.0401 23.1398 29.8001 23.1398 30.6701V30.8701C23.1398 31.7501 22.9598 32.4901 22.5998 33.0901C22.2398 33.7001 21.7498 34.1901 21.1398 34.5801C20.5298 34.9701 19.8298 35.2801 19.0398 35.5301L17.7898 35.9201C17.2298 36.0901 16.7898 36.2801 16.4798 36.4801C16.1698 36.6801 15.9498 36.9001 15.8198 37.1501C15.6998 37.3901 15.6298 37.6801 15.6298 38.0201V38.1001H23.0198V40.3301H13.0698L13.0898 40.3501Z" fill="white"/>
<path d="M33.4598 11.1602L30.3198 13.7702V11.0302L33.4598 8.42017V11.1602Z" fill="white"/>
<path d="M65.7299 12.9102V14.1502H63.6899V20.5802H62.1499V14.1502H60.1099V12.9102H65.7299Z" fill="#3453FB"/>
<path d="M71.4998 14.71C71.8598 14.91 72.1398 15.21 72.3398 15.6C72.5398 15.99 72.6398 16.46 72.6398 17.01V20.58H71.0998V17.2199C71.0998 16.7399 70.9798 16.37 70.7398 16.1C70.4998 15.84 70.1698 15.71 69.7498 15.71C69.3298 15.71 68.9898 15.84 68.7498 16.1C68.4998 16.36 68.3798 16.7299 68.3798 17.2199V20.58H66.8398V12.45H68.3798V15.25C68.5798 14.99 68.8398 14.78 69.1698 14.63C69.4998 14.48 69.8698 14.4 70.2698 14.4C70.7298 14.4 71.1398 14.5 71.4998 14.7V14.71Z" fill="#3453FB"/>
<path d="M79.72 18.0001H75.27C75.31 18.4401 75.46 18.7801 75.73 19.0301C76 19.2801 76.33 19.4001 76.73 19.4001C77.3 19.4001 77.71 19.1501 77.95 18.6601H79.61C79.43 19.2501 79.1 19.7301 78.6 20.1001C78.1 20.4801 77.49 20.6701 76.77 20.6701C76.18 20.6701 75.66 20.5401 75.19 20.2801C74.73 20.0201 74.36 19.6501 74.1 19.1801C73.84 18.7001 73.71 18.1501 73.71 17.5301C73.71 16.9101 73.84 16.3501 74.09 15.8701C74.35 15.3901 74.71 15.0301 75.17 14.7701C75.63 14.5101 76.16 14.3901 76.76 14.3901C77.36 14.3901 77.86 14.5101 78.31 14.7601C78.77 15.0101 79.12 15.3601 79.38 15.8201C79.63 16.2801 79.76 16.8001 79.76 17.4001C79.76 17.6201 79.75 17.8201 79.72 17.9901V18.0001ZM78.17 16.9701C78.17 16.5701 78.02 16.2601 77.74 16.0201C77.46 15.7801 77.12 15.6601 76.72 15.6601C76.34 15.6601 76.02 15.7801 75.76 16.0101C75.5 16.2401 75.34 16.5601 75.28 16.9701H78.17Z" fill="#3453FB"/>
<path d="M85.04 12.9102V20.5802H83.5V12.9102H85.04Z" fill="#3453FB"/>
<path d="M91.6901 15.0899C92.1401 15.5499 92.3601 16.1899 92.3601 17.0099V20.5799H90.8201V17.2199C90.8201 16.7399 90.7001 16.3699 90.4601 16.0999C90.2201 15.8399 89.8901 15.7099 89.4701 15.7099C89.0501 15.7099 88.7101 15.8399 88.4701 16.0999C88.2201 16.3599 88.1001 16.7299 88.1001 17.2199V20.5799H86.5601V14.4899H88.1001V15.2499C88.3101 14.9899 88.5701 14.7799 88.8901 14.6299C89.2101 14.4799 89.5601 14.3999 89.9401 14.3999C90.6601 14.3999 91.2501 14.6299 91.7001 15.0899H91.6901Z" fill="#3453FB"/>
<path d="M95.6101 15.76V18.7C95.6101 18.91 95.6601 19.05 95.7601 19.14C95.8601 19.23 96.0301 19.28 96.2601 19.28H96.9701V20.58H96.0001C94.7001 20.58 94.0601 19.95 94.0601 18.69V15.76H93.3301V14.5H94.0601V13H95.6101V14.5H96.9701V15.76H95.6101Z" fill="#3453FB"/>
<path d="M103.69 18.0001H99.2402C99.2802 18.4401 99.4302 18.7801 99.7002 19.0301C99.9702 19.2801 100.3 19.4001 100.7 19.4001C101.27 19.4001 101.68 19.1501 101.92 18.6601H103.58C103.4 19.2501 103.07 19.7301 102.57 20.1001C102.07 20.4801 101.46 20.6701 100.74 20.6701C100.15 20.6701 99.6302 20.5401 99.1602 20.2801C98.7002 20.0201 98.3302 19.6501 98.0702 19.1801C97.8102 18.7001 97.6802 18.1501 97.6802 17.5301C97.6802 16.9101 97.8102 16.3501 98.0602 15.8701C98.3202 15.3901 98.6802 15.0301 99.1402 14.7701C99.6002 14.5101 100.13 14.3901 100.73 14.3901C101.33 14.3901 101.83 14.5101 102.28 14.7601C102.74 15.0101 103.09 15.3601 103.35 15.8201C103.6 16.2801 103.73 16.8001 103.73 17.4001C103.73 17.6201 103.72 17.8201 103.69 17.9901V18.0001ZM102.14 16.9701C102.14 16.5701 101.99 16.2601 101.71 16.0201C101.43 15.7801 101.09 15.6601 100.69 15.6601C100.31 15.6601 99.9902 15.7801 99.7302 16.0101C99.4702 16.2401 99.3102 16.5601 99.2502 16.9701H102.14Z" fill="#3453FB"/>
<path d="M107.17 14.6802C107.49 14.5002 107.85 14.4102 108.26 14.4102V16.0302H107.85C107.37 16.0302 107 16.1402 106.76 16.3702C106.52 16.6002 106.39 16.9902 106.39 17.5602V20.5902H104.85V14.5002H106.39V15.4402C106.59 15.1202 106.85 14.8702 107.16 14.6802H107.17Z" fill="#3453FB"/>
<path d="M114.43 15.0899C114.88 15.5499 115.1 16.1899 115.1 17.0099V20.5799H113.56V17.2199C113.56 16.7399 113.44 16.3699 113.2 16.0999C112.96 15.8399 112.63 15.7099 112.21 15.7099C111.79 15.7099 111.45 15.8399 111.21 16.0999C110.96 16.3599 110.84 16.7299 110.84 17.2199V20.5799H109.3V14.4899H110.84V15.2499C111.05 14.9899 111.31 14.7799 111.63 14.6299C111.95 14.4799 112.3 14.3999 112.68 14.3999C113.4 14.3999 113.99 14.6299 114.44 15.0899H114.43Z" fill="#3453FB"/>
<path d="M116.53 15.8799C116.78 15.3999 117.11 15.0399 117.53 14.7799C117.95 14.5199 118.42 14.3999 118.94 14.3999C119.39 14.3999 119.79 14.4899 120.13 14.6699C120.47 14.8499 120.74 15.0799 120.95 15.3599V14.4899H122.5V20.5799H120.95V19.6899C120.75 19.9799 120.48 20.2099 120.13 20.3999C119.78 20.5899 119.38 20.6799 118.93 20.6799C118.42 20.6799 117.95 20.5499 117.53 20.2799C117.11 20.0199 116.78 19.6399 116.53 19.1599C116.28 18.6799 116.16 18.1299 116.16 17.5099C116.16 16.8899 116.28 16.3499 116.53 15.8699V15.8799ZM120.73 16.5799C120.58 16.3099 120.39 16.1099 120.14 15.9599C119.89 15.8199 119.62 15.7499 119.34 15.7499C119.06 15.7499 118.79 15.8199 118.55 15.9599C118.31 16.0999 118.11 16.2999 117.96 16.5699C117.81 16.8399 117.73 17.1499 117.73 17.5199C117.73 17.8899 117.81 18.2099 117.96 18.4799C118.11 18.7499 118.31 18.9699 118.55 19.1099C118.79 19.2499 119.06 19.3299 119.34 19.3299C119.62 19.3299 119.89 19.2599 120.14 19.1199C120.39 18.9799 120.59 18.7699 120.73 18.4999C120.88 18.2299 120.95 17.9099 120.95 17.5399C120.95 17.1699 120.88 16.8499 120.73 16.5799Z" fill="#3453FB"/>
<path d="M125.8 15.76V18.7C125.8 18.91 125.85 19.05 125.95 19.14C126.05 19.23 126.22 19.28 126.45 19.28H127.16V20.58H126.19C124.89 20.58 124.25 19.95 124.25 18.69V15.76H123.52V14.5H124.25V13H125.8V14.5H127.16V15.76H125.8Z" fill="#3453FB"/>
<path d="M128.37 13.51C128.19 13.34 128.1 13.12 128.1 12.87C128.1 12.62 128.19 12.4 128.37 12.23C128.55 12.06 128.77 11.97 129.05 11.97C129.33 11.97 129.55 12.06 129.73 12.23C129.91 12.4 130 12.62 130 12.87C130 13.12 129.91 13.34 129.73 13.51C129.55 13.68 129.32 13.77 129.05 13.77C128.78 13.77 128.55 13.68 128.37 13.51ZM129.8 14.49V20.58H128.26V14.49H129.8Z" fill="#3453FB"/>
<path d="M132.44 20.2899C131.97 20.0299 131.6 19.6599 131.34 19.1899C131.08 18.7199 130.94 18.1599 130.94 17.5399C130.94 16.9199 131.08 16.3699 131.35 15.8899C131.63 15.4099 132 15.0499 132.48 14.7899C132.96 14.5299 133.49 14.3999 134.07 14.3999C134.65 14.3999 135.19 14.5299 135.66 14.7899C136.14 15.0499 136.51 15.4199 136.79 15.8899C137.06 16.3699 137.2 16.9199 137.2 17.5399C137.2 18.1599 137.06 18.7099 136.78 19.1899C136.5 19.6699 136.12 20.0299 135.64 20.2899C135.16 20.5499 134.62 20.6799 134.03 20.6799C133.44 20.6799 132.92 20.5499 132.45 20.2899H132.44ZM134.81 19.1399C135.06 18.9999 135.25 18.7999 135.4 18.5299C135.55 18.2599 135.62 17.9299 135.62 17.5399C135.62 16.9599 135.47 16.5199 135.16 16.2099C134.86 15.8999 134.48 15.7399 134.04 15.7399C133.6 15.7399 133.23 15.8999 132.94 16.2099C132.64 16.5199 132.49 16.9699 132.49 17.5399C132.49 18.1099 132.63 18.5599 132.92 18.8699C133.21 19.1799 133.57 19.3399 134.01 19.3399C134.29 19.3399 134.55 19.2699 134.8 19.1399H134.81Z" fill="#3453FB"/>
<path d="M143.46 15.0899C143.91 15.5499 144.13 16.1899 144.13 17.0099V20.5799H142.59V17.2199C142.59 16.7399 142.47 16.3699 142.23 16.0999C141.99 15.8399 141.66 15.7099 141.24 15.7099C140.82 15.7099 140.48 15.8399 140.24 16.0999C139.99 16.3599 139.87 16.7299 139.87 17.2199V20.5799H138.33V14.4899H139.87V15.2499C140.08 14.9899 140.34 14.7799 140.66 14.6299C140.98 14.4799 141.33 14.3999 141.71 14.3999C142.43 14.3999 143.02 14.6299 143.47 15.0899H143.46Z" fill="#3453FB"/>
<path d="M145.57 15.8799C145.82 15.3999 146.15 15.0399 146.57 14.7799C146.99 14.5199 147.46 14.3999 147.98 14.3999C148.43 14.3999 148.83 14.4899 149.17 14.6699C149.51 14.8499 149.78 15.0799 149.99 15.3599V14.4899H151.54V20.5799H149.99V19.6899C149.79 19.9799 149.52 20.2099 149.17 20.3999C148.82 20.5899 148.42 20.6799 147.97 20.6799C147.46 20.6799 146.99 20.5499 146.57 20.2799C146.15 20.0199 145.82 19.6399 145.57 19.1599C145.32 18.6799 145.2 18.1299 145.2 17.5099C145.2 16.8899 145.32 16.3499 145.57 15.8699V15.8799ZM149.77 16.5799C149.62 16.3099 149.43 16.1099 149.18 15.9599C148.93 15.8199 148.66 15.7499 148.38 15.7499C148.1 15.7499 147.83 15.8199 147.59 15.9599C147.35 16.0999 147.15 16.2999 147 16.5699C146.85 16.8399 146.77 17.1499 146.77 17.5199C146.77 17.8899 146.85 18.2099 147 18.4799C147.15 18.7499 147.35 18.9699 147.59 19.1099C147.83 19.2499 148.1 19.3299 148.38 19.3299C148.66 19.3299 148.93 19.2599 149.18 19.1199C149.43 18.9799 149.63 18.7699 149.77 18.4999C149.92 18.2299 149.99 17.9099 149.99 17.5399C149.99 17.1699 149.92 16.8499 149.77 16.5799Z" fill="#3453FB"/>
<path d="M154.58 12.45V20.58H153.04V12.45H154.58Z" fill="#3453FB"/>
<path d="M62.04 22.46V30.13H60.5V22.46H62.04Z" fill="#3453FB"/>
<path d="M68.6901 24.64C69.1401 25.1 69.3601 25.74 69.3601 26.56V30.13H67.8201V26.77C67.8201 26.29 67.7001 25.92 67.4601 25.65C67.2201 25.39 66.8901 25.26 66.4701 25.26C66.0501 25.26 65.7101 25.39 65.4701 25.65C65.2201 25.91 65.1001 26.28 65.1001 26.77V30.13H63.5601V24.04H65.1001V24.8C65.3101 24.54 65.5701 24.33 65.8901 24.18C66.2101 24.03 66.5601 23.95 66.9401 23.95C67.6601 23.95 68.2501 24.18 68.7001 24.64H68.6901Z" fill="#3453FB"/>
<path d="M72.6101 25.3V28.24C72.6101 28.45 72.6601 28.59 72.7601 28.68C72.8601 28.77 73.0301 28.82 73.2601 28.82H73.9701V30.12H73.0001C71.7001 30.12 71.0601 29.49 71.0601 28.23V25.3H70.3301V24.04H71.0601V22.54H72.6101V24.04H73.9701V25.3H72.6101Z" fill="#3453FB"/>
<path d="M80.6999 27.5402H76.2499C76.2899 27.9802 76.4399 28.3202 76.7099 28.5702C76.9799 28.8202 77.3099 28.9402 77.7099 28.9402C78.2799 28.9402 78.6899 28.6902 78.9299 28.2002H80.5899C80.4099 28.7902 80.0799 29.2702 79.5799 29.6402C79.0799 30.0202 78.4699 30.2102 77.7499 30.2102C77.1599 30.2102 76.6399 30.0802 76.1699 29.8202C75.7099 29.5602 75.3399 29.1902 75.0799 28.7202C74.8199 28.2402 74.6899 27.6902 74.6899 27.0702C74.6899 26.4502 74.8199 25.8902 75.0699 25.4102C75.3299 24.9302 75.6899 24.5702 76.1499 24.3102C76.6099 24.0502 77.1399 23.9302 77.7399 23.9302C78.3399 23.9302 78.8399 24.0502 79.2899 24.3002C79.7499 24.5502 80.0999 24.9002 80.3599 25.3602C80.6099 25.8202 80.7399 26.3402 80.7399 26.9402C80.7399 27.1602 80.7299 27.3602 80.6999 27.5302V27.5402ZM79.1499 26.5102C79.1499 26.1102 78.9999 25.8002 78.7199 25.5602C78.4399 25.3202 78.0999 25.2002 77.6999 25.2002C77.3199 25.2002 76.9999 25.3202 76.7399 25.5502C76.4799 25.7802 76.3199 26.1002 76.2599 26.5102H79.1499Z" fill="#3453FB"/>
<path d="M84.1799 24.22C84.4999 24.04 84.8599 23.95 85.2699 23.95V25.57H84.8599C84.3799 25.57 84.0099 25.68 83.7699 25.91C83.5299 26.14 83.3999 26.53 83.3999 27.1V30.13H81.8599V24.04H83.3999V24.98C83.5999 24.66 83.8599 24.41 84.1699 24.22H84.1799Z" fill="#3453FB"/>
<path d="M86.2802 25.4199C86.5302 24.9399 86.8602 24.5799 87.2802 24.3199C87.7002 24.0599 88.1702 23.9399 88.6902 23.9399C89.1402 23.9399 89.5401 24.0299 89.8801 24.2099C90.2201 24.3899 90.4901 24.6199 90.7001 24.8999V24.0299H92.2502V30.1199H90.7001V29.2299C90.5001 29.5199 90.2301 29.7499 89.8801 29.9399C89.5301 30.1299 89.1302 30.2199 88.6802 30.2199C88.1702 30.2199 87.7002 30.0899 87.2802 29.8199C86.8602 29.5599 86.5302 29.1799 86.2802 28.6999C86.0302 28.2199 85.9102 27.6699 85.9102 27.0499C85.9102 26.4299 86.0302 25.8899 86.2802 25.4099V25.4199ZM90.4802 26.1199C90.3302 25.8499 90.1402 25.6499 89.8902 25.4999C89.6402 25.3599 89.3701 25.2899 89.0901 25.2899C88.8101 25.2899 88.5402 25.3599 88.3002 25.4999C88.0602 25.6399 87.8602 25.8399 87.7102 26.1099C87.5602 26.3799 87.4802 26.6899 87.4802 27.0599C87.4802 27.4299 87.5602 27.7499 87.7102 28.0199C87.8602 28.2899 88.0602 28.5099 88.3002 28.6499C88.5402 28.7899 88.8101 28.8699 89.0901 28.8699C89.3701 28.8699 89.6402 28.7999 89.8902 28.6599C90.1402 28.5199 90.3402 28.3099 90.4802 28.0399C90.6302 27.7699 90.7001 27.4499 90.7001 27.0799C90.7001 26.7099 90.6302 26.3899 90.4802 26.1199Z" fill="#3453FB"/>
<path d="M93.7401 25.4299C94.0001 24.9599 94.3501 24.5899 94.8101 24.3299C95.2601 24.0699 95.7801 23.9399 96.3701 23.9399C97.1201 23.9399 97.7501 24.1299 98.2401 24.5099C98.7301 24.8899 99.0701 25.4199 99.2301 26.0999H97.5701C97.4801 25.8399 97.3301 25.6299 97.1301 25.4799C96.9201 25.3299 96.6601 25.2499 96.3501 25.2499C95.9101 25.2499 95.5601 25.4099 95.3101 25.7299C95.0501 26.0499 94.9301 26.4999 94.9301 27.0899C94.9301 27.6799 95.0601 28.1199 95.3101 28.4399C95.5701 28.7599 95.9101 28.9199 96.3501 28.9199C96.9701 28.9199 97.3801 28.6399 97.5701 28.0899H99.2301C99.0601 28.7499 98.7301 29.2699 98.2301 29.6599C97.7301 30.0499 97.1101 30.2399 96.3601 30.2399C95.7701 30.2399 95.2501 30.1099 94.8001 29.8499C94.3501 29.5899 93.9901 29.2199 93.7301 28.7499C93.4701 28.2799 93.3501 27.7299 93.3501 27.0999C93.3501 26.4699 93.4801 25.9199 93.7301 25.4499L93.7401 25.4299Z" fill="#3453FB"/>
<path d="M102.16 25.3V28.24C102.16 28.45 102.21 28.59 102.31 28.68C102.41 28.77 102.58 28.82 102.81 28.82H103.52V30.12H102.55C101.25 30.12 100.61 29.49 100.61 28.23V25.3H99.8799V24.04H100.61V22.54H102.16V24.04H103.52V25.3H102.16Z" fill="#3453FB"/>
<path d="M104.73 23.05C104.55 22.88 104.46 22.66 104.46 22.41C104.46 22.16 104.55 21.94 104.73 21.77C104.91 21.6 105.13 21.51 105.41 21.51C105.69 21.51 105.91 21.6 106.09 21.77C106.27 21.94 106.36 22.16 106.36 22.41C106.36 22.66 106.27 22.88 106.09 23.05C105.91 23.22 105.68 23.31 105.41 23.31C105.14 23.31 104.91 23.22 104.73 23.05ZM106.16 24.03V30.12H104.62V24.03H106.16Z" fill="#3453FB"/>
<path d="M110.22 28.71L111.76 24.04H113.4L111.15 30.13H109.28L107.04 24.04H108.69L110.23 28.71H110.22Z" fill="#3453FB"/>
<path d="M119.88 27.5402H115.43C115.47 27.9802 115.62 28.3202 115.89 28.5702C116.16 28.8202 116.49 28.9402 116.89 28.9402C117.46 28.9402 117.87 28.6902 118.11 28.2002H119.77C119.59 28.7902 119.26 29.2702 118.76 29.6402C118.26 30.0202 117.65 30.2102 116.93 30.2102C116.34 30.2102 115.82 30.0802 115.35 29.8202C114.89 29.5602 114.52 29.1902 114.26 28.7202C114 28.2402 113.87 27.6902 113.87 27.0702C113.87 26.4502 114 25.8902 114.25 25.4102C114.51 24.9302 114.87 24.5702 115.33 24.3102C115.79 24.0502 116.32 23.9302 116.92 23.9302C117.52 23.9302 118.02 24.0502 118.47 24.3002C118.93 24.5502 119.28 24.9002 119.54 25.3602C119.79 25.8202 119.92 26.3402 119.92 26.9402C119.92 27.1602 119.91 27.3602 119.88 27.5302V27.5402ZM118.33 26.5102C118.33 26.1102 118.18 25.8002 117.9 25.5602C117.62 25.3202 117.28 25.2002 116.88 25.2002C116.5 25.2002 116.18 25.3202 115.92 25.5502C115.66 25.7802 115.5 26.1002 115.44 26.5102H118.33Z" fill="#3453FB"/>
<path d="M123.79 24.2501C124.13 23.6501 124.6 23.1901 125.19 22.8501C125.78 22.5201 126.44 22.3501 127.17 22.3501C128.03 22.3501 128.78 22.5701 129.42 23.0101C130.06 23.4501 130.51 24.0601 130.77 24.8301H129C128.82 24.4601 128.58 24.1901 128.26 24.0101C127.94 23.8301 127.57 23.7401 127.16 23.7401C126.71 23.7401 126.32 23.8401 125.97 24.0501C125.62 24.2601 125.35 24.5501 125.16 24.9301C124.97 25.3101 124.87 25.7601 124.87 26.2701C124.87 26.7801 124.97 27.2201 125.16 27.6001C125.35 27.9801 125.62 28.2801 125.97 28.4901C126.32 28.7001 126.72 28.8001 127.16 28.8001C127.58 28.8001 127.95 28.7101 128.26 28.5201C128.58 28.3301 128.83 28.0601 129 27.6901H130.77C130.51 28.4701 130.06 29.0801 129.42 29.5201C128.78 29.9601 128.03 30.1701 127.16 30.1701C126.43 30.1701 125.77 30.0001 125.18 29.6701C124.59 29.3401 124.13 28.8701 123.78 28.2801C123.43 27.6901 123.27 27.0101 123.27 26.2601C123.27 25.5101 123.44 24.8301 123.78 24.2301L123.79 24.2501Z" fill="#3453FB"/>
<path d="M133.21 29.8299C132.74 29.5699 132.37 29.1999 132.11 28.7299C131.85 28.2599 131.71 27.6999 131.71 27.0799C131.71 26.4599 131.85 25.9099 132.12 25.4299C132.4 24.9499 132.77 24.5899 133.25 24.3299C133.73 24.0699 134.26 23.9399 134.84 23.9399C135.42 23.9399 135.96 24.0699 136.43 24.3299C136.91 24.5899 137.28 24.9599 137.56 25.4299C137.84 25.8999 137.97 26.4599 137.97 27.0799C137.97 27.6999 137.83 28.2499 137.55 28.7299C137.27 29.2099 136.89 29.5699 136.41 29.8299C135.93 30.0899 135.39 30.2199 134.8 30.2199C134.21 30.2199 133.69 30.0899 133.22 29.8299H133.21ZM135.58 28.6799C135.83 28.5399 136.02 28.3399 136.17 28.0699C136.32 27.7999 136.39 27.4699 136.39 27.0799C136.39 26.4999 136.24 26.0599 135.93 25.7499C135.63 25.4399 135.25 25.2799 134.81 25.2799C134.37 25.2799 134 25.4399 133.71 25.7499C133.41 26.0599 133.26 26.5099 133.26 27.0799C133.26 27.6499 133.4 28.0999 133.69 28.4099C133.98 28.7199 134.34 28.8799 134.78 28.8799C135.06 28.8799 135.32 28.8099 135.57 28.6799H135.58Z" fill="#3453FB"/>
<path d="M148.47 24.64C148.93 25.1 149.16 25.74 149.16 26.56V30.13H147.62V26.77C147.62 26.29 147.5 25.93 147.26 25.68C147.02 25.43 146.69 25.3 146.27 25.3C145.85 25.3 145.52 25.43 145.28 25.68C145.03 25.93 144.91 26.3 144.91 26.77V30.13H143.37V26.77C143.37 26.29 143.25 25.93 143.01 25.68C142.77 25.43 142.44 25.3 142.02 25.3C141.6 25.3 141.26 25.43 141.02 25.68C140.77 25.93 140.65 26.3 140.65 26.77V30.13H139.11V24.04H140.65V24.78C140.85 24.52 141.1 24.32 141.41 24.18C141.72 24.04 142.06 23.96 142.44 23.96C142.92 23.96 143.34 24.06 143.71 24.26C144.08 24.46 144.37 24.75 144.58 25.12C144.78 24.77 145.06 24.49 145.44 24.27C145.82 24.06 146.23 23.95 146.66 23.95C147.41 23.95 148.01 24.18 148.47 24.64Z" fill="#3453FB"/>
<path d="M152.97 24.2199C153.32 24.0299 153.72 23.9399 154.16 23.9399C154.68 23.9399 155.15 24.0699 155.57 24.3199C155.99 24.5799 156.32 24.9399 156.57 25.4099C156.82 25.8799 156.94 26.4299 156.94 27.0499C156.94 27.6699 156.82 28.2199 156.57 28.6999C156.32 29.1799 155.99 29.5499 155.57 29.8199C155.15 30.0799 154.68 30.2199 154.16 30.2199C153.71 30.2199 153.32 30.1299 152.98 29.9499C152.64 29.7699 152.36 29.5399 152.15 29.2599V33.0299H150.61V24.0399H152.15V24.9199C152.35 24.6399 152.62 24.4099 152.97 24.2199ZM155.15 26.1099C155 25.8399 154.8 25.6399 154.56 25.4999C154.32 25.3599 154.05 25.2899 153.76 25.2899C153.47 25.2899 153.22 25.3599 152.97 25.4999C152.72 25.6399 152.53 25.8499 152.38 26.1199C152.23 26.3899 152.15 26.7099 152.15 27.0799C152.15 27.4499 152.23 27.7599 152.38 28.0399C152.53 28.3099 152.73 28.5199 152.97 28.6599C153.22 28.7999 153.48 28.8699 153.76 28.8699C154.04 28.8699 154.31 28.7999 154.56 28.6499C154.81 28.4999 155 28.2999 155.15 28.0199C155.3 27.7499 155.37 27.4299 155.37 27.0499C155.37 26.6699 155.29 26.3699 155.15 26.0999V26.1099Z" fill="#3453FB"/>
<path d="M163.81 24.04V30.13H162.26V29.36C162.06 29.62 161.8 29.83 161.49 29.98C161.17 30.13 160.82 30.21 160.45 30.21C159.97 30.21 159.55 30.11 159.19 29.91C158.82 29.71 158.54 29.41 158.33 29.02C158.12 28.63 158.02 28.16 158.02 27.62V24.05H159.56V27.4C159.56 27.88 159.68 28.25 159.92 28.51C160.16 28.77 160.49 28.9 160.91 28.9C161.33 28.9 161.67 28.77 161.91 28.51C162.15 28.25 162.27 27.88 162.27 27.4V24.05H163.82L163.81 24.04Z" fill="#3453FB"/>
<path d="M167.12 25.3V28.24C167.12 28.45 167.17 28.59 167.27 28.68C167.37 28.77 167.54 28.82 167.77 28.82H168.48V30.12H167.51C166.21 30.12 165.57 29.49 165.57 28.23V25.3H164.84V24.04H165.57V22.54H167.12V24.04H168.48V25.3H167.12Z" fill="#3453FB"/>
<path d="M169.69 23.05C169.51 22.88 169.42 22.66 169.42 22.41C169.42 22.16 169.51 21.94 169.69 21.77C169.87 21.6 170.09 21.51 170.37 21.51C170.65 21.51 170.87 21.6 171.05 21.77C171.23 21.94 171.32 22.16 171.32 22.41C171.32 22.66 171.23 22.88 171.05 23.05C170.87 23.22 170.64 23.31 170.37 23.31C170.1 23.31 169.87 23.22 169.69 23.05ZM171.12 24.03V30.12H169.58V24.03H171.12Z" fill="#3453FB"/>
<path d="M177.77 24.64C178.22 25.1 178.44 25.74 178.44 26.56V30.13H176.9V26.77C176.9 26.29 176.78 25.92 176.54 25.65C176.3 25.39 175.97 25.26 175.55 25.26C175.13 25.26 174.79 25.39 174.55 25.65C174.3 25.91 174.18 26.28 174.18 26.77V30.13H172.64V24.04H174.18V24.8C174.39 24.54 174.65 24.33 174.97 24.18C175.29 24.03 175.64 23.95 176.02 23.95C176.74 23.95 177.33 24.18 177.78 24.64H177.77Z" fill="#3453FB"/>
<path d="M183.48 24.21C183.82 24.39 184.1 24.62 184.29 24.91V24.04H185.84V30.17C185.84 30.73 185.73 31.24 185.5 31.68C185.27 32.12 184.93 32.47 184.48 32.73C184.03 32.99 183.48 33.12 182.83 33.12C181.97 33.12 181.26 32.92 180.7 32.52C180.15 32.12 179.83 31.57 179.76 30.87H181.29C181.37 31.15 181.54 31.37 181.81 31.54C182.08 31.7 182.4 31.79 182.78 31.79C183.23 31.79 183.59 31.66 183.87 31.39C184.15 31.12 184.29 30.72 184.29 30.18V29.24C184.09 29.53 183.82 29.76 183.47 29.95C183.12 30.14 182.72 30.24 182.28 30.24C181.77 30.24 181.3 30.11 180.87 29.84C180.45 29.58 180.11 29.2 179.87 28.72C179.63 28.24 179.5 27.69 179.5 27.07C179.5 26.45 179.62 25.91 179.87 25.43C180.12 24.95 180.45 24.59 180.87 24.33C181.29 24.07 181.76 23.95 182.28 23.95C182.73 23.95 183.13 24.04 183.48 24.22V24.21ZM184.07 26.12C183.92 25.85 183.73 25.65 183.48 25.5C183.23 25.36 182.96 25.29 182.68 25.29C182.4 25.29 182.13 25.36 181.89 25.5C181.65 25.64 181.45 25.84 181.3 26.11C181.15 26.38 181.07 26.69 181.07 27.06C181.07 27.43 181.15 27.75 181.3 28.02C181.45 28.29 181.65 28.51 181.89 28.65C182.13 28.79 182.4 28.87 182.68 28.87C182.96 28.87 183.23 28.8 183.48 28.66C183.73 28.52 183.93 28.31 184.07 28.04C184.22 27.77 184.29 27.45 184.29 27.08C184.29 26.71 184.22 26.39 184.07 26.12Z" fill="#3453FB"/>
<path d="M60.6499 33.7901C60.9899 33.1901 61.4599 32.7301 62.0499 32.3901C62.6399 32.0601 63.2999 31.8901 64.0299 31.8901C64.8899 31.8901 65.6399 32.1101 66.2799 32.5501C66.9199 32.9901 67.3699 33.6001 67.6299 34.3701H65.8599C65.6799 34.0001 65.4399 33.7301 65.1199 33.5501C64.7999 33.3701 64.4299 33.2801 64.0099 33.2801C63.5599 33.2801 63.1699 33.3801 62.8199 33.5901C62.4699 33.8001 62.1999 34.0901 62.0099 34.4701C61.8099 34.8501 61.7199 35.3001 61.7199 35.8101C61.7199 36.3201 61.8199 36.7601 62.0099 37.1401C62.1999 37.5201 62.4699 37.8201 62.8199 38.0301C63.1699 38.2401 63.5599 38.3401 64.0099 38.3401C64.4299 38.3401 64.7999 38.2501 65.1199 38.0601C65.4399 37.8701 65.6799 37.6001 65.8599 37.2301H67.6299C67.3699 38.0101 66.9199 38.6201 66.2799 39.0601C65.6399 39.5001 64.8899 39.7101 64.0199 39.7101C63.2899 39.7101 62.6299 39.5401 62.0399 39.2101C61.4499 38.8801 60.9799 38.4101 60.6399 37.8201C60.2999 37.2301 60.1299 36.5501 60.1299 35.8001C60.1299 35.0501 60.2999 34.3701 60.6399 33.7701L60.6499 33.7901Z" fill="#3453FB"/>
<path d="M70.0698 39.38C69.5998 39.12 69.2298 38.75 68.9698 38.28C68.6998 37.8 68.5698 37.25 68.5698 36.63C68.5698 36.01 68.7098 35.46 68.9798 34.98C69.2598 34.5 69.6298 34.14 70.1098 33.88C70.5898 33.62 71.1198 33.49 71.6998 33.49C72.2798 33.49 72.8198 33.62 73.2898 33.88C73.7698 34.14 74.1398 34.51 74.4198 34.98C74.6898 35.46 74.8298 36.01 74.8298 36.63C74.8298 37.25 74.6898 37.8 74.4098 38.28C74.1298 38.76 73.7498 39.12 73.2698 39.38C72.7898 39.64 72.2498 39.77 71.6598 39.77C71.0698 39.77 70.5498 39.64 70.0798 39.38H70.0698ZM72.4398 38.23C72.6898 38.09 72.8798 37.89 73.0298 37.62C73.1798 37.35 73.2498 37.02 73.2498 36.63C73.2498 36.05 73.0998 35.61 72.7898 35.3C72.4798 34.99 72.1098 34.83 71.6698 34.83C71.2298 34.83 70.8598 34.99 70.5698 35.3C70.2698 35.61 70.1198 36.06 70.1198 36.63C70.1198 37.2 70.2598 37.65 70.5498 37.96C70.8398 38.27 71.1998 38.43 71.6398 38.43C71.9198 38.43 72.1798 38.36 72.4298 38.23H72.4398Z" fill="#3453FB"/>
<path d="M77.49 31.54V39.67H75.95V31.54H77.49Z" fill="#3453FB"/>
<path d="M80.55 31.54V39.67H79.01V31.54H80.55Z" fill="#3453FB"/>
<path d="M82.0302 34.96C82.2802 34.48 82.6102 34.12 83.0302 33.86C83.4502 33.6 83.9202 33.48 84.4402 33.48C84.8902 33.48 85.2901 33.57 85.6301 33.76C85.9701 33.94 86.2401 34.17 86.4501 34.45V33.58H88.0002V39.67H86.4501V38.78C86.2501 39.07 85.9801 39.3 85.6301 39.49C85.2801 39.68 84.8802 39.77 84.4302 39.77C83.9202 39.77 83.4502 39.64 83.0302 39.37C82.6102 39.11 82.2802 38.74 82.0302 38.25C81.7802 37.77 81.6602 37.22 81.6602 36.6C81.6602 35.98 81.7802 35.44 82.0302 34.96ZM86.2302 35.66C86.0802 35.39 85.8902 35.19 85.6402 35.04C85.3902 34.9 85.1201 34.83 84.8401 34.83C84.5601 34.83 84.2902 34.9 84.0502 35.04C83.8102 35.18 83.6102 35.38 83.4602 35.65C83.3102 35.92 83.2302 36.23 83.2302 36.6C83.2302 36.97 83.3102 37.29 83.4602 37.56C83.6102 37.83 83.8102 38.05 84.0502 38.19C84.2902 38.33 84.5601 38.41 84.8401 38.41C85.1201 38.41 85.3902 38.34 85.6402 38.2C85.8902 38.06 86.0902 37.85 86.2302 37.58C86.3702 37.31 86.4501 36.99 86.4501 36.62C86.4501 36.25 86.3802 35.93 86.2302 35.66Z" fill="#3453FB"/>
<path d="M91.87 33.76C92.22 33.58 92.62 33.48 93.06 33.48C93.58 33.48 94.05 33.61 94.47 33.86C94.89 34.12 95.22 34.48 95.47 34.95C95.72 35.42 95.84 35.97 95.84 36.59C95.84 37.21 95.72 37.76 95.47 38.24C95.22 38.72 94.89 39.09 94.47 39.36C94.05 39.62 93.58 39.76 93.06 39.76C92.61 39.76 92.21 39.67 91.87 39.49C91.53 39.31 91.26 39.08 91.05 38.79V39.66H89.51V31.53H91.05V34.46C91.25 34.17 91.52 33.93 91.87 33.75V33.76ZM94.05 35.65C93.9 35.38 93.7 35.18 93.46 35.04C93.21 34.9 92.95 34.83 92.66 34.83C92.37 34.83 92.12 34.9 91.87 35.04C91.62 35.18 91.43 35.39 91.28 35.66C91.13 35.93 91.05 36.25 91.05 36.62C91.05 36.99 91.13 37.3 91.28 37.58C91.43 37.85 91.63 38.06 91.87 38.2C92.12 38.34 92.38 38.41 92.66 38.41C92.94 38.41 93.21 38.34 93.46 38.19C93.71 38.04 93.9 37.83 94.05 37.56C94.2 37.29 94.27 36.97 94.27 36.59C94.27 36.21 94.19 35.91 94.05 35.64V35.65Z" fill="#3453FB"/>
<path d="M98.0801 39.38C97.6101 39.12 97.2401 38.75 96.9801 38.28C96.7101 37.8 96.5801 37.25 96.5801 36.63C96.5801 36.01 96.7201 35.46 96.9901 34.98C97.2701 34.5 97.6401 34.14 98.1201 33.88C98.6001 33.62 99.1301 33.49 99.7101 33.49C100.29 33.49 100.83 33.62 101.3 33.88C101.78 34.14 102.15 34.51 102.43 34.98C102.7 35.46 102.84 36.01 102.84 36.63C102.84 37.25 102.7 37.8 102.42 38.28C102.14 38.76 101.76 39.12 101.28 39.38C100.8 39.64 100.26 39.77 99.6701 39.77C99.0801 39.77 98.5601 39.64 98.0901 39.38H98.0801ZM100.45 38.23C100.7 38.09 100.89 37.89 101.04 37.62C101.19 37.35 101.26 37.02 101.26 36.63C101.26 36.05 101.11 35.61 100.8 35.3C100.49 34.99 100.12 34.83 99.6801 34.83C99.2401 34.83 98.8701 34.99 98.5801 35.3C98.2801 35.61 98.1301 36.06 98.1301 36.63C98.1301 37.2 98.2701 37.65 98.5601 37.96C98.8501 38.27 99.2101 38.43 99.6501 38.43C99.9301 38.43 100.19 38.36 100.44 38.23H100.45Z" fill="#3453FB"/>
<path d="M106.28 33.77C106.6 33.59 106.96 33.5 107.37 33.5V35.11H106.96C106.48 35.11 106.11 35.22 105.87 35.45C105.62 35.68 105.5 36.07 105.5 36.64V39.67H103.96V33.58H105.5V34.52C105.7 34.2 105.96 33.94 106.27 33.76L106.28 33.77Z" fill="#3453FB"/>
<path d="M108.38 34.96C108.63 34.48 108.96 34.12 109.38 33.86C109.8 33.6 110.27 33.48 110.79 33.48C111.24 33.48 111.64 33.57 111.98 33.76C112.32 33.94 112.59 34.17 112.8 34.45V33.58H114.35V39.67H112.8V38.78C112.6 39.07 112.33 39.3 111.98 39.49C111.63 39.68 111.23 39.77 110.78 39.77C110.27 39.77 109.8 39.64 109.38 39.37C108.96 39.11 108.63 38.74 108.38 38.25C108.13 37.77 108.01 37.22 108.01 36.6C108.01 35.98 108.13 35.44 108.38 34.96ZM112.58 35.66C112.43 35.39 112.24 35.19 111.99 35.04C111.74 34.9 111.47 34.83 111.19 34.83C110.91 34.83 110.64 34.9 110.4 35.04C110.16 35.18 109.96 35.38 109.81 35.65C109.66 35.92 109.58 36.23 109.58 36.6C109.58 36.97 109.66 37.29 109.81 37.56C109.96 37.83 110.16 38.05 110.4 38.19C110.64 38.33 110.91 38.41 111.19 38.41C111.47 38.41 111.74 38.34 111.99 38.2C112.24 38.06 112.44 37.85 112.58 37.58C112.72 37.31 112.8 36.99 112.8 36.62C112.8 36.25 112.73 35.93 112.58 35.66Z" fill="#3453FB"/>
<path d="M117.65 34.8401V37.7801C117.65 37.9901 117.7 38.1301 117.8 38.2301C117.9 38.3301 118.07 38.3701 118.3 38.3701H119.01V39.6701H118.04C116.74 39.6701 116.1 39.0401 116.1 37.7801V34.8501H115.37V33.5901H116.1V32.0801H117.65V33.5901H119.01V34.8501H117.65V34.8401Z" fill="#3453FB"/>
<path d="M120.22 32.6001C120.04 32.4301 119.95 32.2101 119.95 31.9601C119.95 31.7101 120.04 31.4901 120.22 31.3201C120.4 31.1501 120.62 31.0601 120.9 31.0601C121.18 31.0601 121.4 31.1501 121.58 31.3201C121.76 31.4901 121.85 31.7101 121.85 31.9601C121.85 32.2101 121.76 32.4301 121.58 32.6001C121.4 32.7701 121.17 32.8601 120.9 32.8601C120.63 32.8601 120.4 32.7701 120.22 32.6001ZM121.65 33.5801V39.6701H120.11V33.5801H121.65Z" fill="#3453FB"/>
<path d="M124.29 39.38C123.82 39.12 123.45 38.75 123.19 38.28C122.92 37.8 122.79 37.25 122.79 36.63C122.79 36.01 122.93 35.46 123.2 34.98C123.48 34.5 123.85 34.14 124.33 33.88C124.81 33.62 125.34 33.49 125.92 33.49C126.5 33.49 127.04 33.62 127.51 33.88C127.99 34.14 128.36 34.51 128.64 34.98C128.91 35.46 129.05 36.01 129.05 36.63C129.05 37.25 128.91 37.8 128.63 38.28C128.35 38.76 127.97 39.12 127.49 39.38C127.01 39.64 126.47 39.77 125.88 39.77C125.29 39.77 124.77 39.64 124.3 39.38H124.29ZM126.66 38.23C126.91 38.09 127.1 37.89 127.25 37.62C127.4 37.35 127.47 37.02 127.47 36.63C127.47 36.05 127.32 35.61 127.01 35.3C126.7 34.99 126.33 34.83 125.89 34.83C125.45 34.83 125.08 34.99 124.79 35.3C124.49 35.61 124.34 36.06 124.34 36.63C124.34 37.2 124.48 37.65 124.77 37.96C125.06 38.27 125.42 38.43 125.86 38.43C126.14 38.43 126.4 38.36 126.65 38.23H126.66Z" fill="#3453FB"/>
<path d="M135.31 34.18C135.76 34.64 135.98 35.28 135.98 36.1V39.67H134.44V36.31C134.44 35.83 134.32 35.45 134.08 35.19C133.84 34.93 133.51 34.8 133.09 34.8C132.67 34.8 132.33 34.93 132.09 35.19C131.85 35.45 131.72 35.82 131.72 36.31V39.67H130.18V33.58H131.72V34.34C131.93 34.08 132.19 33.87 132.51 33.72C132.83 33.57 133.18 33.5 133.56 33.5C134.28 33.5 134.87 33.73 135.32 34.19L135.31 34.18Z" fill="#3453FB"/>
</g>
<defs>
<clipPath id="clip0_447_478">
<rect width="186" height="52" fill="white"/>
</clipPath>
</defs>
</svg>
