<svg width="194" height="195" viewBox="0 0 194 195" fill="none" xmlns="http://www.w3.org/2000/svg">
<g clip-path="url(#clip0_685_10)">
<path d="M97.0006 194.501C150.573 194.501 194.001 151.073 194.001 97.5006C194.001 43.9287 150.573 0.5 97.0006 0.5C43.4287 0.5 0 43.9287 0 97.5006C0 151.073 43.4287 194.501 97.0006 194.501Z" fill="#1D4EF5"/>
<path d="M137.407 55.8685V64.0964H122.827V86.3362H137.407V94.5641H99.5803V86.3362H114.086V64.0964H99.5803V55.8685H137.407Z" fill="white"/>
<path d="M118.824 152.702C111.184 152.702 104.842 150.204 99.7988 145.209C94.7041 140.116 92.1593 133.873 92.1593 126.477C92.1593 119.082 94.7054 112.813 99.7988 107.819C104.842 102.776 111.184 100.254 118.824 100.254C125.288 100.254 130.895 102.116 135.646 105.836C140.395 109.559 143.456 114.382 144.828 120.307H135.498C134.323 116.781 132.229 113.965 129.218 111.859C126.206 109.754 122.741 108.7 118.823 108.7C113.827 108.7 109.64 110.415 106.262 113.843C102.883 117.221 101.193 121.434 101.193 126.477C101.193 131.52 102.882 135.758 106.262 139.186C109.64 142.566 113.827 144.255 118.823 144.255C122.741 144.255 126.205 143.202 129.218 141.096C132.229 138.991 134.323 136.174 135.498 132.648H144.828C143.456 138.574 140.395 143.399 135.646 147.119C130.895 150.842 125.288 152.702 118.824 152.702Z" fill="white"/>
<path d="M49.1721 94.5628V88.3922C49.1721 84.8181 49.7591 81.8427 50.9345 79.4673C52.11 77.0919 53.8104 75.1329 56.0396 73.5902C58.2676 72.0476 60.9986 70.7868 64.23 69.8067L69.1515 68.264C70.9631 67.6757 72.4812 66.9541 73.7057 66.0968C74.929 65.2395 75.8729 64.1999 76.5337 62.974C77.1945 61.7508 77.5255 60.3543 77.5255 58.787V58.4935C77.5255 56.0457 76.6915 54.0983 75.0286 52.6539C73.3631 51.2096 71.086 50.4867 68.1972 50.4867C65.3085 50.4867 63.0662 51.2574 61.3283 52.8001C59.5891 54.3427 58.7202 56.559 58.7202 59.4478V60.7693H49.3169V59.5939C49.3169 55.8724 50.1496 52.7147 51.8151 50.1182C53.4793 47.523 55.7448 45.5394 58.6103 44.1674C61.4745 42.7968 64.671 42.1101 68.1959 42.1101C71.7209 42.1101 74.9044 42.7838 77.7453 44.1299C80.5849 45.4773 82.8258 47.3613 84.4668 49.7859C86.1064 52.2104 86.9275 55.0642 86.9275 58.3435V59.078C86.9275 62.3598 86.2538 65.1374 84.9077 67.4158C83.5603 69.6929 81.7358 71.5549 79.4354 72.998C77.1324 74.4437 74.5139 75.6307 71.5747 76.5618L66.8731 78.0307C64.7666 78.6669 63.127 79.3652 61.9516 80.1242C60.7762 80.8845 59.9551 81.716 59.4909 82.6224C59.0254 83.5289 58.7939 84.619 58.7939 85.8913V86.1849H86.4879V94.5589H49.1708L49.1721 94.5628Z" fill="white"/>
<path d="M49.1721 151.82V145.65C49.1721 142.076 49.7591 139.1 50.9345 136.725C52.11 134.35 53.8104 132.391 56.0396 130.848C58.2676 129.305 60.9986 128.045 64.23 127.064L69.1515 125.522C70.9631 124.933 72.4812 124.212 73.7057 123.355C74.929 122.497 75.8729 121.458 76.5337 120.232C77.1945 119.009 77.5255 117.612 77.5255 116.045V115.751C77.5255 113.303 76.6915 111.356 75.0286 109.912C73.3631 108.467 71.086 107.744 68.1972 107.744C65.3085 107.744 63.0662 108.515 61.3283 110.058C59.5891 111.6 58.7202 113.817 58.7202 116.706V118.027H49.3169V116.852C49.3169 113.13 50.1496 109.972 51.8151 107.376C53.4793 104.781 55.7448 102.797 58.6103 101.425C61.4745 100.054 64.671 99.3679 68.1959 99.3679C71.7209 99.3679 74.9044 100.042 77.7453 101.388C80.5849 102.735 82.8258 104.619 84.4668 107.044C86.1064 109.468 86.9275 112.322 86.9275 115.601V116.336C86.9275 119.618 86.2538 122.395 84.9077 124.674C83.5603 126.951 81.7358 128.813 79.4354 130.256C77.1324 131.701 74.5139 132.888 71.5747 133.819L66.8731 135.288C64.7666 135.925 63.127 136.623 61.9516 137.382C60.7762 138.142 59.9551 138.974 59.4909 139.88C59.0254 140.787 58.7939 141.877 58.7939 143.149V143.443H86.4879V151.817H49.1708L49.1721 151.82Z" fill="white"/>
<path d="M125.555 42.3468L113.772 52.1561V41.8813L125.555 32.0719V42.3468Z" fill="white"/>
</g>
<defs>
<clipPath id="clip0_685_10">
<rect width="194" height="194" fill="white" transform="translate(0 0.5)"/>
</clipPath>
</defs>
</svg>
