<?xml version="1.0" encoding="UTF-8"?>
<svg id="Layer_1" data-name="Layer 1" xmlns="http://www.w3.org/2000/svg" viewBox="0 0 161.13 140.7">
  <defs>
    <style>
      .cls-1 {
        fill: none;
      }

      .cls-1, .cls-2, .cls-3, .cls-4 {
        stroke-width: 0px;
      }

      .cls-2 {
        fill: #373737;
      }

      .cls-3 {
        fill: #737373;
      }

      .cls-4 {
        fill: #fff;
      }
    </style>
  </defs>
  <circle class="cls-2" cx="77.28" cy="68.27" r="40.14"/>
  <g>
    <circle class="cls-4" cx="74.91" cy="35.84" r=".45"/>
    <circle class="cls-4" cx="79.53" cy="36.44" r=".45"/>
    <circle class="cls-4" cx="85.59" cy="44.6" r=".45"/>
    <circle class="cls-4" cx="52.35" cy="86.6" r=".45"/>
    <circle class="cls-4" cx="53.52" cy="90.2" r=".45"/>
    <circle class="cls-4" cx="47.94" cy="87.14" r=".34"/>
    <circle class="cls-4" cx="66.24" cy="94.21" r=".34"/>
    <circle class="cls-4" cx="94.94" cy="88.25" r=".34"/>
    <circle class="cls-4" cx="103.29" cy="79.19" r=".34"/>
    <circle class="cls-4" cx="62.4" cy="47.23" r=".34"/>
    <circle class="cls-4" cx="71.58" cy="40.49" r=".34"/>
    <circle class="cls-4" cx="70.59" cy="39.83" r=".34"/>
    <circle class="cls-4" cx="69.69" cy="39.17" r=".34"/>
    <circle class="cls-4" cx="63.84" cy="48.97" r=".34"/>
    <circle class="cls-4" cx="77.36" cy="31.43" r=".34"/>
    <circle class="cls-4" cx="79.59" cy="41.15" r=".34"/>
    <circle class="cls-4" cx="76.08" cy="39.25" r=".34"/>
    <circle class="cls-4" cx="70.08" cy="41.83" r=".34"/>
    <circle class="cls-4" cx="96.54" cy="97.15" r=".34"/>
    <circle class="cls-4" cx="51.78" cy="88.88" r=".34"/>
    <circle class="cls-4" cx="75.24" cy="93.23" r=".34"/>
    <circle class="cls-4" cx="58.76" cy="88.61" r=".34"/>
    <circle class="cls-4" cx="61.68" cy="93.37" r=".34"/>
    <circle class="cls-4" cx="83.16" cy="90.37" r=".34"/>
    <circle class="cls-4" cx="95" cy="83.69" r=".34"/>
    <circle class="cls-4" cx="103.98" cy="87.79" r=".34"/>
    <circle class="cls-4" cx="107.04" cy="89.75" r=".34"/>
    <circle class="cls-4" cx="107.55" cy="84.41" r=".34"/>
    <circle class="cls-4" cx="62.9" cy="76.85" r=".34"/>
    <circle class="cls-4" cx="63.03" cy="84.59" r=".45"/>
    <circle class="cls-4" cx="65.73" cy="90.29" r=".45"/>
    <circle class="cls-4" cx="98.07" cy="84.35" r=".45"/>
    <circle class="cls-4" cx="109.71" cy="83.69" r=".45"/>
    <circle class="cls-4" cx="103.95" cy="81.23" r=".45"/>
    <circle class="cls-4" cx="98.07" cy="81.47" r=".45"/>
    <path class="cls-4" d="m85.94,35.56l1.12-.11-1.12-.06c-.03-.22-.21-.39-.43-.41l-.11-1.11-.06,1.12c-.2.05-.36.21-.38.42l-1.14.1,1.15.06c.04.19.2.34.39.38l.1,1.15.06-1.15c.21-.03.37-.19.41-.4Z"/>
    <path class="cls-4" d="m67.06,48.02l1.12-.11-1.12-.06c-.03-.22-.21-.39-.43-.41l-.11-1.11-.06,1.12c-.2.05-.36.21-.38.42l-1.14.1,1.15.06c.04.19.2.34.39.38l.1,1.15.06-1.15c.21-.03.37-.19.41-.4Z"/>
    <path class="cls-4" d="m108.89,80.95l1.12-.11-1.12-.06c-.03-.22-.21-.38-.43-.41l-.11-1.11-.06,1.12c-.2.04-.36.21-.38.42l-1.14.1,1.15.06c.04.19.2.34.39.38l.1,1.15.06-1.15c.21-.03.37-.19.41-.4Z"/>
    <path class="cls-4" d="m63.28,98.18l1.12-.11-1.12-.06c-.03-.22-.21-.39-.43-.41l-.11-1.11-.06,1.12c-.2.04-.36.21-.38.42l-1.14.1,1.15.06c.04.19.2.35.39.38l.1,1.15.06-1.15c.21-.03.37-.19.41-.4Z"/>
    <path class="cls-4" d="m105.34,89.78l1.12-.11-1.12-.06c-.03-.22-.21-.39-.43-.41l-.11-1.11-.06,1.12c-.2.04-.36.21-.38.42l-1.14.1,1.15.06c.04.19.2.34.39.38l.1,1.15.06-1.15c.21-.03.37-.19.41-.4Z"/>
    <path class="cls-3" d="m86.8,58.65c-4.67,1.81-9.22,3.43-13.06,4.63-7.81,2.44-29.16,9.06-42.06,17.4l1.08.42c7.86-4.44,12.97-5.83,17.88-7.38,5.34-1.68,22.6-5.72,30.42-7.92,2.64-.74,5.73-1.72,9.01-2.9-.76-1.06-1.57-2.13-2.41-3.19-.28-.36-.57-.71-.86-1.06Zm5.7,7.86c-1.13.76-2.08,1.37-2.74,1.76-3.84,2.22-22.56,15-26.82,17.94s-16.08,14.1-19.56,17.34l-.12,1.32c11.22-10.08,14.74-12.57,19.2-15.96,5.52-4.2,16.94-11.97,20.82-14.46,3.71-2.38,7.06-4.57,10.06-6.57-.05-.08-.1-.16-.15-.25-.23-.37-.46-.74-.69-1.12Zm17.54-18.52c-5.47,3.2-14.08,7.07-22.44,10.35.2.24.4.49.6.74.93,1.18,1.81,2.36,2.64,3.55,6.57-2.42,13.78-5.67,19.5-9.6-2.72,2.58-11.73,9.31-17.23,13.07.28.46.56.92.82,1.38,8.32-5.57,13.92-9.67,17.18-12.41,4.5-3.78,14.76-12.24,18.66-23.58-6.84,8.7-14.93,13.68-19.74,16.5Z"/>
    <path class="cls-4" d="m72.12,78.21c-.88-1.11-2.11-2.61-3.03-3.76-1.23-1.55-2.37-3.11-3.41-4.67-.34.08-.68.17-1.02.26,1.26,1.96,2.65,3.92,4.18,5.84,1.11,1.4,2.12,2.53,2.64,3.23.1.14.31.46.59.87.32-.22.65-.44.98-.67-.32-.35-.63-.71-.94-1.1Zm6.46,5.86c-.73-.69-2.49-1.84-4.33-3.56-.4.28-.81.56-1.22.84,1.19,1.67,2.8,3.72,4.06,4.32,1.9.9,2.42-.72,1.49-1.6Zm9.62-24.99c-10.49-13.21-23.31-20.46-28.83-16.07-4.29,3.41-2.53,13.38,3.39,23.84.31-.1.61-.21.91-.31-5.97-10.2-7.6-19.68-3.56-22.9,5.09-4.04,17.37,3.24,27.56,16.06,2.11,2.65,3.96,5.32,5.53,7.92,6.01,9.95,7.86,18.95,3.7,22.62-1.27,1.12-5.15,1.57-10.24-.72-.07.09.04.33.13.39,4.39,1.77,8.6,2.44,10.72.75,5.1-4.06,1.18-18.38-9.31-31.58Z"/>
    <path class="cls-4" d="m43.2,60.65h6.72l5.64,9.57v-7.47c0-.84-1.07-1.94-1.44-2.1h4.65c-.28.08-1.2,1.19-1.2,2.1v10.98c0,.67.98,1.6,1.44,1.97h-6.48l-5.73-9.62v7.56c0,.75.74,1.47,1.5,2.08h-4.95c.7-.3,1.38-1.24,1.44-1.99s0-10.42,0-10.85c0-.91-.89-1.66-1.59-2.23Z"/>
    <path class="cls-4" d="m104.67,75.69h8.94c-.5-.12-1.05-.71-1.35-1.49-.3-.78-5.04-13.56-5.04-13.56h-3.4c-.96.69-2,1.43-3.1,2.2,0,.03,0,.06-.01.08-.15.9-2.81,10.53-2.97,11.01-.22.66-1.38,1.4-1.85,1.78h4.82c-.48-.54-.87-1.06-.78-1.67.09-.6.36-1.8.36-1.8h4.98c.22.6.39,1.14.48,1.65.1.62-.53,1.31-1.08,1.78Zm-3.93-5.35l1.68-5.49,2.22,5.49h-3.9Zm-.76-9.14c.25-.18.5-.37.74-.55h-1.31c.13.12.35.31.56.55Z"/>
    <path class="cls-4" d="m65.79,74.06c.09-.6.36-1.8.36-1.8h4.98c.22.6.39,1.14.48,1.65.1.62-.53,1.31-1.08,1.78h7.87c.16-.11.33-.22.49-.33-.31-.27-.59-.67-.77-1.16-.3-.78-5.04-13.56-5.04-13.56h-7.8c.38.35,1.46,1.28,1.29,2.28-.15.9-2.81,10.53-2.97,11.01-.22.66-1.38,1.4-1.85,1.78h4.81c-.48-.54-.87-1.07-.78-1.67Zm2.49-9.21l2.22,5.49h-3.9l1.68-5.49Z"/>
    <path class="cls-4" d="m92.98,68.12c-1.47.98-3.02,2-4.65,3.06.73.35,1.31.8,1.37,1.38.1,1.08-2.07,1.6-4.03,1.38-.39-.04-.78-.15-1.15-.29-.41.26-.82.53-1.24.8-.42.27-.94.61-1.53,1v1.55c.39-.76,1.24-1.45,1.9-1.49.28-.01,1.28.9,5.35.67,1.98-.11,5.81-2.22,5.75-4.65-.04-1.44-.79-2.56-1.78-3.42Zm-11.23,3.75v1.58c.36-.24.72-.48,1.07-.71-.55-.38-.94-.74-1.07-.87Zm9.83-4.74c-.38-.22-.76-.42-1.13-.6-1.92-.9-3.93-1.06-4.35-2.28-.3-.86.54-1.65,2.58-1.62,2.04.03,3.93,1.24,4.44,1.68v-3.87c-.15.15-.81.9-1.41.78-1.15-.24-3.12-.55-5.37-.54-2.58.01-4.8,2.01-4.88,4.53-.1,3.53,2.72,4.49,4.31,5.04.16.06.35.12.55.18,1.53-.99,2.73-1.76,3.44-2.16.47-.27,1.1-.67,1.82-1.14Z"/>
  </g>
  <rect class="cls-1" width="161.13" height="140.7"/>
</svg>