<?xml version="1.0" encoding="UTF-8"?>
<svg id="Layer_1" data-name="Layer 1" xmlns="http://www.w3.org/2000/svg" viewBox="0 0 159.99 29.89">
  <defs>
    <style>
      .cls-1 {
        fill: #2f2f2f;
        stroke-width: 0px;
      }
    </style>
  </defs>
  <g id="Layer_2" data-name="Layer 2">
    <g id="Layer_1-2" data-name="Layer 1-2">
      <g>
        <path class="cls-1" d="m23.31,10.7c0,6.38-4.08,10-10.34,10h-4.97v6.91c0,1.25-.4,1.7-1.7,1.7H1.74c-1.3-.02-1.74-.47-1.74-1.72V2.3C0,1.05.44.61,1.74.61h11.15c6.3,0,10.42,3.67,10.42,10.09Zm-8.28,0c.11-1.55-1.06-2.89-2.61-3-.13,0-.26,0-.39,0h-4.03v5.94h4c1.53.13,2.87-1.01,3-2.54.01-.15.01-.29,0-.44l.03.04Z"/>
        <path class="cls-1" d="m48.43,29.29h-4.36c-2.1,0-2.71-.44-3-1.7l-.93-2.91h-8.75l-.93,2.91c-.4,1.25-.93,1.7-2.95,1.7h-4.24c-1.25,0-1.49-.57-1.09-1.66L31.47,2c.4-1.17.93-1.41,2.1-1.41h4.6c1.17,0,1.7.28,2.1,1.33l9.33,25.71c.4,1.09.04,1.66-1.17,1.66Zm-12.52-21.29h-.4c0,1.9-.27,3.78-.77,5.61l-1.49,4.77h5l-1.45-4.77c-.51-1.83-.8-3.71-.89-5.61Z"/>
        <path class="cls-1" d="m76.43,2.3v25.29c0,1.25-.44,1.7-1.7,1.7h-4.57c-.66.08-1.31-.24-1.66-.81l-6.21-9.58c-1.62-2.57-2.82-5.37-3.55-8.32h-.32c.89,3.4,1.34,6.9,1.32,10.42v6.58c0,1.25-.44,1.7-1.74,1.7h-4.07c-1.29,0-1.74-.44-1.74-1.7V2.3c0-1.25.44-1.7,1.74-1.7h4.77c.68-.1,1.35.22,1.7.81l6.6,10.34c1.78,2.79,2.1,4.32,3.39,7.39h.32c-1.27-4.14-1.8-6.14-1.8-10.21V2.3c0-1.25.4-1.7,1.7-1.7h4.12c1.27.01,1.7.45,1.7,1.7Z"/>
        <path class="cls-1" d="m105,14.54v5.33c0,5.7-4.44,10-12.4,10s-12.42-4.3-12.42-11.29v-7.27c0-6.99,4.49-11.31,12.44-11.31,6.22,0,10.1,2.54,11.8,7.07.4,1.17.12,1.78-1.09,2.18l-4.33,1.54c-1.25.4-1.74.16-2.18-1.09-.73-1.82-1.94-2.63-4.2-2.63-3.19,0-4.44,1.37-4.44,4.2v7.35c0,2.83,1.25,4.2,4.44,4.2,2.71,0,4.36-1,4.36-2.75v-.81h-3.87c-1.25,0-1.7-.4-1.7-1.7v-3c0-1.29.44-1.74,1.7-1.74h10.22c1.29-.02,1.67.43,1.67,1.72Z"/>
        <path class="cls-1" d="m111.63,8.45V3.12c0-1.25.44-1.7,1.74-1.7h16.93c1.29,0,1.74.44,1.74,1.7v3.64c0,1.29-.44,1.74-1.74,1.74h-18.67v-.05Z"/>
        <path class="cls-1" d="m147.59,0c8,0,12.4,4.32,12.4,11.31v7.27c0,7-4.44,11.31-12.4,11.31s-12.44-4.32-12.44-11.31v-7.27c0-6.99,4.44-11.31,12.44-11.31Zm0,7.07c-2.83,0-4.44,1.33-4.44,3.88v8c0,2.54,1.62,3.88,4.44,3.88s4.4-1.33,4.4-3.88v-8c.01-2.55-1.62-3.88-4.4-3.88Z"/>
        <path class="cls-1" d="m111.63,22.1h18.66c1.29,0,1.74.44,1.74,1.74v3.64c0,1.25-.44,1.7-1.74,1.7h-16.92c-1.29,0-1.74-.44-1.74-1.7,0,0,0-5.38,0-5.38Z"/>
        <path class="cls-1" d="m107.72,12.08v6.86h14.11c.25-.08.44-.29.5-.55v-5.93c-.07-.22-.27-.37-.5-.38h-14.11Z"/>
      </g>
    </g>
  </g>
</svg>