<?xml version="1.0" encoding="UTF-8"?>
<svg id="Layer_1" data-name="Layer 1" xmlns="http://www.w3.org/2000/svg" viewBox="0 0 784.84 281.36">
  <defs>
    <style>
      .cls-1 {
        fill: #2f2f2f;
        stroke-width: 0px;
      }
    </style>
  </defs>
  <path class="cls-1" d="m743.95,163.71c25.27,0,40.89,20.14,40.89,40.68,0,22.71-19.76,41.48-42.07,41.48s-39.7-18.76-39.7-41.48,19.16-40.68,40.88-40.68m4.16,77.03c14.8,0,24.09-14.62,24.09-28.64,0-22.32-12.85-43.25-32-43.25-15.21,0-24.5,13.42-24.5,29.03,0,20.54,11.85,42.86,32.41,42.86m-82.16-75.25h-16.9c-7.31,0-12.83,0-17.38-.2-4.15-.2-5.13-1.19-5.72-1.98h-2.17c-.4.99-5.74,15.2-5.93,16l2.56,1.58c2.56-6.91,5.53-10.27,19.55-10.27,1.19,0,5.72,0,11.26.59.79,10.07.98,19.94.98,30.02,0,6.32-.2,29.98-.98,35.11-.4,2.38-1.59,3.5-8.1,4.69-2.77.4-4.55.59-6.13.79l.59,3.19c2.12-.19,4.65-.33,7.79-.52,3.18-.2,7.02-.33,12.74-.33,2.18,0,5.74-.14,9.09.06,3.35.2,6.34.2,10.48.4l.39-3.31c-.8,0-1.96-.18-3.76-.42-2.2-.3-5.72-.98-7.11-2.37-2.56-2.96-2.56-24.26-2.56-29.98,0-4.94.8-29.83.8-35.55,0-2.37.8-2.37,7.9-2.37l.23.03c3.19-.1,4.08-.03,5.27-.03,14.01,0,14.41,3.36,16.96,10.27l2.58-1.58c-.19-.79-2.96-15.01-3.36-16h-2.17c-.59.79-1.58,1.78-5.72,1.98-5.4.23-11.79.2-18.23.2h-2.95Zm-130.11-.2c-3.15.2-5.54.2-9.49.2-1.98,0-3.96,0-5.92-.2-1.98-.2-2.29-.18-4.17-.39v3.36c11.45,2.17,12.46,3.95,12.07,26.86l-.04,14.02c0,5.33-.37,21.13-.96,25.67-.59,5.13-2.77,5.53-5.72,6.12-1.58.39-3.36.79-4.53.99v2.96c2.95,0,5.91-.2,8.88-.39,2.96-.21,6.93-.4,9.89-.4s6.12.19,8.89.4c2.56,0,4.34.19,5.52.39v-3.36c-15.59-2.77-15.59-4.93-15.4-18.16l.03-33.38.19-6.32c-.04-.05-.04.11,58.1,61.61h4.06c-.39-6.52-.39-23.3-.39-30.6,0-10.47-.06-37.47.37-40.84.67-5.15,7.53-5.57,11.28-5.57v-2.96c-8.49,0-13.15.2-16.9-.2-3.56-.39-6.12-.58-8.29-.58-1.78,0-3.76-.2-4.95,0l-.58,2.96c13.23.8,12.93,1.97,12.93,31.78,0,3.56-.13,20.99-.13,24.34l-54.72-58.29Zm-71.51-1.58c25.29,0,40.88,20.14,40.88,40.68,0,22.71-19.76,41.48-42.07,41.48s-39.69-18.76-39.69-41.48,19.16-40.68,40.88-40.68m4.14,77.03c14.81,0,24.1-14.62,24.1-28.64,0-22.32-12.84-43.25-31.99-43.25-15.21,0-24.49,13.42-24.49,29.03,0,20.54,11.84,42.86,32.38,42.86m-129.56-75.84c2.57.19,4.94.39,7.51.39,2.37.2,4.93.2,7.31.2,1.78,0,6.31-.4,10.86-.79,4.54-.39,7.9-.39,10.66-.39,16.79,0,27.45,9.08,27.45,21.32,0,11.06-10.07,17.78-17.97,19.76,16.39,23.7,19.35,27.25,25.67,33.17.79.8,5.73,5.33,11.84,5.72l-.19,2.97c-13.63,0-20.34-5.33-23.9-8.1-12.05-9.48-23.9-28.24-26.07-32.19-3.35,0-4.74,0-10.46-.4v11.45c0,5.14-.2,16.6,1.38,19.76.99,1.77,6.91,3.56,10.86,4.74l.2,2.97c-4.75-.8-12.25-1.39-17.38-1.39-2.78,0-15.01.79-17.58.99l-.6-2.37c1.19-.2,8.3-1.78,10.08-5.14,1.38-2.96,1.18-19.56,1.18-24.88v-18.97c0-24.49-1.18-24.89-11.06-25.48l.19-3.36Zm22.92,37.12c2.36.41,6.12.41,8.49.41,2.97,0,19.56,0,19.56-15.81,0-7.31-5.33-17.97-19.36-17.97-8.29,0-8.29.98-8.49,14.41l-.19,18.96Zm-77.81-38.31c25.28,0,40.88,20.14,40.88,40.68,0,22.71-19.75,41.48-42.06,41.48s-39.7-18.76-39.7-41.48,19.16-40.68,40.88-40.68m4.15,77.03c14.81,0,24.09-14.62,24.09-28.64,0-22.32-12.83-43.25-31.99-43.25-15.21,0-24.5,13.42-24.5,29.03,0,20.54,11.85,42.86,32.39,42.86m-84.02-75.25h-16.9c-7.31,0-12.84,0-17.38-.2-4.14-.2-5.14-1.19-5.73-1.98h-2.17c-.4.99-5.72,15.2-5.93,16l2.56,1.58c2.57-6.91,5.53-10.27,19.56-10.27,1.19,0,5.73,0,11.26.59.8,10.07.99,19.94.99,30.02,0,6.32-.2,29.98-.99,35.11-.4,2.38-1.57,3.5-8.1,4.69-2.76.4-4.53.59-6.12.79l.59,3.19c2.12-.19,4.66-.33,7.79-.52,3.19-.2,7.02-.33,12.75-.33,2.17,0,5.73-.14,9.08.06,3.35.2,6.33.2,10.46.4l.4-3.31c-.8,0-1.95-.18-3.75-.42-2.21-.3-5.72-.98-7.1-2.37-2.57-2.96-2.57-24.26-2.57-29.98,0-4.94.79-29.83.79-35.55,0-2.37.79-2.37,7.9-2.37l.25.03c3.18-.1,4.07-.03,5.25-.03,14.03,0,14.41,3.36,16.98,10.27l2.57-1.58c-.21-.79-2.96-15.01-3.35-16h-2.17c-.6.79-1.58,1.78-5.73,1.98-5.4.23-11.78.2-18.24.2h-2.94Zm510.26-69.68c-5.11.51-6.31.51-11.98.51l-6-.08-6.19-.18-2.05.11-1.6.16v.27s0,1.23,0,1.23l.28.02c1.56.08,3.02.23,3.67,1.17.91,1.38.99,2.81.99,15.24,0,5.87-.51,12.48-.69,13.46-.32,1.37-2.23,1.86-3.66,2.1l-.22.04-.13,1.87.35-.03c3.49-.26,7.28-.35,8.28-.35l3.06.09s5.7.27,5.7.27v-2.05l-.41-.04c-4.05-.39-5.42-1.09-5.84-1.61-.43-.52-.59-2.63-.59-4.86,0-.65.02-1.31.04-1.95,0,0,.14-5.25.16-6.48.43-.03,2.91-.16,2.91-.16,3.17,0,7.14.73,8.17,1.19.56.18,1.04,1.31,1.24,2.89l.04.25h1.76l.03-.27c.29-3.64.25-7.25.18-9.99v-.29h-1.86l-.05.25c-.42,2.58-.6,3.65-7.47,3.65-2.07,0-2.72-.08-4.7-.3,0,0-.07,0-.15-.02-.04-.62-.08-1.29-.08-2.01,0-.79.03-1.64.05-2.51,0,0,.11-7.31.13-8.45,1.99-.24,3.72-.32,4.22-.32,3.83,0,7.2.69,8.55,1.75,1.1.85,1.54,2.24,1.84,3.48l.06.24,1.96-.13-.03-.3c-.05-.56.07-2.49.19-4.19l.19-3.74-.34.06Zm-53.57-.27c11.63,0,18.57,9.22,18.57,18.14,0,10.02-8.75,18.48-19.11,18.48s-18.03-8.12-18.03-18.48c0-9.66,8.68-18.14,18.57-18.14m1.85,33.78c6.48,0,10.47-6.37,10.47-12.27,0-9.18-5.23-18.67-14-18.67-7,0-10.67,6.25-10.67,12.44,0,9.09,5.31,18.5,14.19,18.5m-67.85-33.05v1.75l.41.02c1.77.08,4.18.19,4.18,1.6,0,.42-.74,2.49-7.4,12.16-2.87-3.46-9.22-11.63-9.22-12.68,0-.39,0-.84,4.03-.91h.29v-2.07l-3.34.07-6.48.11-7-.09v1.89h.29c1.76,0,2.79.23,3.64.82,2.14,1.51,9.71,11.17,9.97,11.59.02.03,3.03,3.91,3.32,4.29.18,2.5.35,5.29.35,8.71,0,5.29,0,6.39-4.93,6.55h-.27s-.13,1.78-.13,1.78l.3.02c.72.05,2.99-.12,5.17-.28l3.77-.24,2.85.14.58.04,3.84.19v-.32s-.01-1.48-.01-1.48l-.27-.03c-4.83-.42-4.88-1.04-4.95-1.98,0,.02-.01-.36-.01-.36-.12-2.19-.17-4.61-.17-7.25,0-1.98.04-4.08.08-6.31.1-.15,6.95-10.58,6.95-10.58,2.2-3.38,3.43-5.24,8.14-5.33h.29v-2.03l-.26-.03c-.61-.06-2.51.05-4.2.15l-2.27.11-2.69-.15-1.89-.11s-2.64-.09-2.64-.09h-.3v.29Zm-31.26-.98h-1.1l-.09.11c-.19.23-.51.67-2.34.75l-7.1.1h-9.91l-7.76-.1c-1.83-.08-2.16-.52-2.34-.75l-.09-.11h-1.31l-.09.18c-.14.36-2.55,6.67-2.65,7.05l-.06.22,1.65.98.11-.32c1.11-2.93,2.3-4.32,8.47-4.32,1.97,0,3.63.13,4.75.24.37,4.77.43,9.39.43,12.89s-.11,13.23-.44,15.34c-.13.78-.35,1.27-3.38,1.81.01,0-2.18.28-2.18.28l-.85.11.37,1.96,2.93-.2.82-.04,5.67-.14h.9s3.14.02,3.14.02l2.41.09,2.55.09.04-.27.2-1.75-1.58-.16-.37-.05c-1.51-.2-2.6-.54-3.01-.96-.39-.44-1.06-2.72-1.06-12.94l.17-7.28.18-8.3c0-.7,0-.74,3.23-.74h.12s1.92,0,1.92,0h.42c5.71,0,6.14,1.2,7.13,3.82l.3.82,1.62-.98-.38-1.87c-.57-2.77-1.04-5.1-1.18-5.4l-.06-.18h-.2Zm-58.99,1.06v1.76h.29c4.61.18,5.37,1.13,5.74,2.08.65,1.56.79,11.58.79,15.31v.62c0,3.04.01,10.15-.94,11.78-.3.54-1.49,1.51-6.04,1.85l-.28.02v1.79l5.6-.18h5.12l8.53.27-.04-.32-.09-1.67h-.28c-3.74,0-4.93-.06-5.37-1.53-.23-.77-.35-4.12-.35-9.95,0-13.77.08-17.4.84-18.73.94-1.53,4.22-1.34,5.19-1.23l.33.03v-2.09h-4.18s-5.9.17-5.9.17l-3.91-.11-1.68-.06-3.08-.08h-.3s0,.28,0,.28Zm-31.26,9.44c0,6.02,5.13,8.12,8.88,9.66l.32.13c6.42,2.6,9.35,3.79,9.35,8.23,0,2.61-1.96,5.42-6.24,5.42-3.79,0-6.55-1.61-8.2-2.96-2-1.69-2.55-4.2-2.74-5.03l-.04-.23h-2.14l.11.39c1.18,3.89,1.58,5.65,1.49,10.04v.28s1.71.11,1.71.11l.08-.19c.08-.21.39-.87.79-.87s1.63.33,2.16.46l.25.06s.52.15.52.15c.87.27,2.08.63,4.32.63,8.62,0,13.27-5.24,13.27-10.16,0-6.93-6.84-9.64-11.35-11.42-4.31-1.66-7.56-3.18-7.56-6.67s2.66-5.77,6.6-5.77c3.53,0,6.07,1.98,6.67,2.67,1.44,1.32,1.79,2.89,2.13,4.39l.05.23.24.07h1.57l-.47-4.62c0-1.68.33-3.46.51-4.17l.08-.32-1.57-.23s-.96.65-1.13.77c-3.23-.84-4.84-1.1-7.09-1.1-7.41,0-12.58,4.14-12.58,10.08m-24.89-9.99c7.4,0,12.57,3.96,12.57,9.64,0,4.6-4,7.74-7.85,8.82,7.08,10.05,8.4,11.59,11.2,14.18.09.09,2.33,2.25,5.12,2.43l.3.02-.13,1.87h-.28c-6.13,0-9.17-2.32-10.86-3.62-5.38-4.15-10.64-12.32-11.64-14.06-.3,0-3.7-.13-4.22-.16v6.33c0,2.41.05,5.86.58,6.91.39.67,3.19,1.49,4.69,1.94l.2.06.12,1.87-.35-.06c-2.1-.34-5.43-.61-7.73-.61-1.21,0-6.64.34-7.84.44h-.23s-.41-1.58-.41-1.58l.32-.06c.72-.12,3.6-.82,4.29-2.08.53-1.11.51-7.32.49-9.97v-.81s0-8.32,0-8.32c0-10.59-.44-10.63-4.67-10.87l-.29-.02.13-2.06.52.04s3.1.16,3.13.16l3.24.08c.79,0,2.84-.18,4.82-.34l4.8-.17Zm-5.7,16.57c1.03.14,2.55.14,3.5.14,3.15,0,8.45-.85,8.45-6.63,0-3.05-2.24-7.59-8.36-7.59-3.42,0-3.42.11-3.51,6.03,0,0-.08,7.55-.08,8.05m-20.9-16.39c-4.34.25-11.17.34-15.7.34-2.75,0-9.64-.17-12.18-.26h-.3s0,1.75,0,1.75l.25.04c2.99.53,3.18.59,3.39,1.27.32.83.69,4.03.69,14.72,0,4.57-.34,11.79-.79,14.24-.22,1.2-1.73,1.59-4.07,1.84l-.3.03.25,1.97.28-.03c4.76-.52,10.5-.52,13.93-.52l14.12.18.12-.22c.74-1.18,1.86-2.96,2.64-8.61l.05-.32-1.67-.13-.08.21c-1.2,3.24-3.59,6.56-12.18,6.56-3.02,0-4.34-.4-6.02-1.04-.15-1.01-.32-2.47-.41-6.81,0,0-.07-5.27-.08-6.48,2.27-.3,4.35-.32,5.26-.32,6.92,0,7.43.54,8.37,4.79l.06.23h1.67v-.3c-.08-4.66-.08-5.77.17-10.63l.03-.31h-1.86l-.06.23c-.68,2.58-1.24,3.09-2.23,3.24-5.05.65-9.97.45-11.15.36-.02-.46-.17-4.66-.17-4.66,0-2.26.19-5.76.58-8.23,1.86-.34,5.33-.65,6.81-.65,3.92,0,6.21.51,7.23,1.6.85.9.86,2.22.79,3.72v.28s2,.25,2,.25v-.34c0-.37.23-1.79.41-2.82l.2-1.3c.27-1.83.27-2.72.27-3.58v-.31l-.31.02Zm-76.48.4l.1,1.54.24.03c4.75.59,4.94.61,8.78,8.5l7.94,16.19.07.15c1.35,2.81,3.38,7.06,4.07,9.5l.06.22h1.76l.07-.2c1.2-3.52,2.07-5.97,4.84-11.48l8.57-16.8c1.98-3.96,2.83-4.96,6.68-5.73l.25-.05v-1.93h-.31c-2.19.1-4.32.1-6.52,0,0,0-6.72-.18-6.72-.18l-.02.26-.11,1.83.31-.02c1.77,0,4.13.22,4.13,2.13,0,1.06-.77,2.78-1.27,3.92l-.14.29c-1.74,3.94-2.86,6.11-4.02,8.41l-3.91,8.04s-.59,1.29-.93,2.01c-3.84-6.21-10.84-22.81-10.88-23.79,0-.42.1-.48,2.98-.84l.9-.11v-1.95l-5.41.03-2.92-.02c-2.04,0-6.15-.1-8.27-.26l-.34-.03.03.35Zm-23.85-.03v1.76h.28c4.63.18,5.38,1.13,5.75,2.08.64,1.56.78,11.58.78,15.31v.62c0,3.04.02,10.15-.93,11.78-.32.54-1.5,1.51-6.04,1.85l-.27.02v1.79l5.59-.18h5.13l8.53.27-.03-.33-.1-1.66h-.28c-3.73,0-4.93-.06-5.37-1.53-.23-.77-.34-4.12-.34-9.95,0-13.77.09-17.4.85-18.73.93-1.53,4.21-1.34,5.2-1.23l.32.03v-2.09h-4.18s-5.91.17-5.91.17l-3.88-.11-1.68-.06s-3.08-.08-3.08-.08h-.31s0,.28,0,.28h0Zm-20.28-.58h-.23s-.01.23-.01.23l-.33,1.63.34.02c6.82.4,5.75.54,5.93,14.66,0,0,.09,8.52.07,9.49-.48-.5-24.48-25.58-24.48-25.58l-.1-.11-3.92.08-2.63-.08-.21-.02-2.39-.18.04.34.02,1.7.22.04c4.91.91,5.72,1.46,5.55,11.48l-.08,6.15c0,2.29-.27,9.25-.53,11.22-.23,2.03-1.01,2.18-2.29,2.43-.05,0-2.28.49-2.28.49l-.02.23v1.61l8.24-.36,3.95.17s2.75.2,2.75.2l.04-.32v-1.72l-.24-.04c-6.74-1.17-6.73-1.91-6.65-7.67l.18-14.63s.04-1.25.06-2.07c1.33,1.37,25.58,26.51,25.45,26.58l.08.11,2.29-.04-.03-.33c-.17-2.85-.17-10.21-.17-13.42,0-4.77.21-15.89.45-17.26.31-2.38,2.35-2.94,4.31-2.94h.29v-1.89h-.29c-3.81,0-5.72.25-7.39.08l-1.12-.13-2.61-.16-2.26.03Zm-64.18.34l-2.04.04c-2.41,0-7.26.08-7.98.17l-.28.03.13,1.94h.27c2.31,0,3.09,0,3.63.39.71.44,1.2,4.51,1.2,9.88l-.44,11.52c0,7.95,5.08,12.16,14.69,12.16,15.22,0,16.01-8.14,16.26-25.06l.1-5.11v-.22c.08-2.48.12-3.5,4.23-3.74h.25s.13-1.99.13-1.99l-.79.04-6.15.15-4.73-.11-2.1-.06v.3s.01,1.77.01,1.77h.29c1.78,0,3.52.11,4.3.87,1.12,1.1,1.42,5.84,1.42,8.19v3.12c0,11.72-.78,18.84-11.71,18.84-9.95,0-9.95-7.93-9.95-11.74v-6.59c0-12.24.46-12.29,5.91-12.78l.27-.02v-2.02h-.28c-1.36-.08-4.4-.01-6.62.03"/>
  <path class="cls-1" d="m116.67,216.92l-1.67-3.59-2.3-4.81c-1.8-3.51-4.63-5.58-8.04-5.92,7.63-13.37,13.14-29.46,13.14-48.14v-58.75c0-.37-.3-.68-.68-.68H.88c-.38,0-.68.31-.68.68v58.75c0,18.67,5.52,34.77,13.14,48.14-3.4.36-6.22,2.41-8.01,5.92l-2.3,4.81-1.68,3.59c-1.5,3.12-3.08,9.52,3.16,17.38,5.05,6.36,15.7,13.18,28.51,18.24l.59.24c1.1.43,2.15.85,3.17,1.27-1.05,1.03-2.53,2.24-3.66,3.17l-1.03.84c-.26.22-.49.42-.71.64-.03.01-.06,0-.08.03-.09.08-.13.18-.2.27-1.08,1.15-1.68,2.51-1.68,4.85v11.27c0,4.62,6.45,6.26,12.48,6.26h34.28c6.03,0,12.48-1.64,12.48-6.26v-11.27c0-2.34-.62-3.7-1.68-4.85-.07-.08-.13-.19-.21-.27-.03-.03-.06-.02-.08-.03-.22-.21-.45-.42-.71-.64l-1.02-.84c-1.15-.92-2.62-2.13-3.68-3.17,1.01-.42,2.06-.84,3.17-1.27l.58-.24c12.79-5.05,23.45-11.88,28.51-18.24,6.24-7.86,4.64-14.25,3.13-17.38M1.56,141.48h114.89v12.97c0,58.06-53.86,90.98-57.45,93.11-3.57-2.12-57.44-35.05-57.44-93.11v-12.97Zm107.63,65.55c1.5,2.48,1.53,5.75.1,9.17-.24.58-.56,1.15-.91,1.74l-4.14-5.98c-.14-.21-.4-.33-.66-.29-.26.05-.47.23-.54.48-.32,1.06-1.24,1.98-2.54,2.51-1.3.53-2.72.56-3.87.16,2.55-3.39,5.01-7.04,7.28-10.92.22.01.45.03.66.05.02,0,.04.02.06.02,1.78.15,3.49,1.29,4.57,3.07m-36.84,57.8l.72.74h-28.1l.73-.75c1.63-1.52,3.04-2.84,3.04-6.36v-8c0-7.8-6.72-10.89-14.49-14.44-2.71-1.25-5.52-2.54-8.32-4.12-2.53-1.44-6.11-3.77-9.39-6.5l6.15-8.91c16.33,21.03,35.65,32.27,35.98,32.45.21.13.46.13.67,0,.33-.19,19.65-11.43,35.99-32.47l6.16,8.93c-3.28,2.73-6.85,5.06-9.39,6.5-2.79,1.58-5.6,2.87-8.31,4.12-7.78,3.55-14.49,6.64-14.49,14.44v8c0,3.53,1.41,4.84,3.04,6.37m-56.84-40.33c-1.93-1.69-3.69-3.51-5.02-5.35.78-1.13,3.12-4.52,3.86-5.59.6.97,1.46,1.82,2.7,2.34,1.35.56,2.82.67,4.13.39l-5.67,8.21Zm81.37-8.21c1.32.28,2.79.16,4.14-.39,1.24-.51,2.1-1.37,2.69-2.34.75,1.07,3.09,4.46,3.87,5.59-1.34,1.84-3.09,3.66-5.03,5.35l-5.67-8.21ZM1.56,96.39h114.89v43.74H1.56v-43.74Zm7.3,110.64c1.08-1.77,2.79-2.92,4.58-3.07.01,0,.02-.01.04-.02.21-.03.42-.04.64-.05,2.28,3.88,4.73,7.54,7.28,10.92-1.16.4-2.56.36-3.85-.16-1.29-.53-2.22-1.45-2.53-2.51-.09-.25-.29-.44-.55-.48-.25-.04-.52.08-.66.29l-4.14,5.98c-.35-.58-.67-1.16-.91-1.74-1.44-3.42-1.41-6.69.09-9.17m25.26,44.47l-.6-.24c-12.58-4.97-23.03-11.63-27.95-17.81-5.49-6.91-4.66-12.49-2.99-15.94l1.68-3.62,2.28-4.76s.04-.07.06-.11c-.45,1.9-.45,4.48.9,7.71,2.55,6.09,11.16,12.62,17.75,16.36,2.85,1.62,5.67,2.91,8.42,4.17,7.65,3.51,13.69,6.28,13.69,13.21v8c0,.79-.07,1.42-.22,1.97-.19-.86-.59-1.69-1.18-2.38-2.59-2.89-6.88-4.58-11.85-6.55m-2.28,8.67s.07-.09.11-.13c.01-.02.04-.05.05-.07.27-.3.59-.58.94-.87l1.02-.83c1.38-1.12,3.05-2.5,4.16-3.65,2.85,1.25,5.24,2.57,6.83,4.36,1.19,1.34,1.24,3.51.43,4.28-.19.19-.4.39-.61.6l-1.7,1.73h-1.19c-5.6.05-9.34-1.9-10.14-3.84-.22-.55-.19-1.07.1-1.56m55.38,2.66c.03.31.05.63.05.99v11.27c0,3.62-5.98,4.9-11.11,4.9h-34.28c-5.12,0-11.11-1.28-11.11-4.9v-11.27c0-.36.02-.68.06-.99,1.32,2.1,5.13,4.15,11.06,4.1h34.28c5.94.05,9.73-2,11.06-4.1m-3.12-4.56l1,.82c.36.29.67.58.94.88.01.02.04.05.05.07.04.04.06.09.11.13.29.49.33,1.01.1,1.56-.8,1.94-4.53,3.89-10.14,3.84h-1.2l-1.7-1.74c-.22-.2-.42-.4-.62-.58h0c-.81-.78-.76-2.95.44-4.29,1.58-1.77,3.98-3.1,6.84-4.36,1.1,1.17,2.78,2.54,4.17,3.67m28.37-24.82c-4.91,6.17-15.36,12.84-27.95,17.81l-.58.23c-4.97,1.97-9.28,3.67-11.86,6.56-.6.68-1,1.51-1.2,2.38-.14-.55-.22-1.18-.22-1.97v-8c0-6.93,6.04-9.7,13.7-13.2,2.74-1.25,5.58-2.56,8.42-4.17,6.59-3.74,15.21-10.26,17.75-16.36,1.36-3.22,1.34-5.81.89-7.71.03.04.05.07.07.11l2.27,4.76,1.68,3.62c1.67,3.45,2.51,9.03-2.98,15.94"/>
  <path class="cls-1" d="m21.78,234.56c.13-.24.27-.51.4-.75-.95-.59-1.89-1.19-2.8-1.86-.14.23-.29.56-.41.8.23.16.45.32.68.47-.97,2.03-1.88,3.96-2.85,5.98-.23-.13-.47-.26-.7-.4-.13.24-.26.54-.38.77,1.53,1.06,3.1,2,4.7,2.91.46-.59.89-1.15,1.36-1.74.01-.03.03-.06.04-.09-.23-.22-.45-.44-.69-.65-.34.4-.79.91-1.19,1.11-.51-.18-1.39-.67-1.83-1.11,0-.51,2.11-4.52,2.79-5.93.22.01.66.34.88.48m-7.33.51c.37-.69.74-1.38,1.11-2.06-.2-.17-.4-.35-.59-.51-.13.18-.25.36-.37.55-.12.06-1.06-.74-1.27-.91.41-.79.86-1.68,1.32-2.55.43.34,1.34.98,1.54,1.4.15.32-.26.95-.32,1.33.04.2.51.38.69.49.3-.66.68-1.4.97-2.08-1.42-1.1-2.81-2.22-4.2-3.36-.14.23-.29.48-.42.72.21.19.41.37.62.56-1.07,2.08-1.88,3.75-2.96,5.81-.21-.16-.41-.32-.63-.46-.14.23-.25.46-.4.7,1.37,1.26,2.72,2.41,4.23,3.51.41-.58.83-1.2,1.23-1.78.01-.03.03-.06.03-.08-.22-.21-.43-.44-.66-.66-.13.2-.8,1.08-.96,1.09-.29.01-1.46-1.06-1.68-1.4.04-.46.97-2.03,1.23-2.53.37.31.93.66,1.17,1.04-.05.21-.17.51-.28.73.2.15.4.31.59.47m24.79,7.4c-2.04-1.14-4.23-2.05-6.33-3.05-.36.68-.71,1.36-1.08,2.03.29.16.57.32.86.48.27-.39.55-.76.82-1.15.4-.04,1.07.3,1.53.49-.89,1.99-1.88,4.13-2.78,6.13-.31-.12-.62-.24-.94-.37-.11.25-.23.49-.35.74,1.1.48,2.2.96,3.3,1.44.11-.24.22-.49.33-.73l-.94-.46c.9-2,1.91-4.14,2.81-6.13.47.21,1.09.56,1.26.91-.15.41-.3.83-.45,1.24.06.16.7.34.91.44.35-.67.69-1.35,1.03-2.03m-7.33-3.47c-.88-.44-1.76-.89-2.66-1.34-.12.23-.24.46-.35.7.3.18.6.34.91.51-.95,2.03-2.42,6.62-4.5,5.26-1.47-.96-.92-2.14-.1-3.86.46-.96.99-2.05,1.46-3.01.3.15.6.3.92.45.12-.25.22-.48.34-.73-.98-.5-1.95-1.04-2.94-1.54-.12.24-.24.47-.36.72.2.1.41.22.62.33,0,.41-.69,1.58-.9,2.02-.98,2.07-1.98,3.69-1.05,5.15.22.35.58.66.97.95.55.41,1.31.65,1.79.69,2.42.21,3.53-3.05,4.85-5.88.22.1.45.2.67.3.1-.25.22-.5.34-.73m-20.25-11.99c.17.15.35.29.52.45.12-.27.23-.53.35-.79-.7-.68-1.4-1.35-2.09-2.01-.12.26-.27.51-.4.75.21.25.51.49.73.72-.66.77-3.21,3.55-3.43,3.74l-.02.04c-.1-.19.91-5.93,1.06-6.45.24.27.47.53.7.79.15-.25.29-.49.44-.73-.74-.91-1.47-1.85-2.11-2.84-.18.21-.35.44-.51.67.13.22.26.44.38.67-.2.72-1.3,7.94-1.38,8.73.24.32.48.63.72.95,1.41-1.03,4.54-4.18,5.05-4.69m74.67,16.27s-.03-.02-.04-.03c.07-1.23.2-2.36.34-3.59.03-.03.05-.04.07-.06.47,1.02.85,1.85,1.35,2.86-.54.27-1.18.58-1.73.82m6.59-.87c.05.32.3,1.03.17,1.29-.14.27-1.99,1.25-2.32,1.25-.41-.76-.69-1.64-1.08-2.4.44-.22,1.7-.9,1.93-.88l.36.63c.26-.13.51-.26.77-.39-.33-.76-.67-1.53-1-2.29-.26.13-.51.25-.76.37.07.25.13.49.2.74-.19.28-1.48.89-1.86,1.09-.49-.99-.87-1.92-1.34-2.91.64-.3,1.64-.94,2.24-1.05.29.18.6.68.8,1.01.24-.15.48-.3.73-.46.05-.18-.8-1.57-.95-1.88-1.54.82-3.45,1.79-4.99,2.51-.22,2.85-.49,5.74-.75,8.55-.22.12-.45.29-.67.41.1.25.21.49.32.74.87-.35,1.74-.8,2.62-1.16-.11-.25-.21-.5-.32-.75-.29.11-.57.25-.86.36.04-.92.07-2.08.09-3.01.67-.31,1.46-.67,2.13-1,.38.75.71,1.74,1.11,2.48-.26.16-.54.27-.8.42.12.25.23.49.36.73,1.68-.77,3.7-1.8,5.34-2.65-.2-.67-.39-1.35-.6-2.02-.29.09-.58.18-.87.26m6.13-9.76c.19-.14.38-.28.58-.43-.12-.24-.25-.48-.37-.72-.83.56-1.65,1.12-2.48,1.67.12.23.25.47.38.72.27-.17.54-.35.82-.53.25,1.18.58,4.63.65,5.44.03.32.06.63.09.96,0,0,.02.03.02.04-.2.06-.84-.82-1.01-1.01l-2.06-2.34c-.3-.35-.66-.71-.94-1.08.3-.18.62-.38.93-.57-.1-.25-.2-.51-.3-.77-1.04.59-2.08,1.18-3.12,1.77.1.26.19.51.29.76.22-.11.45-.21.67-.33.39.46.87.93,1.28,1.37.96.99,1.92,2,2.88,2.99.41.41.83.83,1.23,1.23.34-.2.7-.41,1.04-.61-.14-1.98-.27-3.98-.39-5.97-.06-.81-.1-1.81-.21-2.62m-23.33,40.79c0-1.1,0-2.19.02-3.27.45-.04.95-.07,1.32.08.88.36,1.39,1.65.69,2.58-.4.54-1.12.64-2.02.61m3.74,2.59c-.34-.63-.84-1.98-1.51-2.2,0-.03-.01-.06-.02-.08,1.44-.4,2.36-2.6.95-3.72-1.12-.88-3.43-.67-5.38-.65-.01.26-.03.51-.05.77v.02c.27.02.55.03.81.04v6.54c-.26.02-.52.04-.78.06,0,.26-.01.51-.03.77v.03h3.14c0-.27.01-.53.02-.79-.3-.01-.61-.03-.91-.04,0-.84.01-1.67.02-2.51.34,0,.76-.06,1.03.06.78.32,1.23,2.6,1.88,3.25.15.13,1.72.03,2.04.02l.02-.81c-.25-.02-.51-.04-.77-.06-.25-.12-.33-.44-.47-.68m-19.03-.34c-.17.7-.74.99-1.5,1.13-.36.06-.94.01-1.06-.19-.12-.13-.08-.44-.08-.68,0-.35-.06-2.01.06-2.2,1.41-.02,2.97.41,2.58,1.95m-2.61-5.54c.91-.05,1.61.03,2,.56.16.22.29.59.23.96-.18,1.04-1.01,1.37-2.24,1.3,0-.94.01-1.87.02-2.81m2.26,3.05h-.04v-.08c1.44-.59,2.18-2.47.53-3.39-1.11-.62-3.44-.35-5.07-.34v.79c.28.01.56.02.84.02v6.57c-.28.02-.56.04-.84.06,0,.25-.01.51-.02.77,1.87.01,4.16.25,5.37-.46.86-.51,1.64-1.81.84-2.98-.43-.61-.87-.65-1.6-.96m-10.72.25c.01-1.1.02-2.19.03-3.27.45-.04.95-.07,1.31.08.88.36,1.39,1.65.69,2.58-.4.54-1.11.64-2.03.61m3.75,2.59c-.34-.63-.85-1.98-1.52-2.2-.01-.03-.02-.06-.02-.08,1.44-.4,2.36-2.6.95-3.72-1.11-.88-3.43-.67-5.38-.65-.01.26-.03.51-.03.77v.02c.26.02.53.03.8.04v6.54c-.26.02-.52.04-.78.06-.01.26-.01.51-.02.77v.03h3.13c0-.27,0-.53.02-.79-.3-.01-.61-.03-.91-.04,0-.84.01-1.67.02-2.51.35,0,.77-.06,1.04.06.78.32,1.23,2.6,1.88,3.25.16.13,1.72.03,2.04.02l.02-.81c-.26-.02-.52-.04-.77-.06-.25-.12-.34-.44-.47-.68m-12.68-1.58c.38-1.12.76-2.25,1.13-3.38.03.01.06.02.08.03l1.09,3.35h-2.3Zm2.01-5.17c-.3-.08-.91-.05-1.17.03-.93,2.47-1.87,4.94-2.79,7.42-.17.08-.5.08-.73.08v.79h2.9v-.81c-.31,0-.62-.02-.93-.03.15-.48.29-.97.44-1.46.93-.01,1.87-.03,2.8-.04.22.38.45,1.03.53,1.49-.29.02-.58.03-.87.04v.79h3.16v-.81c-.25,0-.49-.02-.73-.03-.87-2.5-1.73-4.98-2.59-7.48m64.13-33.84c-1.71,1.42-3.6-.77-4.06-2.88-.22-.99-.22-2.03.34-2.77.17-.16.33-.32.49-.47.45-.28.82-.44,1.17-.42,2.1.08,4.12,4.82,2.06,6.54m.69-6.76c-1.1-1.06-2.43-1.23-4.24-.13-.28.24-.55.47-.83.72-.74.83-1.08,1.84-1.16,2.9-.03.42.04.91.13,1.36.1.53.45,1.36.75,1.79,1.12,1.61,2.41,2.05,4.27,1.32,3.05-1.2,3.31-5.81,1.07-7.96m-39.25,48.2c-2.15.35-3.01-2.4-2.56-4.45.21-.97.64-1.85,1.45-2.2.22-.06.43-.1.65-.17.53-.01.93.05,1.26.24,1.87,1.15,1.81,6.15-.8,6.57m-.44-7.64c-.36.06-.71.14-1.06.2-1.03.33-1.75,1.03-2.26,1.9-.2.35-.34.8-.44,1.23-.12.51-.12,1.3-.03,1.82.37,1.96,1.37,3,3.38,3.31,3.31.53,5.41-3.2,4.24-6.19-.57-1.48-1.72-2.31-3.83-2.28"/>
  <path class="cls-1" d="m1.19,140.72l115.83.13v12.97c0,58.05-54.46,92.17-58.04,94.3-3.58-2.13-57.92-35.38-57.92-93.43l.13-13.96Zm79.79,49.51c-10.59-12.83-25.72-6.44-25.87-6.37-2.85.56-5.28,1.84-6.89,2.68l-1.39.67s-1.86.23-1.86.23l-3.19.39c-1.67.36-3.83,1.55-6.57,3.06l-1.94,1.06c-3.21,1.74-3.97,3.16-4.14,3.57-.66.37-1.13.89-1.26,1.51-.01.11-.02.23-.02.35,0,.53.22,1.06.62,1.47.6,1.86,2.24,1.5,2.31,1.51.08,0,.61-.13.61-.13.82-.27,1.62,0,2,1.04v.22c-.17.34-.78.8-1.08.9-.23.08-.41.21-.34.45.47,1.62,2.68,1.01,3.65.91l.27-.03.92-.15c1.21-.22,3.51-.3,4.66-.05.71.15,1.54.57,2.29,1.02-.16.27-.18.77-.47.89l-.91.19c-1.41.25-3.75.3-4.51,2.21-.72,1.79-.27,3.23-.03,3.77l.55.7c.38.15,1.15-.47,1.81-.87,1.54-.9,1.27-1.32,1.29-1.51.07-.54.43-.77.53-.79,0,.03.32.16.32.16.92.39,3.24,1.07,4.47.42-.08.44-.46,1.84-1.25,2.25-.62.33-1.41.32-2.1.3-.67,0-1.19-.01-1.55.27-.56.44-1.46,1.81-1.67,2.17-.09.15-.09.32,0,.47l.14.24c.08.15.24.23.4.23h4.36s.59,0,.59,0c1.24.04,2.82-.13,3.65-.87l.66-.54,2.24-1.79,2.14-1.88,1.02-.82c.2-.17.4-.56.52-.91.9.6,2.93,1.68,3.84,2.09-.38-.02-1.57.13-2.7.58-1.28.51-1.95,1.13-3.06,2.53-.07.08,0,.39-.15.33-.05.13-.12.13-.05.26.34.61,2.15,1.59,2.8,1.73.54.12,1.24-.07,1.99-.27l1.23-.28c.44-.04,5.81-.18,9.43-.16l-2,1.88c-1.9,1.29-4.9,3.1-8.11,5.76-3.45,2.84-6,6.62-6,9.28,0,.35-.42.84-.34,1.13.2.68.74,1.51,2.15,1.67,6.91.75,10.92-3.53,14.23-7.1l.85-.91c2.32-2.46,4.04-5.41,5.18-7.36.47-.82.97-1.66,1.14-1.79,3.28-2.28,7.25-8.24,8.15-14.78.68-4.98-.54-9.54-3.57-13.2m26.72-40.72h-2.55l-2.52-1.62h0c-.11-.1-.24-.16-.41-.16h-3.29c-.64,0-1.17-.39-1.91-.92-1.12-.82-2.67-1.93-5.42-1.93-3.12,0-4.67,1.22-5.4,2.18-.75-.99-2.28-2.18-5.37-2.18-2.76,0-4.3,1.11-5.42,1.93-.74.53-1.27.92-1.91.92h-3.28c-.18,0-.33.07-.44.17l-2.5,1.61h-2.55c-.36,0-.66.3-.66.66v22.6c0,.36.3.65.66.65h17.58c.4.37,1.32,1.08,2.74,1.34.69.13,1.85.09,2.42-.01,1.38-.25,2.27-.95,2.67-1.32h17.57c.37,0,.67-.29.67-.65v-22.6c0-.36-.3-.66-.67-.66m-54.85-.08h-2.55l-2.49-1.6c-.12-.11-.27-.18-.44-.18h-3.27c-.65,0-1.17-.39-1.91-.91-1.12-.82-2.66-1.93-5.41-1.93-3.12,0-4.66,1.22-5.4,2.17-.75-.99-2.29-2.17-5.37-2.17-2.75,0-4.29,1.11-5.41,1.93-.74.52-1.26.91-1.91.91h-3.29c-.18,0-.34.08-.46.19l-2.47,1.59h-2.56c-.36,0-.66.3-.66.65v22.61c0,.35.29.66.66.66h17.56c.4.37,1.33,1.08,2.74,1.33.68.12,1.84.09,2.43-.01,1.38-.26,2.27-.96,2.66-1.32h17.56c.36,0,.66-.3.66-.66v-22.61c0-.35-.3-.65-.66-.65"/>
  <path class="cls-1" d="m81.27,189.99c-10.77-13.01-26.14-6.52-26.3-6.46-2.9.57-5.36,1.87-6.99,2.72l-1.41.68s-1.89.22-1.89.22l-3.25.4c-1.7.36-3.9,1.56-6.68,3.1l-1.98,1.07c-3.26,1.76-4.03,3.2-4.21,3.62-.69.37-1.16.9-1.28,1.53-.02.12-.03.24-.03.35,0,.54.22,1.08.64,1.49.61,1.88,2.41,2.06,2.49,2.06.08,0,.63-.13.63-.13.83-.27,1.36-.36,1.76.7v.22c-.16.36-.84.69-1.13.8-.24.08-.36.33-.31.57.47,1.64,2.77,1.37,3.75,1.26l.29-.03.93-.15c1.24-.22,3.54-.65,4.7-.39.73.15,1.58.56,2.33,1.03-.15.27-.38.48-.67.58l-.93.2c-1.43.24-3.61.61-4.39,2.54-.73,1.81-.27,3.28-.03,3.82l.67.88c.38.15,1.28-.29,1.96-.69,1.56-.92,1.63-1.48,1.66-1.67.08-.55.44-.78.54-.8,0,.03.33.15.33.15.93.4,2.75,1.18,4.01.52-.09.45-.32,1.08-1.11,1.5-.64.33-1.43.32-2.15.32-.67-.02-1.21-.03-1.57.27-.56.45-1.69,2.31-1.91,2.67-.09.15-.09.33,0,.49l.15.25c.08.14.23.23.41.23l4.44-.02.59.02c1.25.04,2.98.09,3.83-.67l.66-.54,2.36-1.94,2.36-1.9,1.04-.82c.2-.18.35-.48.47-.84.92.6,1.89,1.11,2.82,1.52-.38-.02-1.1.06-2.24.53-1.3.52-2.35,1.54-3.04,2.96-.04.08-.03.18-.01.27-.06.12-.07.25,0,.38.34.63,2.19,1.62,2.84,1.76.54.12,1.25-.07,2.02-.27l1.25-.28c.45-.05,5.2-.03,8.88,0l-2,1.44c-1.93,1.31-4.86,3.28-8.12,5.98-3.49,2.89-6,7.07-6,9.76,0,.35.04.67.13.96.21.68.75,1.54,2.18,1.69,7.03.76,11.22-3.75,14.59-7.38l.86-.92c2.35-2.49,4.1-5.48,5.27-7.45.48-.83.98-1.69,1.16-1.82,3.33-2.31,7.37-8.35,8.29-14.98.7-5.03-.56-9.66-3.62-13.36m-34.98,19.21c-.77.77-2.64-.03-3.44-.38l-.71-.23c-.6,0-1.34.65-1.47,1.62-.03.15-.31.4-.66.65-.09-.14-.23-.43-.28-.8-.08-.63-.02-1.43-.16-1.5-.22-.12-1.06,1.39-.56,2.89-.27.13-.5.23-.67.3-.14-.22-.45-.81-.45-1.77,0-.48.08-1.03.32-1.63.59-1.45,2.38-1.75,3.69-1.98l1.1-.24c.58-.22.93-.6,1.13-.95.56.41,1,.8,1.17,1.04.33.5.81,2,1.07,2.95-.03,0-.06,0-.08.03m13.3,5.96s-1.4.3-1.4.3c-.58.16-1.24.33-1.57.26-.05-.01-.1-.04-.16-.06.2-.32.57-.94,1.13-1.32,1-.7,2.34-1.08,2.04-1.23-.48-.23-1.65-.09-2.44.21-1.06.41-1.59,1.19-1.94,1.74-.32-.2-.61-.39-.76-.53.58-1.16,1.41-1.98,2.47-2.39,1.5-.6,2-.44,2-.44.57.11,4.55.78,5.41.78.02,0,.04-.02.06-.03.17.1.33.23.5.32,1.82.91,3.89,1.2,4.86,1.3-.08.3-.21.7-.42,1.08-1.81-.01-9.14-.06-9.8.01m24.39-11.93c-.84,6.13-4.68,12.1-7.9,14.33-.32.21-.67.8-1.43,2.12-1.13,1.94-2.85,4.88-5.14,7.29l-.86.93c-3.4,3.65-7.24,7.79-13.81,7.09-.73-.09-1.19-.42-1.37-1.03-.58-1.94,1.57-6.42,5.58-9.73,3.22-2.67,6.13-4.62,8.05-5.92l2.4-1.74c.19-.18.35-.38.48-.59.06-.04.08-.1.11-.17.6-.96.75-2.04.76-2.1.02-.13-.03-.27-.11-.36-.08-.1-.21-.16-.34-.17-.03,0-2.8-.13-5.03-1.24-1.65-.82-2.79-2.22-3.55-4.39-1.05-2.98.54-4.97,2.06-6.91,1.17-1.46,2.26-2.85,2.01-4.53-.03-.26-.27-.44-.53-.39-.23.03-.4.23-.4.46,0,.02,0,.04,0,.06.02.11.03.22.03.34,0,1.14-.86,2.23-1.84,3.47-1.19,1.49-2.61,3.28-2.61,5.63,0,.68.11,1.39.4,2.17.47,1.35,1.09,2.4,1.85,3.25-1.66-.44-4.12-1.27-6.26-2.69-.09-.06-.19-.06-.28-.06.3-1.94,0-4.79-.14-5.88-.03-.26-.27-.44-.53-.41-.27.03-.45.27-.41.53.36,2.84.39,6.23-.21,6.74l-1,.79-2.41,1.94-2.31,1.91-.71.57c-.58.51-2.21.46-3.18.44l-.62-.02s-.73,0-1.57,0c.22-.51.39-1.01.2-1.15-.28-.21-1.13.64-1.59,1.16h-.93c.5-.81,1.12-1.76,1.39-1.97l.97-.07c.78.01,1.74.03,2.59-.41,1.4-.72,1.59-1.99,1.66-2.41.11-.58-.88-3.68-1.38-4.43-.57-.86-3.03-2.59-4.86-2.99-1.36-.3-3.68.13-5.08.39l-.77.13s-.38.03-.38.03c-.57.07-1.85.16-2.42-.31.4-.21.85-.51,1.07-.99l.03-.96c-.75-1.97-2.28-1.47-2.94-1.25l-.34.1s-1.02-.15-1.59-1.36l.89-.49c.23-.13.31-.42.19-.65-.12-.22-.41-.3-.64-.18l-.91.49c-.1-.22-.14-.43-.1-.62.08-.41.39-.74.92-.98.12-.06.21-.16.26-.28,0-.01.53-1.46,3.82-3.25l1.99-1.08c2.72-1.49,4.86-2.67,6.43-3l5.18-.64,1.61-.75c1.59-.84,3.97-2.09,6.84-2.66.24-.1,14.98-6.29,25.29,6.17,2.89,3.5,4.08,7.87,3.42,12.65"/>
  <path class="cls-1" d="m40.93,190.3c-.48-.24-1-.27-1.49-.1-.92.33-1.21,1.36-.69,1.6.51.23.8-.28.99-.36.09-.03.28-.15.59-.02.32.14.32.37.32.41.04.1.04.6.46.7.43.09,1.32-1.49-.18-2.22"/>
  <path class="cls-1" d="m32.87,196.49c-.64,1.36,1.07,3.08,1.63,2.8.57-.28-.77-1.46-.4-2.22.4-.85,3.28-2.08,3.24-2.56-.04-.48-3.86.71-4.46,1.98"/>
  <path class="cls-1" d="m67.52,221.63c-1.34-.06-2.59-.22-2.68.4-.09.61,1.3.79,2.68.84.95.04,2.61-.18,2.52-.72-.1-.54-1.63-.48-2.52-.52"/>
  <path class="cls-1" d="m64.24,224.67c-1.61-.06-3.12-.21-3.24.4-.1.61,1.56.77,3.24.84,1.14.04,3.16-.18,3.03-.72-.11-.54-1.96-.47-3.03-.52"/>
  <path class="cls-1" d="m61.39,227.78c-1.5-.06-2.94-.21-3.04.39-.1.58,1.46.75,3.04.8,1.07.04,2.96-.17,2.85-.69-.12-.51-1.84-.46-2.85-.49"/>
  <path class="cls-1" d="m58.75,231.03c-1.12-.05-2.18-.18-2.26.33-.07.51,1.08.65,2.26.7.79.03,2.2-.16,2.11-.61-.08-.45-1.37-.4-2.11-.42"/>
  <path class="cls-1" d="m33.73,194.82l.36-.13c.35-.11.54-.5.43-.85-.12-.36-.51-.56-.86-.44l-.35.11c-.36.12-.55.51-.44.86.11.35.5.55.86.44"/>
  <path class="cls-1" d="m54.66,187.62c-.1-.17-.4-.24-.56-.17l-3.74,1.24c-.34.16-.43.63-.28.98.16.34.61.62.95.46l3.5-1.94c.17-.08.25-.39.13-.58"/>
  <path class="cls-1" d="m54.99,191.49c.19-.05.32-.34.23-.55-.08-.2-.35-.3-.52-.27l-2.9.44c-.36.09-.54.55-.45.91.1.36.49.72.86.62l2.79-1.15Z"/>
  <path class="cls-1" d="m54.83,194.17l-2.28-.1c-.33.04-.55.42-.52.75.04.34.33.7.67.66l2.29-.46c.2-.03.36-.29.31-.51-.05-.21-.3-.36-.47-.34"/>
  <path class="cls-1" d="m54.38,197.46l-1.7-.39c-.31-.01-.55.3-.57.6-.01.3.21.67.51.68l1.79-.12c.18,0,.36-.22.35-.41-.02-.19-.22-.35-.38-.37"/>
  <path class="cls-1" d="m69.91,185.61c-.36-.08-.73.14-.82.5-.09.37.14.73.5.83.02,0,1.98.59,3.49,1.23.29.12.6.04.75-.23.14-.27.04-.6-.23-.74-1.69-.89-3.61-1.56-3.68-1.58"/>
  <path class="cls-1" d="m70.67,188.81c-.33-.08-.66.12-.74.45-.08.33.12.66.46.74,0,0,1.47.4,2.62.87.25.11.54.04.67-.2.13-.25.03-.54-.21-.67-1.53-.8-2.75-1.17-2.81-1.19"/>
  <path class="cls-1" d="m70.81,191.77c-.27-.04-.53.09-.6.36-.07.27.1.54.37.6.01,0,1.36.41,1.83.6.22.1.48.03.6-.18.11-.22.03-.49-.19-.6-1.37-.72-1.74-.74-2.01-.78"/>
  <path class="cls-1" d="m70.66,194.39c-.2,0-.48.09-.54.32-.06.25.09.48.33.55,0,0,.81.18,1.19.3.2.08.44.03.54-.16.1-.2.03-.44-.17-.55-.41-.22-1.16-.46-1.35-.46"/>
  <path class="cls-1" d="m79.64,192.63c-1.37-1.34-2.07-1.78-2.14-1.82-.32-.19-.74-.08-.93.24-.19.33-.08.74.24.93.01.01.79.39,2.05,1.43.24.2.57.21.78,0,.22-.21.22-.56,0-.78"/>
  <path class="cls-1" d="m76.93,193.95c-.3-.16-.67-.05-.82.25-.17.3-.05.67.25.83.01,0,.45.16,1.45.92.21.17.51.18.7-.03.19-.2.17-.52-.03-.7-1.27-1.17-1.48-1.24-1.54-1.26"/>
  <path class="cls-1" d="m76.05,196.51c-.25-.11-.54-.06-.67.18-.14.24-.06.54.17.68,0,.01.51.3.9.63.19.16.46.17.64,0,.17-.18.17-.46,0-.63-.18-.19-.75-.73-1.03-.85"/>
  <path class="cls-1" d="m75.04,198.6c-.19-.08-.49-.09-.62.1-.15.2-.1.48.1.63.01,0,.18.08.48.33.17.16.39.2.56.06.17-.15.19-.39.04-.56-.3-.37-.38-.47-.56-.55"/>
  <path class="cls-1" d="m81.4,199.12c.14.2.4.29.62.16.21-.12.28-.4.15-.61-.13-.23-.38-.72-.61-.9-.21-.16-.5-.2-.7,0-.19.2-.19.51,0,.7,0,.01.25.23.54.65"/>
  <path class="cls-1" d="m80.09,199.62c-.16-.11-.45-.18-.63,0-.17.18-.17.47,0,.63.18.16.27.25.31.27.19.18.35.26.55.15.19-.11.22-.36.14-.55-.1-.18-.2-.4-.37-.5"/>
  <path class="cls-1" d="m108.31,149.06h-2.61l-2.6-1.68c-.11-.1-.26-.16-.43-.16h-3.36c-.67,0-1.21-.41-1.97-.96-1.16-.85-2.73-2-5.56-2-3.21,0-4.79,1.26-5.55,2.26-.77-1.04-2.36-2.26-5.51-2.26-2.83,0-4.42,1.15-5.57,2-.75.55-1.3.96-1.97.96h-3.37c-.17,0-.33.06-.45.18l-2.57,1.65h-2.62c-.37,0-.68.31-.68.68v23.43c0,.37.31.68.68.68h18.04c.41.39,1.36,1.12,2.81,1.38.71.13,1.89.09,2.49-.01,1.41-.26,2.33-.99,2.74-1.37h18.04c.38,0,.68-.31.68-.68v-23.43c0-.38-.3-.68-.68-.68m-21.38-1.16c0,.08.73-2.27,4.86-2.27,2.38,0,3.64.92,4.76,1.74.85.63,1.65,1.22,2.77,1.22h2.68v19.07h-2.74c-.91,0-1.89-.42-3.02-.92-1.41-.6-3-1.29-4.88-1.29-2.08,0-3.66,1.2-4.43,1.91v-19.45Zm-16.43.68h2.69c1.11,0,1.91-.59,2.77-1.22,1.12-.81,2.38-1.74,4.77-1.74,4.1,0,4.84,2.35,4.87,2.45,0,0-.03,17.5-.03,19.27-.77-.72-2.36-1.91-4.42-1.91-1.88,0-3.48.69-4.88,1.29-1.13.5-2.11.92-3.02.92h-2.75v-19.07Zm-2.87,1.57c.26-.17.93-.6,1.51-.98v19.16c0,.37.31.68.69.68h3.42c1.19,0,2.34-.5,3.56-1.03,1.35-.59,2.74-1.18,4.34-1.18,2.24,0,3.9,1.93,3.92,1.96.12.15.31.24.51.24h.67s.01.01.01.01h.68c.19-.01.38-.11.51-.25.01-.03,1.68-1.96,3.92-1.96,1.6,0,3,.59,4.34,1.18,1.21.53,2.36,1.03,3.55,1.03h3.42c.38,0,.68-.31.68-.68v-19.16c.59.38,1.27.82,1.52.98v19.45h-15.26c-.18,0-.36.07-.49.2-.01.01-1.04,1.06-2.51,1.24h-.67c-1.51-.15-2.57-1.23-2.58-1.24-.12-.13-.31-.2-.49-.2h-15.25c0-1.25,0-18.76,0-19.45m40.01,22.34h-17.65c-.19,0-.39.08-.52.24,0,0-.77.89-2.18,1.15-.46.09-1.48.11-2,.02-1.46-.27-2.26-1.17-2.26-1.17-.14-.15-.33-.23-.53-.23h-17.64v-22.07h1.4v19.87c0,.37.3.68.68.68h15.67c.45.4,1.6,1.28,3.2,1.45,0,0,.97-.01.97-.01,1.54-.2,2.66-1.04,3.1-1.44h15.67c.36,0,.67-.31.67-.68v-19.87h1.4v22.07"/>
  <path class="cls-1" d="m73.44,152.02c.33-.02,1.54-.11,3.05-.78l1.11-.53,2.11-.84c1.23-.32,2.54-.18,2.94-.08-.16-.04-.27-.2-.23-.37.03-.16.19-.27.35-.23-.01,0-1.6-.32-3.22.09l-2.22.89-1.1.53c-1.4.62-2.52.71-2.82.72-.17,0-.3.15-.3.32.01.16.15.29.32.29"/>
  <path class="cls-1" d="m73.44,156.04c.33-.01,1.54-.1,3.05-.77l1.13-.53,2.09-.84c1.24-.32,2.54-.17,2.94-.08.17.03.33-.07.36-.23.03-.17-.08-.33-.24-.36-.01,0-1.58-.32-3.21.09l-2.21.89-1.1.53c-1.4.62-2.53.7-2.83.72-.17,0-.3.15-.29.32,0,.16.14.3.32.29"/>
  <path class="cls-1" d="m73.44,160.08c.33-.01,1.55-.1,3.05-.77l1.11-.53,2.11-.85c1.23-.31,2.54-.17,2.94-.09.17.04.33-.06.36-.23.03-.16-.07-.32-.23-.36-.01,0-1.6-.31-3.22.1l-2.22.89-1.1.52c-1.4.63-2.52.72-2.82.72-.17,0-.3.14-.3.32.01.15.15.29.32.29"/>
  <path class="cls-1" d="m76.49,163.33l1.12-.53,2.1-.84c1.23-.32,2.54-.17,2.94-.09-.16-.03-.27-.2-.23-.35.03-.16.19-.27.36-.23-.02,0-1.6-.32-3.21.09l-2.22.89-1.1.53c-1.39.62-2.51.7-2.83.71-.17,0-.3.15-.29.31,0,.17.14.3.32.29.34-.01,1.55-.09,3.05-.77"/>
  <path class="cls-1" d="m89.72,149.78c.4-.09,1.72-.23,2.94.08,0,0,2.11.85,2.11.85l1.12.53c1.51.67,2.72.76,3.05.77.17,0,.31-.13.32-.29,0-.16-.12-.31-.3-.32-.3-.01-1.41-.09-2.82-.72l-1.1-.52-2.22-.89c-1.62-.42-3.2-.1-3.22-.09-.16.03-.27.19-.23.35.03.17.2.27.36.24"/>
  <path class="cls-1" d="m89.72,153.81c.4-.08,1.71-.23,2.94.08l2.09.85,1.12.53c1.5.67,2.71.76,3.05.77.17,0,.31-.13.32-.29,0-.16-.12-.31-.29-.32-.3-.01-1.42-.09-2.83-.72l-1.1-.53-2.21-.89c-1.63-.41-3.2-.09-3.22-.09-.16.03-.27.19-.23.36.03.16.2.27.36.23"/>
  <path class="cls-1" d="m89.72,157.83c.4-.08,1.72-.21,2.94.1l2.1.85,1.12.53c1.5.66,2.71.75,3.05.76.17,0,.31-.12.32-.29,0-.18-.12-.32-.3-.32-.3-.01-1.42-.09-2.82-.72l-1.09-.51-2.22-.9c-1.29-.33-2.67-.2-3.22-.09-.15.04-.27.2-.23.35.03.17.2.27.36.23"/>
  <path class="cls-1" d="m94.75,162.79l1.12.54c1.5.68,2.71.76,3.06.77.16,0,.3-.12.31-.3,0-.17-.12-.3-.3-.3-.3-.02-1.42-.1-2.82-.71l-1.1-.53-2.21-.89c-1.3-.33-2.67-.2-3.21-.09-.16.04-.27.2-.24.36.03.16.2.27.36.23.4-.08,1.72-.22,2.94.09l2.09.84Z"/>
  <path class="cls-1" d="m18.73,152.02c.34-.02,1.54-.11,3.05-.78l1.12-.53,2.1-.84c1.23-.32,2.54-.18,2.94-.08-.16-.04-.27-.2-.23-.37.03-.16.2-.27.36-.23-.01,0-1.6-.32-3.21.09l-2.22.89-1.1.53c-1.41.62-2.53.71-2.83.72-.18,0-.3.15-.3.32.01.16.15.29.32.29"/>
  <path class="cls-1" d="m18.74,156.04c.33-.01,1.55-.1,3.05-.77l1.13-.53,2.09-.84c1.24-.32,2.54-.17,2.94-.08.17.03.33-.07.36-.23.03-.17-.08-.33-.24-.36-.01,0-1.58-.32-3.21.09l-2.2.89-1.11.53c-1.4.62-2.52.7-2.83.72-.17,0-.3.15-.29.32,0,.16.15.3.32.29"/>
  <path class="cls-1" d="m18.73,160.08c.34-.01,1.55-.1,3.05-.77l1.12-.53,2.1-.85c1.23-.31,2.54-.17,2.94-.09.17.04.32-.06.36-.23.03-.16-.08-.32-.24-.36-.01,0-1.6-.31-3.21.1l-2.22.89-1.1.52c-1.41.63-2.53.72-2.83.72-.18,0-.3.14-.3.32.01.15.15.29.32.29"/>
  <path class="cls-1" d="m18.73,164.1c.34-.01,1.55-.1,3.05-.77l1.13-.54,2.09-.84c1.23-.31,2.54-.17,2.94-.09-.16-.03-.27-.19-.23-.35.03-.16.2-.27.36-.24-.01,0-1.6-.31-3.21.1l-2.21.89-1.1.53c-1.4.61-2.53.7-2.83.71-.18,0-.3.14-.3.3.01.18.15.3.32.3"/>
  <path class="cls-1" d="m35.25,149.42c.04.17-.07.32-.23.36.4-.09,1.71-.23,2.94.08l2.11.85,1.11.53c1.5.67,2.72.76,3.05.77.18,0,.31-.13.32-.29,0-.16-.13-.31-.3-.32-.31-.01-1.42-.09-2.83-.72l-1.1-.52-2.23-.89c-1.61-.42-3.19-.1-3.21-.09.16-.04.33.07.36.23"/>
  <path class="cls-1" d="m35.01,153.81c.4-.08,1.71-.23,2.94.08l2.09.85,1.12.53c1.5.67,2.72.76,3.05.77.17,0,.31-.13.33-.29,0-.16-.13-.31-.3-.32-.3-.01-1.42-.09-2.83-.72l-1.1-.53-2.21-.89c-1.63-.41-3.2-.09-3.22-.09-.16.03-.27.19-.23.36.03.16.2.27.36.23"/>
  <path class="cls-1" d="m37.95,157.92l2.1.85,1.12.53c1.5.67,2.71.76,3.05.77.18,0,.31-.13.32-.29,0-.18-.12-.32-.3-.32-.31,0-1.42-.09-2.83-.72l-1.09-.52-2.23-.89c-1.61-.42-3.19-.1-3.21-.09-.16.04-.27.2-.23.35.03.16.19.27.35.23.4-.08,1.72-.21,2.94.1"/>
  <path class="cls-1" d="m40.05,162.79l1.12.54c1.5.68,2.72.76,3.06.77.17,0,.3-.12.32-.3,0-.17-.13-.3-.3-.3-.3-.02-1.42-.1-2.83-.71l-1.1-.53-2.21-.89c-1.62-.41-3.19-.09-3.21-.09.16-.03.32.08.35.23.04.16-.07.33-.23.35.4-.08,1.71-.22,2.94.09l2.09.84Z"/>
  <path class="cls-1" d="m53.51,149.12h-2.61l-2.57-1.67c-.12-.11-.27-.18-.46-.18h-3.37c-.66,0-1.21-.4-1.96-.95-1.15-.84-2.72-2-5.56-2-3.21,0-4.79,1.25-5.54,2.25-.77-1.03-2.35-2.25-5.52-2.25-2.83,0-4.41,1.15-5.56,2-.76.55-1.3.95-1.97.95h-3.37c-.19,0-.35.08-.47.2l-2.53,1.65h-2.63c-.37,0-.67.3-.67.68v23.42c0,.38.31.68.67.68h18.05c.41.39,1.36,1.12,2.81,1.39.7.13,1.89.08,2.48-.01,1.43-.26,2.34-.99,2.74-1.37h18.03c.38,0,.68-.3.68-.68v-23.42c0-.38-.3-.68-.67-.68m-21.38-1.17c0,.08.73-2.27,4.85-2.27,2.38,0,3.65.92,4.76,1.74.85.62,1.66,1.2,2.77,1.2h2.68v19.08h-2.74c-.91,0-1.89-.42-3.01-.92-1.41-.61-3-1.29-4.88-1.29-2.07,0-3.65,1.19-4.43,1.91v-19.45Zm-16.43.67h2.69c1.11,0,1.91-.58,2.77-1.2,1.1-.82,2.37-1.74,4.76-1.74,4.12,0,4.85,2.36,4.88,2.46,0,0-.02,17.5-.02,19.26-.78-.71-2.36-1.91-4.43-1.91-1.88,0-3.48.68-4.88,1.29-1.13.49-2.12.92-3.02.92h-2.74v-19.08Zm-2.87,1.59c.26-.18.93-.61,1.51-.99v19.16c0,.37.31.68.68.68h3.43c1.19,0,2.34-.49,3.56-1.03,1.35-.59,2.74-1.18,4.34-1.18,2.24,0,3.9,1.94,3.92,1.96.13.15.31.25.51.25h.67s.01,0,.01,0h.68c.19,0,.38-.1.51-.25.01-.01,1.67-1.96,3.92-1.96,1.59,0,2.99.6,4.34,1.18,1.23.53,2.37,1.03,3.56,1.03h3.42c.38,0,.68-.31.68-.68v-19.16c.59.38,1.26.82,1.52.99v19.45h-15.25c-.2,0-.36.06-.49.2-.01,0-1.04,1.06-2.51,1.23h-.66c-1.51-.15-2.58-1.23-2.6-1.24-.12-.13-.3-.2-.48-.2h-15.25c0-1.25,0-18.76,0-19.45m40,22.33h-17.64c-.19,0-.39.09-.52.25-.02,0-.77.89-2.18,1.15-.45.08-1.49.11-2.01.01-1.46-.26-2.25-1.15-2.25-1.17-.13-.15-.32-.23-.52-.23H10.07v-22.07h1.4v19.87c0,.37.3.68.68.68h15.67c.45.4,1.6,1.29,3.21,1.44,0,0,.97,0,.97,0,1.55-.2,2.66-1.05,3.1-1.44h15.67c.37,0,.68-.31.68-.68v-19.87h1.39v22.07"/>
  <path class="cls-1" d="m58.82,127.25c-8.63,0-17.79,2.06-17.79,5.91,0,1.75,1.93,3.14,4.84,4.13.3.11,1.17.35,1.24.18.02-.04-1.07-.52-1.07-.52-2.65-1.2-3.66-2.7-3.66-3.79,0-2.15,7.03-4.55,16.43-4.55s16.43,2.41,16.43,4.55c0,1.08-.94,2.56-3.51,3.77,0,0-.99.42-1.04.51-.1.16,1.13-.17,1.13-.17,2.89-.98,4.79-2.36,4.79-4.11,0-3.84-9.16-5.91-17.78-5.91"/>
  <path class="cls-1" d="m79.23,120.62c-.81,1.02-2.51,3.94-2.7,4.86,0,.02-.02.08-.02.08,0,0-.07-.03-.09-.04-.71-.41-1.61-.85-2.81-1.3-3.73-1.4-9.08-2.2-14.66-2.2h-.07c-5.58,0-10.92.8-14.65,2.2-1.19.45-2.1.9-2.81,1.3-.02,0-.08.04-.08.04,0,0-.02-.06-.02-.08-.19-.92-1.89-3.84-2.7-4.86-.22-.29-.54,0-.4.27,1.36,2.55,1.75,4.7,1.89,5.54.07.4.13.69.48.85.21.09.45.07.65-.05.79-.51,1.81-1.11,3.47-1.73,3.59-1.35,8.75-2.12,14.18-2.12h.07c5.43,0,10.59.77,14.19,2.12,1.65.62,2.69,1.23,3.48,1.73.19.13.44.14.65.05.35-.16.4-.45.47-.85.14-.84.54-2.99,1.89-5.54.14-.27-.17-.56-.4-.27"/>
  <path class="cls-1" d="m58.92,124.08c.67,0,1.21.54,1.21,1.22s-.54,1.2-1.21,1.2-1.21-.54-1.21-1.2.55-1.22,1.21-1.22"/>
  <path class="cls-1" d="m50.38,124.75c.67,0,1.21.55,1.21,1.22s-.54,1.22-1.21,1.22-1.21-.54-1.21-1.22.54-1.22,1.21-1.22"/>
  <path class="cls-1" d="m42.28,127.43c.67,0,1.21.54,1.21,1.22s-.54,1.2-1.21,1.2-1.21-.54-1.21-1.2.54-1.22,1.21-1.22"/>
  <path class="cls-1" d="m46.24,126.31c.35,0,.64.28.64.63s-.28.63-.64.63-.64-.28-.64-.63.29-.63.64-.63"/>
  <path class="cls-1" d="m54.63,124.87c.35,0,.64.28.64.63s-.29.63-.64.63-.63-.28-.63-.63.28-.63.63-.63"/>
  <path class="cls-1" d="m67.45,124.75c.67,0,1.21.55,1.21,1.22s-.54,1.22-1.21,1.22-1.21-.54-1.21-1.22.54-1.22,1.21-1.22"/>
  <path class="cls-1" d="m75.54,127.43c.67,0,1.21.54,1.21,1.22s-.54,1.2-1.21,1.2-1.21-.54-1.21-1.2.54-1.22,1.21-1.22"/>
  <path class="cls-1" d="m71.59,126.31c.35,0,.64.28.64.63s-.29.63-.64.63-.64-.28-.64-.63.28-.63.64-.63"/>
  <path class="cls-1" d="m63.2,124.86c.35,0,.64.28.64.63s-.28.63-.64.63-.64-.28-.64-.63.29-.63.64-.63"/>
  <path class="cls-1" d="m58.89,110.51c.67,0,1.23.55,1.23,1.23s-.55,1.24-1.23,1.24-1.23-.56-1.23-1.24.55-1.23,1.23-1.23"/>
  <path class="cls-1" d="m58.89,107.07c.67,0,1.23.55,1.23,1.23s-.55,1.23-1.23,1.23-1.23-.55-1.23-1.23.55-1.23,1.23-1.23"/>
  <path class="cls-1" d="m58.89,103.64c.67,0,1.23.54,1.23,1.23s-.55,1.22-1.23,1.22-1.23-.54-1.23-1.22.55-1.23,1.23-1.23"/>
  <path class="cls-1" d="m52.95,103.95c.68,0,1.23.54,1.23,1.23s-.55,1.23-1.23,1.23-1.23-.55-1.23-1.23.55-1.23,1.23-1.23"/>
  <path class="cls-1" d="m48.93,102.63c.67,0,1.23.55,1.23,1.22s-.55,1.23-1.23,1.23-1.23-.55-1.23-1.23.55-1.22,1.23-1.22"/>
  <path class="cls-1" d="m44.77,101.72c.67,0,1.23.54,1.23,1.22s-.55,1.23-1.23,1.23-1.23-.55-1.23-1.23.55-1.22,1.23-1.22"/>
  <path class="cls-1" d="m40.54,102.3c.67,0,1.23.55,1.23,1.23s-.55,1.23-1.23,1.23-1.23-.55-1.23-1.23.55-1.23,1.23-1.23"/>
  <path class="cls-1" d="m36.88,104.59c.67,0,1.23.55,1.23,1.23s-.55,1.23-1.23,1.23-1.23-.55-1.23-1.23.55-1.23,1.23-1.23"/>
  <path class="cls-1" d="m34.76,108.32c.68,0,1.23.55,1.23,1.23s-.55,1.23-1.23,1.23-1.23-.55-1.23-1.23.55-1.23,1.23-1.23"/>
  <path class="cls-1" d="m34.8,112.63c.68,0,1.23.55,1.23,1.23s-.55,1.23-1.23,1.23-1.23-.55-1.23-1.23.55-1.23,1.23-1.23"/>
  <path class="cls-1" d="m36.33,116.63c.67,0,1.23.54,1.23,1.23s-.55,1.22-1.23,1.22-1.23-.54-1.23-1.22.55-1.23,1.23-1.23"/>
  <path class="cls-1" d="m73.05,134.28c0-2.98-9.3-3.77-14.23-3.77s-14.24.79-14.24,3.77,9.31,3.77,14.24,3.77,14.23-.79,14.23-3.77m-14.23,2.41c-8.5,0-12.88-1.68-12.88-2.41s4.38-2.41,12.88-2.41,12.86,1.69,12.86,2.41-4.38,2.41-12.86,2.41"/>
  <path class="cls-1" d="m56.95,101.05h1.29v1.35c0,.38.31.68.68.68s.69-.3.69-.68v-1.35h1.28c.38,0,.68-.3.68-.68s-.3-.68-.68-.68h-1.28v-1.25c0-.37-.31-.68-.69-.68s-.68.31-.68.68v1.25h-1.29c-.37,0-.67.3-.67.68s.3.68.67.68"/>
  <path class="cls-1" d="m40.9,121.14l.02.03.04.08v-.03c.59,1.19,2.13,2.2,4.09,1.57,1-.33,2.02-.52,2.63-1.67.31-.61.54-1.39-.13-2.24-.16-.22-.67-.49-.9-.37-.18.1-.32.48-.09.73.32.37.16,1.04-.4,1.33-.38.2-.8,0-.86-.16-.03-.07.72-.55.07-1.1-.51-.39-1.82-1.67-.03-2.51,1.4-.66,2.48,1.23,2.61,1.49.14.27.29.16.23-.11-.27-1.35-1.43-1.78-1.73-3.29-.22-1.11.58-2.02.99-2.41.14-.13.41-.16.63-.08.55.22,1.54.74,1.76,1.81.31,1.49-.59,2.34-.32,3.7.05.26.24.3.26,0,.02-.3.29-2.45,1.83-2.39,1.97.09,1.26,1.77.94,2.32-.4.76.45.91.48.96.07.15-.25.56-.73.51-.61-.06-1.02-.6-.87-1.07.1-.32-.17-.62-.36-.63-.26-.02-.62.42-.69.69-.28,1.04.23,1.68.75,2.12,1,.83,2.54.72,3.35.65,2.77-.3,2.94-1.98,2.94-1.98-.58.25-1.86.7-1.86.7-.04.02-.08.03-.14.03-.23,0-.43-.2-.43-.42v-2.66c0-.24.2-.43.43-.43,0,0,.11.01.17.03l1.89.75-.53-1.53c-.03-.05-.04-.11-.04-.16,0-.25.2-.44.43-.44h1.58s1.6,0,1.6,0c.23,0,.43.19.43.44,0,.05-.01.11-.03.16l-.54,1.53,1.89-.75c.06-.02.16-.03.16-.03.24,0,.43.19.43.43v2.66c0,.23-.19.42-.43.42-.04,0-.08,0-.13-.03,0,0-1.28-.45-1.86-.7,0,0,.18,1.68,2.94,1.98.82.08,2.35.18,3.35-.65.52-.43,1.03-1.08.75-2.12-.07-.26-.44-.71-.69-.69-.21.01-.48.32-.37.63.15.46-.26,1.01-.88,1.07-.47.04-.8-.35-.72-.51.02-.05.86-.2.47-.96-.32-.56-1.02-2.24.95-2.32,1.54-.06,1.81,2.09,1.83,2.39.02.29.21.26.26,0,.27-1.36-.63-2.2-.33-3.7.22-1.07,1.23-1.6,1.78-1.81.21-.08.48-.04.61.08.42.39,1.21,1.3.99,2.41-.29,1.5-1.45,1.93-1.72,3.29-.06.27.1.37.23.11s1.22-2.15,2.61-1.49c1.78.84.47,2.12-.03,2.51-.66.55.07,1.03.06,1.1-.05.16-.46.36-.86.16-.55-.29-.72-.96-.4-1.33.22-.25.08-.63-.09-.73-.23-.11-.73.15-.9.37-.66.86-.43,1.63-.11,2.24.6,1.15,1.63,1.34,2.63,1.67,1.95.63,3.49-.38,4.08-1.57v.03l.04-.08.02-.03c1.29-1.75,4.31-5.87,4.31-9.64s-3.26-6.5-7.6-6.5c-1.9,0-3.69.65-5.42,1.29-1.89.69-3.7,1.32-5.55,1.13v-3.81c0-.38-.3-.68-.68-.68s-.67.3-.67.68v10.01h-4.84v-10.01c0-.38-.3-.68-.68-.68s-.67.3-.67.68v3.81c-1.85.19-3.65-.44-5.54-1.13-1.74-.63-3.53-1.29-5.43-1.29-4.33,0-7.59,2.8-7.59,6.5s3.01,7.88,4.31,9.64m27.82-13.58c1.7-.62,3.3-1.2,4.96-1.2,3.56,0,6.23,2.21,6.23,5.14,0,.98-.26,2-.65,3.01-.16-.68-.46-1.39-.95-2.03-1.14-1.49-2.98-2.22-5.49-2.19-1.11-1.18-3.32-2.02-5.59-2.06-.2,0-.38.03-.57.04.7-.22,1.38-.46,2.06-.7m-6.02,1.25c.43.03.85.03,1.26,0-.45.19-.87.42-1.26.71v-.71Zm.06,2.5c1.28-1.55,3.33-1.74,4.45-1.72,2.28.04,4.2.96,4.84,1.8.13.18.34.28.57.27,2.17-.08,3.72.48,4.62,1.65.98,1.27.95,3.06.69,3.88,0,.03,0,.04,0,.06-.22.37-.43.72-.65,1.04.22-2.41-1.34-4.08-2.96-4.9,0,0-.47-.22-.63,0-.34.49,2.92,2.75,2.07,5.63-.49,1.67-1.41,2.29-2.14,2.53-.09-.01-.16,0-.25-.02.35-.31.54-.72.54-1.16,0-.11-.01-.25-.04-.37,0-.03-.03-.06-.03-.09.45-.46.95-1.18.95-2.05,0-.08,0-.16-.01-.25-.07-.6-.42-1.46-1.68-2.05-.15-.07-.29-.11-.44-.16.02-.08.05-.16.07-.25.04-.22.07-.44.07-.64,0-1.55-1.1-2.8-1.84-3.33,0,0-.51-.39-1.12-.23-.86.23-2.78,1.13-3.16,2.98-.01.1-.01.17-.03.27-.16-.02-.3-.05-.47-.04-.98.04-1.59.38-1.97.76,0-.32-.34-.59-.93-.47.35-.48.97-1.16,1.67-1.69.92-.71,1.99-1.11,1.99-1.29,0-.16-.4-.29-.86-.26-.53.04-1.15.27-1.37.37-.82.4-1.48.94-2.01,1.48v-1.75s.04-.02.06-.04m-9.12,3.63c-.38-.38-.98-.71-1.96-.76-.17,0-.33.03-.48.04,0-.1,0-.18-.03-.27-.38-1.86-2.29-2.74-3.16-2.98-.61-.17-1.13.23-1.13.23-.73.53-1.83,1.78-1.83,3.33,0,.21.02.42.06.64.02.09.05.16.07.25-.15.04-.29.09-.45.16-1.26.6-1.61,1.44-1.67,2.05-.01.09-.02.17-.02.25,0,.87.51,1.58.96,2.05-.01.03-.03.06-.04.09-.03.12-.04.25-.04.37,0,.44.2.85.54,1.16-.09.03-.17,0-.25.02-.73-.24-1.64-.86-2.13-2.53-.85-2.87,2.41-5.14,2.07-5.63-.16-.23-.64,0-.64,0-1.62.81-3.16,2.48-2.96,4.89-.21-.33-.43-.68-.64-1.04,0-.03,0-.04,0-.06-.25-.83-.29-2.61.69-3.89.89-1.16,2.45-1.72,4.62-1.65.22,0,.43-.1.56-.27.64-.84,2.56-1.76,4.84-1.8,1.11-.02,3.18.18,4.46,1.72.01.02.04.02.06.03v1.75c-.53-.54-1.18-1.08-2-1.48-.22-.11-.85-.34-1.37-.37-.46-.03-.85.1-.86.26,0,.16,1.06.58,1.99,1.29.69.53,1.31,1.22,1.67,1.69-.6-.11-.94.16-.94.48m1.52-6.13v.7c-.38-.28-.8-.51-1.25-.7.41.03.82.03,1.25,0m-10.98-2.45c1.67,0,3.27.59,4.97,1.2.67.25,1.36.49,2.06.7-.2,0-.38-.04-.58-.04-2.28.04-4.48.89-5.6,2.07-2.49-.03-4.34.7-5.48,2.18-.49.65-.78,1.35-.95,2.03-.38-1.01-.65-2.03-.65-3,0-2.94,2.68-5.15,6.23-5.15"/>
  <path class="cls-1" d="m64.9,103.95c.68,0,1.23.54,1.23,1.23s-.54,1.23-1.23,1.23-1.23-.55-1.23-1.23.55-1.23,1.23-1.23"/>
  <path class="cls-1" d="m68.93,102.63c.68,0,1.23.55,1.23,1.22s-.54,1.23-1.23,1.23-1.23-.55-1.23-1.23.55-1.22,1.23-1.22"/>
  <path class="cls-1" d="m73.09,101.72c.68,0,1.23.54,1.23,1.22s-.54,1.23-1.23,1.23-1.23-.55-1.23-1.23.55-1.22,1.23-1.22"/>
  <path class="cls-1" d="m77.31,102.3c.67,0,1.23.55,1.23,1.23s-.55,1.23-1.23,1.23-1.23-.55-1.23-1.23.55-1.23,1.23-1.23"/>
  <path class="cls-1" d="m80.97,104.59c.67,0,1.23.55,1.23,1.23s-.55,1.23-1.23,1.23-1.23-.55-1.23-1.23.55-1.23,1.23-1.23"/>
  <path class="cls-1" d="m83.1,108.32c.68,0,1.23.55,1.23,1.23s-.54,1.23-1.23,1.23-1.23-.55-1.23-1.23.55-1.23,1.23-1.23"/>
  <path class="cls-1" d="m83.06,112.64c.67,0,1.23.55,1.23,1.23s-.55,1.23-1.23,1.23-1.23-.55-1.23-1.23.55-1.23,1.23-1.23"/>
  <path class="cls-1" d="m81.53,116.63c.67,0,1.23.54,1.23,1.23s-.55,1.22-1.23,1.22-1.23-.54-1.23-1.22.54-1.23,1.23-1.23"/>
  <path class="cls-1" d="m98.69,44.4c.06-.23.17-.41.17-.68,0-.49-.17-1.05-.72-1.63-1.41-1.46-3.69-.04-4.82.68-.11-.35-.3-.77-.64-1.08.08-.18.13-.39.1-.64-.09-.89-.98-1.27-1.46-1.47l-.09-.04c1.05.1,2.68.1,3.13-1.42l.06-.86c-.15-.1,1.07.11,1.07.11,1.52.34,3.83.84,4.65-.78.11-.23.16-.45.16-.66,0-.56-.33-1.07-.58-1.45,0,0-.05-.1-.12-.2.67-.34,2.43-1.25,2.43-3.03,0-.44-.09-.92-.34-1.45-.82-1.81-2.67-1.27-3.66-.99,0,0-.17.04-.35.08,0-.04,0-.11,0-.11.02-.17.05-.37.05-.59,0-.42-.09-.88-.43-1.29-.23-.27-.56-.47-.97-.62.42-.51.72-1.1.72-1.81,0-.35-.07-.73-.23-1.15-.24-.58-.65-.99-1.18-1.2-1.2-.48-2.7.17-3.59.57-.05-.16-.13-.33-.23-.5.09-.25.16-.51.16-.77,0-.54-.15-1.02-.3-1.4.63-.42,1.6-1.2,1.8-2.22.02-.13.04-.26.04-.39,0-.46-.16-.9-.49-1.29-1.28-1.55-3.18-.91-4.09-.6,0,0-.07.03-.12.04-.28-.54-.66-1.17-1.69-1.42-1.19-.3-2.39.77-3.27,1.54,0,0-.22.18-.4.32-.07-.06-.14-.13-.14-.13l-1.32-.87c-1.21-.23-2.52,1.68-2.83,2.21,0,0-.03,0-.04.01-.2-.35-.48-.6-.7-.75.07-.08.16-.16.16-.16.65-.59,1.63-1.46,1.67-2.62v-.07c0-.6-.27-1.18-.78-1.7-.68-.69-1.41-1.03-2.18-1.02-1.38.03-2.44,1.18-3.14,1.94,0,0-.06.06-.1.1-.08-.22-.17-.47-.31-.7.07-.23.1-.49.1-.75,0-.3-.05-.61-.15-.89-.08-.2-.23-.32-.35-.48.77-.63,1.77-1.63,1.77-2.74,0-.28-.06-.58-.23-.87-.68-1.25-1.57-1.48-2.13-1.58,0-.02,0-.06,0-.06.03-.27.07-.64.07-1.04,0-1.02-.28-2.25-1.75-2.61-1.78-.44-2.94,1.11-3.56,1.96,0,0-.09.1-.17.2-.38-.37-1.04-.99-2.04-.87-.47-.73-1.16-1.18-2.04-1.3-1.7-.22-2.35,1.81-2.78,3.15,0,0-.17.46-.24.67-.12-.03-.24-.05-.24-.05-.47-.13-1.19-.32-1.91.11-.69.4-.94.99-.94,1.64,0,1.07.66,2.3,1.11,3.18l.2.41c-.77.16-1.4.44-1.78.95-.2.27-.29.57-.36.86-.09-.11-.19-.22-.29-.32.21-1.16.73-4.79-.1-5.81-.25-.31-.6-.48-.98-.49-.16,0-.28.11-.43.16-.01-1.34-.29-3.2-1.69-3.64-1.06-.34-1.64-.03-1.98.32-.85-1.07-2.47-2.99-4.29-2.15-.84.39-1.11,1.1-1.11,1.89,0,.97.41,2.05.68,2.72,0,0,.03.09.05.13-.64.06-1.63.26-1.93,1.48-.04.17-.06.35-.06.51,0,.05.01.09.01.13-1.03-.74-2.4-1.23-3.94-.16-.76.54-1.02,1.27-1.02,2.01,0,1.22.69,2.49,1.05,3.17-.59.26-1.45.74-1.57,1.87-.01.12-.03.24-.03.35,0,2.15,2.35,2.83,3.63,3.2,0,0,.11.03.23.08-.01.01-.03.02-.05.04-.13.19-.77.57-1.08.58,0-.04-.46-.31-.46-.31-1.08-.7-3.34-2.15-5.24-.11-.45.48-.61.96-.61,1.43,0,1.04.82,1.99,1.3,2.54,0,0,.38.49.4.52-.05,0-.21.41-.21.41l-.43,1.39c0,.13.03.23.04.35-.04.02-.18.11-.31.2-.03-.27-.07-.65-.07-.65-.07-1.24-.18-2.94-1.55-3.37-.84-.25-1.38.26-1.74.66,0-.03-.02-.11-.02-.11-.21-1.35-.55-3.6-2.26-3.63-.92-.02-1.39.88-1.74,1.54,0,0-.06.1-.11.19-.07-.06-.12-.14-.12-.14-.53-.65-1.5-1.86-2.87-1.29-1.17.49-1.46,1.53-1.46,2.53,0,.65.13,1.29.21,1.73,0,0,.02.18.06.35-.08.04-.17.09-.17.09-.54.26-1.29.61-1.57,1.38-.08.22-.11.42-.11.63,0,1.39,1.67,2.43,2.96,3.08-.33.22-.62.47-.84.72-.78-.4-1.67-.58-2.52-.27-.98.36-1.16,1.23-1.16,1.91,0,.11.01.18.02.28-.84-.22-2.24-.41-3.05,1.28-.26.53-.35,1.01-.35,1.41,0,.48.13.87.28,1.16.57,1.08,1.81,1.62,2.75,1.91-.2.28-.41.56-.47.96l.48,1.48c.91,1.06,2.21.52,3.17.13,1.09-.44,1.49-.53,1.76-.19,0,.13-.3.58-.66.99-.24-.06-.47-.08-.72-.03-.93.16-1.28.8-1.46,1.3-.82-.7-2.14-1.82-3.55-1.51-1.12.25-1.35,1.06-1.35,1.77,0,.34.04.65.09.87,0,0,0,.04,0,.04-.08-.01-.17-.03-.17-.03-.82-.18-1.94-.43-2.8.15-.47.32-.77.82-.9,1.51-.03.18-.05.36-.05.53,0,1.89,1.99,2.5,3.03,2.78-.25.34-.55.8-.55,1.37,0,.41.17.85.64,1.27,1.66,1.49,3.29.39,4.07-.14l.09-.06c.02.27.07.54.12.77,0,0,.05.27.07.44-.14.04-.32.09-.32.09-.67.2-1.59.46-2,1.26-.13.25-.2.53-.2.82,0,.27.06.55.16.85.64,1.83,2.54,1.73,3.45,1.68h.27c.01.07.02.15.02.15.05.49.13,1.25.8,1.86,1.66,1.51,3.92-.35,4.88-1.16h.01c.2.14.4.29.55.39.13.42.38.73.54.95h0c-.08.09-.17.18-.17.18-.59.56-1.79,1.68-1.79,3.03,0,.47.14.96.49,1.48.84,1.22,2.67.34,4.15-.37,0,0,.87-.38.99-.43,0,.01-.02.01-.02.02,0,.07.04.17.04.17.14.53.47,1.79,2.31,1.42,2.15-.44,2.76-2.09,3.21-3.29.13-.35.26-.66.41-.91.17.2.8.9.8.9l.92-.16c1.25-.77,2.17-3.66,2.47-4.71,2.59,1.22,5.04,4.98,5.42,5.94.24.62,1.21,2.18,2.65,4.49.84,1.35,1.86,2.98,2.06,3.42-.57,3.72-2.28,6.5-4.86,7.82l-1.08.54c-2.41,1.21-6.02,3.02-7.72,4.44-.19-.01-.37-.04-.59-.04-1.42,0-2.28.41-2.7.7-.95-.47-2.02-.76-2.93-.77-2.63-.01-3.84,1.25-4.4,2.32-.86,1.63-.61,3.77.11,4.8.98,1.41,2.46,2.11,4.36,2.11,1.34,0,2.12-.37,2.57-.68.49.25,1.37.61,2.61.61,1.47,0,2.34-.37,2.8-.65.75.44,1.59.72,2.46.72,1.23,0,1.96-.35,2.39-.66.47.27,1.29.6,2.42.6,1.32,0,2.15-.35,2.61-.63.76.44,1.61.7,2.48.7,1.23,0,1.95-.35,2.38-.66.49.27,1.29.6,2.42.6,1.3,0,2.13-.34,2.59-.61.75.43,1.6.68,2.46.68,1.23,0,1.96-.35,2.39-.66.48.27,1.29.6,2.42.6,1.32,0,2.14-.34,2.6-.62.76.43,1.6.69,2.47.69,1.23,0,1.96-.35,2.39-.66.48.27,1.29.6,2.43.6,1.47,0,2.34-.43,2.75-.72.96.5,2.06.79,2.99.79,2.1.01,3.68-.84,4.47-2.41.84-1.67.55-3.76-.2-4.74-1.09-1.42-2.46-2.09-4.34-2.09-1.33,0-2.11.38-2.56.68-.4-.2-1.04-.46-1.91-.56-.78-1.57-1.98-2.09-6.11-3.83l-.56-.23c-4.42-1.86-5.43-3.64-6.24-5.07l-.1-.19c-.73-1.28-2.26-9.08.89-13.89,1.79-2.74,4.01-3.97,5.27-4.48.22,1.34.62,3.15,1.29,3.86l1.1.57s.31-.16.59-.32l.18.41c.55,1.34,1.29,3.15,2.74,3.34,1.17.16,1.67-.33,1.97-.75.61.63,1.52,1.55,2.63,1.49,1.08-.04,1.62-.69,1.89-1.04.67.22,2.33.77,3.33-.72.27-.41.38-.78.38-1.11,0-.89-.78-1.5-1.17-1.8,0,0-.04-.04-.07-.06.22-.23.6-.61.62-1.15.41,0,.83-.07,1.23-.32.65-.41.72-1.03.77-1.4.04,0,.06,0,.09,0,.66.08,2.03.25,2.59-1.05.14-.3.19-.58.21-.82.6-.25.88-.77,1.01-1.18h0c.89.41,2.11.96,3.03.53.97-.46,1.09-1.54,1.16-2.2.75.15,2.01.41,2.96-.25.53-.37.85-.96.97-1.74.03-.18.04-.33.04-.49.02-2.31-2.62-2.8-3.71-2.97m-6.3-2.25c-.08.26-.3.44-.56.48.17-.13.38-.28.56-.48m-.97-.94s-.43.35-.43.35l-.6.53-.24.56c-.25.82-.81,2.48-3.88,3.06-.07-.1-.12-.2-.18-.29-.45-.7-.95-1.49-1.08-2.59-.19-1.55.01-2.72.19-3.43,2.48-.27,4.21.06,4.88.96.06.08.71.48.71.48.16.07.58.25.64.37m-14.4.11l.41.98.2.26c-.92.66-2.31.29-3.24.04l-1.22-.09c-.51.23-.59.75-.64,1.1l-.09.35c-.48.09-2.87-.44-3.68-.9.53-.74,1.09-1.35,1.65-1.7.01-.01.02-.02.04-.04.67-.34,1.5-.72,2.25-.96,1.66-.54,3.87-1.54,3.7-1.93-.16-.39-2.44.08-4.13.64-1.34.44-3.33,1.2-4.23,1.56.49-1.58,1.38-3.47,2.11-3.59.25.53.72.59.84.58l1.24-.89c1.65-1.58,2.23-1.8,2.42-1.71l.18.21.64.65c.48.21.91-.08,1.47-.44.32-.21,1.05-.7,1.29-.6.33.13.38.26.47.51l.56.73,1.37-.03c.55-.11,1.85-.39,2,0,.38.91-.05,1.25-1.06,1.76-.49.25-1,.51-1,1.08l.24.87.11.55c-.08.27-.32.41-.62.49-.12-.03-.23,0-.34.04-.38.03-.84,0-1.4-.1l-1.26.09c-.21.01-.27-.09-.38.09-.12.19,0,.2.08.41m-9.16,8.66c-.62.68-1.21,1.38-1.7,2.01,0-.2.03-.37.03-.58.07-1.53.15-3.25.67-4.65.36-.96.77-1.8,1.21-2.58.45.26,1.04.49,1.68.66-.04.43-.21.53-.59.7l-1.22.89c-.89,1.1-.67,2.63-.09,3.55m-2.91-11.72c.12-.64.29-1.31.5-2.04.36-1.19,2.75-5.33,2.17-5.56-.58-.23-2.86,3.83-3.26,5.17-.12.4-.24.79-.35,1.17-.52-1.02-.98-2.29-.98-3.25,0-.42.08-.78.31-1.03.17-.2.3-.21.52-.22l.53-.1c.29-.15.39-.35.39-.59,0-.27-.13-.57-.25-.85-.25-.61-.7-1.72-.7-2.65,0-.27.05-.54.14-.77.15-.34.44-.58.87-.73,0,.01.25.16.25.16.46.32.85.33,1.16.03l.29-.84c.08-.65.37-2.61,1.2-2.61l.35.13c.16.1.51.3.9.11l.34-.27c1.4-1.23,1.76-1.13,1.8-1.11.23.13.3.96.32,1.36.05.63.09,1.14.53,1.4,0,0,.97.22.97.22l.49.07c.51,1.21-.46,2.21-1.49,3.01-.27.21-.6.47-.48.92,0,0,.58.6.58.6l.41.28c.16.61-1.65,1.6-2.25,1.92l-.99.85c-.17.15-.29.09-.25.32.03.22.14.14.34.24l.8.41.27.06c.33,1.46-3.68,3.52-5.43,4.19m2.35.42c-.45,1.08-.72,2.14-.84,2.64-.3.13-.58.27-.84.4,0,0-.22.1-.4.18,0-.03-.01-.12-.01-.12-.05-.88-.1-1.56-.25-2.1.5-.16,1.37-.52,2.33-1m-3.76-.65s.08-.1.14-.14c.03-.02.06-.02.09-.04-.03.11-.06.22-.08.32-.05-.04-.09-.1-.14-.15m.75,1.89h0c-.03.08-.04.13-.07.13.02-.05.05-.08.06-.13m-1.38-2.11c-.34-.03-.68.03-.92.07h-.02c-.13-1.02-.61-3.09-1.55-3.88-.88-.73-1.96-.04-2.58.38-.56-1.18-1.73-2.85-3.02-3.16-.08-.07-.14-.13-.22-.2-.54-.44-1.1-.98-.97-1.86.04-.41.48-.61.9-.77.71-.33.66-.87.6-1.61-.12-1.62-.03-2.67.85-2.88,1.12-.26,2.06.87,2.94,2.05l.99.96c.62.17,1.03-.32,1.32-.67.4-.48.5-.51.61-.46.54.25.79.96.86,1.3-.15.39-.22.79-.22,1.21,0,1.1.42,2.18.73,2.93-.28.08-.59.24-.88.58-.46.53-.64,1.2-.64,1.93,0,1.42.69,3.04,1.23,4.06m-1.76,8.37c.23,1.08.32,2.16.32,3.03,0,.34,0,.64-.02.9-.04.82-.53,2.77-.91,4.06-.09-.16-2.18-3.68-2.18-3.68-1.08-1.79-1.34-3.42-1.4-4.63.03.01.04.03.06.03,1.76.7,2.49.57,3.8.34l.33-.06Zm.81-3.01c-.26-.2-.59-.5-.9-.91-.14-.18-.8-.96-1.71-1.63-1.55-1.17-3.64-2.34-3.83-1.97-.2.38,1.66,1.63,2.98,2.8.91.8,1.52,1.8,1.89,2.53.04.08.07.15.11.22.1.21.17.44.25.67l-.18.03c-1.25.22-1.66.3-3.05-.26l-.54-.33c.06-.17.06-.96.06-.96,0-.21.09-.27-.08-.4-.16-.14-.2-.06-.4,0l-1.26.27c-.65.29-1.77.76-2.38.49-.08-.04-.33-.14-.49-.63-.35-1.02-.03-1.34.29-1.64.21-.2.52-.51.45-.99-.1-.61-.71-.72-1.4-.84-1.28-.22-2.04-.48-2.04-1.08,0-.38.54-.94.91-1.2.14-.11.25-.27.27-.45.03-.18-.01-.36-.12-.51-.04-.06-1.11-1.58-.07-2.35.98-.73,1.57-.17,1.73.02.18.22.48.3.75.21.27-.09.45-.35.45-.63,0-.04.02-.94.67-1.1.59-.14,2.06,1.58,2.5,2.92.06.2.28.42.48.49.42.15.77-.09,1.21-.38.21-.14.83-.56,1.02-.5.57.49,1.11,2.69,1.11,3.34,0,.2.16.56.32.69.36.3.83.22,1.25.15l.58-.06c-.01.17-.17,1.49-.85,4.01m-10.87.12s-.01.04-.01.06l-.02.45c-.09.86-1.35,1.87-1.91,2.25-.29-.26-.56-.43-.82-.54-.12-.38-.54-1.79-.82-3.46-.5-3.1-.65-4.22-1.04-4.1-.38.13-.58,1.11-.23,4.1.09.7.21,1.32.33,1.87-.11-.1-.21-.19-.33-.26l-1.02-.13c-.08.03-.12.09-.19.13-.22-1.39-.84-2.57-1.51-3.25,0-.1-.02-.18-.06-.28-.1-.21-.09-.68-.03-.82.09-.04.87-1.06.87-1.06.11-.46-.22-.78-.58-1.15-.64-.62-1.19-1.23-.98-1.87.04-.1.11-.14.42-.26l.59-.32c.32-.28.3-.68.27-1.24-.07-1.21-.04-2.44,1.1-2.93h.31c.57.25,1.21,1.46,1.48,2.23.04.12.11.23.21.3.37.32.79.13,1.1,0,.6-.27,1.09-.39,1.56.04-.63.54-.88,1.19-.88,1.84s.23,1.22.49,1.72c-.43.41-1.03,1.09-1.03,1.91,0,1.8,1.9,2.2,3.03,2.4-.25.35-.48.76-.48,1.39,0,.28.06.63.16.98m-.74,4.77c.06.03.15.05.15.05,1.36.39,4.17,1.22,5.1,6.52.41,2.34.53,3.89.53,4.91,0,.67-.06,1.07-.11,1.35-1.36-1.03-5.12-4.42-5.12-8.64,0-.06,0-.52,0-.68,0-1.52-.25-2.6-.56-3.51m-8.3-8.14c-.29.11-.47.42-.68.68-.48-1.03-1.22-1.86-2.37-2.13-.83-.19-1.24.55-1.49,1.06-.69-.47-1.77-1.14-2.89-.91-.21.05-.41.16-.59.28-1.04-.41-1.92-.42-2.65-.26-.03-.19-.05-.35-.08-.48,0-.04-.72-.8-.72-.8-.7-.45-1.26-.89-1.09-1.63.14-.57.62-.8,1.25-.94h0c.2.06.4,0,.56-.12l1.15-.52.23-.6c.12-.45.22-.63.38-.7.41.82,1.04,1.56,1.92,2.1.15.99.68,1.74,1.62,2.13,1.53.66,3.83.25,5.11-.33.3.55.73,1.01,1.05,1.32,0,0,.02.02.03.02-.07.06-.48.46-.48.46-.19.24-.28.67-.28,1.1,0,.09.02.18.03.27m-13.51,3.67l-.21-.73s-.1-.22-.12-.25c-.19-.39-.32-.72-.1-1.08.23-.37.63-.39,1.08-.38l.52-.06.45-.3c.53-.42,1.45-1.17,2.94-.77-.16.35-.25.68-.25.99,0,.8.45,1.42.86,1.86l-2.51,4.2c-.58-.3-1.6-1.01-2.07-1.89l-.6-1.59Zm8.14-10.21c-.5.5-.74.53-.79.54-.02-.01-.03-.03-.05-.03-1.55-.86-2.12-2.62-2.12-4.03v-.06l-.18-.86s-.05-.17-.06-.22c.03.09.32.05.32.05l.62-.03.56-.11c.8-.18,2.29-.46,4.22.16-.11.84-1.27,3.33-2.51,4.6m11.32-1.56h0c.18.08.12.27.18.44-.02-.05-.09-.23-.18-.44m-1.63-11.96c-.04-.23-.14-.83-.04-.98.27-.11.81.35,1.03.54.08.08.1.15.2.17l.76.19c.76.04,2.28.14,3.46,2.39-.85.27-2.03.72-3.13,1.34-.93.53-1.69,1.04-2.27,1.48-1.13-2.12-.49-3.27-.17-3.84l.22-.5s-.05-.78-.05-.78m.1,7.26s-.02-.03-.03-.04l.03.04Zm18.57-9.03s.45-.24.45-.24c.28-.19.71-.47,1.02-.37.36.12.44.33.54.7l.1.36c.27.54.86,1.79.6,3.62-.04-.03-.06-.05-.09-.08-.53-.27-3.46-1.2-5.67-1.34.66-1.62,2.29-2.39,3.04-2.66m-3.83,1.23s-.01.01-.02.02l-.11-.13s.09.07.13.11m13.44,5.77c.55-.35,1.33-.96,1.6-1.8.06-.22.1-.44.1-.62,0-.46-.16-.79-.32-1.06.34-.17.63-.34.93-.51.37.28.78,1.03.92,1.32.08.16.69.66.69.66.53.15,1.06-.16,1.66-.51,1.01-.59,1.77-.96,2.44-.44.59.46.65.87.63,1.09-.97.56-1.65,1.75-1.91,2.26-1.3-.16-2.54.11-3.7.77-.62-.17-2.49.39-3.47,2-.25.43-.44.99-.54,1.6-.12-.13-.38-.39-.61-.64,1.14-.98,1.79-2,1.79-3.05,0-.36-.08-.72-.21-1.08m8.92,2.17l-.17.6.02.39c.01.18.03.4.03.66,0,.91-.23,2.23-1.56,3.33-1.21-.47-2.31-1.08-3-2.09l-.5-1.12c-.12-.45-.2-.94-.19-1.53,1.82-1.1,3.44-.66,3.99-.51.09.03.09.08.21.05l.92-.18s.45-.15.46-.15c-.07,0-.21.54-.21.54m-6.71-.22c0-.06,0-.11.01-.18-.01.07,0,.12-.01.18h0m-1.48,1.94s0-.03.01-.04c.28-.47.63-.75.97-.95l-.98.99Zm.4,4.23c-.06-.08-.16-.17-.21-.25-.31-.49-.45-1.04-.52-1.6l.73,1.86Zm-4.05.63c-.08-.36-.3-.51-.49-.68.86-.48,1.97-1.18,2.39-2.08.05.86.27,1.77.77,2.57-1.07.13-2.22,1.21-3.11,2.06,0,0-.04.04-.11.11.03-.06.09-.1.13-.15.3-.47.46-.94.46-1.39,0-.14-.02-.28-.04-.43m10.23,5.02c.05.15.08.2.08.22h0c-.03-.08-.08-.22-.08-.22m.11.31s-.02-.05-.03-.08c.09-.04.18-.09.18-.09,0,0,.01-.01.02-.01l-.14.31-.02-.13Zm14.27-10.56l.07,1.1c.35.86,1.31.58,2.01.38,1.21-.35,1.75-.39,2.04.24.6,1.34-.05,1.99-1.48,2.72l-.78.63c-.24.57.1,1.1.38,1.53.16.23.41.62.34.75-.35.68-2.04.32-3.15.07-1.06-.23-1.74-.39-2.21-.01-.58.45-.53,1-.5,1.34v.37c-.17.53-.91.55-2.06.42-.53-.06-1.03-.09-1.3.29-1.05-.45-2.53-.59-4.39-.42-.05-.09-.09-.18-.18-.25-.23-.22-.63-.37-1.11-.45.08-.22.14-.44.14-.7,0-.11-.03-.23-.04-.34,1.8.09,5.54.21,6.46-1.98.09-.21.12-.42.12-.63,0-.46-.19-.89-.41-1.27,1.87,0,4.79-.09,4.94-2,0-.09,0-.18,0-.25,0-1.17-.64-1.73-1.2-2.03.16-.12.35-.25.5-.35.16-.11.34-.23.53-.36.84.08,1.13.28,1.21.37.14.15.12.43.07.84m-3.87-4.65c.59-.26,1.95-.89,2.67-.6.12.05.29.15.42.46.38.92-.08,1.55-.98,2.23-.1.04-.19.11-.27.2-.17.12-.34.25-.54.37-.71.47-1.32.88-1.52,1.45-.1.29-.22.37.03.55l.66.47c.58.2.98.4.93,1.19-.03.3-.58.78-3.98.74-.85,0-1.23-.01-1.41.46-.16.4.06.7.3,1.04.2.28.66.93.54,1.22-.58,1.39-4.17,1.2-5.34,1.14l-.5.02c-.26-.22-.57-.35-.92-.4.19-.44.33-.89.27-1.31.53-.45.92-.93,1.2-1.41h0c.12-.09.59-.38,1.04-.65,2.03-1.23,4.08-3.55,3.69-3.74-.35-.16-2.73,1.5-4.03,2.33.1-.69.07-1.27.05-1.6-.02-.15.08-.41.08-.41.18-.47.51-1.36-.15-2.01-.58-.59-1.32-.36-1.78-.16.35-.55.83-1.15,1.29-1.27.47-.12.78.09,1.24.44l.87.51c.66.18,1.1-.37,1.62-1,.79-.97,1.52-1.75,2.44-1.58.25.04.36.27.51.72.1.3.25.76.74.83,0,0,.83-.23.83-.23m-3.77-8.38c-.07.03-.14.04-.14.04.1-.03.12-.04.14-.04m-5.33.48s-.1.09-.1.09c.08-.07.09-.09.1-.09m-3.99,2.42l.35-.03.59-.58c.17-.34,1.12-1.44,1.48-1.53,0,.05.54.48.54.48l1.04.65,1.36-.79c.54-.48,1.55-1.36,2.06-1.23.55.13.69.42.85.76l.64.72,1.09-.13c1.01-.34,1.97-.59,2.61.18.2.25.19.42.17.55-.13.62-1.17,1.35-1.65,1.61-.15.09-.28.23-.33.41-.05.16-.03.35.05.51.19.35.36.85.38,1.25-1.77-.3-2.98,1.18-3.71,2.06,0,0-.23.27-.38.43-.11-.08-.23-.16-.23-.16-.38-.28-.9-.69-1.62-.74-.05-.44-.26-.98-.79-1.51.28-.2.61-.42.99-.65,1.19-.72,2.5-1.58,2.28-1.83-.21-.26-1.72.31-2.99.86-.62.27-1.13.63-1.44.87-1.2-.37-2.39.3-3.16.75,0,0-.35.18-.54.28-.24-.45-.53-.94-.9-1.35.75-.6,1.21-1.22,1.27-1.85m-1.21-1.76l.12-.13s.01.03.01.03c0,0-.03,0-.13.1m-4.27-2.09l1.24-.86c.54-.6,1.37-1.48,2.17-1.49.39,0,.78.19,1.19.61.27.27.4.53.4.77-.02.58-.74,1.22-1.22,1.65l-.8,1.17c0,.55.41.84.69,1.03.33.23.51.36.48.85-.03.3-.39.79-1.24,1.36-.09.03-.18.08-.23.15-.43.25-.94.53-1.59.8-.19.09-.46.34-.52.54-.09.38.11.66.27.86.22.29.34.49.24.8-.17.53-.94,1.03-1.33,1.24-.19-.04-.41-.07-.59-.08,0,0-.1-.01-.2-.02-.02-.16-.04-.35-.04-.35-.06-.84-.15-1.98-1.04-2.46-.4-.21-.84-.2-1.26-.06.28-.37.6-.76.95-1.16,1.07-1.18,2.25-2.34,2.02-2.62-.32-.39-1.82.64-3.06,1.84-.5.5-.93,1.03-1.27,1.48-.06-.91-.29-1.78-.71-2.62-.04-.08-.08-.22-.08-.22-.06-.25-.19-.65-.49-1.01.41-.44.79-.37,1.17-.27l.4.07c.57,0,.74-.49.98-1.16.29-.8.81-2.28,1.68-2.61l.36-.05c.13.06.27.46.35.7.16.44.39,1.12,1.09,1.12m-7.49-10.24l.82.54c.58.13.95-.35,1.37-.91.69-.92,1.32-1.66,2.15-1.45.74.18.8.91.65,2.17-.07.53-.11.94.22,1.23,0,0,.69.26.69.26.42.07.93.16,1.37.96.35.64-1.07,1.89-1.91,2.43-.25.16-.37.46-.3.75.08.29.33.49.62.51.18,0,.23.08.28.15.09.15.1.37.09.56h-.85c-1.46.56-2.11,2.36-2.49,3.44,0,0-.04.1-.07.18-.36-.08-.9-.14-1.46.12.35-.75.67-1.61.67-2.3,0-.21-.04-.41-.09-.58-.27-.7-.84-.93-1.37-1.03.58-.73,1.28-1.79,1.28-3.15,0-.68-.19-1.41-.69-2.17-.44-.67-1.07-.65-1.6-.51.03-.21.1-.35.1-.59,0-.34-.05-.7-.12-1.05.22.07.4.23.63.45m-.72,1.9s.02.04.02.06c0,.15-.05.3-.09.44.04-.11.03-.34.07-.49m-7.91,5.79c.29-.41.97-.53,1.47-.54.23,0,.54-.18.66-.39.27-.47.01-.97-.46-1.86-.51-.98-1.37-2.62-.69-3.01.22-.13.48-.07.88.04l1.33-.03c.38-.22.54-.7.79-1.49.25-.8.73-2.29,1.3-2.22.49.06.85.3,1.1.7.54.91.41,2.42.19,3.01-.1.27-.03.65.19.84.38.34.82.1,1.07-.04.14-.07.54-.29.68-.26,1.02,1.55.11,3.03-.92,4.26-.31.39-.58.71-.36,1.15.23.45.7.45,1.04.45.51,0,.79.03.87.24.11.36-.48,1.93-1.38,3.34-.31.13-.59.3-.79.42-.66.26-1.67.75-2.57,1.54.24-.95.75-3.07.95-4.87.2-1.83.23-3.27-.3-3.22-.25.02-.47,1.72-.88,3.55-.4,1.81-.91,3.73-1.05,4.25-.16,0-.3,0-.45-.01,0,0-.36-.03-.62-.06h0c.27-.58.78-1.65.78-2.78,0-.92-.35-1.88-1.45-2.63-.59-.39-1.11-.27-1.52-.02.02-.13.06-.27.15-.37m-1.89,1.72l.85.78c.49.11.82-.24,1.1-.54l.53-.45c1.23.84.99,2.04.21,3.7l-.27.99c.17.98,1.33,1.01,2.09,1.03l.77.06c-.28.42-.49.91-.64,1.47-.56.13-1.01.39-1.34.79-.46.55-.59,1.25-.59,1.94-.53-.47-1.13-.84-1.81-.97-.14-.41-.33-1.06-.5-1.81-.39-1.66-.79-3.63-1.24-3.51-.28.08-.24,1.92,0,3.58.1.68.24,1.32.37,1.82-.41.13-.73.33-.98.6-.15-.39-.32-.75-.55-.98-.26-.27-.53-.38-.74-.41-.21-.44-.42-.82-.66-1.16.32-.26.4-.49.41-.6.06-.36-.12-.58-.58-1.1-1.09-1.27-1.56-2.08-1.42-2.41.16-.34.25-.32.66-.27.3.05.75.12,1.1-.23.33-.32.28-.77.21-1.52-.12-1.17-.18-2.44.5-2.62.95-.25,1.97,1.1,2.51,1.82m-4.35,1.43s.02,0,.02,0c0,.08.01.19.01.19-.01-.13-.03-.17-.03-.18m-5.27-9.99c.03.09.06.2.06.2-.04-.13-.06-.17-.06-.2m-.72,1.5c.07-.32.25-.41.95-.47.38-.03.81-.06,1.07-.44.25-.39.1-.77-.19-1.51-.34-.89-1-2.54-.27-2.88.93-.43,2.22,1.21,2.78,1.91l.7.67c.24.09.69.14,1.04-.51.14-.24.21-.36.79-.18.67.21.83,2.16.69,3.49-.04.3.13.58.4.7.27.12.59.04.79-.18.2-.22.51-.46.63-.46.22.41.1,2.55-.12,4.01-.53-.27-1.11-.4-1.76-.23-.43.12-.73.35-.97.63-.73-.38-1.36-.32-1.82-.15-.06-1.49-.32-4.09-2.35-4.39-.95-.14-1.54.55-1.94,1.18-.28-.33-.53-.77-.42-1.19m-5.5,7.36c.05-.46.46-.66.98-.87.33-.14.67-.28.79-.67l-.32-1.05c-.74-1.37-1.39-2.85-.48-3.5,1.22-.85,2.23-.17,3.56,1.3.47.51.75.82,1.19.79.54-.04.8-.53,1.09-1.04.21-.38.56-1.01.83-.97,1.1.16,1.19,2.61,1.23,3.53.02.63.04,1.02.49,1.2.38.16.69-.06.87-.2.33-.23.66-.42,1.23-.09-.05.3-.07.61-.07.91,0,.48.04.92.08,1.29,0,0,0,.14.02.27-.62-.06-1.4.03-1.86,1.06-.1.22-.14.45-.14.68,0,.74.45,1.52.96,2.19-.46-.23-.91-.35-1.3-.42-.14-.51-.48-1.49-1.13-2.6-.52-.9-2.18-2.76-2.62-2.29-.43.47.83,1.98,1.27,2.68.35.56.61,1.09.8,1.54-.51-.29-1.12-.48-1.77-.2-.99.44-.88,1.57-.76,2.28-1.68-.25-1.97-.48-1.97-.6,0-.17.19-.36.48-.63l.8-1.27c.05-.76-.72-.98-1.61-1.24-1.52-.44-2.77-.91-2.64-2.09m-3.34,4.6c1.04-1.11,2.21-.51,3.52.33l1.18.53c.07,0,.17-.01.27-.03.16,1.15,1.54,1.53,2.96,1.73-.38.94-.54,2.48.67,4.62,0,0-.01.01-.01.01-.31.33-.4.78-.29,1.26.22.94,1.23,1.95,2.45,2.44,1.51.61,2.98.65,4.25.24l.26.07.14-.2s.1-.03.14-.04c.09.87.53,1.52.95,1.94-.32.27-.53.6-.67.94-.42-.18-.94-.27-1.52-.13-1.09-1.41-2.41-.99-3.08-.72-.33-.76-1.01-2.03-1.99-2.45h-1.39c-.22.09-.41.18-.57.31-.59-1.22-1.45-2.04-2.45-2.28-.09-.03-.18-.03-.27-.04.07-.37.11-.77,0-1.2-.21-.77-1.06-.82-1.82-.87-1.44-.09-1.91-.26-1.91-1.1l.26-.75.36-1.22-.72-1.23c-.91-1.05-1.23-1.61-.72-2.16m-.78,6.18s0-.11-.01-.14c.01,0,0,0,.01.14m-12.17-.51c.09-.24.55-.46.89-.63l.77-.49c.31-.34.22-.78.09-1.44-.3-1.49-.32-2.42.45-2.74.36-.15.7.16,1.28.89l1.03.87c.77.19,1.17-.58,1.47-1.13.12-.25.39-.75.54-.82.53.02.79,1.75.91,2.48.14.92.22,1.47.77,1.63.69.22,1.17-.35,1.47-.68.22-.29.37-.43.46-.41.47.15.55,1.41.6,2.15.05.84.09,1.44.52,1.77.25.19.89.52,1.8-.13.71.69,1.88.78,2.57.82,0,0,.41.05.6.08,0,.01,0,.03,0,.04,0,.34-.12.68-.21.87-2.4-.84-4.24-.41-5.13-.2l-.39.08-.5.02-1.37.53s-.04.08-.08.12c-.67-.49-1.56-1.25-2.25-2.1-1.1-1.37-1.61-3-2.01-2.84-.82.31.24,2.5.82,3.32.84,1.2,2.47,2.69,3.48,3.27l.02.07c0,.56.07,1.18.22,1.79-.85.32-1.1,1.19-1.22,1.62,0,0-.02.05-.03.09-.13.03-.3.06-.3.06-.03,0-.06.01-.09.02-.17-.25-.33-.92-.4-1.22-.16-.69-.29-1.29-.71-1.6-.58-.44-1.35-.15-2.08.12,0,0-.67.2-.77.23-.19-.16-.42-.3-.42-.42,0-.03.03-.08.08-.11-.34-.44-.95-1.2-.95-1.2-.02-.02-.04-.04-.06-.06.33-.3,1-.73,1.27-.75.3-.02.66-.23.74-.52.14-.57-.32-.79-.85-1.03-2.75-1.28-3.16-2.03-3.01-2.43m-.64,12.94c-.97.39-1.4.52-1.63.25l-.16-.43c.05-.4.53-.84.71-.96.22-.16.33-.44.26-.72-.06-.27-.28-.47-.55-.51-.63-.1-2.36-.56-2.85-1.48-.19-.37-.16-.81.09-1.34.38-.79.92-.79,1.89-.49h.97c.46-.25.41-.76.36-1.16-.09-.76-.04-1.03.24-1.12.7-.26,1.67.22,2.3.82l1.02,1.32.41.55c.54.47,1.3.19,2.02-.08,0,0,.82-.24.87-.25-.02,0-.03.02-.03.06,0,.2.15.7.15.7.1.42.22.89.4,1.3-.63.27-1.23.75-1.45,1.67-.06.21-.07.41-.07.61,0,1.37,1.2,2.13,1.75,2.48,0,0,.07.05.14.1.03.13.06.25.06.39,0,.09-.02.16-.05.23-.29.18-.53.37-.69.5-.56.05-1.68.04-2.34,1.08-.01.02-.01.04-.02.06-.28-.31-.6-.6-.94-.86.53-.67,1.08-1.67.48-2.44-.93-1.23-2.32-.66-3.35-.25m-1.9,10.36l-.98.45c-.89.6-1.58.98-2.38.25-.25-.21-.33-.33.24-1.05.25-.32.67-.86.26-1.38l-.99-.47c-1.49-.4-2.32-.82-2.15-1.8.08-.46.26-.57.31-.61.38-.26,1.17-.08,1.75.05l1.38.02c.62-.34.5-1.06.42-1.59-.18-1-.05-1.03.21-1.08.78-.17,1.82.72,2.43,1.25.53.46.85.73,1.29.64.55-.11.68-.65.75-.96.12-.51.2-.67.49-.72.51-.09,1.63.9,2.53,2.19.01.03.04.05.06.08.04.09.09.2.12.27.06.12.23.72.23.72l.42,1.11c-.6-.2-1.23-.37-1.86-.47-1.4-.22-5.6,0-5.62.56-.01.52,3.74.53,4.92.69.28.04.56.09.85.15-.53.35-.63,1-.63,1.63,0,.2.01.39.02.56,0,0,0,.18,0,.36l-.16-.09c-.77-.53-2.04-1.37-3.3-.68-.16-.06-.35-.09-.61-.08m1.53,7.43h.13c-.1,0-.12,0-.13,0m6.66-.87c-.16.22-.24.41-.32.61l-.19-.12c-.2-.13-.26-.39-.47-.28l-.93.46c-.64.52-2.31,1.91-3.11,1.19-.26-.24-.31-.53-.36-.98l-.4-1.1-1.32-.27c-1.22.06-1.83-.04-2.09-.77-.07-.18-.12-.44-.04-.6.14-.29.73-.45,1.16-.58l1.15-.62.05-1.51-.09-.77c.46-.28,1.11.11,1.91.65.6.41,1.23.84,1.82.41.53-.4.5-1.14.46-1.86-.01-.32-.04-.91.06-1.06.45-.28,1.52-.46,2.13.02.03.03.06.01.09.03.58.55,1.18.95,1.59,1.16-.24.7.05,1.65.76,2.35.23.22.64.52,1.19.73-.36.27-.61.57-.66.92-.01.06-.01.11-.01.16,0,.22.1.38.19.55-.8-.02-1.8.17-2.6,1.27m10.85,3.75c-.03-.05-.05-.11-.05-.11-.17-.35-.38-.82-.87-.93-.21-.05-.51-.06-.85.21-.57.44-.82,1.13-1.09,1.85-.41,1.1-.79,2.14-2.2,2.43-.58.11-.58.09-.72-.43-.1-.39-.35-1.3-1.37-1.24l-1.54.59c-.58.28-2.12,1.01-2.45.82-.59-.87-.04-1.66,1.11-2.74l.6-.66c.33-.58-.07-1.08-.29-1.35-.34-.43-.54-.68-.02-1.41.59-.81,1.32-.77,2.13-.63.43.06.89.14,1.22-.23.14-.16.19-.33.19-.49,0-.41-.37-.77-.53-.91,0,0-.28-.31-.33-.37.08,0,.25-.13.25-.13,1.1-.58,2.67.29,3.26.61.3.16.54.3.85.17.19-.07.36-.25.42-.43.12-.37-.04-.66-.26-1.04l-.36-.8c.23-.23.59-.27.84-.23.3.03.58.04.84.05-.19.3-.37.64-.37.99,0,.16.04.33.14.5.22.41.58.7,1.01.91-1.68.51-2.58,1.17-3.82,2.11-.73.55-2.23,1.85-2.15,2.21.07.35,4.27-2.1,6.03-2.81.54-.22,1.49-.46,2.25-.62-.03.06-.07.12-.09.19-.52,1.81-1.23,3.36-1.76,3.89m-.25-6.52c.1,0,.35-.42.35-.42l.43-1.12c-.11-.65-.74-.65-1.36-.65-.32,0-.64-.01-.96-.04,0,0,0,0-.01,0-.04,0-.1,0-.14-.01-.98-.1-1.88-.4-2.2-1.3.01.18.44-.29.44-.29.32-.3.93-.87.45-1.48l-1.01-.39c-1.24-.16-1.63-.4-1.63-.98,0-.12.3-.27.51-.39.34-.18.86-.46.86-1.03l-.65-1c-.85-.75-1.15-1.21-.71-1.97.18-.31.37-.39.5-.41.67-.15,1.72.6,2.12.88l.38.23c.71.28,1.06-.45,1.22-.8,0,0,.14-.25.23-.4,1.34.42,1.65,1.63,1.71,2.36.03.33.28.59.61.63.32.03.63-.16.71-.48.17-.53.47-1.11.64-1.2.39.35,1.35,1.94,1.25,3.86-.02.32.19.61.49.69.3.09.62-.05.78-.32.15-.26.41-.55.53-.58.27.17.87,1.22.99,3.96l-.04.37c-.24.13-1.42-.28-2.49-1.02-.02-.01-.04,0-.06-.01-.07-.04-.12-.07-.18-.11-.73-.46-1.62-1.06-2.48-1.72,0,0-2.18-1.58-2.48-1.11-.31.48,1.75,2.25,1.75,2.25.87.67,1.76,1.28,2.5,1.74.07.04.12.08.19.12.79.77,1.45,1.65,1.54,2.03-2.52.85-4.3.91-4.78.13m-2.25,31.34l.06.1s-.06-.06-.08-.09c0,0,.02,0,.03-.01m1.03,6.15c-1.43,0-2.26-.6-2.28-.61-.28-.21-.69-.15-.92.1-.02.03-.54.58-2,.58s-2.5-.49-3.24-1.53c-.43-.61-.65-2.2-.02-3.39.56-1.06,1.63-1.6,3.19-1.59,1.21.01,2.87.59,3.55,1.54l2.88,4.2c.13.19.35.27.51.44-.37.14-.9.27-1.67.27m19.97,0c-1.29,0-2.03-.57-2.06-.6-.28-.23-.71-.17-.95.11-.02.03-.49.56-1.79.56-1.16,0-2.3-.58-2.97-1.53l-2.9-4.24c-.13-.17-.29-.3-.43-.46.33-.11.77-.21,1.39-.21,1.3,0,2.04.57,2.07.59.29.23.72.17.96-.11.02-.02.48-.55,1.79-.55,1.16,0,2.29.58,2.97,1.53l2.88,4.2c.13.18.3.32.45.49-.33.11-.77.22-1.4.22m-6.11-7.65c-.53.13-.92.32-1.18.51-.47-.25-1.28-.6-2.43-.6-.06,0-.11,0-.19,0,1.25-.73,2.91-.67,3.77-.57,0,.23,0,.44.02.65m4.92,1.48l.13.22c-.06-.06-.12-.13-.19-.2.02,0,.04-.01.06-.02m3.78-.96c-.48-.25-1.29-.6-2.43-.6-.3,0-.57.02-.83.06.38-.74,1.01-1.57,1.95-1.57.39,0,.7.12.93.36.41.41.56,1.13.6,1.6-.08.05-.17.1-.23.15m17.15,7.14c-1.29,0-2.04-.58-2.07-.6-.28-.23-.72-.17-.96.11-.02.02-.48.55-1.79.55-1.16,0-2.3-.58-2.98-1.53l-2.9-4.24c-.11-.16-.26-.28-.39-.42.33-.13.8-.25,1.49-.25,1.29,0,2.03.57,2.06.59.29.23.72.17.96-.11.03-.02.48-.55,1.8-.55,1.16,0,2.29.58,2.97,1.53-.01-.03,2.91,4.24,2.91,4.24.1.15.29.27.43.42-.34.13-.82.25-1.53.25m-12.07-31.64c-3.57,5.46-1.8,13.79-.94,15.31l.12.19c.85,1.52,2.03,3.6,6.89,5.64l.56.24c3.2,1.34,4.4,1.86,5.03,2.58-.93.12-1.53.38-1.89.6-.75-.44-1.59-.72-2.46-.72-.53,0-.95.07-1.3.17-.17-.39-.33-.74-.36-.8-.76-1.53-2.14-2.11-3.47-2.67-1.73-.73-3.52-1.49-4.62-4.33-.58-1.5-.84-3.51-.95-5.38-.08-1.32-.51-5.54-.85-5.52-.34.01-.59,4.28-.51,5.63.11,1.96.4,4.12,1.04,5.77,1.3,3.38,3.56,4.33,5.35,5.09,1.36.56,2.43,1.02,2.93,2.34l.03.22c-.49-.22-1.19-.44-2.12-.44-1.36,0-2.2.37-2.64.66-.77-.46-1.63-.73-2.53-.73-.3,0-.58.02-.83.06-.1-.63-.35-1.48-.95-2.1-.49-.51-1.16-.77-1.91-.77-1.56,0-2.87,1.2-3.59,3.3-.01.04-.01.09-.02.13-.03.02-.07.04-.1.06-.71-.41-1.52-.65-2.33-.67-.02-.27-.03-.56,0-.87,0-.02.03-.04.03-.06.03-.1.03-.19,0-.28.06-.51.18-1.04.43-1.53.22-.42.51-.92.81-1.44,1.59-2.74,1.68-5.33,1.33-5.34-.37,0-1.64,3.17-2.5,4.65-.32.53-.6,1.04-.84,1.49-.25.48-.4.99-.49,1.49-1.5-.18-4.81-.25-6.24,2.43-.02.03-.02.06-.03.1,0,.01-.02.01-.03.01-.74-.43-1.59-.68-2.46-.68-1.23,0-1.96.36-2.39.67-.06-.03-.14-.06-.21-.1,1.77-1.22,4.65-2.67,6.68-3.69l1.08-.54c3.02-1.54,5.01-4.74,5.63-8.99.05-.37,0-.54-2.3-4.19-1.03-1.65-2.32-3.72-2.54-4.26-.44-1.13-3.28-5.7-6.65-6.9.64-.13,1.32-.32,2.08-.58.42-.15.7-.46.8-.86.01-.08.03-.16.03-.24,0-.34-.16-.71-.36-1.08.46.09.93.16,1.3-.04.35-.2.78-.64.73-1.6-.03-.65-.09-1.36-.21-2.05.03,0,.04.01.07.02.37.05,1.86,1.16,1.74,5.3-.17,6.08,6.13,10.37,6.56,10.47.23.05.58-.06.75-.21.47-.44.64-1.46.64-2.73,0-1.55-.26-3.48-.56-5.15-1.08-6.15-4.7-7.19-6.06-7.59l-.35-.1c.56-.46,1.25-1.12,1.62-1.93.09.05.14.13.23.16,1.05.46,2.28,0,3.2-.38v.12c-.02,1.21-.07,3.73,1.6,6.5l1.95,3.25.99,1.66c.15.27.47.37.76.29,1.08-.29,1.93-6.15,1.93-6.21.01-.27.03-.59.03-.94,0-1.38-.24-3.24-.89-4.93,0,0,.01,0,.03-.01.08.1.19.18.32.22.36.1.74-.11.84-.46.33-1.14.54-2.05.7-2.76.01.21.03.41.03.56l.27,1.42c.41.49.87.27,2.11-.34.43-.21.98-.46,1.51-.7-.79,1.09-1.54,2.4-2.14,4.03-.6,1.6-.68,3.43-.76,5.06-.05,1.16-.1,2.26-.34,2.88-.04.08-.05.16-.05.25,0,.25.13.47.36.6.3.16.67.07.87-.2.74-1.03,2.43-3.19,4.02-4.79-.32.71-.6,1.38-.66,1.75,0,.04,0,.08,0,.11,0,.22.1.42.28.55.22.16.5.18.73.05.06-.04,1.05-.53,2.64-.39,0,.01,0,.05,0,.06-1.34.49-4.08,1.82-6.22,5.11m4.32-6.39c.32-.73.76-1.65,1.16-2.45.22-.35.66-.66,1.43-1.04.23-.11,2.02-1.17,1.76-1.62-.25-.46-2.07.27-2.35.4-.88.42-1.89,1.05-2,1.11-.6.38-1.27.94-1.93,1.6-.18-.47-.27-1.14.14-1.65l.73-.51c.63-.29,1.19-.66,1.34-1.64.9.15,1.7.17,2.02,0,.6-.3.71-.9.77-1.27.09.03.17.05.17.05,1.06.28,3.04.82,4.51-.49.3-.26.45-.56.45-.88,0-.13-.14-.28-.2-.42.37.04.8.09,1.24.07.03.08.06.18.06.33,0,.03,0,.07,0,.11-.02.28-.31.51-.71.81l-.79.81c-.05.13-.07.25-.07.36,0,.4.26.68.42.86.18.2.33.35.33.66,0,.04,0,.08-.01.13-.08.79-.9,1.03-2.39,1.2l-1.4.44c-.18.19-.23.38-.23.56,0,.41.31.77.47.93l.28.4s-.2.22-.2.22c-.27.23-1.37.42-1.91.53l-.95.27c-.84-.08-1.55,0-2.12.13m16.66,8.76c-.35.52-.85.47-1.71.18l-.62-.14c-.45,0-.71.32-.91.56-.22.28-.43.53-.9.54-.53.03-1.23-.7-1.64-1.13l-.9-.65c-.6-.1-.85.43-.96.63-.16.31-.25.49-.85.41-.67-.08-1.34-1.72-1.66-2.51-.34-.83-.51-1.24-.93-1.4-.58-.22-.98.22-1.14.39-.52-.53-.93-2.48-1.12-4.01,1.01.37,2.56,1.03,3.47,1.69.75.55,2.14,1.71,2.53,1.39.38-.32-.87-1.87-1.74-2.49-.9-.66-1.81-1.22-2.68-1.64,2.6-.96,4.28-.75,4.55-.58-.02,0-.07.29-.07.29l-.08.7c.1.68.74.75,2.15.91.66.08,2.01.23,2.28.44,0,0,0,0,0,.01,0,.06-.07.22-.21.49-.11.24-.25.51-.25.8,0,.12.03.24.08.37.19.45.7.59,1.47.81.4.11,1.23.35,1.39.54-.04.01-.23.22-.23.22-.21.22-.53.54-.53.98,0,.07,0,.15.03.22l.71.87c.46.37.64.56.64.76,0,.11-.07.22-.16.35m-2.22-5.49c.13.04.16.03.16.04h0s-.16-.04-.16-.04m6.55-1.2c-.12.28-.37.34-1.17.24l-1.22.19-.38.98c-.04.32-.07.37-.16.43-.3.19-.78.12-1.28.04l-.51-.07c-.35-.14-.73-.27-1.09-.36,0,0-.21-.08-.43-.14.14-.26.32-.61.32-1.03,0-.28-.08-.58-.31-.87-.44-.58-1.49-.73-3.16-.92,0,0-.53-.08-.9-.13.04-.15.08-.29.08-.44,0-.36-.12-.73-.5-1.04-.59-.48-2.04-.59-3.85-.2-.1-.23-.26-.59-.38-.85.08-.01.16-.02.16-.02.77-.09,1.98-.24,2.78-.89,2.09,1.18,4.65,1.05,5.9.51.12-.04.2-.09.28-.15.22.29.48.59.85.72l1.55-.1c.47-.1,1.43-.3,1.66-.12.57.46.5.6.31,1.01l-.19,1.18c.12.4.47.55.85.71.89.38,1.1.6.79,1.31m1.99-1.67s.2.08.34.14c-.12.02-.19-.08-.34-.14m4.72-1.68h-.01c.01-.08.03-.16.03-.16-.01.04-.01.08-.01.11v.05Zm2.55-1.98c-.06.4-.2.68-.41.82-.47.33-1.37.15-1.91.04l-1.15.04c-.37.25-.42.69-.47,1.16-.06.53-.12.99-.39,1.1-.35.17-1.43-.32-1.89-.53-.64-.29-1.1-.49-1.49-.11,0,0-.3.64-.3.64-.06.26-.1.42-.17.52-.42-.51-1.03-.78-1.34-.91.01-.03.03-.07.03-.07.1-.23.27-.58.27-.99,0-.48-.22-1.05-.95-1.65-.73-.59-1.87-.35-2.8-.16l-.84.14c-.07-.03-.31-.4-.45-.73.37-.08.68-.18.99-.29.29-.03.56-.06.86-.08,1.24-.08,5.96.73,5.97.11.01-.49-2.79-1.04-4.69-1.22,1.02-.91,1.37-1.91,1.54-2.45,0,0,.06-.2.06-.21,0,.02.15-.09.21-.13.17.09.29.32.41.76.1.35.19.71.57.87.4.17.69-.03,1.28-.39.75-.48,2.52-1.6,3.17-.92.49.52.36.86.21,1.25-.26.62-.16,1.05.29,1.28l.67.16c2.11.31,2.88.85,2.72,1.94"/>
</svg>