<?xml version="1.0" encoding="UTF-8"?>
<svg id="Layer_1" data-name="Layer 1" xmlns="http://www.w3.org/2000/svg" viewBox="0 0 12.01 2.89">
  <defs>
    <style>
      .cls-1 {
        stroke: #f4a354;
      }

      .cls-1, .cls-2, .cls-3 {
        fill: none;
        stroke-miterlimit: 10;
        stroke-width: .48px;
      }

      .cls-2 {
        stroke: #e56681;
      }

      .cls-3 {
        stroke: #579aca;
      }

      .cls-4 {
        fill: #555554;
        stroke-width: 0px;
      }
    </style>
  </defs>
  <g>
    <path class="cls-4" d="m2.91,2.43V.12h.46v1.12c.12-.15.29-.2.47-.2.39,0,.68.34.68.71s-.29.71-.68.71c-.18,0-.37-.06-.47-.19v.16h-.46Zm.79-.34c.19,0,.32-.16.32-.34s-.14-.34-.32-.34-.32.16-.32.34.14.34.32.34Z"/>
    <path class="cls-4" d="m5.05.33c.15,0,.27.12.27.27s-.12.27-.27.27-.27-.12-.27-.27.12-.27.27-.27Zm-.23,2.1v-1.36h.46v1.36h-.46Z"/>
    <path class="cls-4" d="m7.06,2.43h-.46v-.77c0-.16-.06-.25-.21-.25s-.26.15-.26.34v.68h-.46v-1.36h.46v.17c.09-.12.24-.2.42-.2.36,0,.51.25.51.62v.77Z"/>
    <path class="cls-4" d="m8.91,2.43h-.46v-.16c-.09.14-.29.19-.47.19-.39,0-.68-.33-.68-.71s.29-.71.68-.71c.17,0,.35.05.47.2V.12h.46v2.31Zm-.79-1.02c-.19,0-.32.16-.32.34s.14.34.32.34.32-.16.32-.34-.14-.34-.32-.34Z"/>
    <path class="cls-4" d="m10.75,1.81h-1.06c0,.16.11.32.29.32.16,0,.27-.11.27-.21h.47c-.08.36-.37.54-.73.54-.47,0-.79-.28-.79-.71s.34-.71.79-.71c.41,0,.76.25.76.68,0,.03,0,.06,0,.09Zm-.44-.22s-.02-.25-.3-.25-.31.25-.31.25h.61Z"/>
    <path class="cls-4" d="m11.51,1.75v.68h-.46v-1.36h.46v.17c.07-.1.19-.2.36-.2.04,0,.1.01.14.03v.42h0c-.05-.06-.11-.08-.19-.08-.17,0-.31.18-.31.34Z"/>
  </g>
  <circle class="cls-1" cx="1.45" cy=".85" r=".61"/>
  <circle class="cls-3" cx="1.45" cy="2.04" r=".61"/>
  <circle class="cls-2" cx=".85" cy="1.45" r=".61"/>
  <path class="cls-3" d="m.96,1.67c.05-.07.11-.12.19-.17.29-.17.66-.07.83.22"/>
  <path class="cls-1" d="m.92,1.15c-.17-.29-.07-.66.22-.83.29-.17.66-.07.83.22"/>
</svg>