<?xml version="1.0" encoding="UTF-8"?>
<svg id="Layer_1" data-name="Layer 1" xmlns="http://www.w3.org/2000/svg" xmlns:xlink="http://www.w3.org/1999/xlink" viewBox="0 0 12.53 5.34">
  <defs>
    <style>
      .cls-1 {
        stroke: url(#linear-gradient-2);
      }

      .cls-1, .cls-2 {
        fill: none;
        stroke-width: .15px;
      }

      .cls-2 {
        stroke: url(#linear-gradient);
      }

      .cls-3 {
        fill: #777575;
      }

      .cls-3, .cls-4, .cls-5, .cls-6 {
        stroke-width: 0px;
      }

      .cls-4 {
        fill: #e36f2d;
      }

      .cls-5 {
        fill: #323a41;
      }

      .cls-6 {
        fill: #989898;
      }
    </style>
    <linearGradient id="linear-gradient" x1="-901.96" y1="-579.15" x2="-902.03" y2="-579.16" gradientTransform="translate(314103.6 50599.48) scale(348.23 87.36)" gradientUnits="userSpaceOnUse">
      <stop offset="0" stop-color="#979797"/>
      <stop offset=".23" stop-color="#f2f2f2"/>
      <stop offset=".51" stop-color="#fff"/>
      <stop offset="1" stop-color="#979797"/>
    </linearGradient>
    <linearGradient id="linear-gradient-2" x1="-901.96" y1="-579.15" x2="-902.03" y2="-579.16" gradientTransform="translate(314103.6 50599.48) scale(348.23 87.36)" gradientUnits="userSpaceOnUse">
      <stop offset="0" stop-color="#979797"/>
      <stop offset=".2" stop-color="#f2f2f2"/>
      <stop offset=".57" stop-color="#fff"/>
      <stop offset="1" stop-color="#979797"/>
    </linearGradient>
  </defs>
  <g id="Page-1">
    <g id="Home---Desktop-Copy-2">
      <g id="Group">
        <g id="Group-Copy-2">
          <path id="Oval-7-Copy-2" class="cls-2" d="m6.74,3.25c3.41-.67,5.96-1.64,5.7-2.19-.26-.54-3.24-.45-6.65.22C2.38,1.95-.17,2.92.09,3.47c.26.54,3.24.45,6.65-.22h0Z"/>
          <path id="Oval-7-Copy-3" class="cls-1" d="m6.74,3.25c3.41-.67,5.96-1.64,5.7-2.19-.26-.54-3.24-.45-6.65.22C2.38,1.95-.17,2.92.09,3.47c.26.54,3.24.45,6.65-.22h0Z"/>
          <path id="Fill-9" class="cls-4" d="m6.49,4.22c-.88,0-1.64-.31-2.03-.78.3.83,1.1,1.43,2.03,1.43s1.73-.6,2.03-1.43c-.4.47-1.16.78-2.03.78"/>
          <path id="Fill-10" class="cls-4" d="m6.48,1.18c.88,0,1.64.31,2.03.78-.3-.83-1.1-1.43-2.03-1.43s-1.73.6-2.03,1.43c.4-.47,1.16-.78,2.03-.78"/>
          <path id="Fill-11" class="cls-3" d="m4.96,5.34c-.19,0-.35-.14-.36-.32,0-.19.14-.35.32-.36.19,0,.35.14.36.32,0,.19-.14.35-.32.36Z"/>
          <path id="Fill-12" class="cls-3" d="m4.69.91c-.12,0-.22-.09-.22-.2,0-.12.09-.22.2-.22s.22.09.22.2-.09.21-.2.22Z"/>
          <path id="Fill-8" class="cls-3" d="m8.07.66c-.18,0-.33-.14-.35-.32,0-.18.14-.34.32-.35s.33.14.35.32c0,.18-.14.34-.32.35Z"/>
          <g id="Group-Copy-_-hub" data-name="Group-Copy-+-hub">
            <g id="Group-Copy">
              <path id="Fill-1" class="cls-5" d="m2.54,2.97c0,.2-.01.26-.06.31-.04.04-.1.06-.16.06v.12c.09,0,.2-.03.27-.09.07-.07.1-.18.1-.33v-.74h-.15v.68"/>
              <path id="Fill-2" class="cls-5" d="m3.66,2.88c0,.09,0,.16,0,.22h-.13v-.14h-.01c-.04.07-.12.15-.27.15-.13,0-.28-.07-.28-.36v-.48h.15v.45c0,.16.05.26.18.26.1,0,.17-.07.2-.14,0-.02.01-.05.01-.07v-.5h.15v.59"/>
              <path id="Fill-3" class="cls-5" d="m3.94,2.55c0-.1,0-.19,0-.27h.14v.14h.01c.06-.1.16-.16.29-.16.2,0,.35.17.35.42,0,.3-.18.44-.37.44-.11,0-.2-.05-.25-.13h0v.44h-.15v-.88h0Zm.15.22s0,.04,0,.06c.03.1.12.17.22.17.16,0,.25-.13.25-.32,0-.16-.09-.3-.25-.3-.1,0-.2.07-.23.18,0,.02-.01.04-.01.06v.14h0Z"/>
              <path id="Fill-4" class="cls-5" d="m4.99,2.29l.18.48c.02.05.04.12.05.17h0s.03-.11.05-.17l.16-.48h.16l-.22.58c-.11.28-.18.42-.28.51-.07.06-.15.09-.18.1l-.04-.12s.09-.04.13-.07c.04-.03.09-.09.12-.17,0-.01.01-.03.01-.04s0-.02-.01-.04l-.31-.75h.17"/>
              <path id="Fill-5" class="cls-5" d="m5.99,2.05v.23h.21v.11h-.21v.44c0,.1.03.16.11.16.04,0,.07,0,.09-.01v.11s-.07.02-.12.02c-.07,0-.12-.02-.16-.06-.04-.04-.06-.12-.06-.21v-.44h-.13v-.11h.13v-.2l.14-.04"/>
              <path id="Fill-6" class="cls-5" d="m6.48,2.72c0,.2.13.28.28.28.11,0,.17-.02.23-.04l.02.11c-.05.02-.14.05-.27.05-.25,0-.41-.17-.41-.41s.15-.44.39-.44c.27,0,.34.23.34.38,0,.03,0,.05,0,.07h-.58Zm.44-.11c0-.1-.04-.24-.21-.24-.15,0-.22.14-.23.24h.44Z"/>
              <path id="Fill-7" class="cls-5" d="m7.29,2.54c0-.1,0-.18,0-.26h.13v.16h.01c.04-.11.13-.18.23-.18.02,0,.03,0,.04,0v.14s-.03,0-.05,0c-.11,0-.18.08-.2.19,0,.02,0,.04,0,.07v.44h-.15v-.56"/>
            </g>
            <path id="hub" class="cls-6" d="m7.96,3.1h.15v-.49s0-.05.01-.07c.02-.08.1-.15.2-.15.14,0,.18.11.18.24v.46h.15v-.48c0-.28-.17-.35-.28-.35-.05,0-.11.02-.15.04-.05.02-.08.06-.1.1h0v-.5h-.15v1.18Zm1.6-.8h-.15v.49s0,.05-.01.07c-.02.06-.1.13-.19.13-.13,0-.18-.1-.18-.26v-.44h-.15v.47c0,.28.15.35.28.35.14,0,.23-.09.27-.15h0v.13h.14c0-.06,0-.14,0-.22v-.58h0Zm.36.8v-.13h.01c.06.11.15.15.27.15.18,0,.36-.14.36-.43,0-.25-.14-.41-.34-.41-.13,0-.22.06-.27.15h0v-.51h-.15v.97c0,.07,0,.15,0,.21h.13Zm.02-.47s0-.04,0-.06c.03-.11.12-.18.22-.18.16,0,.24.14.24.3,0,.18-.09.31-.25.31-.11,0-.19-.07-.22-.17,0-.02,0-.04,0-.05v-.14h0Z"/>
          </g>
        </g>
      </g>
    </g>
  </g>
</svg>