<?xml version="1.0" encoding="UTF-8"?>
<svg id="Layer_1" data-name="Layer 1" xmlns="http://www.w3.org/2000/svg" viewBox="0 0 16.37 3.72">
  <defs>
    <style>
      .cls-1 {
        fill: #616262;
      }

      .cls-1, .cls-2 {
        stroke-width: 0px;
      }

      .cls-2 {
        fill: #f37826;
      }
    </style>
  </defs>
  <path class="cls-1" d="m10.02,2.82c-.08,0-.16-.02-.24-.05-.07-.04-.13-.09-.17-.15l-.02.18h-.22V.97l-.21-.04v-.16h.47v.78c.04-.06.1-.11.16-.14.07-.03.15-.05.23-.05.11,0,.21.03.3.09.09.07.15.16.19.26.05.13.07.26.07.4v.03c0,.12-.02.24-.07.36-.04.1-.1.18-.19.24-.09.06-.19.09-.29.08Zm-.07-.21c.12,0,.21-.04.27-.13.06-.09.09-.2.09-.34v-.03c0-.1-.01-.19-.04-.28-.02-.07-.06-.14-.12-.19-.06-.05-.13-.07-.2-.07-.07,0-.14.02-.2.06-.05.04-.1.09-.13.15v.62c.03.06.07.12.13.15.06.04.13.06.2.06h0Zm1.49.21c-.24,0-.46-.13-.55-.34-.05-.12-.08-.24-.08-.37v-.03c0-.13.02-.25.08-.37.05-.1.12-.19.22-.25.28-.18.65-.11.84.17.02.03.03.05.05.08.05.12.08.24.08.37v.03c0,.13-.02.25-.08.37-.1.22-.31.35-.55.34Zm0-.2c.07,0,.15-.02.2-.07.06-.05.1-.11.12-.18.03-.08.04-.17.04-.26v-.03c0-.09-.01-.18-.04-.27-.02-.07-.07-.13-.13-.18-.12-.09-.29-.09-.41,0-.06.05-.1.11-.12.18-.03.08-.04.17-.04.26v.03c0,.09.01.18.04.26.02.07.07.13.13.18.06.05.13.07.21.07Zm1.5.2c-.24,0-.46-.13-.55-.34-.05-.12-.08-.24-.08-.37v-.03c0-.13.02-.25.08-.37.05-.1.12-.19.22-.25.28-.18.65-.11.84.17.02.03.03.05.05.08.05.12.08.24.08.37v.03c0,.13-.02.25-.08.37-.1.22-.31.35-.55.34h0Zm0-.2c.07,0,.15-.02.2-.07.06-.05.1-.11.12-.18.03-.08.04-.17.04-.26v-.03c0-.09-.01-.18-.04-.27-.02-.07-.07-.13-.12-.18-.12-.09-.29-.09-.41,0-.06.05-.1.11-.12.18-.03.08-.04.17-.04.26v.03c0,.09.01.18.04.26.02.07.07.13.13.18.06.05.13.07.21.07h0Zm.78.17v-.16l.21-.04V.97l-.21-.04v-.16h.47v1.82l.21.04v.16h-.68Zm.9,0v-.16l.14-.02h0s-.41-.53-.41-.53l.13-.2.57.72.2.03v.16h-.63Zm-.45-.41l-.09-.2.61-.61h0s-.15-.02-.15-.02v-.16h.6v.16l-.18.04-.79.8Z"/>
  <path class="cls-2" d="m9.09,3.72c-.25-.07-.42-.18-.53-.33-.11-.16-.16-.36-.16-.55v-.39c0-.14-.03-.25-.1-.33-.06-.08-.16-.12-.3-.12v-.28c.13,0,.23-.04.3-.12.06-.08.1-.19.1-.33v-.39c0-.2.05-.39.16-.55.1-.15.28-.26.53-.33l.08.22c-.13.03-.23.12-.3.24-.06.13-.09.28-.09.42v.39c0,.12-.02.24-.08.35-.05.1-.14.18-.24.24.1.05.19.14.24.24.05.11.08.23.08.35v.39c0,.15.03.29.09.42.06.12.17.2.3.24l-.08.22Z"/>
  <path class="cls-2" d="m15.29,3.72l-.08-.22c.13-.04.23-.12.29-.24.06-.13.09-.27.09-.42v-.39c0-.12.03-.25.09-.36.06-.1.15-.19.26-.23-.11-.05-.2-.13-.26-.23-.06-.11-.09-.23-.09-.36v-.39c0-.15-.03-.29-.09-.42-.06-.12-.17-.2-.29-.24l.08-.22c.25.07.42.18.52.33.11.16.16.36.16.55v.39c0,.14.03.25.1.33.07.08.16.12.3.12v.28c-.14,0-.24.04-.3.12-.06.08-.1.19-.1.33v.39c0,.2-.05.39-.16.55-.1.15-.28.26-.52.33Z"/>
  <path class="cls-1" d="m.4,1.45v1.48c0,.12-.02.21-.07.27s-.12.09-.22.09h-.11v-.14h.07c.07,0,.12-.01.14-.05.02-.04.04-.09.03-.14v-1.52h.16Zm.48,0v.88c0,.1.02.19.08.27.05.07.14.1.28.1.12,0,.23-.05.3-.15.08-.11.11-.24.11-.38v-.72h.16v1.35h-.15v-.24h0c-.04.09-.11.16-.19.21-.08.05-.18.08-.28.07-.16,0-.28-.04-.36-.13s-.11-.21-.12-.37v-.88h.16Zm1.88-.04c.19,0,.34.07.44.2.11.13.16.3.16.51,0,.21-.05.38-.16.51-.11.13-.25.2-.44.2-.1,0-.2-.03-.29-.08-.08-.05-.15-.13-.18-.22h0v.75h-.16v-1.84h.15v.26h0c.04-.09.1-.17.19-.22.09-.05.19-.08.29-.08Zm-.47.71c0,.17.04.31.12.41.08.11.2.16.35.16.13,0,.25-.06.32-.16.08-.12.12-.26.12-.41,0-.15-.04-.29-.12-.41-.07-.11-.2-.17-.33-.16-.15,0-.27.05-.35.14s-.12.24-.12.43h0Zm1.36-.67l.44,1.14.42-1.14h.16l-.58,1.54c-.03.08-.07.16-.13.23-.05.05-.12.07-.23.07h-.06s-.05,0-.07-.01v-.14h0s.03,0,.05,0c.02,0,.04,0,.06,0,.06,0,.12-.02.15-.06.04-.04.08-.14.14-.3l-.54-1.34h.17Zm1.44-.4v.4h.27v.14h-.27v.92c0,.07.01.11.04.14.03.02.06.03.1.03h.06s.05,0,.07,0v.14s-.05,0-.07,0-.05,0-.07,0c-.11,0-.19-.02-.23-.06-.04-.04-.06-.12-.06-.22v-.93h-.24v-.14h.24v-.4h.16Zm1.01.37c.17,0,.33.07.43.2.11.13.16.31.16.53v.03h-1.03c0,.14.04.27.13.38.08.1.19.15.32.15.1,0,.19-.03.27-.08.08-.07.13-.16.15-.26h.17c-.04.16-.11.28-.2.36-.1.08-.22.12-.39.12-.19,0-.34-.06-.45-.19s-.16-.3-.16-.52c0-.21.05-.38.16-.51.11-.13.26-.2.44-.2h0Zm.43.62c0-.12-.05-.24-.13-.34-.14-.17-.39-.19-.56-.04-.01.01-.02.02-.04.03-.08.1-.13.22-.14.35h.87Zm1.01-.6h.04v.16h-.02c-.13,0-.26.05-.35.14-.09.09-.14.22-.13.35v.71h-.16v-1.34h.15v.32h0c.04-.1.1-.18.19-.25.08-.06.18-.09.28-.09h0Z"/>
</svg>